<svg id="Layer_1" enable-background="new 0 0 512 512" height="512" viewBox="0 0 512 512" width="512" xmlns="http://www.w3.org/2000/svg"><g><g><path d="m256 17.7c-95.1 0-153.7 53.7-153.9 53.7 0 0-2.4 3-2.9 5.1-3.7 16.4-7.2 38.4-7.2 54.5 0 136.5 115.1 247.1 251.6 247.1 52.6 0 111-25.2 150.2-55.5.9-.7 3.7-5.2 3.7-5.2.2-1.1 5.6-22.8 5.6-52.6.1-136.5-110.6-247.1-247.1-247.1z" fill="#9bd069"/><g><path d="m445.2 423.9c25.3-30.1 43.7-66.4 52.4-106.5-42.2 33.6-95.7 53.7-153.9 53.7-136.5 0-247.2-110.6-247.2-247.1 0-18 1.9-35.6 5.6-52.6-56.8 45.3-93.3 115.1-93.3 193.4 0 60.6 21.8 116.1 58 159.1z" fill="#6ec186"/></g></g><g><path d="m389.9 200.1h64.3v17.3h-64.3z" fill="#fff"/><circle cx="461.3" cy="208.1" fill="#d80a61" r="17.8"/><path d="m62 198.9h64.3v17.3h-64.3z" fill="#a5c8cd"/><path d="m158.6 249.7h-49.9c-8.9 0-16.2-7.2-16.2-16.2v-45.9c0-8.9 7.2-16.2 16.2-16.2h49.9z" fill="#734a9b"/><path d="m403 249.7h-49.9v-78.3h49.9c8.9 0 16.2 7.2 16.2 16.2v45.9c0 9-7.3 16.2-16.2 16.2z" fill="#734a9b"/><path d="m128.3 121.6c-1.8 8.6-2.7 17.5-2.7 26.6.8-8.9 1.7-17.8 2.7-26.6z" fill="#d80a61"/><path d="m386.1 346.5v-198.2c0-72-58.3-130.3-130.3-130.3-.2 0-.4 0-.6 0-28.6.1-51.5 23.6-51.5 52.1v276.3z" fill="#d80a61"/><path d="m295.6 24.2c-12.5-4-25.9-6.2-39.8-6.2-72 0-130.3 58.3-130.3 130.3v243.5h79.5v-243.5c.1-58.1 38.1-107.3 90.6-124.1z" fill="#a51f6b"/><path d="m355 98.1c-1.6-7.3-3.9-14.3-7-20.9l-35.7-42c-16.1-10.9-35.6-17.2-56.5-17.2-4.7 0-9.4.3-14 1-21.8 3-37.9 21.9-37.9 44v190.9h152.7c.3-1.6.5-3.3.5-5v-109.5z" fill="#afe6ff"/><path d="m231.5 262.2c-9.3 0-17.4-4.8-22.1-12h-54.9v8.2c0 14.6 11.8 26.4 26.4 26.4h150c13.2 0 24.2-9.8 26.1-22.5v-9.6z" fill="#a51f6b"/><path d="m231.5 252.7c-14.6 0-26.4-11.8-26.4-26.4v-129.4c0-31.3 14.2-59.3 36.5-77.9-49.2 6.9-87.1 49.2-87.1 100.4v129.4c0 14.6 11.8 26.4 26.4 26.4h150c13.2 0 24.2-9.8 26.1-22.5z" fill="#73c8f0"/><path d="m204 183.6 144-106.5c-7.8-17.1-20.3-31.6-35.7-42l-108.3 80.2z" fill="#d2f0ff"/><path d="m205.1 114.5-50.6 37.4v68.3l50.6-37.4z" fill="#afe6ff"/><path d="m355 98.1-151 111.6v31.1c0 4.9 5.6 7.7 9.5 4.8l143.7-106.2v-20c0-7.3-.8-14.5-2.2-21.3z" fill="#d2f0ff"/><path d="m154.5 249.2c0 11.7 8.7 22.6 20.1 25.2l38.9-28.8c-5.2-4.8-8.4-11.7-8.4-19.3v-17.4l-50.6 37.4v2.5z" fill="#afe6ff"/><circle cx="50.7" cy="206.9" fill="#d80a61" r="17.8"/><path d="m333.2 325.4h-154.4c-8.3 0-15-6.7-15-15 0-8.3 6.7-15 15-15h154.4c8.3 0 15 6.7 15 15 0 8.3-6.7 15-15 15z" fill="#f1d333"/><path d="m185.9 310.4h140.2" fill="none" stroke="#87ba45" stroke-linecap="round" stroke-miterlimit="10.17" stroke-width="9.153"/><path d="m258.6 109.4c-32.3 0-58.5-26.2-58.5-58.5 0-21.9 17.7-39.6 39.6-39.6h37.8c21.9 0 39.6 17.7 39.6 39.6 0 32.3-26.2 58.5-58.5 58.5z" fill="#73c8f0"/><path d="m258.6 98.1c-32.3 0-58.5-26.2-58.5-58.5 0-21.9 17.7-39.6 39.6-39.6h37.8c21.9 0 39.6 17.7 39.6 39.6 0 32.3-26.2 58.5-58.5 58.5z" fill="#d80a61"/></g><path d="m402.9 398.2-147.1-32.5-82.9 18.4v113.6c26 9.3 54 14.3 83.1 14.3 75.7 0 144-34.2 189.6-88.5-10.9-12.4-25.7-21.5-42.7-25.3z" fill="#d80a61"/><path d="m255.8 365.7-146.5 32.5c-17.1 3.8-31.9 12.9-42.7 25.4 28.4 33.8 65.6 59.9 108.2 74.7v-22.5c0-37.3 25.9-69.6 62.3-77.6l82.7-18.4z" fill="#a51f6b"/><path d="m396.7 344h-164.8v52.1h164.8c6.8 0 12.4-5.5 12.4-12.4v-27.4c0-6.8-5.5-12.3-12.4-12.3z" fill="#734a9b"/><path d="m233.6 344h-117c-6.8 0-12.4 5.5-12.4 12.4v27.4c0 6.8 5.5 12.4 12.4 12.4h116.9z" fill="#5e3881"/><path d="m358.6 469.1h-205.2c-12.9 0-23.4-10.5-23.4-23.4 0-12.9 10.5-23.4 23.4-23.4h205.1c12.9 0 23.4 10.5 23.4 23.4.1 13-10.4 23.4-23.3 23.4z" fill="#a51f6b"/><path d="m358.6 462.2h-205.2c-12.9 0-23.4-10.5-23.4-23.4 0-12.9 10.5-23.4 23.4-23.4h205.1c12.9 0 23.4 10.5 23.4 23.4.1 12.9-10.4 23.4-23.3 23.4z" fill="#415050"/><g><circle cx="154.2" cy="438.8" fill="#6ec186" r="13.4"/><circle cx="194.9" cy="438.8" fill="#9bd069" r="13.4"/><circle cx="235.6" cy="438.8" fill="#f1d333" r="13.4"/><circle cx="276.4" cy="438.8" fill="#e7a52e" r="13.4"/><circle cx="317.1" cy="438.8" fill="#d80a61" r="13.4"/><circle cx="357.8" cy="438.8" fill="#a51f6b" r="13.4"/></g></g></svg>