<svg id="Layer_1" enable-background="new 0 0 510 510" height="512" viewBox="0 0 510 510" width="512" xmlns="http://www.w3.org/2000/svg"><g><g><g><path d="m255 0c-98.131 0-158.58 55.352-158.747 55.445 0 0-2.513 3.137-2.983 5.222-3.818 16.948-7.385 39.663-7.385 56.238 0 140.833 118.763 254.972 259.596 254.972 54.231 0 114.568-25.992 154.949-57.243.903-.699 3.769-5.396 3.769-5.396.178-1.087 5.8-23.477 5.8-54.239.001-140.832-114.166-254.999-254.999-254.999z" fill="#da4a54"/></g><path d="m345.459 364.679c-140.833 0-255-114.167-255-255 0-18.615 2.007-36.753 5.795-54.234-58.645 46.72-96.254 118.747-96.254 199.555 0 70.416 28.542 134.166 74.688 180.312.771.771 1.547 1.538 2.329 2.299l355.967-.008c35.05-34.143 60.388-78.384 71.216-128.365-43.56 34.696-98.725 55.441-158.741 55.441z" fill="#d80a61"/></g><g><path d="m306.966 30.649h-78.075v374.52h155.176v-297.419c0-42.582-34.519-77.101-77.101-77.101z" fill="#fff"/></g><g><g><g><path d="m306.187 0h-70.363c-22.069 0-39.96 17.891-39.96 39.96v108.465h110.323c25.049 0 45.355-4.928 45.355-29.977v-73.093c0-25.049-20.306-45.355-45.355-45.355z" fill="#fff"/></g></g></g><g><path d="m196.406 118.448v-73.093c0-25.049 20.306-45.355 45.355-45.355h-47.282c-25.049 0-45.355 20.306-45.355 45.355v73.093c0 25.049 20.306 29.977 45.355 29.977h47.282c-25.049.001-45.355-4.928-45.355-29.977z" fill="#e6dcdc"/></g><g><path d="m225.795 405.168v-297.418c0-42.582-12.959-77.101 29.622-77.101h-61.729c-42.582 0-77.101 34.519-77.101 77.101v297.419h109.208z" fill="#e6dcdc"/></g><path d="m356.809 382.729h-108.113c-33.557 0-60.76 27.203-60.76 60.759l.787 57.798c21.136 5.675 43.35 8.714 66.277 8.714 68.863 0 131.839-27.448 177.983-72.397-10.629-31.885-40.717-54.874-76.174-54.874z" fill="#55696e"/><g><path d="m270.015 382.729h-86.938c-31.86.015-31.878-.102-35.869.245-32.826 2.421-60.167 24.567-70.192 54.636 30.736 29.961 69.007 52.229 111.703 63.69v-38.294c0-42.321 32.756-76.968 74.294-80.032 1.922-.166 2.923-.226 7.002-.245z" fill="#415050"/></g><g><g><g><path d="m293.006 388.657c0 20.99-17.016 38.006-38.006 38.006-20.99 0-38.006-17.016-38.006-38.006v-85.127h76.012z" fill="#ffbe82"/></g></g></g><g><g><g><path d="m357.723 139.833c-.251-25.285-20.819-45.65-46.105-45.65h-54.778c-30.523 0-58.264 11.902-78.845 31.313v156.616c0 39.358 31.622 71.649 70.978 71.945.275.002.551.003.827.003 60.182 0 108.969-48.787 108.969-108.969z" fill="#ffbe82"/></g></g></g><g><g><g><path d="m384.067 206.413c0 13.972-11.327 25.299-25.299 25.299l-1-64.135h1c13.972 0 25.299 11.327 25.299 25.299z" fill="#ff965a"/></g></g></g><g><g><g><path d="m116.599 206.413c0 13.972 11.327 25.299 25.299 25.299v-64.135c-13.972 0-25.299 11.327-25.299 25.299z" fill="#ff965a"/></g></g></g><g><g><g><path d="m204.246 204.469v9.268c0 4.963 4.024 8.987 8.987 8.987s8.987-4.024 8.987-8.987v-9.268z" fill="#ff965a"/></g></g></g><g><g><g><path d="m277.639 204.469v9.268c0 4.963 4.024 8.987 8.987 8.987s8.987-4.024 8.987-8.987v-9.268z" fill="#ff965a"/></g></g></g><g><g><g><path d="m213.233 215.235c-4.963 0-8.987-4.024-8.987-8.987v-6.628l3.607-5.419-3.607-5.419v-7.112c0-4.963 4.024-8.987 8.987-8.987s8.987 4.024 8.987 8.987v24.579c0 4.963-4.024 8.986-8.987 8.986z" fill="#373c41"/></g></g></g><g><g><g><path d="m286.626 215.235c-4.963 0-8.987-4.024-8.987-8.987v-8.408l3.607-5.419-3.607-5.419v-5.333c0-4.963 4.024-8.987 8.987-8.987s8.987 4.024 8.987 8.987v24.579c0 4.964-4.024 8.987-8.987 8.987z" fill="#373c41"/></g></g></g><g><g><g><g><path d="m225.073 168.19h-26.208c-4.963 0-8.987-4.024-8.987-8.987 0-4.963 4.024-8.987 8.987-8.987h26.208c4.963 0 8.987 4.024 8.987 8.987 0 4.963-4.024 8.987-8.987 8.987z" fill="#fff"/></g></g></g></g><g><g><g><g><path d="m299.964 168.19h-26.208c-4.963 0-8.987-4.024-8.987-8.987 0-4.963 4.024-8.987 8.987-8.987h26.208c4.963 0 8.987 4.024 8.987 8.987 0 4.963-4.024 8.987-8.987 8.987z" fill="#fff"/></g></g></g></g><g><g><g><path d="m236.306 230.635c-2.234 7.872 1.826 16.448 9.59 19.033 1.562.52 3.234.802 4.971.802s3.409-.282 4.971-.802c7.764-2.585 11.825-11.16 9.591-19.033l-10.896-38.397c-1.048-3.693-6.282-3.693-7.33 0z" fill="#ff965a"/></g></g></g><g><path d="m259.863 94.375c-65.11-.125-117.965 52.609-117.965 117.719v34.065c0 66.323 59.522 117.629 126.212 106.339-50.912-8.661-89.685-52.959-89.685-106.339.027-47.783-.004-69.96-.009-80.767-.003-8.555 6.992-15.569 15.547-15.588h.011 52.3c30.436 0 55.109-24.673 55.109-55.109 0 0-7.949-.255-41.52-.32z" fill="#ff965a"/></g><g><path d="m197.635 50.634c-30.783 0-55.737 24.954-55.737 55.737v35.944 69.78c7.982 0 14.452-6.471 14.452-14.452v-17.704c0-20.779 16.845-37.624 37.624-37.624h52.3c30.436 0 55.109-24.673 55.109-55.109v-36.572z" fill="#fff"/></g><g><path d="m285.246 265.72h-9.439l-24.858 5.161-24.858-5.161h-8.349c-2.801 0-5.039 2.445-4.665 5.221.715 5.311 2.505 10.28 5.144 14.683l50.333 14.916c11.367-5.58 19.602-16.562 21.357-29.599.374-2.776-1.864-5.221-4.665-5.221z" fill="#a51f6b"/></g><g><path d="m218.226 285.621c6.774 11.299 19.136 18.865 33.268 18.865 6.122 0 11.91-1.424 17.058-3.951-2.213-13.882-14.236-24.493-28.742-24.493-8.561-.001-16.258 3.696-21.584 9.579z" fill="#da4a54"/></g><g><path d="m275.808 270.573c0 3.02-2.448 5.468-5.468 5.468h-38.78c-3.02 0-5.468-2.448-5.468-5.468v-4.853h49.716z" fill="#fff"/></g><g><path d="m207.854 203.228c-1.992 0-3.607-1.615-3.607-3.607v-10.838c0-1.992 1.615-3.607 3.607-3.607 1.992 0 3.607 1.615 3.607 3.607v10.838c0 1.992-1.615 3.607-3.607 3.607z" fill="#fff"/></g><g><path d="m281.247 201.448c-1.992 0-3.607-1.615-3.607-3.607v-10.838c0-1.992 1.615-3.607 3.607-3.607 1.992 0 3.607 1.615 3.607 3.607v10.838c0 1.992-1.615 3.607-3.607 3.607z" fill="#fff"/></g><g><path d="m307.348 29.735h-94.31v21.015h94.31c25.049 0 45.355 20.306 45.355 45.355v-21.014c0-25.049-20.306-45.356-45.355-45.356z" fill="#55696e"/></g><g><path d="m214.215 29.736h-18.574c-25.049 0-45.355 20.306-45.355 45.355v21.014c0-25.049 20.306-45.355 45.355-45.355h18.574z" fill="#415050"/></g><g fill="#b1e4f9"><path d="m340.791 277.667v-32.66h-45.377v-13.296h-10.924v24.22h45.377v32.66h19.872c1.546-3.547 2.909-7.192 4.076-10.924z"/><path d="m358.465 214.507h-49.514v10.925h49.622z"/><path d="m358.067 174.415h-29.67v12.544h-11.468v10.925h22.392v-12.545h18.854z"/></g><path d="m335.69 172.326c-.864-.365-1.814-.567-2.811-.567h-6.681l-23.128 6.376-15.831-6.376h-13.979c-3.988 0-7.222 3.233-7.222 7.222v21.27l14.942 32.277h10.561l11.528-2.869 7.952 2.869h21.858c3.988 0 7.222-3.233 7.222-7.222v-31.859z" fill="#50555a"/><g><path d="m287.238 171.759-21.2 28.491v25.055c0 3.988 3.233 7.222 7.222 7.222h7.721l45.217-60.768z" fill="#a0a0a5"/></g><g><path d="m311.022 232.527 29.079-39.08v-14.466c0-2.803-1.597-5.233-3.931-6.43l-44.628 59.977h19.48z" fill="#a0a0a5"/></g></g></svg>