<svg id="Layer_1" enable-background="new 0 0 510 510" height="512" viewBox="0 0 510 510" width="512" xmlns="http://www.w3.org/2000/svg"><g><g><g><g><path d="m255 0c-98.131 0-158.58 55.352-158.747 55.445 0 0-2.513 3.137-2.983 5.222-3.818 16.948-7.385 39.663-7.385 56.238 0 140.833 118.763 254.972 259.596 254.972 54.231 0 114.568-25.992 154.949-57.243.903-.699 3.769-5.396 3.769-5.396.178-1.087 5.8-23.477 5.8-54.239.001-140.832-114.166-254.999-254.999-254.999z" fill="#9bd069"/></g></g><g><path d="m345.459 364.679c-140.833 0-255-114.167-255-255 0-18.615 2.008-36.753 5.795-54.234-58.645 46.72-96.254 118.747-96.254 199.555 0 64.443 23.905 123.304 63.332 168.196l384.247-1.041c27.486-31.623 47.36-70.17 56.62-112.917-43.559 34.696-98.724 55.441-158.74 55.441z" fill="#6ec186"/></g></g><g><path d="m291.002 28.084c-69.682 2.993-124.633 60.356-124.633 130.102v128.282c0 19.338 15.676 35.014 35.014 35.014h175.127c20.93 0 37.898-16.968 37.898-37.898v-100.175c0-75.657-52.707-139.004-123.406-155.325z" fill="#fff"/></g><g><g><path d="m167.597 283.583v-100.174c0-75.657 52.707-139.004 123.405-155.325-11.57-2.671-23.621-4.083-36.002-4.083-88.038 0-159.408 71.369-159.408 159.407v100.174c0 20.931 16.967 37.898 37.898 37.898h72.005c-20.931.001-37.898-16.966-37.898-37.897z" fill="#afe6ff"/></g></g><g><g><path d="m341.277 274.318h-172.554c-11.13 0-20.153-9.023-20.153-20.153v-73.702c0-11.13 9.023-20.153 20.153-20.153h172.553c11.13 0 20.153 9.023 20.153 20.153v73.702c.001 11.13-9.022 20.153-20.152 20.153z" fill="#b1e4f9"/></g></g><g><g><path d="m341.277 248.316h-172.554c-11.13 0-20.153-9.023-20.153-20.153v-73.703c0-11.13 9.023-20.153 20.153-20.153h172.553c11.13 0 20.153 9.023 20.153 20.153v73.702c.001 11.131-9.022 20.154-20.152 20.154z" fill="#734a9b"/></g></g><g><g><path d="m199.573 228.163v-73.703c0-11.13 9.023-20.153 20.153-20.153h-51.003c-11.13 0-20.153 9.023-20.153 20.153v73.702c0 11.13 9.023 20.153 20.153 20.153h51.003c-11.13.001-20.153-9.022-20.153-20.152z" fill="#242e7a"/></g></g><g><g><path d="m211.859 321.481h86.282v42.563h-86.282z" fill="#55696e"/></g></g><g><g><path d="m211.859 363.388h86.282v42.563h-86.282z" fill="#415050"/></g></g><g><path d="m413.634 391.32h-226.224c-21.653 0-39.206 17.553-39.206 39.206v56.089c32.487 15.005 68.661 23.385 106.796 23.385 76.434 0 145.617-33.815 192.578-87.845-1.643-17.301-16.213-30.835-33.944-30.835z" fill="#afe6ff"/></g><g><path d="m63.332 423.196c23.693 26.978 52.991 48.912 86.075 63.982v-54.63c0-22.77 18.458-41.228 41.228-41.228h-87.14c-19.553 0-35.927 13.611-40.163 31.876z" fill="#b1e4f9"/></g><g><g><path d="m148.57 321.481h212.86v21.282h-212.86z" fill="#3c4646"/></g></g><g><g><g><path d="m166.79 85.745c-4.157 0-8.222-2.072-10.597-5.853l-29.498-46.958c-3.672-5.846-1.91-13.562 3.936-17.234 5.845-3.67 13.562-1.91 17.234 3.936l29.498 46.958c3.672 5.846 1.91 13.562-3.936 17.234-2.065 1.298-4.365 1.917-6.637 1.917z" fill="#b1e4f9"/></g></g><g><g><circle cx="137.28" cy="26.285" fill="#f1d333" r="26.285"/></g></g><g><g><path d="m348.999 85.745c-2.272 0-4.571-.619-6.637-1.917-5.846-3.672-7.608-11.388-3.936-17.234l29.498-46.958c3.672-5.846 11.388-7.608 17.234-3.936s7.608 11.388 3.936 17.234l-29.498 46.958c-2.375 3.781-6.441 5.853-10.597 5.853z" fill="#b1e4f9"/></g></g><g><g><circle cx="378.508" cy="26.285" fill="#f1d333" r="26.285"/></g></g></g><g><g><path d="m161.135 246.839c2.342.953 4.904 1.477 7.588 1.477h42.237l65.823-114.009h-50.678z" fill="#9dc6fb"/></g></g><g><g><path d="m233.913 248.316h25.339l65.823-114.009h-25.339z" fill="#b1e4f9"/></g></g><g><g><path d="m341.277 257.816h-172.554c-16.351 0-29.653-13.303-29.653-29.654v-73.702c0-16.351 13.302-29.653 29.653-29.653h172.554c16.351 0 29.653 13.302 29.653 29.653v73.702c0 16.352-13.302 29.654-29.653 29.654zm-172.554-114.009c-5.874 0-10.653 4.779-10.653 10.653v73.702c0 5.875 4.779 10.654 10.653 10.654h172.554c5.874 0 10.653-4.779 10.653-10.654v-73.702c0-5.875-4.779-10.653-10.653-10.653z" fill="#fff"/></g></g><g><g><path d="m310.593 238.816h-141.87c-5.874 0-10.653-4.779-10.653-10.654v-73.702c0-5.875 4.779-10.653 10.653-10.653h52.036v-19h-52.036c-16.351 0-29.653 13.302-29.653 29.653v73.702c0 16.351 13.302 29.654 29.653 29.654h141.87z" fill="#dafffb"/></g></g><g><path d="m224.451 55.765c-.043 0-.086 0-.13-.001-2.245-.048-4.275-1.346-5.261-3.364l-10.947-22.398h-28.833c-3.313 0-6-2.687-6-6s2.687-6 6-6h32.579c2.292 0 4.384 1.306 5.391 3.365l7.484 15.312 8.447-15.543c1.05-1.932 3.073-3.135 5.272-3.135h18.633l18.647-15.001c1.344-1.081 3.089-1.531 4.788-1.236s3.189 1.308 4.09 2.779l16.197 26.46 10.959-11.199c1.128-1.153 2.674-1.803 4.288-1.803h23.062c3.313 0 6 2.687 6 6s-2.687 6-6 6h-20.539l-14.579 14.899c-1.293 1.322-3.127 1.975-4.962 1.765-1.838-.208-3.478-1.252-4.443-2.83l-16.655-27.208-14.979 12.049c-1.066.857-2.393 1.325-3.761 1.325h-17.179l-12.297 22.629c-1.052 1.934-3.077 3.135-5.272 3.135z" fill="#a51f6b"/></g><path d="m323.101 455.684h-136.202c-8.971 0-16.244-7.273-16.244-16.244 0-8.971 7.273-16.244 16.244-16.244h136.201c8.971 0 16.244 7.273 16.244 16.244.001 8.972-7.272 16.244-16.243 16.244z" fill="#734a9b"/><path d="m189.87 439.44h130.26" fill="none" stroke="#ffd23c" stroke-linecap="round" stroke-miterlimit="10" stroke-width="7"/></g></svg>