<svg id="Layer_1" enable-background="new 0 0 511 511" height="512" viewBox="0 0 511 511" width="512" xmlns="http://www.w3.org/2000/svg"><g><g><path d="m255.5 13.562c-95.714 0-154.674 53.989-154.836 54.08 0 0-2.451 3.059-2.91 5.094-3.724 16.531-7.203 38.686-7.203 54.853 0 137.364 115.838 248.692 253.202 248.692 52.895 0 111.746-25.352 151.133-55.833.881-.682 3.677-5.264 3.677-5.264.173-1.06 5.658-22.898 5.658-52.903-.002-137.364-111.357-248.719-248.721-248.719z" fill="#da4a54"/><g><path d="m498.561 315.184c-42.486 33.841-96.292 54.075-154.831 54.075-137.364 0-248.719-111.355-248.719-248.719 0-18.156 1.958-35.847 5.652-52.898-.006.005.006-.005 0 0-57.2 45.569-93.883 115.822-93.883 194.639 0 67.941 27.241 129.519 71.397 174.408l177.187 70.595 177.452-70.594c32.261-32.773 55.571-74.542 65.745-121.506z" fill="#d80a61"/></g></g><g><path d="m219.432 372.949h72.001v63.739h-72.001z" fill="#11113f"/><path d="m94.582 451.936c43.375 36.839 99.551 59.064 160.918 59.064 61.048 0 117.353-22.116 160.898-59.064h-63.462l-2.932 1-3.068-1h-183.007l-3.019 2-2.981-2z" fill="#1e73be"/><g><g><g><path d="m109.848 323.645h-30.314c-6.138 0-11.113-4.976-11.113-11.113v-96.736c0-6.138 4.976-11.113 11.113-11.113h30.315c6.138 0 11.113 4.976 11.113 11.113v96.736c0 6.137-4.976 11.113-11.114 11.113z" fill="#1e73be"/></g><g><path d="m431.331 323.645h-30.315c-6.138 0-11.113-4.976-11.113-11.113v-96.736c0-6.138 4.976-11.113 11.113-11.113h30.315c6.138 0 11.113 4.976 11.113 11.113v96.736c0 6.137-4.975 11.113-11.113 11.113z" fill="#1e87dc"/></g></g><g><g><path d="m130.092 340.291h-30.315c-6.138 0-11.113-4.976-11.113-11.113v-130.028c0-6.138 4.976-11.113 11.113-11.113h30.315c6.138 0 11.113 4.976 11.113 11.113v130.028c0 6.137-4.976 11.113-11.113 11.113z" fill="#11113f"/></g><g><path d="m411.088 340.291h-30.315c-6.138 0-11.113-4.976-11.113-11.113v-130.028c0-6.138 4.976-11.113 11.113-11.113h30.315c6.138 0 11.113 4.976 11.113 11.113v130.028c0 6.137-4.975 11.113-11.113 11.113z" fill="#11113f"/></g></g></g><path d="m368.07 381.023 8.989-8.074c33.291-75.046 54.011-163.394 54.011-209.674.001-90.174-78.665-163.275-175.705-163.275-.545 0-1.086.015-1.629.019v381.004z" fill="#2896ff"/><path d="m142.337 381.023h113.028v-381.023c-97.04 0-175.706 73.101-175.706 163.275 0 46.28 20.721 134.628 54.011 209.674z" fill="#1e87dc"/><g><g><circle cx="191.471" cy="245.23" fill="#1e73be" r="45.29"/></g><g><path d="m166.517 171.158-14.143-14.143c10.443-10.443 24.328-16.194 39.096-16.194 14.769 0 28.653 5.751 39.096 16.194l-14.143 14.142c-6.665-6.665-15.527-10.336-24.954-10.336s-18.287 3.671-24.952 10.337z" fill="#1e73be"/></g><g><circle cx="191.471" cy="234.736" fill="#11113f" r="46.7"/></g><g><circle cx="191.471" cy="234.736" fill="#da2ea2" r="32.873"/></g><g><circle cx="191.471" cy="234.736" fill="#11113f" r="12.322"/></g><g><circle cx="182.058" cy="226.421" fill="#fff" r="9.412"/></g></g><g><g><g><path d="m274.567 367.538h-9v-15.218h9zm0-30.436h-9v-15.218h9zm0-30.436h-9v-15.218h9zm0-30.437h-9v-15.218h9zm0-30.436h-9v-15.218h9zm0-30.436h-9v-15.218h9zm0-30.436h-9v-15.218h9zm0-30.436h-9v-15.218h9zm0-30.436h-9v-15.218h9zm0-30.436h-9v-15.218h9zm0-30.436h-9v-15.219h9zm0-30.436h-9v-15.219h9z" fill="#1e87dc"/></g></g></g><g><path d="m253.736 372.949v18h114.964c2.867-5.892 5.655-11.902 8.36-18z" fill="#5fd2d0"/></g><path d="m255.365 372.949h-121.695c2.705 6.098 5.493 12.108 8.36 18h113.335z" fill="#25bbcc"/><path d="m129.351 453.012c0-9.015-7.308-16.323-16.323-16.323h-34.85c15.195 15.447 32.393 28.918 51.173 39.992z" fill="#00558c"/><path d="m432.816 436.688h-34.235c-9.015 0-16.323 7.308-16.323 16.323v23.276c18.517-10.984 35.511-24.313 50.558-39.599z" fill="#00558c"/><g><path d="m25.691 237.532h42.662v33.514h-42.662z" fill="#e7a52e"/></g><g><path d="m442.647 237.532h42.662v33.514h-42.662z" fill="#e7a52e"/></g><g><path d="m25.691 268.62h42.662v22.175h-42.662z" fill="#e28424"/></g><g><path d="m442.647 268.62h42.662v22.175h-42.662z" fill="#e28424"/></g><g><g><circle cx="328.48" cy="245.23" fill="#1e73be" r="45.29"/></g><g><path d="m303.526 171.158-14.143-14.143c10.443-10.443 24.328-16.194 39.096-16.194 14.769 0 28.653 5.751 39.096 16.194l-14.143 14.142c-6.665-6.665-15.527-10.336-24.954-10.336s-18.287 3.671-24.952 10.337z" fill="#1e73be"/></g><g><circle cx="328.48" cy="234.736" fill="#11113f" r="46.7"/></g><g><circle cx="328.48" cy="234.736" fill="#da2ea2" r="32.873"/></g><g><circle cx="328.48" cy="234.736" fill="#11113f" r="12.322"/></g><g><circle cx="319.067" cy="226.421" fill="#fff" r="9.412"/></g></g><path d="m329.966 468.372h-149.067l20-39.189h109.067z" fill="#e7a52e"/><g><path d="m346.936 451.936v28.604h-183.007v-28.604h-6v34.604h195.007v-34.604z" fill="#11113f"/></g></g></g></svg>