<svg id="Layer_1" enable-background="new 0 0 509.778 509.778" height="512" viewBox="0 0 509.778 509.778" width="512" xmlns="http://www.w3.org/2000/svg"><g><g><g><path d="m254.889 19.001c-94.432 0-152.603 53.266-152.763 53.356 0 0-2.419 3.018-2.871 5.025-3.674 16.31-7.107 38.168-7.107 54.119 0 135.524 114.287 245.361 249.811 245.361 52.187 0 110.249-25.012 149.109-55.085.869-.673 3.627-5.193 3.627-5.193.171-1.046 5.582-22.592 5.582-52.194 0-135.525-109.864-245.389-245.388-245.389z" fill="#b1e4f9"/></g><g><g><path d="m100.469 455.088h308.839c42.44-34.379 73.303-82.727 85.387-138.505-41.917 33.388-95.003 53.351-152.757 53.351-135.524 0-245.388-109.864-245.388-245.388 0-17.913 1.932-35.367 5.576-52.189-56.434 44.958-92.626 114.27-92.626 192.032 0 77.003 35.479 145.71 90.969 190.699z" fill="#9dc6fb"/></g></g></g><g><path d="m254.889 509.778c58.608 0 112.785-20.66 155.245-55.36h-310.513c42.297 34.601 96.358 55.36 155.268 55.36z" fill="#a0a0a5"/></g><g><g><path d="m248.896 44.224h16.488v66.177h-16.488z" fill="#a0a0a5"/></g><path d="m257.14 80.183-8.244 41.556 8.244 41.556c22.951 0 41.557-18.605 41.557-41.556s-18.606-41.556-41.557-41.556z" fill="#696e73"/><g><path d="m215.583 121.74c0 22.951 18.605 41.557 41.556 41.557v-83.114c-22.95 0-41.556 18.606-41.556 41.557z" fill="#50555a"/></g><g><path d="m391.005 423.129h-177.607l-9.034-91.328h213.765v64.203c0 14.981-12.144 27.125-27.124 27.125z" fill="#696e73"/></g><g><path d="m105.358 331.802h312.771v31.397h-312.771z" fill="#50555a"/></g><g><path d="m213.398 423.129h-80.916c-14.98 0-27.124-12.144-27.124-27.124v-64.203h108.04z" fill="#50555a"/></g><g><path d="m414.542 121.74h-253.997l-7.133 19.805v180.649c0 18.13 14.697 32.828 32.828 32.828h228.303c19.396 0 35.119-15.723 35.119-35.119v-163.044c-.001-19.396-15.724-35.119-35.12-35.119z" fill="#a0a0a5"/></g><g><path d="m154.826 319.903v-163.044c0-19.396.87-35.119.87-35.119h-55.957c-19.396 0-35.119 15.723-35.119 35.119v47.386l3 4.849-3 4.85v105.958c0 19.396 15.723 35.119 35.119 35.119h90.207c-19.397.001-35.12-15.723-35.12-35.118z" fill="#82878c"/></g><g><path d="m195.98 222.073 52.544-68.131c4.356-5.648 12.877-5.648 17.233 0l52.544 68.131c5.517 7.154.418 17.526-8.616 17.526h-105.089c-9.034 0-14.133-10.372-8.616-17.526z" fill="#82878c"/></g><g><circle cx="256.725" cy="209.095" fill="#696e73" r="25.494"/></g><g><circle cx="256.725" cy="204.245" fill="#50555a" r="25.494"/></g><g><circle cx="256.725" cy="204.245" fill="#d80a61" r="12.664"/></g><g><path d="m385.797 334.852h-258.144c-10.097 0-18.282-8.185-18.282-18.282v-42.879c0-10.097 8.185-18.282 18.282-18.282h258.144c10.097 0 18.282 8.185 18.282 18.282v42.879c0 10.096-8.185 18.282-18.282 18.282z" fill="#696e73"/></g><g><path d="m169.508 316.569v-42.879c0-10.097 8.185-18.282 18.282-18.282h-60.138c-10.097 0-18.282 8.185-18.282 18.282v42.879c0 10.097 8.185 18.282 18.282 18.282h60.138c-10.096.001-18.282-8.185-18.282-18.282z" fill="#50555a"/></g><g><path d="m256.725 320.437c-4.972 0-9.002-4.03-9.002-9.002v-32.609c0-4.972 4.03-9.002 9.002-9.002 4.972 0 9.002 4.03 9.002 9.002v32.609c0 4.971-4.031 9.002-9.002 9.002z" fill="#50555a"/></g><g><path d="m224.585 320.437c-4.972 0-9.002-4.03-9.002-9.002v-32.609c0-4.972 4.03-9.002 9.002-9.002 4.972 0 9.002 4.03 9.002 9.002v32.609c0 4.971-4.03 9.002-9.002 9.002z" fill="#50555a"/></g><g><path d="m192.446 320.437c-4.972 0-9.002-4.03-9.002-9.002v-32.609c0-4.972 4.03-9.002 9.002-9.002 4.972 0 9.002 4.03 9.002 9.002v32.609c0 4.971-4.03 9.002-9.002 9.002z" fill="#50555a"/></g><g><path d="m160.307 320.437c-4.972 0-9.002-4.03-9.002-9.002v-32.609c0-4.972 4.03-9.002 9.002-9.002 4.972 0 9.002 4.03 9.002 9.002v32.609c0 4.971-4.03 9.002-9.002 9.002z" fill="#373c41"/></g><g><path d="m128.168 320.437c-4.972 0-9.002-4.03-9.002-9.002v-32.609c0-4.972 4.03-9.002 9.002-9.002 4.972 0 9.002 4.03 9.002 9.002v32.609c0 4.971-4.03 9.002-9.002 9.002z" fill="#373c41"/></g><g><path d="m384.863 320.437c-4.972 0-9.002-4.03-9.002-9.002v-32.609c0-4.972 4.03-9.002 9.002-9.002 4.972 0 9.002 4.03 9.002 9.002v32.609c0 4.971-4.03 9.002-9.002 9.002z" fill="#50555a"/></g><g><path d="m352.724 320.437c-4.972 0-9.002-4.03-9.002-9.002v-32.609c0-4.972 4.03-9.002 9.002-9.002 4.972 0 9.002 4.03 9.002 9.002v32.609c0 4.971-4.031 9.002-9.002 9.002z" fill="#50555a"/></g><g><path d="m320.585 320.437c-4.972 0-9.002-4.03-9.002-9.002v-32.609c0-4.972 4.03-9.002 9.002-9.002 4.972 0 9.002 4.03 9.002 9.002v32.609c0 4.971-4.031 9.002-9.002 9.002z" fill="#50555a"/></g><g><path d="m288.446 320.437c-4.972 0-9.002-4.03-9.002-9.002v-32.609c0-4.972 4.03-9.002 9.002-9.002 4.972 0 9.002 4.03 9.002 9.002v32.609c0 4.971-4.031 9.002-9.002 9.002z" fill="#50555a"/></g><g><path d="m385.796 250.559h-185.265v9.699h185.265c7.407 0 13.434 6.026 13.434 13.433v42.878c0 7.407-6.026 13.433-13.434 13.433h-35.101v9.699h35.101c12.756 0 23.133-10.377 23.133-23.132v-42.878c0-12.755-10.377-23.132-23.133-23.132z" fill="#d2d2d7"/></g><g><path d="m351.74 339.701h-224.087c-12.755 0-23.132-10.377-23.132-23.132v-42.878c0-12.755 10.377-23.132 23.132-23.132h73.796v9.699h-73.796c-7.407 0-13.433 6.026-13.433 13.433v42.878c0 7.407 6.026 13.433 13.433 13.433h224.087z" fill="#b9b9be"/></g><g><path d="m248.896 47.94c2.389 1.083 5.034 1.702 7.829 1.702 3.122 0 6.061-.767 8.66-2.102v-25.7h-16.488v26.1z" fill="#82878c"/></g><g><circle cx="256.725" cy="19.001" fill="#e7a52e" r="19.001"/></g><g><circle cx="263.449" cy="12.34" fill="#ecc32e" r="9.5"/></g><g><path d="m134.06 213.945h-69.441v-9.699h69.441c9.256 0 16.786-7.53 16.786-16.786v-65.72h9.699v65.72c0 14.604-11.882 26.485-26.485 26.485z" fill="#b9b9be"/></g><g><path d="m449.617 213.945h-69.441c-14.604 0-26.485-11.881-26.485-26.485v-65.72h9.699v65.72c0 9.256 7.53 16.786 16.786 16.786h69.441z" fill="#b9b9be"/></g><g><path d="m110.157 84.99h37.136v37.136h-37.136z" fill="#50555a"/></g><g><path d="m139.977 66.12h-22.504c-4.041 0-7.316 3.276-7.316 7.316v11.554h37.136v-11.553c0-4.041-3.275-7.317-7.316-7.317z" fill="#696e73"/></g><g><path d="m255.874 485.707c-17.28 0-31.289-14.009-31.289-31.289v-31.289h62.578v31.289c0 17.28-14.008 31.289-31.289 31.289z" fill="#696e73"/></g><g><path d="m224.585 423.129h62.578v31.289h-62.578z" fill="#50555a"/></g></g></g></svg>