<svg id="Layer_1" enable-background="new 0 0 511 511" height="512" viewBox="0 0 511 511" width="512" xmlns="http://www.w3.org/2000/svg"><g><g><path d="m255.5 1c-98.131 0-158.58 55.352-158.747 55.445 0 0-2.513 3.137-2.983 5.222-3.818 16.948-7.385 39.663-7.385 56.238 0 140.833 118.763 254.972 259.596 254.972 54.231 0 114.568-25.992 154.949-57.243.903-.699 3.769-5.396 3.769-5.396.178-1.087 5.8-23.477 5.8-54.239.001-140.832-114.166-254.999-254.999-254.999z" fill="#f1d333"/><g><path d="m504.7 310.239c-43.559 34.696-98.724 55.441-158.741 55.441-140.833 0-255-114.167-255-255 0-18.615 2.007-36.753 5.795-54.234-.006.005.006-.005 0 0-58.645 46.719-96.254 118.746-96.254 199.554 0 140.833 114.167 255 255 255 121.17 0 224.116-84.98 249.2-200.761z" fill="#e7a52e"/></g></g><g><g><path d="m76.693 300.405h-1.166c-7.85 0-14.235-6.386-14.235-14.236v-187.655c0-7.85 6.386-14.236 14.235-14.236h1.166v-15h-1.166c-16.12 0-29.235 13.115-29.235 29.236v187.655c0 16.121 13.115 29.236 29.235 29.236h1.166z" fill="#2896ff"/></g><g><path d="m75.527 69.277c-.045 0-.09.003-.135.003v15.003c.045 0 .089-.007.135-.007h32.958v216.127h-32.958c-.046 0-.089-.006-.135-.007v15.003c.045 0 .09.003.135.003h47.958v-246.125z" fill="#1e87dc"/></g><g><path d="m432.475 69.277h-.607v15h.607c7.85 0 14.236 6.386 14.236 14.236v187.655c0 7.85-6.387 14.236-14.236 14.236h-.607v15h.607c16.121 0 29.236-13.115 29.236-29.236v-187.654c0-16.121-13.115-29.237-29.236-29.237z" fill="#2896ff"/></g><g><path d="m432.949 300.381c-.159.005-.314.024-.474.024h-32.958v-216.128h32.958c.16 0 .315.019.474.024v-15.012c-.158-.002-.315-.012-.474-.012h-47.958v246.127h47.958c.159 0 .316-.009.474-.012z" fill="#1e87dc"/></g><g><path d="m382.213 56.444h-254.819v-29.929c0-14.644 11.871-26.515 26.515-26.515h201.788c14.644 0 26.515 11.871 26.515 26.515v29.929z" fill="#734a9b"/></g><g><path d="m390.411 360.668h-271.976c-16.957 0-30.703-13.746-30.703-30.703v-271.977c0-16.957 13.746-30.703 30.703-30.703h271.976c16.957 0 30.703 13.746 30.703 30.703v271.976c0 16.957-13.746 30.704-30.703 30.704z" fill="#2896ff"/></g><g><path d="m211.739 329.964v-271.976c0-16.957 13.746-30.703 30.703-30.703h-124.007c-16.957 0-30.703 13.746-30.703 30.703v271.976c0 16.957 13.746 30.703 30.703 30.703h124.008c-16.957.001-30.704-13.746-30.704-30.703z" fill="#1e87dc"/></g><g><g><path d="m323.896 318.761h-138.946c-7.577 0-13.719-6.142-13.719-13.719v-81.006c0-7.577 6.142-13.719 13.719-13.719h138.945c7.577 0 13.719 6.142 13.719 13.719v81.006c.001 7.577-6.141 13.719-13.718 13.719z" fill="#734a9b"/></g></g><g><path d="m323.896 210.317h-138.946c-7.577 0-13.719 6.142-13.719 13.719v35.002c0-7.577 6.142-13.719 13.719-13.719h138.945c7.577 0 13.719 6.142 13.719 13.719v-35.002c.001-7.577-6.142-13.719-13.718-13.719z" fill="#242e7a"/></g><g><g><path d="m323.896 204.317h-99.11v12h99.11c4.256 0 7.719 3.462 7.719 7.719v81.006c0 4.256-3.463 7.719-7.719 7.719h-.027v12h.027c10.873 0 19.719-8.846 19.719-19.719v-81.006c0-10.873-8.846-19.719-19.719-19.719z" fill="#fff"/></g></g><g><g><path d="m323.896 324.761h-138.946c-10.873 0-19.719-8.846-19.719-19.719v-81.006c0-10.873 8.846-19.719 19.719-19.719h40.78c3.313 0 6 2.687 6 6s-2.687 6-6 6h-40.78c-4.256 0-7.719 3.462-7.719 7.719v81.006c0 4.256 3.463 7.719 7.719 7.719h138.945c3.313 0 6 2.687 6 6s-2.686 6-5.999 6z" fill="#afe6ff"/></g></g><g><path d="m334.9 104.161h-160.954c-20.476 0-37.075 16.599-37.075 37.075 0 20.476 16.599 37.075 37.075 37.075h160.954c20.476 0 37.075-16.599 37.075-37.075 0-20.476-16.599-37.075-37.075-37.075z" fill="#1e87dc"/></g><g><path d="m334.9 89.16h-126.57c-18.698 0-33.855 15.157-33.855 33.855v6.44c0 18.698 15.157 33.855 33.855 33.855h126.57c20.476 0 37.075-16.599 37.075-37.075 0-20.476-16.599-37.075-37.075-37.075z" fill="#195fa0"/></g><g><path d="m174.873 126.235c0-20.476 16.599-37.075 37.075-37.075h-38.002c-20.476 0-37.075 16.599-37.075 37.075 0 20.476 16.599 37.075 37.075 37.075h38.002c-20.476 0-37.075-16.599-37.075-37.075z" fill="#00558c"/></g><g><g><circle cx="210.801" cy="126.235" fill="#1e2d64" r="14.93"/></g><g><circle cx="298.806" cy="126.235" fill="#1e2d64" r="14.93"/></g></g><g><path d="m298.806 72.989h-87.066c-3.313 0-6-2.687-6-6s2.687-6 6-6h87.066c3.313 0 6 2.687 6 6s-2.687 6-6 6z" fill="#1e87dc"/></g><path d="m184.493 360.668v138.439l5.117 3.299c6.853 1.828 13.82 3.377 20.887 4.636l89.503.075c7.066-1.247 14.035-2.785 20.896-4.603l7.256-7.453 6.62 3.349c54.411-17.799 101.006-53.445 132.523-100.339v-37.402h-282.802z" fill="#734a9b"/><path d="m149.671 360.668-26.807 113.15c16.489 10.062 34.202 18.316 52.876 24.46l9.648-45.052v-92.558z" fill="#5e3881"/><path d="m22.902 360.668c6.176 13.704 13.528 26.764 21.927 39.051l10.571 10.571 1.9 6.165c18.584 22.927 41.065 42.566 66.436 57.908h.055c14.293 0 25.881-11.587 25.881-25.881v-87.815h-19.608l-4.81 3.384-5.19-3.384h-97.162z" fill="#b1e4f9"/><path d="m361.329 360.668v87.815c0 14.293 11.587 25.881 25.881 25.881 44.014-26.589 79.478-66.155 100.883-113.695h-126.764z" fill="#b1e4f9"/><g><path d="m255.273 395.703c-.41 0-.813.025-1.221.031v12c.408-.007.812-.031 1.221-.031 38.66 0 70.113 31.453 70.113 70.113 0 .433-.025.859-.033 1.29h12c.007-.431.033-.857.033-1.29 0-45.277-36.836-82.113-82.113-82.113z" fill="#afe6ff"/></g><g><path d="m72.301 408.431c-10.218 0-19.697-3.226-27.472-8.712 3.932 5.752 8.093 11.336 12.471 16.736 4.786 1.288 9.815 1.975 15.001 1.975 31.851 0 57.763-25.913 57.763-57.763h-10c0 26.337-21.426 47.764-47.763 47.764z" fill="#9dc6fb"/></g><g><path d="m436.471 408.431c-26.337 0-47.763-21.426-47.763-47.763h-10c0 31.851 25.912 57.763 57.763 57.763 6.26 0 12.291-1.001 17.94-2.852 5.104-6.352 9.911-12.957 14.401-19.795-8.513 7.847-19.877 12.647-32.341 12.647z" fill="#9dc6fb"/></g><g fill="#73c8f0"><path d="m185.159 477.816c0-38.661 31.453-70.113 70.113-70.113v-12c-45.277 0-82.113 36.836-82.113 82.113 0 7.062.896 13.918 2.581 20.462 4.567 1.503 9.192 2.88 13.869 4.128-2.876-7.656-4.45-15.943-4.45-24.59z"/><path d="m334.771 498.408c1.706-6.583 2.615-13.483 2.615-20.592h-12c0 8.688-1.589 17.012-4.49 24.697 4.677-1.24 9.304-2.609 13.875-4.105z"/></g><path d="m255.273 424.351c-29.527 0-53.464 23.937-53.464 53.464 0 10.786 3.194 20.826 8.688 29.225 14.536 2.589 29.499 3.945 44.776 3.959l8.146-45.224z" fill="#a51f6b"/><path d="m255.273 511h.227c15.157 0 30.03-1.33 44.5-3.883 5.524-8.415 8.737-18.483 8.737-29.301 0-29.528-23.937-53.464-53.464-53.464z" fill="#d80a61"/><g><path d="m298.806 51.988h-54.696c3.252 3.114 3.082 9.183-.497 12h55.193c3.313 0 6-2.687 6-6s-2.687-6-6-6z" fill="#fff"/></g><g><path d="m245.803 63.988h-34.063c-3.313 0-6-2.687-6-6s2.687-6 6-6h34.063c3.313 0 6 2.687 6 6s-2.687 6-6 6z" fill="#afe6ff"/></g></g></g></svg>