<svg id="Layer_1" enable-background="new 0 0 511 511" height="512" viewBox="0 0 511 511" width="512" xmlns="http://www.w3.org/2000/svg"><g><g><path d="m255.5 17.593c-94.938 0-153.421 53.551-153.582 53.641 0 0-2.431 3.035-2.886 5.052-3.694 16.397-7.145 38.372-7.145 54.409 0 1.419.012 2.836.037 4.249 3.211 182.833 231.163 265.024 352.183 127.94l50.962-57.727c-26.493-107.689-123.703-187.564-239.569-187.564z" fill="#f1d333"/><path d="m343.016 370.407c-136.251 0-246.703-110.453-246.703-246.703 0-18.009 1.942-35.557 5.606-52.469-41.943 33.414-72.763 80.208-85.985 133.923l12.175 154.989c2.472 5.856 13.289 5.995 16.19 11.611 2.914 5.641-2.088 16.757 1.238 22.133 3.328 5.38 6.857 10.623 10.576 15.718l398.776.008c3.608-4.942 7.039-10.025 10.281-15.241l3.202-17.003 14.521-17.243c5.83-13.832 10.443-28.327 13.7-43.359-42.143 33.566-95.513 53.636-153.577 53.636z" fill="#e7a52e"/></g><g><path d="m500.571 292.831c.03-.265.062-.519.092-.787.874-7.898 1.541-17.326 1.541-27.747 0-20.385-2.473-40.192-7.134-59.139-3.981-.549-8.046-.833-12.178-.833-48.803 0-88.366 39.563-88.366 88.366 0 .047.003.093.003.14z" fill="#afe6ff"/><path d="m454.887 214.601c0-1.951.07-3.886.195-5.805-35.177 11.654-60.557 44.809-60.557 83.896l88.366 67.437c5.83-13.832 10.444-28.327 13.7-43.358.112-.683 2.448-10.07 4.071-24.727-27.288-15.04-45.775-44.083-45.775-77.443z" fill="#73c8f0"/><path d="m28.109 204.325c-4.131 0-8.195.284-12.175.832-3.825 15.539-6.177 31.657-6.899 48.198-.158 3.627 19.074 56.607 19.074 60.273l86.277-1.753c1.368-6.177 2.089-12.597 2.089-19.185 0-48.802-39.563-88.365-88.366-88.365z" fill="#afe6ff"/><path d="m9.035 253.356c-.158 3.627-.238 7.275-.238 10.941 0 42.026 10.509 81.598 29.041 116.231 42.329-4.636 75.662-39.17 78.442-82.031-8.745 2.897-18.093 4.47-27.809 4.47-34.901 0-65.077-20.234-79.436-49.611z" fill="#73c8f0"/><path d="m404.358 96.203-174.803-94.152c-53.046 32.177-98.252 79.846-98.252 161.149 0 90.133 34.065 163.2 124.198 163.2s163.2-73.067 163.2-163.2c-.001-23.877-5.129-46.556-14.343-66.997z" fill="#dd4fb1"/><path d="m353.261 271.706c-90.133 0-163.2-73.067-163.2-163.2 0-40.673 14.883-77.868 39.495-106.445-77.801 12.429-137.256 79.836-137.256 161.139 0 90.133 73.067 163.2 163.2 163.2 49.459 0 93.776-22.005 123.705-56.755-8.45 1.35-17.113 2.061-25.944 2.061z" fill="#da2ea2"/><path d="m454.887 292.691h-301.768v-104.319c0-13.902 11.27-25.172 25.172-25.172h251.424c13.902 0 25.172 11.27 25.172 25.172z" fill="#734a9b"/><path d="m183.291 163.2h-102.006c-13.902 0-25.172 11.27-25.172 25.172v104.319h102.006v-104.319c0-13.902 11.27-25.172 25.172-25.172z" fill="#5e3881"/><path d="m468.851 292.691h-315.862c-6.953 0-12.59 5.637-12.59 12.59v76.346c0 6.953 5.637 12.59 12.59 12.59h312.277c6.714-10.82 12.618-22.21 17.625-34.088v-53.397c0-7.755-6.286-14.041-14.04-14.041z" fill="#5e3881"/><path d="m155.156 292.691h-113.007c-7.754 0-14.041 6.286-14.041 14.04v53.415c5.005 11.858 10.91 23.244 17.63 34.07h109.418c-7.754 0-14.041-6.286-14.041-14.04v-73.445c.001-7.754 6.287-14.04 14.041-14.04z" fill="#242e7a"/><path d="m255.5 0c-9.361 0-18.534.799-27.464 2.313-.437 3.935-.669 7.932-.669 11.983 0 59.343 48.107 107.451 107.451 107.451 26.523 0 50.796-9.615 69.538-25.542-25.568-56.721-82.6-96.205-148.856-96.205z" fill="#df75a5"/><g fill="#5e3881"><circle cx="92.3" cy="277.002" r="12.208"/><circle cx="157.071" cy="277.002" r="12.208"/><circle cx="221.841" cy="277.002" r="12.208"/><circle cx="286.612" cy="277.002" r="12.208"/><circle cx="351.383" cy="277.002" r="12.208"/><circle cx="416.154" cy="277.002" r="12.208"/></g><circle cx="241.079" cy="53.049" fill="#fff" r="18.821"/><circle cx="259.9" cy="98.968" fill="#fff" r="9.411"/><g fill="#242e7a"><circle cx="92.3" cy="270.002" r="12.208"/><circle cx="157.071" cy="270.002" r="12.208"/><circle cx="221.841" cy="270.002" r="12.208"/><circle cx="286.612" cy="270.002" r="12.208"/><circle cx="351.383" cy="270.002" r="12.208"/><circle cx="416.154" cy="270.002" r="12.208"/></g><path d="m419.663 378.42h-328.86c-9.055 0-16.395-7.34-16.395-16.395v-14.299c0-9.055 7.34-16.395 16.395-16.395h328.861c9.055 0 16.395 7.34 16.395 16.395v14.299c0 9.055-7.341 16.395-16.396 16.395z" fill="#242e7a"/><path d="m419.663 369.42h-114.613l-38.807-7.791-59.093 7.791h-37.871l-9.447-7.35-45.45 7.35h-23.579c-9.055 0-16.395-7.34-16.395-16.395v-2.298c0-9.055 7.34-16.395 16.395-16.395h328.861c9.055 0 16.395 7.34 16.395 16.395v2.298c0 9.054-7.341 16.395-16.396 16.395z" fill="#afe6ff"/><path d="m419.664 322.331h-78.611l-47.727 2.528-50.173-2.528h-37.871l-13.901 2.968-40.997-2.968h-59.581c-9.055 0-16.395 7.34-16.395 16.395v13.001c0-9.055 7.34-16.395 16.395-16.395h49.641l39.046-3.647 15.851 3.647h37.871l68.92-5.409 28.98 5.409h88.551c9.055 0 16.395 7.34 16.395 16.395v-13.001c.001-9.055-7.34-16.395-16.394-16.395z" fill="#73c8f0"/><path d="m56.113 409.608c1.317 1.804 2.658 3.59 4.022 5.356h390.735c1.363-1.764 2.702-3.547 4.018-5.349v-15.399h-398.775z" fill="#242e7a"/><path d="m60.135 414.964c45.116 58.415 115.847 96.036 195.365 96.036 79.029 0 150.044-37.365 195.37-96.035h-390.735z" fill="#5e3881"/><path d="m140.799 334.868-26.417 34.552h54.897l26.417-34.552z" fill="#fff"/><path d="m195.341 335.331 9.94-13h-54.897l-9.94 13z" fill="#afe6ff"/><path d="m233.567 334.868-26.417 34.552h97.9l26.417-34.552z" fill="#fff"/><path d="m331.112 335.331 9.94-13h-97.9l-9.94 13z" fill="#afe6ff"/></g></g></svg>