<svg id="Layer_1" enable-background="new 0 0 507 507" height="512" viewBox="0 0 507 507" width="512" xmlns="http://www.w3.org/2000/svg"><g><g><path d="m253.5 18.847c-93.927 0-151.787 52.981-151.946 53.07 0 0-2.406 3.002-2.855 4.999-3.655 16.222-7.069 37.964-7.069 53.829 0 134.8 113.676 244.05 248.475 244.05 51.908 0 109.66-24.878 148.312-54.791.865-.669 3.608-5.165 3.608-5.165.17-1.04 5.552-22.471 5.552-51.915-.001-134.8-109.277-244.077-244.077-244.077z" fill="#b1e4f9"/><path d="m340.084 367.904c-134.8 0-244.076-109.277-244.076-244.076 0-17.818 1.921-35.178 5.546-51.911-56.133 44.719-92.13 113.66-92.13 191.006 0 55.205 18.328 106.129 49.23 147.02l389.678.027c20.88-27.615 36.056-59.882 43.693-95.132-41.694 33.21-94.496 53.066-151.941 53.066z" fill="#9dc6fb"/></g><g><path d="m405.42 385.204-152.247-33.69-83.408 18.513v122.215c9.4 3.433 19.07 6.307 28.969 8.579l73.135 5.495c11.387-.851 22.57-2.486 33.491-4.854l99.193-46.826c16.411-12.937 31.14-27.949 43.779-44.666-11.118-12.141-25.91-21.004-42.912-24.766z" fill="#9bd069"/><path d="m58.653 409.943c28.25 37.381 67.008 66.377 111.88 82.594v-122.681l-69.006 15.316c-16.987 3.77-31.766 12.635-42.874 24.771z" fill="#6ec186"/><path d="m271.869 506.315-128.093-128.093c-4.029-4.029-9.912-5.581-15.404-4.065l-38.751 10.697c-2.402.663-3.196 3.671-1.434 5.433l110.544 110.544c17.606 4.036 35.939 6.169 54.769 6.169 6.175 0 12.301-.232 18.369-.685z" fill="#373c41"/><path d="m247.192 472.78h-36.206c-29.981 0-54.286-24.304-54.286-54.286v-106.047h90.492z" fill="#6ec186"/><path d="m262.541 472.78h36.206c29.981 0 54.286-24.304 54.286-54.286v-106.047h-90.492z" fill="#6ec186"/><g><g><g><path d="m378.412 270.445h-8.913v-173.696h8.913c32.918 0 59.604 26.685 59.604 59.604v54.489c0 32.918-26.686 59.603-59.604 59.603z" fill="#ff965a"/></g></g><g><g><path d="m373.036 237.658h-5.548v-108.122h5.548c20.491 0 37.102 16.611 37.102 37.102v33.918c0 20.491-16.611 37.102-37.102 37.102z" fill="#ffbe82"/></g></g><g><g><path d="m376.666 212.232h-2.939v-57.271h2.939c10.854 0 19.652 8.799 19.652 19.652v17.966c.001 10.855-8.798 19.653-19.652 19.653z" fill="#ff965a"/></g></g><g><g><path d="m269.902 450.488h-32.221c-23.624 0-42.775-19.151-42.775-42.775v-143.477c0-2.501 2.028-4.529 4.529-4.529h108.713c2.501 0 4.529 2.028 4.529 4.529v143.476c0 23.625-19.151 42.776-42.775 42.776z" fill="#9bd069"/></g></g><g><g><path d="m259.511 434.618h-11.439c-21.123 0-38.246-17.123-38.246-38.246v-104.196h87.931v104.196c0 21.122-17.124 38.246-38.246 38.246z" fill="#dd7643"/></g></g><g><g><path d="m169.302 82.476v198.899c0 46.287 37.229 84.167 83.515 84.518.324.002.649.004.974.004 68.936 0 124.82-55.884 124.82-124.82v-136.834c0-38.703-31.312-70.111-70.014-70.229l-69.405-.278c-26.976-.082-69.89 21.763-69.89 48.74z" fill="#ffbe82"/></g></g><g><g><path d="m132.373 270.445h8.913v-173.696h-8.913c-32.918 0-59.604 26.685-59.604 59.604v54.489c.001 32.918 26.686 59.603 59.604 59.603z" fill="#ff965a"/></g></g><g><g><path d="m137.749 237.658h5.548v-108.122h-5.548c-20.491 0-37.102 16.611-37.102 37.102v33.918c0 20.491 16.611 37.102 37.102 37.102z" fill="#ffbe82"/></g></g><g><g><path d="m134.119 212.232h2.939v-57.271h-2.939c-10.854 0-19.652 8.799-19.652 19.652v17.966c0 10.855 8.798 19.653 19.652 19.653z" fill="#ff965a"/></g></g><g><g><path d="m199.86 194.432v8.802c0 5.741 4.655 10.396 10.396 10.396s10.396-4.655 10.396-10.396v-8.802z" fill="#ff965a"/></g></g><g><g><path d="m284.567 194.432v8.802c0 5.741 4.655 10.396 10.396 10.396s10.396-4.655 10.396-10.396v-8.802z" fill="#ff965a"/></g></g><g><path d="m260.557 365.714c-52.477-15.24-90.837-63.669-90.837-121.062.312-7.092-.052-111.665-.052-137.771l.052 4.811c0-40.123 32.473-77.46 72.596-77.46h-41.931c-40.123 0-69.898 29.776-69.898 69.898l-2.75 97.539v38.122c0 34.602 14.219 67.684 39.325 91.495s58.894 36.26 93.447 34.43z" fill="#ff965a"/></g><g><g><path d="m210.256 205.303c-5.741 0-10.396-4.655-10.396-10.396v-13.373l3.832-5.803-3.832-5.803v-3.454c0-5.741 4.655-10.396 10.396-10.396s10.396 4.655 10.396 10.396v28.433c0 5.742-4.654 10.396-10.396 10.396z" fill="#373c41"/></g></g><g><g><path d="m294.963 205.303c-5.741 0-10.396-4.655-10.396-10.396v-13.373l3.832-5.803-3.832-5.803v-3.454c0-5.741 4.655-10.396 10.396-10.396s10.396 4.655 10.396 10.396v28.433c0 5.742-4.655 10.396-10.396 10.396z" fill="#373c41"/></g></g><g><g><g><path d="m234.349 142.784c0 5.742-4.654 10.396-10.396 10.396h-76.299c-5.742 0-10.396-4.654-10.396-10.396 0-5.742 4.654-10.396 10.396-10.396h76.299c5.741 0 10.396 4.654 10.396 10.396z" fill="#ff965a"/></g></g></g><g><g><g><path d="m368.433 142.784c0 5.742-4.654 10.396-10.396 10.396h-76.299c-5.742 0-10.396-4.654-10.396-10.396 0-5.742 4.654-10.396 10.396-10.396h76.299c5.742 0 10.396 4.654 10.396 10.396z" fill="#ff965a"/></g></g></g><g><g><g><path d="m234.349 134.078c0 5.742-4.654 10.396-10.396 10.396h-76.299c-5.742 0-10.396-4.654-10.396-10.396 0-5.742 4.654-10.396 10.396-10.396h76.299c5.741 0 10.396 4.655 10.396 10.396z" fill="#ffbe82"/></g></g></g><g><g><g><path d="m368.433 134.078c0 5.742-4.654 10.396-10.396 10.396h-76.299c-5.742 0-10.396-4.654-10.396-10.396 0-5.742 4.654-10.396 10.396-10.396h76.299c5.742 0 10.396 4.655 10.396 10.396z" fill="#ffbe82"/></g></g></g><g><g><path d="m236.946 220.061c-2.584 10.32 2.112 21.562 11.094 24.95 1.807.682 3.741 1.051 5.75 1.051 2.01 0 3.943-.369 5.75-1.051 8.982-3.388 13.679-14.63 11.094-24.95l-8.568-34.212c-2.157-8.613-14.397-8.613-16.554 0z" fill="#ff965a"/></g></g><g fill="#fff"><path d="m204.191 185.367h-.997c-1.841 0-3.334-1.493-3.334-3.334v-12.603c0-1.841 1.493-3.334 3.334-3.334h.997c1.841 0 3.334 1.493 3.334 3.334v12.603c0 1.842-1.492 3.334-3.334 3.334z"/><path d="m288.898 185.367h-.997c-1.841 0-3.334-1.493-3.334-3.334v-12.603c0-1.841 1.493-3.334 3.334-3.334h.997c1.841 0 3.334 1.493 3.334 3.334v12.603c0 1.842-1.493 3.334-3.334 3.334z"/></g></g><g><path d="m232.63 292.562 39.633 1.541c4.696-3.248 16.139-11.178 16.139-11.178.663-1.093 1.275-2.22 1.833-3.378 0 0-2.78-11.526-2.78-17.81-26.141 3.205-37.777 3.572-65.504.55 0 6.284-4.603 17.26-4.603 17.26.559 1.158 1.171 2.285 1.833 3.378 0 0 8.753 6.389 13.449 9.637z" fill="#373c41"/></g><g fill="#fff"><path d="m226.343 266.844 13.724 19.377 13.724-19.377 13.724 19.377 13.724-19.377 8.998 12.705c2.557-5.305 3.991-11.254 3.991-17.538h-80.874c0 6.284 1.433 12.233 3.991 17.538z"/><path d="m281.239 272.81-13.724 19.377-13.724-19.377-13.724 19.377-13.724-19.377-7.165 10.116c7.086 11.701 19.936 19.521 34.613 19.521s27.527-7.82 34.613-19.521z"/></g><g fill="#ff965a"><path d="m248.45 241.34h-25.758v-15.061c0-5.908 4.789-10.697 10.697-10.697h15.061z"/><path d="m260.676 241.34h25.758v-15.061c0-5.908-4.789-10.697-10.697-10.697h-15.061z"/></g><path d="m305.359 450.354v44.245h25.074c12.439-4.132 24.446-9.24 35.927-15.237l2.892-3.8 6.19-1.193c2.287-1.321 4.551-2.678 6.791-4.071l3.862-3.901 5.221-2.029c4.522-3.097 8.936-6.343 13.234-9.732v-4.282z" fill="#fff"/><path d="m328.97 109.413h-173.311v-10.338h164.318c4.967 0 8.993 4.026 8.993 8.993z" fill="#ff965a"/><path d="m328.97 79.036h-173.311v-10.338h164.318c4.967 0 8.993 4.026 8.993 8.993z" fill="#ff965a"/><path d="m267.418 329.249h-25.104c0-6.932 5.62-12.552 12.552-12.552 6.933 0 12.552 5.62 12.552 12.552z" fill="#ff965a"/><ellipse cx="235.658" cy="236.361" fill="#373c41" rx="6.657" ry="2.083"/><ellipse cx="273.555" cy="236.361" fill="#373c41" rx="6.657" ry="2.083"/><path d="m300.227 264.639h-94.235v-1.097c0-4.05 3.283-7.333 7.333-7.333h79.57c4.05 0 7.333 3.283 7.333 7.333v1.097z" fill="#ff965a"/><g fill="#55696e"><path d="m318.738 463.883h9.083v18.596h-9.083z"/><path d="m334.612 463.883h9.083v18.596h-9.083z"/><path d="m350.486 463.883h9.083v18.596h-9.083z"/><path d="m375.444 474.369v-10.485h-9.083v15.478c3.065-1.602 6.094-3.267 9.083-4.993z"/><path d="m391.318 464.367v-.484h-9.083v6.414c3.073-1.91 6.101-3.888 9.083-5.93z"/></g><path d="m273.555 68.698h-37.376l-8.949-61.474c-.555-3.809 2.399-7.224 6.248-7.224h42.776c3.85 0 6.803 3.415 6.249 7.224z" fill="#373c41"/><path d="m355.759 234.293c.716-2.201-2.212-3.702-3.575-1.83-8.189 11.245-20.594 29.206-23.214 38.203-2.091 7.182-1.464 24.478-.768 35.704.139 2.238 3.27 2.632 3.963.5z" fill="#ff965a"/></g><path d="m330.434 494.599h-25.074v6.862c8.526-1.849 16.893-4.144 25.074-6.862z" fill="#6ec186"/></g></svg>