<svg id="Layer_1" enable-background="new 0 0 511.764 511.764" height="512" viewBox="0 0 511.764 511.764" width="512" xmlns="http://www.w3.org/2000/svg"><g><g><g><path d="m255.882 1.764c-98.131 0-158.58 55.352-158.747 55.445 0 0-2.513 3.137-2.983 5.222-3.818 16.948-7.385 39.663-7.385 56.238 0 140.833 118.763 254.972 259.596 254.972 54.231 0 114.568-25.992 154.949-57.243.903-.699 3.769-5.396 3.769-5.396.178-1.087 5.8-23.477 5.8-54.239.001-140.832-114.167-254.999-254.999-254.999z" fill="#734a9b"/></g><path d="m346.34 366.443c-140.833 0-255-114.167-255-255 0-18.615 2.008-36.753 5.795-54.234-58.645 46.72-96.253 118.747-96.253 199.555 0 40.389 9.39 78.584 26.105 112.523l457.788-.002c8.987-18.262 15.866-37.79 20.306-58.283-43.559 34.696-98.724 55.441-158.741 55.441z" fill="#5e3881"/></g><g><path d="m413.666 352.671-152.798-33.812-152.194 33.78-41.229 75.931c46.634 51.119 113.79 83.194 188.437 83.194 73.973 0 141.153-31.672 187.973-82.688z" fill="#9bd069"/><g fill="#6ec186"><path d="m401.631 440.272h-291.509c-8.743 0-16.895 2.576-23.738 7.008 2.903 2.584 5.864 5.103 8.884 7.554 4.462-2.277 9.511-3.562 14.855-3.562h291.509c5.341 0 10.387 1.284 14.847 3.559 3.02-2.45 5.984-4.968 8.888-7.552-6.844-4.432-14.995-7.007-23.736-7.007z"/><path d="m26.987 369.286c10.779 21.884 24.603 41.998 40.92 59.789h7.253c45.851 0 83.021-37.17 83.021-83.021v-12.761h-62.768c-28.392 0-53.455 14.253-68.426 35.993z"/><path d="m416.35 333.293h-62.769v12.761c0 45.852 37.17 83.021 83.021 83.021h7.252c16.298-17.759 30.129-37.863 40.921-59.791-14.971-21.739-40.033-35.991-68.425-35.991z"/></g><g><path d="m433.097 264.134c0 113.325-94.321 135.071-170.35 205.194-65.946-57.131-170.35-91.868-170.35-205.194s76.269-205.194 170.351-205.194 170.349 91.868 170.349 205.194z" fill="#6ec186"/></g><path d="m262.748 37.689-11.675 205.194 11.675 205.194c91.58-70.122 205.194-91.868 205.194-205.194s-91.869-205.194-205.194-205.194z" fill="#da2ea2"/><path d="m57.554 242.883c0 113.325 125.759 148.062 205.194 205.194v-410.388c-113.326 0-205.194 91.869-205.194 205.194z" fill="#d80a61"/><g><g><g><path d="m381.299 204.591h-5.703v-108.513h5.703c20.491 0 37.102 16.611 37.102 37.102v34.31c0 20.49-16.611 37.101-37.102 37.101z" fill="#914924"/></g></g></g><g><g><g><path d="m261.488 418.29c-31.984 0-57.912-25.928-57.912-57.912v-118.61c0-6.133 4.971-11.104 11.104-11.104h93.617c6.133 0 11.104 4.971 11.104 11.104v118.61c-.001 31.984-25.929 57.912-57.913 57.912z" fill="#9bd069"/></g></g></g><g><g><g><path d="m261.488 402.264c-24.37 0-44.125-19.755-44.125-44.125v-98.833h88.25v98.833c-.001 24.369-19.756 44.125-44.125 44.125z" fill="#dd7643"/></g></g></g><g><g><g><path d="m172.72 48.86 3.973 199.606c0 46.455 37.364 84.472 83.817 84.824.326.002.652.004.978.004 69.186 0 125.272-56.086 125.272-125.272v-137.329c0-38.843-31.425-70.364-70.268-70.484l-74.572.22c-27.074-.083-69.2 21.357-69.2 48.431z" fill="#af5d2f"/></g></g></g><g><g><g><path d="m296.877 331.463c-21.875 8.042-45.885 8.198-67.81.293-6.308-2.274-11.547-4.311-13.493-5.441-1.69-.981-2.721-2.792-2.721-4.746v-70.932c0-3.037 2.462-5.499 5.499-5.499h88.79c3.037 0 5.499 2.462 5.499 5.499v71.051c0 2.263-1.387 4.295-3.494 5.121-4.194 1.643-8.317 3.201-12.27 4.654zm-69.919-11.513c21.939 10.556 47.623 9.683 70.858 2.22 2.279-.732 3.826-2.853 3.826-5.247v-55.286c0-3.037-2.462-5.499-5.499-5.499h-66.79c-3.037 0-5.499 2.462-5.499 5.499v53.354c-.001 2.11 1.203 4.044 3.104 4.959z" fill="#914924"/></g></g></g><g><g><g><path d="m144.891 204.591h5.703v-108.513h-5.703c-20.491 0-37.102 16.611-37.102 37.102v34.31c0 20.49 16.611 37.101 37.102 37.101z" fill="#914924"/></g></g></g><g><g><g><path d="m207.361 161.209v8.834c0 5.762 4.672 10.434 10.434 10.434s10.434-4.672 10.434-10.434v-8.834z" fill="#914924"/></g></g></g><g><g><g><path d="m292.375 161.209v8.834c0 5.762 4.672 10.434 10.434 10.434s10.434-4.672 10.434-10.434v-8.834z" fill="#914924"/></g></g></g><g fill="#914924"><path d="m249.309 0c-2.497 0-4.962.146-7.389.429h14.872z"/><path d="m215.436 302.288c-23.632-22.983-38.324-55.109-38.324-90.678.313-7.118 0-133.441 0-133.441 0-37.771 28.093-73.459 64.808-77.74h-34.033c-40.268 0-70.151 29.883-70.151 70.151l-2.76 97.892v38.26c0 34.727 14.27 67.929 39.467 91.827 12.161 11.534 26.355 20.402 41.681 26.294-.318-7.52-.608-15.04-.688-22.565z"/></g><g><g><g><path d="m217.795 172.119c-5.762 0-10.434-4.672-10.434-10.434v-13.421l3.846-5.824-3.846-5.824v-3.466c0-5.762 4.672-10.434 10.434-10.434s10.434 4.672 10.434 10.434v28.536c0 5.761-4.672 10.433-10.434 10.433z" fill="#373c41"/></g></g></g><g><g><g><path d="m302.809 172.119c-5.762 0-10.434-4.672-10.434-10.434v-13.421l3.846-5.824-3.846-5.824v-3.466c0-5.762 4.672-10.434 10.434-10.434s10.434 4.672 10.434 10.434v28.536c-.001 5.761-4.673 10.433-10.434 10.433z" fill="#373c41"/></g></g></g><g><path d="m211.72 152.111h-1.025c-1.841 0-3.334-1.493-3.334-3.334v-12.673c0-1.841 1.493-3.334 3.334-3.334h1.025c1.841 0 3.334 1.493 3.334 3.334v12.673c0 1.841-1.493 3.334-3.334 3.334z" fill="#fff"/></g><g><path d="m296.734 152.111h-1.025c-1.841 0-3.334-1.493-3.334-3.334v-12.673c0-1.841 1.493-3.334 3.334-3.334h1.025c1.841 0 3.334 1.493 3.334 3.334v12.673c-.001 1.841-1.493 3.334-3.334 3.334z" fill="#fff"/></g><g><path d="m275.164 296.514h-25.195c0-6.957 5.64-12.597 12.597-12.597 6.958-.001 12.598 5.639 12.598 12.597z" fill="#ff965a"/></g><g><path d="m289.345 214.276-5.572-4.685h-42.356c-.018 0-.036-.001-.055-.001l-5.573 4.686c-3.209 2.698-3.177 7.648.066 10.305l15.291 12.529c3.221 2.639 7.257 4.081 11.421 4.081s8.2-1.442 11.421-4.081l15.291-12.529c3.243-2.657 3.274-7.607.066-10.305z" fill="#914924"/></g><g><path d="m283.361 201.245-16.54-74.197c-1.014-4.548-7.496-4.548-8.509 0l-16.54 74.197-5.984 5.031c-3.209 2.698-3.177 7.648.066 10.305l15.291 12.529c3.221 2.639 7.257 4.081 11.421 4.081 4.164 0 8.2-1.442 11.421-4.081l15.291-12.529c3.243-2.657 3.274-7.607.066-10.305z" fill="#f1d333"/></g><path d="m318.742 94.377v-94.125c-.747-.026-1.497-.04-2.25-.042l-8.75.026v98.698l45.539 45.538v93.852l-43.83 62.143v19.085l54.83-77.738v-101.899z" fill="#914924"/><g><path d="m157.455 241.813v-101.898l45.538-45.538v-89.119h11v93.676l-45.538 45.538v93.852z" fill="#914924"/></g><g><path d="m260.868 103.022c-20.843 0-37.8-16.957-37.8-37.8s16.957-37.8 37.8-37.8 37.8 16.957 37.8 37.8-16.958 37.8-37.8 37.8zm0-64.6c-14.777 0-26.8 12.022-26.8 26.8s12.022 26.8 26.8 26.8c14.777 0 26.8-12.022 26.8-26.8s-12.023-26.8-26.8-26.8z" fill="#914924"/></g><g><path d="m244.199 93.422-8.395-7.107 19.564-23.109v-30.284h11v34.316z" fill="#914924"/></g><g><path d="m260.868 103.022c-20.843 0-37.8-16.957-37.8-37.8s16.957-37.8 37.8-37.8 37.8 16.957 37.8 37.8-16.958 37.8-37.8 37.8zm0-64.6c-14.777 0-26.8 12.022-26.8 26.8s12.022 26.8 26.8 26.8c14.777 0 26.8-12.022 26.8-26.8s-12.023-26.8-26.8-26.8z" fill="#914924"/></g><g><path d="m265.801 61.399h11v32.293h-11z" fill="#914924" transform="matrix(.763 -.646 .646 .763 14.135 193.663)"/></g></g></g></svg>