<svg id="Layer_1" enable-background="new 0 0 511.764 511.764" height="512" viewBox="0 0 511.764 511.764" width="512" xmlns="http://www.w3.org/2000/svg"><g><g><path d="m504.14 198.265c-.623-2.653-5.439-4.475-6.143-7.095-.705-2.621 2.701-6.039 1.916-8.626-8.941-29.435-23.061-56.615-41.3-80.48l-9.497 2.94.449-14.114c-46.767-54.558-116.188-89.126-193.683-89.126-98.131 0-158.58 55.352-158.747 55.445 0 0-2.513 3.137-2.983 5.222-3.818 16.948-7.385 39.663-7.385 56.238 0 140.833 118.763 254.972 259.596 254.972 54.231 0 114.568-25.992 154.949-57.243.903-.699 3.769-5.396 3.769-5.396.06-.365.732-3.127 1.6-7.799l-4.721-8.107 6.943-6.361c1.086-8.782 1.979-19.712 1.979-31.972 0-20.129-2.333-39.714-6.742-58.498z" fill="#da4a54"/><path d="m346.34 366.443c-140.833 0-255-114.167-255-255 0-18.615 2.007-36.753 5.795-54.234-13.5 10.755-25.885 22.851-36.954 36.086l.091 11.708-11.187 2.552c-16.006 22.142-28.545 46.956-36.818 73.645l3.968 15.155-9.712 6.822c-3.697 17.278-5.643 35.205-5.643 53.586 0 9.437.513 18.754 1.512 27.925l5.476 8.646-2.777 9.824c5.797 31.538 17.397 61.045 33.652 87.374l432.745 2.457c15.637-24.702 27.168-52.335 33.592-81.988-43.558 34.697-98.723 55.442-158.74 55.442z" fill="#d80a61"/></g><g><path d="m197.282 80.163c-24.412 0-44.511-18.423-47.177-42.123-4.796 1.101-9.526 2.358-14.181 3.776 9.555 21.862 1.362 47.879-19.786 60.089-14.938 8.624-32.606 8.199-46.685.442-1.884 5.718-6.36 10.494-11.825 13.113 7.32 13.938 7.563 31.204-.891 45.847-7.407 12.83-19.897 20.886-33.456 23.109v26.81c7.294 8.346 11.714 19.268 11.714 31.224 0 13.987-6.054 26.552-15.677 35.239v22.316c15.058 1.189 29.296 9.518 37.42 23.589 12.204 21.138 6.302 47.753-12.884 61.913 3.34 3.577 6.803 7.032 10.379 10.365 14.161-19.179 40.771-25.079 61.906-12.876 21.15 12.211 29.344 38.233 19.783 60.096 4.665 1.428 9.393 2.697 14.18 3.8 2.651-23.715 22.758-42.154 47.181-42.154 1.124 0 2.235.052 3.339.129v-324.833c-1.106.077-2.217.129-3.34.129z" fill="#ecc32e"/><path d="m111.27 93.806c-7.906 4.565-16.539 6.735-25.055 6.735-9.158 0-18.184-2.509-26.034-7.245-3.862 4.618-7.563 9.374-11.095 14.26 8.044 14.84 8.418 33.384-.641 49.074-7.978 13.818-21.53 22.407-36.176 24.571-2.23 7.194-4.15 14.525-5.744 21.977 11.534 9.199 18.925 23.371 18.925 39.272 0 17.727-9.186 33.304-23.057 42.239.678 6.227 1.581 12.386 2.699 18.47 17.291.061 34.083 9.056 43.353 25.111 12.034 20.843 7.422 46.72-9.701 62.263 2.641 4.278 5.404 8.471 8.286 12.576 9.707-12.095 24.271-18.75 39.185-18.75 8.518 0 17.147 2.169 25.054 6.735 22.369 12.915 31.035 40.436 20.923 63.559 4.933 1.511 9.934 2.852 14.997 4.019 2.804-25.081 24.07-44.583 49.9-44.583 1.188 0 2.364.055 3.531.136v-343.55c-1.168.081-2.343.136-3.531.136-25.818 0-47.076-19.485-49.895-44.55-.582.134-1.164.27-1.744.408-4.339 2.06-8.408 4.142-12.199 6.198 8.383 22.547-.452 48.509-21.981 60.939zm40.83-19.265c8.167 6.809 17.888 11.778 28.521 14.329l16.217 303.987c-10.632 2.551-36.572 10.69-44.738 17.498-5.493-14.945-16.074-28.062-30.83-36.582-10.667-6.159-22.789-9.414-35.055-9.414-4.068 0-8.1.357-12.052 1.049 2.728-15.704.128-32.373-8.397-47.139-8.317-14.406-21.417-25.181-36.624-30.783 10.221-12.238 16.309-27.979 16.309-45.037 0-17.061-6.086-32.801-16.305-45.038 15.206-5.602 28.305-16.377 36.621-30.782 8.524-14.764 11.124-31.435 8.396-47.139 3.953.692 7.985 1.049 12.054 1.049 12.266 0 24.387-3.255 35.055-9.414 14.753-8.517 25.334-21.638 30.828-36.584z" fill="#e28424"/><path d="m494.317 283.922c-14.538-8.115-24.376-23.638-24.376-41.471 0-16.431 8.352-30.9 21.035-39.423-4.945-4.075-8.084-10.304-8.39-17.143-.02-.446-.018-.889-.006-1.33-13.915-2.003-26.806-10.128-34.381-23.248-9.15-15.848-8.115-34.768 1.057-49.216-4.911-2.304-8.756-6.416-10.935-11.435-14.485 9.353-33.565 10.464-49.524 1.249-21.148-12.21-29.342-38.227-19.786-60.089-4.655-1.418-9.385-2.675-14.181-3.776-2.666 23.699-22.765 42.123-47.177 42.123-1.124 0-2.235-.052-3.339-.129v324.833c1.104-.077 2.215-.129 3.339-.129 24.422 0 44.529 18.44 47.181 42.154 4.787-1.104 9.515-2.372 14.18-3.8-9.561-21.863-1.367-47.885 19.783-60.096 17.631-10.179 39.066-7.753 53.912 4.462 2.579-3.959 6.456-7.113 10.859-8.882-12.998-14.872-15.796-36.922-5.37-54.981 8.98-15.554 25.429-24.095 42.2-23.727-.168-.987-.281-1.991-.327-3.01-.213-4.779 1.444-9.27 4.246-12.936z" fill="#f1d333"/><path d="m504.14 198.265c-1.245-5.306-2.657-10.548-4.228-15.721-.907.05-1.813.075-2.719.075-17.103 0-33.736-8.873-42.902-24.749-10.521-18.222-8.132-40.348 4.321-55.806-2.976-3.894-6.061-7.699-9.252-11.412-9.036 7.757-20.554 11.939-32.293 11.939-8.393 0-16.901-2.139-24.693-6.637-22.043-12.727-30.584-39.846-20.624-62.634-4.852-1.478-9.782-2.789-14.781-3.936-2.779 24.703-23.729 43.906-49.175 43.906-1.171 0-2.329-.054-3.48-.134v338.589c1.151-.08 2.309-.134 3.48-.134 25.457 0 46.415 19.221 49.179 43.939 4.99-1.151 9.918-2.473 14.78-3.961-9.965-22.789-1.425-49.913 20.621-62.641 7.793-4.5 16.298-6.638 24.693-6.637 15.335.001 30.296 7.139 39.835 20.059 3.728-3.473 7.338-7.075 10.819-10.803-19.999-14.759-26.151-42.501-13.43-64.535 9.167-15.877 25.799-24.75 42.902-24.749 3.161 0 6.338.303 9.487.921.688-3.704 1.498-8.607 2.222-14.468-18.673-7.081-31.948-25.129-31.948-46.285.001-19.309 11.059-36.03 27.186-44.186zm-67.169 118.765c-8.364 14.486-10.964 30.826-8.379 46.249-3.783-.64-7.635-.969-11.524-.969-12.139-.001-24.136 3.221-34.694 9.317-14.476 8.358-24.893 21.191-30.369 35.821-7.959-6.556-42.881-14.286-53.182-16.792l25.49-299.339c10.298-2.507 19.732-7.311 27.691-13.867 5.476 14.633 15.893 27.466 30.37 35.825 10.557 6.095 22.554 9.317 34.693 9.317 3.888 0 7.744-.33 11.526-.969-2.585 15.423.015 31.764 8.377 46.249 8.16 14.134 20.975 24.738 35.86 30.322-9.955 12.064-15.876 27.521-15.876 44.258 0 16.735 5.923 32.192 15.88 44.257-14.886 5.581-27.701 16.185-35.863 30.321z" fill="#e7a52e"/><path d="m248.662 339.709-77.157 17.125c-36.945 8.2-63.234 40.964-63.234 78.808v29.069c25.112 17.858 53.596 31.283 84.311 39.131l106.243-6.178 116.856-120.997z" fill="#9bd069"/><g><path d="m42.629 396.631c17.757 27.019 40.51 50.46 66.945 69.011v-23.854c0-37.298 22.829-70.185 56.524-83.754l-83.795 18.599c-15.1 3.352-28.609 10.372-39.674 19.998z" fill="#6ec17d"/></g><g><g><g><path d="m259.325 439.776h-19.97c-21.123 0-38.246-17.123-38.246-38.246v-118.016h96.463v118.016c-.001 21.123-17.124 38.246-38.247 38.246z" fill="#6ec17d"/></g></g><g><g><path d="m156.653 53.469v218.197c0 50.778 40.841 91.333 91.618 91.717.356.003.712.004 1.069.004 2.49 0 4.965.934 7.422.803 72.174-3.855 129.509-63.598 129.509-136.733v-150.109c0-42.458-34.35-76.913-76.807-77.043l-99.178-.305c-29.594-.091-53.633 23.875-53.633 53.469z" fill="#9bd069"/></g></g><g><g><path d="m190.176 176.288v9.656c0 6.298 5.107 11.405 11.405 11.405s11.405-5.107 11.405-11.405v-9.656z" fill="#6ec17d"/></g></g><g><g><path d="m283.102 176.288v9.656c0 6.298 5.107 11.405 11.405 11.405s11.405-5.107 11.405-11.405v-9.656z" fill="#6ec17d"/></g></g><g><path d="m256.762 364.188c-57.569-16.719-99.65-69.846-99.65-132.808.342-7.78 0-117.221 0-145.86 0-44.016 35.682-79.697 79.697-79.697h99.464c-8.75-3.398-18.289-5.278-28.344-5.278h-117.178c-44.016 0-76.68 32.664-76.68 76.68l-3.017 107.003v41.821c0 37.959 15.598 74.251 43.14 100.373s64.608 39.778 102.514 37.77z" fill="#6ec17d"/></g><g><g><path d="m201.581 188.213c-6.298 0-11.405-5.107-11.405-11.405v-14.67l4.204-6.366-4.204-6.366v-3.789c0-6.298 5.107-11.405 11.405-11.405s11.405 5.107 11.405 11.405v31.191c0 6.299-5.107 11.405-11.405 11.405z" fill="#373c41"/></g></g><g><g><path d="m294.506 188.213c-6.298 0-11.405-5.107-11.405-11.405v-14.67l4.204-6.366-4.204-6.366v-3.789c0-6.298 5.107-11.405 11.405-11.405s11.405 5.107 11.405 11.405v31.191c0 6.299-5.106 11.405-11.405 11.405z" fill="#373c41"/></g></g><g><g><g><g><path d="m228.011 151.154c0 6.299-5.106 11.405-11.405 11.405h-83.702c-6.299 0-11.405-5.106-11.405-11.405 0-6.299 5.106-11.405 11.405-11.405h83.702c6.299.001 11.405 5.107 11.405 11.405z" fill="#6ec17d"/></g></g></g><g><g><g><path d="m375.104 151.154c0 6.299-5.106 11.405-11.405 11.405h-83.702c-6.299 0-11.405-5.106-11.405-11.405 0-6.299 5.106-11.405 11.405-11.405h83.703c6.298.001 11.404 5.107 11.404 11.405z" fill="#6ec17d"/></g></g></g><g><g><g><path d="m228.011 141.605c0 6.299-5.106 11.405-11.405 11.405h-83.702c-6.299 0-11.405-5.106-11.405-11.405 0-6.299 5.106-11.405 11.405-11.405h83.702c6.299 0 11.405 5.106 11.405 11.405z" fill="#9bd069"/></g></g></g><g><g><g><path d="m375.104 141.605c0 6.299-5.106 11.405-11.405 11.405h-83.702c-6.299 0-11.405-5.106-11.405-11.405 0-6.299 5.106-11.405 11.405-11.405h83.703c6.298 0 11.404 5.106 11.404 11.405z" fill="#9bd069"/></g></g></g></g><g><g><path d="m230.861 204.403c-2.835 11.321 2.317 23.654 12.171 27.371 1.983.748 4.104 1.153 6.308 1.153 2.205 0 4.326-.405 6.308-1.153 9.853-3.717 15.006-16.05 12.171-27.371l-9.399-37.532c-2.366-9.449-15.794-9.449-18.16 0z" fill="#f1d333"/></g></g><path d="m164.5 203.748c4.135 13.952 17.041 24.133 32.335 24.133s28.203-10.181 32.339-24.133z" fill="#6ec17d"/><path d="m270.1 203.748c4.135 13.952 17.041 24.133 32.335 24.133s28.203-10.181 32.339-24.133z" fill="#6ec17d"/><path d="m283.9 272.099h-66.761c-7.356 0-13.318-5.963-13.318-13.318v-3.477h93.398v3.477c-.001 7.356-5.963 13.318-13.319 13.318z" fill="#fff"/></g><g fill="#6ec17d"><path d="m331.813 116.345h-190.126v-11.341h181.133c4.967 0 8.993 4.026 8.993 8.993z"/><path d="m331.813 83.02h-190.126v-11.341h181.133c4.967 0 8.993 4.026 8.993 8.993z"/><path d="m264.289 304.762h-27.54c0-7.605 6.165-13.77 13.77-13.77s13.77 6.165 13.77 13.77z"/><path d="m221.068 407.682h-88.308c-4.372 0-7.917-3.545-7.917-7.917v-2.067h96.226v9.984z"/><path d="m283.7 407.682h88.308c4.372 0 7.917-3.545 7.917-7.917v-2.067h-96.225z"/></g><path d="m255.882 511.764c90.137 0 170.189-47.026 215.607-118.774-19.619-16.079-47.003-27.511-85.218-28.602 0 0-47.279 107.383-193.69 139.458 20.241 5.169 41.45 7.918 63.301 7.918z" fill="#415050"/></g></g></svg>