<svg id="Layer_1" enable-background="new 0 0 511.764 511.764" height="512" viewBox="0 0 511.764 511.764" width="512" xmlns="http://www.w3.org/2000/svg"><g><g><g><path d="m255.882 1.764c-98.131 0-158.58 55.352-158.747 55.445 0 0-2.513 3.137-2.983 5.222-3.818 16.948-7.385 39.663-7.385 56.238 0 140.833 118.763 254.972 259.596 254.972 54.231 0 114.568-25.992 154.949-57.243.903-.699 3.769-5.396 3.769-5.396.178-1.087 5.8-23.477 5.8-54.239.001-140.832-114.167-254.999-254.999-254.999z" fill="#b1e4f9"/></g><g><g><path d="m472.239 391.786c15.253-24.396 26.522-51.611 32.843-80.784-43.559 34.696-98.724 55.441-158.741 55.441-140.833 0-255-114.167-255-255 0-18.615 2.007-36.753 5.795-54.234-58.646 46.72-96.254 118.747-96.254 199.555 0 49.591 14.171 95.865 38.663 135.023h432.694z" fill="#9dc6fb"/></g></g></g><g><g><g><g><path d="m116.457 219.772h23.252v-123.487h-23.252c-14.061 0-25.459 11.398-25.459 25.459v72.57c0 14.06 11.398 25.458 25.459 25.458z" fill="#82878c"/></g></g></g><g><g><g><path d="m394.167 219.772h-23.252v-123.487h23.252c14.061 0 25.459 11.398 25.459 25.459v72.57c0 14.06-11.398 25.458-25.459 25.458z" fill="#82878c"/></g></g></g><path d="m435.644 372.017-179.161-39.646-178.453 39.609c-14.707 3.264-28.006 9.772-39.214 18.67 8.069 13.054 17.282 25.325 27.5 36.674l380.431-1.456c9.954-11.22 18.939-23.335 26.819-36.22-10.934-8.371-23.779-14.501-37.922-17.631z" fill="#82878c"/><path d="m394.952 384.122-138.382-30.621-137.835 30.593c-23.968 5.32-43.098 21.795-52.419 43.231 6.761 7.51 13.963 14.616 21.563 21.278l153.665 62.765c4.746.263 9.526.396 14.337.396 5.442 0 10.847-.171 16.21-.509l152.692-63.46c7.753-6.854 15.089-14.177 21.964-21.926-9.554-20.72-28.366-36.562-51.795-41.747z" fill="#ff965a"/><g><g><g><path d="m255.857 430.166c-28.574 0-51.738-23.164-51.738-51.738v-115.884h103.475v115.884c.001 28.575-23.163 51.738-51.737 51.738z" fill="#82878c"/></g></g></g><path d="m315.075 0h-94.802l-31.759 165.188 31.913 169.502h70.046c54.833 0 99.284-44.451 99.284-99.285v-160.723c0-41.246-33.436-74.682-74.682-74.682z" fill="#415050"/><g><path d="m220.273 0h-24.449c-41.246 0-74.682 33.436-74.682 74.682v160.724c0 54.782 44.369 99.2 99.131 99.283z" fill="#3c4646"/></g><g><path d="m304.191 40.726h-94.777c-35.745 0-64.721 28.977-64.721 64.721v48.342c0 16.101 6.129 31.596 17.143 43.34 4.464 4.759 9.056 9.649 13.319 14.184 12.01 12.777 18.862 29.547 19.235 47.078l.22 10.349c.508 23.847 16.987 44.519 40.216 49.936 6.547 1.527 13.307 2.502 20.229 2.87-.005.002-.011.003-.016.005l.046.002c.048.003.097.003.146.006.475.025 2.669.025 3.144 0 .049-.002.097-.003.146-.006l.046-.002c-.005-.002-.011-.003-.016-.005 6.922-.369 13.681-1.343 20.228-2.87 23.229-5.418 39.708-26.09 40.216-49.936l.22-10.349c.373-17.531 7.225-34.301 19.235-47.078 4.263-4.535 8.856-9.425 13.319-14.184 11.015-11.744 17.143-27.239 17.143-43.34v-48.342c0-35.745-28.977-64.721-64.721-64.721z" fill="#ffbe82"/></g><g><g><g><g><path d="m208.004 161.454v8.227c0 5.366 4.351 9.717 9.717 9.717s9.717-4.351 9.717-9.717v-8.227z" fill="#ff965a"/></g></g></g><g><g><g><path d="m287.179 161.454v8.227c0 5.366 4.351 9.717 9.717 9.717s9.717-4.351 9.717-9.717v-8.227z" fill="#ff965a"/></g></g></g><g><g><g><path d="m217.721 171.615c-5.366 0-9.717-4.351-9.717-9.717v-12.499l3.582-5.424-3.582-5.424v-3.228c0-5.366 4.351-9.717 9.717-9.717s9.717 4.351 9.717 9.717v26.576c0 5.366-4.351 9.716-9.717 9.716z" fill="#9dc6fb"/></g></g></g><g><g><g><path d="m296.897 171.615c-5.366 0-9.717-4.351-9.717-9.717v-12.499l3.582-5.424-3.582-5.424v-3.228c0-5.366 4.351-9.717 9.717-9.717s9.717 4.351 9.717 9.717v26.576c0 5.366-4.351 9.716-9.717 9.716z" fill="#9dc6fb"/></g></g></g><g><g><g><g><path d="m240.24 111.029c0 5.367-4.351 9.717-9.717 9.717h-28.338c-5.367 0-9.717-4.351-9.717-9.717 0-5.367 4.351-9.717 9.717-9.717h28.338c5.367 0 9.717 4.35 9.717 9.717z" fill="#ff965a"/></g></g></g></g><g><g><g><g><path d="m321.217 111.029c0 5.367-4.351 9.717-9.717 9.717h-28.338c-5.367 0-9.717-4.351-9.717-9.717 0-5.367 4.351-9.717 9.717-9.717h28.338c5.367 0 9.717 4.35 9.717 9.717z" fill="#ff965a"/></g></g></g></g><g><g><g><path d="m242.668 185.41c-2.416 9.646 1.975 20.154 10.37 23.321 1.689.637 3.497.982 5.375.982s3.686-.345 5.375-.982c8.395-3.167 12.786-13.675 10.37-23.321l-8.008-31.978c-2.016-8.051-13.457-8.051-15.473 0z" fill="#ff965a"/></g></g></g><g><path d="m212.52 152.981h-1.868c-1.462 0-2.648-1.186-2.648-2.648v-12.717c0-1.462 1.186-2.648 2.648-2.648h1.868c1.462 0 2.648 1.186 2.648 2.648v12.717c0 1.462-1.186 2.648-2.648 2.648z" fill="#fff"/></g><g><path d="m291.696 152.981h-1.868c-1.462 0-2.648-1.186-2.648-2.648v-12.717c0-1.462 1.186-2.648 2.648-2.648h1.868c1.462 0 2.648 1.186 2.648 2.648v12.717c0 1.462-1.186 2.648-2.648 2.648z" fill="#fff"/></g><g><path d="m219.728 223.886c5.403 16.783 21.138 28.93 39.718 28.93s34.315-12.147 39.718-28.93z" fill="#fff"/></g></g><g><path d="m265.788 94.033h-14.45c-11.312 0-20.482-9.17-20.482-20.482v-52.644h55.414v52.644c0 11.312-9.171 20.482-20.482 20.482z" fill="#415050"/></g><g><path d="m220.855 443.429h-119.289c-5.247 0-10.038 1.954-13.686 5.173 41.514 36.385 94.939 59.51 153.665 62.765v-47.248c0-11.426-9.264-20.69-20.69-20.69z" fill="#ffbe82"/></g><g><path d="m424.784 447.795c-3.508-2.736-7.92-4.366-12.713-4.366h-119.289c-11.427 0-20.69 9.263-20.69 20.69v47.134c58.149-3.664 111.342-26.901 152.692-63.458z" fill="#ffbe82"/></g><g><path d="m286.27 397.776c-1.564 0-3.127-.608-4.304-1.818-2.31-2.376-2.255-6.175.121-8.484l48.54-47.174c13.9-13.508 21.872-32.373 21.872-51.756v-20.079c0-3.313 2.687-6 6-6s6 2.687 6 6v20.079c0 22.606-9.298 44.607-25.509 60.362l-48.54 47.174c-1.165 1.132-2.674 1.696-4.18 1.696z" fill="#415050"/></g><g><path d="m224.628 397.776c-1.507 0-3.015-.564-4.181-1.697l-48.54-47.174c-16.211-15.755-25.509-37.756-25.509-60.362v-20.079c0-3.313 2.687-6 6-6s6 2.687 6 6v20.079c0 19.383 7.972 38.247 21.872 51.756l48.54 47.174c2.376 2.31 2.431 6.108.121 8.484-1.176 1.211-2.739 1.819-4.303 1.819z" fill="#3c4646"/></g><g><ellipse cx="105.862" cy="153.414" fill="#9dc6fb" rx="5.601" ry="27.81"/></g><g><ellipse cx="400.872" cy="153.414" fill="#9dc6fb" rx="5.601" ry="27.81"/></g><g><path d="m214.341 334.809c-.939 1.298-2.019 2.504-3.231 3.59-4.778 4.276-11.175 6.325-17.546 5.616l-82.816-9.195c-9.364-1.042-18.523 1.686-25.794 7.674s-11.702 14.455-12.478 23.842l-.69 7.248 12.377-2.965.272-3.295c.507-6.129 3.399-11.657 8.146-15.567 4.747-3.909 10.723-5.691 16.842-5.01l82.816 9.195c9.763 1.083 19.556-2.051 26.874-8.602 3.899-3.49 6.902-7.792 8.866-12.531l.065-.119-7.773-.001-5.696-.218z" fill="#3c4646"/></g><g><path d="m429.576 370.674-.277-3.351c-.507-6.129-3.399-11.657-8.146-15.567-4.748-3.91-10.731-5.692-16.842-5.01l-82.816 9.195c-9.756 1.084-19.557-2.051-26.874-8.602-7.317-6.55-11.515-15.939-11.515-25.761h12c0 6.413 2.74 12.543 7.519 16.82s11.174 6.328 17.546 5.616l82.816-9.195c9.368-1.037 18.523 1.687 25.794 7.674 7.271 5.988 11.702 14.455 12.478 23.842l.716 7.306z" fill="#415050"/></g><g><path d="m272.192 276.323h-27.558c0-7.61 6.169-13.779 13.779-13.779s13.779 6.169 13.779 13.779z" fill="#ff965a"/></g><g><path d="m78.032 427.702c-.834 0-1.65-.418-2.124-1.179l-26.747-42.953c-.729-1.172-.371-2.714.801-3.443s2.714-.372 3.443.801l26.747 42.953c.729 1.172.371 2.714-.801 3.443-.411.256-.868.378-1.319.378z" fill="#415050"/></g><g><path d="m78.036 431.203c-2.004 0-3.962-1.003-5.099-2.83l-26.747-42.953c-1.752-2.812-.892-6.513 1.921-8.265 2.815-1.75 6.514-.891 8.265 1.922l26.747 42.953c1.752 2.812.892 6.513-1.921 8.265-.987.614-2.083.908-3.166.908z" fill="#3c4646"/></g><g><path d="m435.698 431.203c-1.083 0-2.179-.293-3.166-.908-2.812-1.751-3.673-5.452-1.921-8.265l26.747-42.953c1.752-2.813 5.451-3.673 8.265-1.922 2.812 1.751 3.673 5.452 1.921 8.265l-26.747 42.953c-1.137 1.826-3.095 2.83-5.099 2.83z" fill="#415050"/></g></g></g></svg>