<svg id="Layer_1" enable-background="new 0 0 512 512" height="512" viewBox="0 0 512 512" width="512" xmlns="http://www.w3.org/2000/svg"><g><g><path d="m256 1.8c-98.2 0-158.7 55.4-158.8 55.5 0 0-2.5 3.1-3 5.2-3.8 17-7.4 39.7-7.4 56.3 0 140.9 118.8 255.1 259.7 255.1 54.3 0 114.6-26 155-57.3.9-.7 3.8-5.4 3.8-5.4.2-1.1 5.8-23.5 5.8-54.3 0-140.9-114.2-255.1-255.1-255.1z" fill="#9bd069"/><path d="m346.5 366.6c-140.9 0-255.1-114.2-255.1-255.1 0-18.6 2-36.8 5.8-54.3-58.7 46.8-96.3 118.8-96.3 199.7 0 67.6 26.3 129 69.2 174.7l376.1-4.5c28.8-32.2 49.7-71.8 59.2-115.9-43.7 34.7-98.9 55.4-158.9 55.4z" fill="#6ec186"/></g><g><g><path d="m315.3 0h-62.1c-14.9 0-27 12.1-27 27v377.4h172.3v-321.2c0-45.9-37.3-83.2-83.2-83.2z" fill="#df75a5"/></g><g><g><g><path d="m396.2 189.8c0 15.1-12.2 27.3-27.3 27.3v-69.2c15.1 0 27.3 12.2 27.3 27.3z" fill="#554e56"/></g></g></g><g><path d="m227.6 404.4v-321.2c0-46-6-83.2 32-83.2h-66.6c-46 0-83.2 37.3-83.2 83.2v321.1h117.8z" fill="#da2ea2"/></g><g><path d="m180.5 221.1h56.1v187.8h-56.1z" fill="#d80a61"/></g><path d="m369.1 380.1h-102.8c-43.8 0-79.3 35.5-79.3 79.3l.6 43.3c20.3 5.6 41.6 8.8 63.7 9.3l9.2-3.6 9.2 3.3c27.7-1.5 54.3-7.4 79.1-17.1l36.3-17.6c22.8-13.4 43.4-30.3 61-49.9-14.4-27.9-43.5-47-77-47z" fill="#55696e"/><path d="m181.5 380.1c-34.4 0-34.4-.1-38.7.3-32.5 2.4-60.1 22.7-72.7 51.1 17.2 18.3 37 34 58.8 46.6l36.3 17.2c7.3 2.8 14.8 5.3 22.4 7.4v-35.9c0-45.7 35.4-83.1 80.2-86.4 2.1-.2 3.2-.2 7.6-.3z" fill="#415050"/><g><g><g><path d="m300.2 386.5c0 22.7-18.4 41-41 41-22.7 0-41-18.4-41-41v-91.9h82.1z" fill="#ffbe82"/></g></g></g><g><path d="m259.2 384.5c-22.7 0-41-18.4-41-41v43c0 22.7 18.4 41 41 41 22.7 0 41-18.4 41-41v-43c0 22.6-18.4 41-41 41z" fill="#f1d333"/></g><g><g><g><path d="m353.4 101.9c0-18.2-14.5-33.2-32.7-33.3-.1 0-.3 0-.4 0h-59.1c-33 0-62.9 12.8-85.1 33.8v169.1c0 42.6 34.3 77.4 76.8 77.7h.7 2.6c54.2-1.2 97.2-46.2 97.2-100.5z" fill="#ffbe82"/></g></g></g><g><g><g><path d="m204.4 187.7v10c0 5.4 4.3 9.7 9.7 9.7s9.7-4.3 9.7-9.7v-10z" fill="#ff965a"/></g></g></g><g><g><g><path d="m283.6 187.7v10c0 5.4 4.3 9.7 9.7 9.7s9.7-4.3 9.7-9.7v-10z" fill="#ff965a"/></g></g></g><g><g><g><path d="m214.1 199.3c-5.4 0-9.7-4.3-9.7-9.7v-7.2l3.9-5.9-3.9-5.9v-7.7c0-5.4 4.3-9.7 9.7-9.7s9.7 4.3 9.7 9.7v26.5c0 5.5-4.4 9.9-9.7 9.9z" fill="#373c41"/></g></g></g><g><g><g><path d="m293.3 199.3c-5.4 0-9.7-4.3-9.7-9.7v-9.1l3.9-5.9-3.9-5.9v-5.8c0-5.4 4.3-9.7 9.7-9.7s9.7 4.3 9.7 9.7v26.5c0 5.5-4.3 9.9-9.7 9.9z" fill="#373c41"/></g></g></g><g><g><g><g><path d="m226.8 148.5h-28.3c-5.4 0-9.7-4.3-9.7-9.7 0-5.4 4.3-9.7 9.7-9.7h28.3c5.4 0 9.7 4.3 9.7 9.7.1 5.4-4.3 9.7-9.7 9.7z" fill="#df75a5"/></g></g></g></g><g><g><g><g><path d="m307.7 148.5h-28.3c-5.4 0-9.7-4.3-9.7-9.7 0-5.4 4.3-9.7 9.7-9.7h28.3c5.4 0 9.7 4.3 9.7 9.7 0 5.4-4.3 9.7-9.7 9.7z" fill="#df75a5"/></g></g></g></g><g><g><g><path d="m239 215.9c-2.4 8.5 2 17.8 10.4 20.5 1.7.6 3.5.9 5.4.9s3.7-.3 5.4-.9c8.4-2.8 12.8-12 10.4-20.5l-11.8-41.5c-1.1-4-6.8-4-7.9 0z" fill="#ff965a"/></g></g></g><g><path d="m264.4 68.8c-70.3-.1-127.4 56.8-127.4 127.1v36.8c0 71.6 64.3 127 136.3 114.8-55-9.4-96.8-57.2-96.8-114.8 0-51.6 0-75.5 0-87.2 0-9.2 7.5-16.8 16.8-16.8h86.2c32.9 0 59.5-26.6 59.5-59.5 0-.1-38.3-.3-74.6-.4z" fill="#ff965a"/></g><g><path d="m291.8 253.8h-10.2l-26.8 5.6-26.8-5.6h-9c-3 0-5.4 2.6-5 5.6.8 5.7 2.7 11.1 5.6 15.9l54.3 16.1c12.3-6 21.2-17.9 23.1-32 .3-3-2.2-5.6-5.2-5.6z" fill="#a51f6b"/></g><g><path d="m219.5 275.3c7.3 12.2 20.7 20.4 35.9 20.4 6.6 0 12.9-1.5 18.4-4.3-2.4-15-15.4-26.4-31-26.4-9.3-.1-17.6 3.9-23.3 10.3z" fill="#da4a54"/></g><g><path d="m281.6 259c0 3.3-2.6 5.9-5.9 5.9h-41.9c-3.3 0-5.9-2.6-5.9-5.9v-5.2h53.7z" fill="#fff"/></g><g><path d="m208.3 186.3c-2.2 0-3.9-1.7-3.9-3.9v-11.7c0-2.2 1.7-3.9 3.9-3.9 2.2 0 3.9 1.7 3.9 3.9v11.7c0 2.2-1.8 3.9-3.9 3.9z" fill="#fff"/></g><g><path d="m287.5 184.4c-2.2 0-3.9-1.7-3.9-3.9v-11.7c0-2.2 1.7-3.9 3.9-3.9 2.2 0 3.9 1.7 3.9 3.9v11.7c0 2.2-1.8 3.9-3.9 3.9z" fill="#fff"/></g><g><path d="m111.3 83.6h69.2v296.6h-69.2z" fill="#da2ea2"/></g><g><path d="m370.1 117.9c-.3-27.3-22.5-49.3-49.8-49.3h-18.2c27.3 0 49.5 22 49.8 49.3l1.1 113.6c0 61.6-47.4 112.2-107.7 117.2 2.4.3 4.9.4 7.4.4h.9c65 0 117.6-52.7 117.6-117.7z" fill="#554e56"/></g><g><path d="m280.9 106.6h-132.1c0-39.2 31.8-71 71-71h132.1c-.1 39.3-31.8 71-71 71z" fill="#df75a5"/></g><g><path d="m344.9 281-14.1-30.7c-4.5-9.8-6.9-20.6-6.9-31.3v-65.3c0-17.7 6.3-34.8 17.7-48.3l10.4-12.4 11.7 9.9-10.4 12.4c-9.1 10.7-14.1 24.4-14.1 38.5v65.2c0 8.5 1.9 17.2 5.5 24.9l14.1 30.7z" fill="#554e56"/></g><g><path d="m344.6 248.9c-.2.5-.4.9-.6 1.3-12 23.5-29.5 45-52.6 58.2 19-16.5 31.6-39.6 38.5-63.6.1-.4.2-.7.2-1z" fill="#554e56"/></g><g><ellipse cx="388.3" cy="181.3" fill="#55c7a6" rx="3.2" ry="18"/></g><g><path d="m128.9 377.8v100.4c2.7 1.6 5.4 3.1 8.2 4.5l10 3.1 7.6 5.3c3.5 1.5 7 2.9 10.6 4.3v-117.6z" fill="#e28424"/><g><path d="m154.8 361.1h-104.6l104.6 78.8z" fill="#e28424"/></g><g><path d="m165.2 447.8v-83.1c0-17.7-14.3-32-32-32h-83.1z" fill="#f1d333"/></g><g><path d="m137 452.5h18.5v14h-18.5z" fill="#f1d333"/></g><path d="m137 482.6c5.7 3 11.6 5.8 17.6 8.4h.9v-14h-18.5z" fill="#f1d333"/></g><g><path d="m348.8 377.8v116.8c3.2-1.3 6.5-2.6 9.6-4l8.5-6.8 10-2.3c2.8-1.5 5.5-3 8.2-4.6v-99.2h-36.3z" fill="#e28424"/><g><path d="m358.8 361.1v79.1l105-79.1z" fill="#e28424"/></g><g><path d="m348.8 447.8v-83.1c0-17.7 14.3-32 32-32h83.1z" fill="#f1d333"/></g><g><path d="m358.4 452.5h18.5v14h-18.5z" fill="#f1d333"/></g><path d="m376.9 481.5v-4.5h-18.5v13.5c6.3-2.7 12.5-5.7 18.5-9z" fill="#f1d333"/></g><path d="m256 512c4.6 0 9.2-.1 13.7-.4v-121.3h-18.4v121.7z" fill="#415050"/></g></g></svg>