<svg id="Layer_1" enable-background="new 0 0 512.072 512.072" height="512" viewBox="0 0 512.072 512.072" width="512" xmlns="http://www.w3.org/2000/svg"><g><g><g><path d="m256.036 2.072c-98.131 0-158.58 55.352-158.747 55.445 0 0-2.513 3.137-2.983 5.222-3.818 16.948-7.385 39.663-7.385 56.238 0 140.833 118.763 254.972 259.596 254.972 54.231 0 114.568-25.992 154.949-57.243.903-.699 3.769-5.396 3.769-5.396.178-1.087 5.8-23.477 5.8-54.239.001-140.832-114.166-254.999-254.999-254.999z" fill="#b1e4f9"/></g><path d="m346.495 366.751c-140.833 0-255-114.167-255-255 0-18.615 2.007-36.753 5.795-54.234-58.645 46.72-96.254 118.747-96.254 199.555 0 53.443 16.441 103.047 44.54 144.028l420.907.026c18.27-26.64 31.64-56.99 38.752-89.816-43.559 34.696-98.724 55.441-158.74 55.441z" fill="#9dc6fb"/></g><g><path d="m413.291 364.122-11.287-2.498-293.938.392-9.337 2.072c-22.534 5.002-41.313 18.662-53.151 37.011 29.431 42.923 71.652 76.388 121.168 94.901l182.655-1.596c47.604-18.75 88.387-51.438 117.083-93.279-11.85-18.354-30.644-32.013-53.193-37.003z" fill="#da2ea2"/><path d="m256.2 329.36-.502-.111-156.97 34.84c-22.534 5.002-41.313 18.662-53.151 37.011 45.948 67.012 123.07 110.972 210.459 110.972h.164z" fill="#d80a61"/><g><g><g><path d="m139.882 245.334v-105.117l-48.409-50.972c-8.119-8.549-22.513-2.803-22.513 8.987v76.18c0 39.169 31.753 70.922 70.922 70.922z" fill="#ff965a"/></g></g></g><g><circle cx="130.444" cy="181.387" fill="#ffbe82" r="34.616"/></g><g><g><g><path d="m369.591 245.334v-105.117l48.409-50.972c8.119-8.549 22.513-2.803 22.513 8.987v76.18c.001 39.169-31.752 70.922-70.922 70.922z" fill="#ff965a"/></g></g></g><path d="m257.678 430.801v81.251c32.265-.205 63.217-6.421 91.722-17.648v-63.603z" fill="#f1d333"/><path d="m166.745 496.001c27.79 10.39 57.877 16.071 89.291 16.071.679 0 1.358-.004 2.036-.009v-81.262h-91.328v65.2z" fill="#ecc32e"/><g><circle cx="379.03" cy="181.387" fill="#ffbe82" r="34.616"/></g><g><path d="m257.018 346.306v113.555h63.968c44.697 0 80.931-36.234 80.931-80.931v-16.914z" fill="#6ec186"/></g><g><path d="m258.072 346.509-2.374-.346-147.632 15.853v16.914c0 44.697 36.234 80.931 80.931 80.931h69.076v-113.352z" fill="#66b49d"/></g><g><path d="m401.917 361.605-146.219-32.356-147.632 32.767c0 44.697 36.234 80.931 80.931 80.931h131.989c44.697 0 80.931-36.234 80.931-80.931z" fill="#ffbe82"/></g><g><g><g><path d="m301.847 369.762c0 25.134-20.375 45.509-45.509 45.509-25.134 0-45.509-20.375-45.509-45.509v-101.934h91.019v101.934z" fill="#dd7643"/></g></g></g><g><g><g><path d="m168.882 50.765v205.882c0 47.912 36.291 85.31 84.202 85.673.336.003 7.938 1.753 10.257 1.629 68.1-3.637 122.2-60.009 122.2-129.016v-141.636c0-40.062-32.411-72.572-72.472-72.695l-93.58-.287c-27.925-.087-50.607 22.526-50.607 50.45z" fill="#ffbe82"/></g></g></g><g><g><path d="m244.459 0c-3.519 0-6.981.284-10.371.828h23.755z" fill="#ff965a"/></g><g><path d="m169.314 218.635c.323-7.341-.054-116.414-.054-143.436l.054 5.808c0-38.013 28.159-74.303 64.774-80.18h-33.033c-41.531 0-72.353 30.821-72.353 72.353l-2.847 100.964v39.46c0 35.817 14.718 70.06 40.706 94.708 25.988 24.647 60.962 37.533 96.729 35.639l.051-.003c-54.32-15.775-94.027-65.904-94.027-125.313z" fill="#ff965a"/></g></g><g><g><g><g><g><path d="m236.213 133.351c0 5.943-4.818 10.761-10.761 10.761h-78.978c-5.943 0-10.761-4.818-10.761-10.761 0-5.943 4.818-10.761 10.761-10.761h78.978c5.943 0 10.761 4.818 10.761 10.761z" fill="#ff965a"/></g></g></g></g><g><g><g><g><path d="m375.004 133.351c0 5.943-4.818 10.761-10.761 10.761h-78.978c-5.943 0-10.761-4.818-10.761-10.761 0-5.943 4.818-10.761 10.761-10.761h78.978c5.944 0 10.761 4.818 10.761 10.761z" fill="#ff965a"/></g></g></g></g><g><g><g><g><path d="m236.213 124.34c0 5.943-4.818 10.761-10.761 10.761h-78.978c-5.943 0-10.761-4.818-10.761-10.761 0-5.943 4.818-10.761 10.761-10.761h78.978c5.943 0 10.761 4.818 10.761 10.761z" fill="#ffbe82"/></g></g></g></g><g><g><g><g><path d="m375.004 124.34c0 5.943-4.818 10.761-10.761 10.761h-78.978c-5.943 0-10.761-4.818-10.761-10.761 0-5.943 4.818-10.761 10.761-10.761h78.978c5.944 0 10.761 4.818 10.761 10.761z" fill="#ffbe82"/></g></g></g></g></g><g><g><path d="m224.147 215.207v-13.934c0-7.03 5.699-12.728 12.728-12.728h13.934c0 14.725-11.937 26.662-26.662 26.662z" fill="#ff965a"/></g><g><path d="m290.126 215.207v-13.934c0-7.03-5.699-12.728-12.728-12.728h-13.934c0 14.725 11.937 26.662 26.662 26.662z" fill="#ff965a"/></g></g><g><path d="m270.443 306.203h-25.985c0-7.176 5.817-12.993 12.993-12.993 7.175 0 12.992 5.817 12.992 12.993z" fill="#ff965a"/></g><g><ellipse cx="237.568" cy="197.936" fill="#373c41" rx="6.89" ry="2.156"/></g><g><ellipse cx="276.795" cy="197.936" fill="#373c41" rx="6.89" ry="2.156"/></g><g><g><circle cx="174.764" cy="168.301" fill="#373c41" r="27.479"/></g><g><path d="m147.545 183.909c1.825 13.407 13.312 23.74 27.219 23.74s25.394-10.334 27.219-23.74z" fill="#ff965a"/></g><g><ellipse cx="170.315" cy="168.301" fill="#6ec186" rx="8.414" ry="12.864"/></g></g><g><g><circle cx="340.106" cy="168.301" fill="#373c41" r="27.479"/></g><g><path d="m367.324 183.909c-1.825 13.407-13.312 23.74-27.219 23.74s-25.394-10.334-27.219-23.74z" fill="#ff965a"/></g><g><ellipse cx="344.555" cy="168.301" fill="#6ec186" rx="8.414" ry="12.864"/></g></g><g><path d="m269.876 273.851h-28.49c-19.069 0-34.527-15.458-34.527-34.527h97.544c0 19.069-15.458 34.527-34.527 34.527z" fill="#373c41"/></g><g><path d="m222.881 250.59v-14.681h18.459l-13.628 16.682c-1.784 1.782-4.831.519-4.831-2.001z" fill="#fff"/></g><g><path d="m291.333 250.59v-14.681h-18.459l13.628 16.682c1.783 1.782 4.831.519 4.831-2.001z" fill="#fff"/></g><g><path d="m304.403 239.324h-97.544c0-4.819 3.906-8.725 8.725-8.725h80.094c4.819 0 8.725 3.907 8.725 8.725z" fill="#ff965a"/></g><g><path d="m230.677 387.954h-75.602c-8.391 0-15.193-6.802-15.193-15.193h90.795z" fill="#dd7643"/></g><g><path d="m279.357 387.954h75.602c8.391 0 15.193-6.802 15.193-15.193h-90.795z" fill="#dd7643"/></g><path d="m78.902 371.142c-3.717 1.869-7.268 3.997-10.633 6.358l31.523 81.112c4.667 3.624 9.464 7.089 14.382 10.387v-5.955c0-.757-.141-1.507-.415-2.212z" fill="#66b49d"/><path d="m412.293 458.58 31.497-81.045c-3.365-2.36-6.917-4.488-10.634-6.356l-34.842 89.653c-.274.705-.415 1.455-.415 2.212v5.925c4.92-3.297 9.721-6.763 14.394-10.389z" fill="#6ec186"/></g></g></svg>