<svg id="Layer_1" enable-background="new 0 0 510 510" height="512" viewBox="0 0 510 510" width="512" xmlns="http://www.w3.org/2000/svg"><g><g><g><path d="m255 11.959c-95.83 0-154.862 54.054-155.024 54.145 0 0-2.454 3.063-2.913 5.1-3.729 16.551-7.212 38.733-7.212 54.92 0 137.53 115.978 248.993 253.508 248.993 52.96 0 111.881-25.382 151.316-55.901.882-.683 3.681-5.27 3.681-5.27.173-1.061 5.664-22.926 5.664-52.967 0-137.529-111.49-249.02-249.02-249.02z" fill="#b1e4f9"/></g><path d="m343.337 368.087c-137.53 0-249.02-111.49-249.02-249.02 0-18.178 1.96-35.891 5.659-52.962-57.27 45.624-93.996 115.962-93.996 194.875 0 50.23 14.872 96.987 40.453 136.107l417.138.003c16.279-24.897 28.243-52.948 34.785-83.143-42.538 33.881-96.409 54.14-155.019 54.14z" fill="#9dc6fb"/></g><g><g><path d="m419.1 422.569h-326.47v-102.559c0-18.819 15.256-34.075 34.075-34.075h258.32c18.819 0 34.075 15.256 34.075 34.075z" fill="#3c4646"/></g><g><path d="m371.61 129.544h-228.61l59.796-117.585h109.017z" fill="#415050"/></g><path d="m339.562 369.543-83.116-18.392-86.008 18.392-71.817 16.637 71.818 109.095c21.466 7.749 44.303 12.632 68.047 14.186l6.687-4.13 5.313 4.629c1.501.027 3.006.04 4.514.04 2.434 0 4.86-.035 7.278-.105l5.134-2.802 6.866 2.169c32.974-2.535 64.258-11.519 92.521-25.743l3.878-5.27 8.3-1.289c5.237-3.011 10.357-6.208 15.349-9.583l20.57-81.163z" fill="#55696e"/><path d="m98.621 386.18 17.029 81.21c5.598 3.786 11.358 7.351 17.268 10.682l7.228.838 4.87 5.548c8.228 4.057 16.712 7.673 25.423 10.817v-125.035z" fill="#415050"/><g><g><g><path d="m257.089 466.089c-38.64 0-69.963-31.324-69.963-69.963v-156.708h139.927v156.707c0 38.64-31.324 69.964-69.964 69.964z" fill="#3c4646"/></g></g></g><g><g><g><path d="m257.089 437.641c-25.271 0-45.757-20.486-45.757-45.757v-102.49h91.515v102.489c-.001 25.272-20.487 45.758-45.758 45.758z" fill="#ff965a"/></g></g></g><g><g><g><path d="m381.219 128.851c0-41.758-26.788-79.942-68.546-79.942h-111.167c-11.915 0-22.828 3.118-32.349 8.532v220.712c0 48.173 36.21 86.699 84.383 86.701 1.537 0 8.02 1.208 10.234 1.095 68.639-3.479 123.222-60.234 123.222-129.738v-41.011z" fill="#ffbe82"/></g></g></g><g><g><g><path d="m386.996 218.818v-77.215c16.822 0 30.459 13.637 30.459 30.459v16.298c0 16.822-13.637 30.458-30.459 30.458z" fill="#ff965a"/></g></g></g><g><g><g><path d="m95.438 188.36c0 16.822 13.637 30.459 30.459 30.459v-77.215c-16.822 0-30.459 13.637-30.459 30.459z" fill="#ff965a"/></g></g></g><g><g><path d="m264.13 365.93c-54.616-15.861-94.539-66.263-94.539-125.996.324-7.381 0-78.906 0-106.075 0-41.758 33.851-75.609 75.609-75.609h94.362c-8.301-3.224-17.351-5.007-26.89-5.007h-111.166c-41.758 0-72.747 30.989-72.747 72.747l-2.862 69.211v39.726c0 74.979 62.823 134.997 138.233 131.003z" fill="#ff965a"/></g></g><g><g><g><path d="m239.558 234.204c-2.69 10.741 2.199 22.44 11.546 25.967 1.881.71 3.893 1.094 5.985 1.094 2.091 0 4.104-.384 5.985-1.094 9.348-3.526 14.236-15.226 11.546-25.967l-8.917-35.607c-2.245-8.964-14.984-8.964-17.229 0z" fill="#ff965a"/></g></g></g><g><path d="m326.769 249.963h-140.645c-23.653 0-42.827-19.174-42.827-42.827v-56.094c0-23.653 19.174-42.827 42.827-42.827h140.645c23.653 0 42.827 19.174 42.827 42.827v56.094c0 23.652-19.174 42.827-42.827 42.827z" fill="#ff965a"/></g><g><path d="m326.769 234.581h-140.645c-23.653 0-42.827-19.174-42.827-42.827v-56.094c0-23.653 19.174-42.827 42.827-42.827h140.645c23.653 0 42.827 19.174 42.827 42.827v56.094c0 23.653-19.174 42.827-42.827 42.827z" fill="#415050"/></g><path d="m319.454 109.62h-126.015c-16.996 0-30.774 13.778-30.774 30.774v44.219c0 5.461 1.422 10.589 3.916 15.035l24.691 15.664c.716.05 1.438.075 2.166.075h13.151l7.758-2.239 6.237 2.239h15.442l20.42-4 8.459 4h15.398l8.906-2.019 4.464 2.019h25.78c16.996 0 30.774-13.778 30.774-30.774v-25.78l-1.345-6.676 1.345-6.695v-5.069c.001-16.995-13.777-30.773-30.773-30.773z" fill="#9bd069"/><g><path d="m191.273 215.311c35.174-35.205 70.399-70.359 105.445-105.691h-40.105l-90.025 90.024c4.936 8.799 14.066 14.928 24.685 15.667z" fill="#fff"/></g><g><path d="m326.062 110.339c-2.129-.466-4.338-.719-6.608-.719h-7.405c-35.033 35.375-70.263 70.554-105.459 105.767h13.994c35.18-34.995 70.369-69.981 105.478-105.048z" fill="#fff"/></g><g><path d="m348.883 131.409c-2.06-6.752-6.37-12.522-12.067-16.423-12.22 12.21-24.445 24.415-36.683 36.607-21.357 21.277-42.733 42.534-64.107 63.793h28.879z" fill="#fff"/></g><g><path d="m350.228 158.833v-13.37l-69.925 69.924h13.371z" fill="#fff"/></g><g><g><path d="m153.392 56.777c-15.185 0-27.496 12.31-27.496 27.496v45.264.003 65.66c9.61 0 17.4-7.79 17.4-17.4v-76.781c0-16.856 9.367-32.474 24.486-39.926.483-.238.965-.468 1.446-.692v-3.624z" fill="#5a2d19"/></g><g><path d="m377.345 76.682c-6.354 0-10.972 6.033-9.309 12.165 1.021 3.765 1.56 7.695 1.56 11.702v77.251c0 9.61 7.79 17.4 17.4 17.4v-108.867c0-5.33-4.321-9.651-9.651-9.651z" fill="#5a2d19"/></g></g><path d="m394.319 369.543h-54.757c0 41.385 21.911 77.652 54.765 97.834 20.968-14.172 39.692-31.468 55.481-51.261l4.98-11.187 7.02-5.18c.593-.882 1.18-1.768 1.762-2.658-18.061-17.078-42.433-27.548-69.251-27.548z" fill="#9bd069"/><path d="m115.681 369.543c-26.816 0-51.187 10.47-69.248 27.544 1.158 1.771 2.338 3.526 3.539 5.265l5.624 3.677 6.376 12.289c15.384 18.851 33.474 35.406 53.679 49.073 32.866-20.179 54.787-56.453 54.787-97.847h-54.757z" fill="#9bd069"/><path d="m225.8 471.169h-75.777c-6.634 0-12.665 2.631-17.105 6.903 3.878 2.185 7.82 4.27 11.823 6.25 1.609-.74 3.398-1.153 5.282-1.153h75.777c6.995 0 12.686 5.691 12.686 12.686v13.606c3.975.26 7.976.427 12 .499v-14.105c0-13.612-11.074-24.686-24.686-24.686z" fill="#3c4646"/><path d="m286.963 470.853c-13.611 0-24.686 11.074-24.686 24.687v14.355c4.023-.116 8.024-.327 12-.633v-13.722c0-6.996 5.69-12.687 12.686-12.687h75.777c1.419 0 2.784.234 4.058.666 4.125-2.076 8.186-4.264 12.179-6.559-4.344-3.8-10.026-6.106-16.237-6.106h-75.777z" fill="#3c4646"/><g><path d="m283.697 295.471h-53.215c-11.635 0-21.067-9.432-21.067-21.067h95.349c0 11.635-9.432 21.067-21.067 21.067z" fill="#fff"/></g><g><path d="m392.559 142.119h-271.13v-56.692c0-27.923 22.636-50.559 50.559-50.559l9.113 4.775 3.207-4.775h145.372l6 4.115 6.32-4.115c27.923 0 50.559 22.636 50.559 50.559z" fill="#415050"/></g><path d="m329.68 34.869h12v88.104h-12z" fill="#9bd069"/><path d="m172.307 34.869h12v88.104h-12z" fill="#9bd069"/><g><path d="m257.305 178.735c-30.104 0-54.508-24.404-54.508-54.508v-97.198h109.017v97.197c-.001 30.105-24.405 54.509-54.509 54.509z" fill="#415050"/></g><path d="m257.305 0-26.21 83.516 26.21 80.149c30.104 0 54.508-24.404 54.508-54.508v-97.198z" fill="#fff"/><g><path d="m257.305 0-54.508 11.959v97.197c0 30.104 24.404 54.508 54.508 54.508z" fill="#afe6ff"/></g><g><circle cx="257.305" cy="106.731" fill="#415050" r="39.31"/></g><g><circle cx="257.305" cy="106.731" fill="#9bd069" r="26.21"/></g><g><circle cx="257.305" cy="106.731" fill="#fff" r="10.062"/></g><g fill="#3c4646"><path d="m427.558 323.9h-23.576c-3.313 0-6 2.687-6 6 0 3.314 2.687 6 6 6h23.576c12.269 0 22.25 9.981 22.25 22.249v57.966c4.213-5.282 8.218-10.742 12-16.367v-41.599c0-18.885-15.364-34.249-34.25-34.249z"/><path d="m107.798 323.9h-23.576c-18.885 0-34.25 15.364-34.25 34.249v44.203c3.79 5.486 7.794 10.812 12 15.966v-60.169c0-12.268 9.981-22.249 22.25-22.249h23.576c3.313 0 6-2.686 6-6s-2.687-6-6-6z"/></g></g></g></svg>