<svg id="Layer_1" enable-background="new 0 0 510 510" height="512" viewBox="0 0 510 510" width="512" xmlns="http://www.w3.org/2000/svg"><g><g><path d="m255 16.973c-94.865 0-153.303 53.51-153.464 53.6 0 0-2.43 3.032-2.884 5.048-3.691 16.384-7.14 38.343-7.14 54.367 0 136.146 114.811 246.487 250.957 246.487 52.426 0 110.755-25.127 149.793-55.338.873-.676 3.644-5.217 3.644-5.217.172-1.051 5.607-22.695 5.607-52.433.001-136.146-110.367-246.514-246.513-246.514z" fill="#b1e4f9"/><path d="m342.448 369.515c-136.146 0-246.514-110.368-246.514-246.514 0-17.995 1.941-35.529 5.602-52.429-56.693 45.165-93.05 114.795-93.05 192.914 0 50.588 15.238 97.617 41.375 136.748l411.294-1.526c16.276-24.766 28.233-52.702 34.751-82.788-42.109 33.541-95.438 53.595-153.458 53.595z" fill="#9dc6fb"/></g><g><g><path d="m439.52 392.251h-368.85v-67.441c0-18.185 14.742-32.927 32.927-32.927h302.996c18.185 0 32.927 14.742 32.927 32.927z" fill="#3c4646"/><path d="m451.374 385.955-6.92-1.394-2.505-7.254c-9.51-7.46-20.759-12.915-33.179-15.664l-153.112-33.881-152.508 33.849c-12.406 2.754-23.641 8.209-33.141 15.663l-3.059 10.919-6.365-2.269c-4.075 4.366-7.672 9.164-10.723 14.309 8.081 12.098 17.204 23.442 27.24 33.902l6.692 1.618 5.364 10.123c4.094 3.725 8.315 7.314 12.654 10.76l52.148 31.772c30.834 13.873 65.036 21.592 101.04 21.592 36.599 0 71.479-8.02 102.879-22.462l52.385-32.587c4.304-3.491 8.489-7.126 12.548-10.897l5.788-9.621 6.421-2.54c9.614-10.266 18.366-21.365 26.134-33.185-2.841-4.559-6.118-8.83-9.781-12.753z" fill="#55696e"/><g><g><path d="m256.278 438.828c-37.338 0-67.606-30.268-67.606-67.606v-151.427h135.212v151.427c0 37.337-30.268 67.606-67.606 67.606z" fill="#3c4646"/></g></g><g><g><path d="m256.278 411.338c-24.42 0-44.216-19.796-44.216-44.215v-99.036h88.431v99.036c.001 24.419-19.795 44.215-44.215 44.215z" fill="#ff965a"/></g></g><g><g><path d="m376.225 112.953c0-40.351-25.886-77.249-66.236-77.249h-107.421c-11.514 0-22.059 3.013-31.259 8.245v213.275c0 46.55 37.238 83.608 83.786 83.96.326.002 5.734.98 7.987.86 66.164-3.534 118.726-58.303 118.726-125.348v-39.63z" fill="#ffbe82"/></g></g><g><path d="m263.082 342.043c-52.776-15.327-91.353-64.03-91.353-121.75.314-7.132 0-76.247 0-102.501 0-40.351 32.711-73.061 73.061-73.061h91.182c-8.021-3.115-16.766-4.839-25.984-4.839h-107.42c-40.351 0-70.296 29.945-70.296 70.296l-2.766 66.879v38.388c0 72.453 60.707 130.448 133.576 126.588z" fill="#ff965a"/></g><g><g><path d="m239.338 214.756c-2.599 10.379 2.124 21.684 11.157 25.092 1.818.686 3.762 1.057 5.783 1.057s3.965-.371 5.783-1.057c9.033-3.408 13.756-14.713 11.157-25.092l-8.616-34.407c-2.169-8.662-14.479-8.662-16.648 0z" fill="#ff965a"/></g></g><path d="m281.989 273.959h-51.422c-11.243 0-20.357-9.114-20.357-20.357h92.136c0 11.243-9.114 20.357-20.357 20.357z" fill="#fff"/></g><path d="m393.786 300.012h-123.593l-11.462-8.128-12.172 8.128h-123.592v-164.602c0-74.785 60.624-135.41 135.409-135.41 74.785 0 135.41 60.625 135.41 135.41z" fill="#55696e"/><path d="m146.249 125.879h224.255v62.768h-224.255z" fill="#9bd069"/><path d="m354.974 138.898h-193.196v36.73h42.747c23.215 0 42.034 18.819 42.034 42.034v82.35h23.634v-82.35c0-23.215 18.819-42.034 42.034-42.034h42.747z" fill="#3c4646"/><path d="m258.376 102.35c42.349 0 76.802-34.454 76.802-76.803v-1.664c-3.589-2.476-7.303-4.784-11.132-6.911v8.575c0 36.211-29.459 65.671-65.671 65.671s-65.671-29.46-65.671-65.671v-8.575c-3.829 2.127-7.543 4.435-11.132 6.911v1.664c.002 42.35 34.455 76.803 76.804 76.803z" fill="#3c4646"/><g><path d="m136.445 262.568-34.633-23.501v-131.492h34.633z" fill="#3c4646"/><path d="m111.885 125.879h7.243v93.576h-7.243z" fill="#9bd069"/></g><g><path d="m380.63 262.568 34.633-23.501v-131.492h-34.633z" fill="#3c4646"/><path d="m397.947 125.879h7.243v93.576h-7.243z" fill="#9bd069" transform="matrix(-1 0 0 -1 803.136 345.334)"/></g><g fill="#f1d333"><path d="m109.418 370.99v72.091c0 12.556 6.431 24.305 17.142 30.856.06.036.119.073.178.109 8.731 5.33 17.82 10.132 27.222 14.362v-117.418z"/><path d="m153.96 488.408v-138.074l-44.542 9.886v82.86c0 8.627 3.036 16.873 8.41 23.314l36.129 22.012z"/><path d="m358.01 368.788v118.689c8.678-3.998 17.091-8.486 25.2-13.431l19.342-28.089v-77.169z"/><path d="m358.01 350.411v137.045l27.929-17.374 16.613-24.125v-85.689z"/></g><path d="m143.464 449.229h230.534v14.13h-230.534z" fill="#3c4646"/><path d="m153.114 438.828h-42.638c-4.785 0-8.664 3.879-8.664 8.664v9.145c7.927 6.295 16.25 12.113 24.927 17.41h26.376c4.785 0 8.664-3.879 8.664-8.664v-17.89c-.001-4.786-3.88-8.665-8.665-8.665z" fill="#9bd069"/><path d="m410.265 447.492c0-4.785-3.879-8.664-8.664-8.664h-42.638c-4.785 0-8.664 3.879-8.664 8.664v17.89c0 4.785 3.879 8.664 8.664 8.664h24.248c9.449-5.763 18.487-12.145 27.055-19.095v-7.459z" fill="#9bd069"/><path d="m89.158 436.556c0-8.327-1.601-16.454-4.757-24.156l-14.393-35.125c-3.368 2.643-6.517 5.537-9.424 8.651l12.713 31.025c2.255 5.502 3.531 11.272 3.804 17.185 3.905 4.065 7.836 7.901 12.056 11.741v-9.321z" fill="#3c4646"/><path d="m441.948 377.307-14.379 35.093c-3.156 7.702-4.757 15.829-4.757 24.156v7.498c4.208-3.91 8.281-7.966 12.209-12.161.461-5.13 1.682-10.138 3.651-14.943l12.701-30.995c-2.907-3.113-6.057-6.006-9.425-8.648z" fill="#3c4646"/></g></g></svg>