<svg id="Layer_1" enable-background="new 0 0 510 510" height="512" viewBox="0 0 510 510" width="512" xmlns="http://www.w3.org/2000/svg"><g><g><path d="m255 20.268c-94.231 0-152.278 53.152-152.438 53.242 0 0-2.413 3.012-2.865 5.015-3.666 16.275-7.092 38.087-7.092 54.003 0 135.236 114.043 244.839 249.279 244.839 52.076 0 110.015-24.959 148.791-54.968.867-.671 3.62-5.182 3.62-5.182.171-1.043 5.57-22.544 5.57-52.083.001-135.236-109.629-244.866-244.865-244.866z" fill="#b1e4f9"/><path d="m341.864 370.454c-135.236 0-244.866-109.63-244.866-244.866 0-17.875 1.928-35.292 5.564-52.078-56.314 44.863-92.428 114.028-92.428 191.624 0 39.86 9.524 77.495 26.42 110.754l431.204 10.552c12.125-21.229 21.18-44.495 26.538-69.223-41.828 33.317-94.801 53.237-152.432 53.237z" fill="#9dc6fb"/></g><g><path d="m251.991 0-26.721 122.983 26.721 271.172c91.328-67.349 204.629-88.235 204.629-197.078s-91.616-197.077-204.629-197.077z" fill="#f1d333"/><path d="m47.362 197.078c0 108.843 125.413 142.206 204.629 197.078v-394.156c-113.013 0-204.629 88.235-204.629 197.078z" fill="#e7a52e"/><path d="m257.814 339.239-146.175 32.444 139.208 138.282c1.382.023 2.766.035 4.153.035.989 0 1.977-.006 2.964-.018l146.605-138.268z" fill="#af5d2f"/><path d="m212.03 453.148-91.687-65.47-61.272 24.351c43.578 58.032 112.339 96.073 190.059 97.901z" fill="#3c4646"/><path d="m289.067 464.597-29.208 45.354c82.023-1.605 154.875-43.747 198.231-107.967 1.673-2.479-77.177-14.306-77.177-14.306z" fill="#3c4646"/><g><g><path d="m364.005 245.125v-104.221c22.705 0 41.111 18.406 41.111 41.111v21.999c0 22.705-18.406 41.111-41.111 41.111z" fill="#914924"/></g></g><g><g><path d="m296.789 376.966c0 23.406-18.974 42.379-42.38 42.379-23.406 0-42.38-18.974-42.38-42.379v-94.924h84.759v94.924z" fill="#914924"/></g></g><path d="m307.238 33.194-87.145-.268c-26.003-.08-47.126 20.978-47.126 46.981v191.723l9.497 25.492c12.072 32.403 42.538 54.289 77.099 55.388l5.095.162c61.652-5.201 110.068-56.89 110.068-119.887v-131.896c.001-37.306-30.181-67.581-67.488-67.695z" fill="#af5d2f"/><g><g><path d="m147.901 245.125v-104.221c-22.705 0-41.111 18.406-41.111 41.111v21.999c0 22.705 18.406 41.111 41.111 41.111z" fill="#914924"/></g></g><g><g><path d="m202.424 187.825v8.484c0 5.534 4.487 10.021 10.021 10.021s10.021-4.487 10.021-10.021v-8.484z" fill="#914924"/></g></g><g><g><path d="m284.075 187.825v8.484c0 5.534 4.487 10.021 10.021 10.021s10.021-4.487 10.021-10.021v-8.484z" fill="#914924"/></g></g><g><path d="m260.931 352.928c-50.584-14.69-87.56-61.372-87.56-116.695.301-6.836 0-102.999 0-128.163 0-38.675 31.353-70.028 70.028-70.028h87.396c-7.688-2.986-16.07-4.638-24.905-4.638h-102.961c-38.675 0-67.377 28.701-67.377 67.377l-2.651 94.02v36.747c0 33.354 13.706 65.242 37.906 88.195 24.2 22.952 56.769 34.952 90.076 33.188z" fill="#914924"/></g><g><g><path d="m212.445 198.304c-5.534 0-10.021-4.487-10.021-10.021v-12.89l3.694-5.594-3.694-5.594v-3.329c0-5.534 4.487-10.021 10.021-10.021s10.021 4.487 10.021 10.021v27.407c0 5.534-4.487 10.021-10.021 10.021z" fill="#373c41"/></g></g><g><g><path d="m294.096 198.304c-5.534 0-10.021-4.487-10.021-10.021v-12.89l3.694-5.594-3.694-5.594v-3.329c0-5.534 4.487-10.021 10.021-10.021s10.021 4.487 10.021 10.021v27.407c0 5.534-4.487 10.021-10.021 10.021z" fill="#373c41"/></g></g><path d="m206.118 179.087c-2.04 0-3.694-1.654-3.694-3.694v-11.188c0-2.04 1.654-3.694 3.694-3.694 2.04 0 3.694 1.654 3.694 3.694v11.188c0 2.04-1.654 3.694-3.694 3.694z" fill="#fff"/><path d="m287.769 179.087c-2.04 0-3.694-1.654-3.694-3.694v-11.188c0-2.04 1.654-3.694 3.694-3.694 2.04 0 3.694 1.654 3.694 3.694v11.188c0 2.04-1.654 3.694-3.694 3.694z" fill="#fff"/><ellipse cx="255.953" cy="257.282" fill="#ff965a" rx="55.71" ry="42.453"/><ellipse cx="253.964" cy="210.809" fill="#373c41" rx="19.884" ry="13.731"/><ellipse cx="256.169" cy="246.351" fill="#373c41" rx="40.62" ry="7.052"/><path d="m272.407 239.887 11.688 20.568 2.932-18.69c-4.506-.897-9.428-1.487-14.62-1.878z" fill="#fff"/><path d="m239.889 239.887-11.688 20.568-2.932-18.69c4.507-.897 9.429-1.487 14.62-1.878z" fill="#fff"/><path d="m328.49 160.511h-156.024c-7.89 0-14.286-6.396-14.286-14.286 0-7.89 6.396-14.286 14.286-14.286h156.024c7.89 0 14.286 6.396 14.286 14.286 0 7.89-6.396 14.286-14.286 14.286z" fill="#914924"/><path d="m251.902 26.949v-.027c-.486.001-.974.012-1.461.014-.486-.002-.975-.013-1.461-.014v.027c-26.576.135-53.47 1.596-80.664 4.308-10.816 1.078-17.934 12.042-14.217 22.256 13.245 36.407 60.996 36.209 60.996 76.938h70.691c0-47.172 64.054-39.443 64.366-97.272-33.197-3.944-65.958-6.066-98.25-6.23z" fill="#f1d333"/><path d="m233.912 471.845c-12.559-28.272-34.24-51.513-61.572-66.004l-30.312-16.071c-23.309-12.358-44.823-27.838-63.948-46.011l-60.021-57.035 14.225 73.672c1.029 5.329 2.464 10.504 4.27 15.492 6.466 12.728 14.012 24.815 22.517 36.141 15.624 16.226 36.537 27.259 59.947 30.455l28.913 3.948c38.061 5.197 72.377 25.637 95.073 56.63l5.009 6.84c.943.026 1.888.047 2.834.063z" fill="#da2ea2"/><path d="m366.79 389.77-30.312 16.071c-27.332 14.491-49.013 37.732-61.572 66.004l-16.942 38.137c.941-.011 1.881-.028 2.82-.05l5.031-6.87c22.697-30.993 57.012-51.432 95.073-56.63l28.913-3.948c27.093-3.7 50.841-17.894 66.918-38.489 3.917-5.68 7.602-11.536 11.04-17.556 4.017-8.112 7.001-16.848 8.776-26.044l14.226-73.672-60.021 57.035c-19.126 18.174-40.641 33.654-63.95 46.012z" fill="#df75a5"/></g></g></svg>