<svg id="Layer_1" enable-background="new 0 0 510 510" height="512" viewBox="0 0 510 510" width="512" xmlns="http://www.w3.org/2000/svg"><g><g><g><path d="m255 0c-98.131 0-158.58 55.352-158.747 55.445 0 0-2.513 3.137-2.983 5.222-3.818 16.948-7.385 39.663-7.385 56.238 0 140.833 118.763 254.972 259.596 254.972 54.231 0 114.568-25.992 154.949-57.243.903-.699 3.769-5.396 3.769-5.396.178-1.087 5.8-23.477 5.8-54.239.001-140.832-114.166-254.999-254.999-254.999z" fill="#734a9b"/></g><path d="m345.459 364.679c-140.833 0-255-114.167-255-255 0-18.615 2.008-36.753 5.795-54.234-58.645 46.72-96.254 118.747-96.254 199.555 0 56.407 18.314 108.535 49.321 150.765l411.348.021c20.723-28.214 35.812-60.923 43.53-96.547-43.559 34.695-98.724 55.44-158.74 55.44z" fill="#5e3881"/></g><g><g><path d="m139.067 79.236-131.354 166.146c-7.3 9.233-2.005 22.855 9.598 24.835 16.925 2.887 40.555 3.668 63.504-6.5 68.424-30.316 58.252-184.481 58.252-184.481z" fill="#ff965a"/></g><g><path d="m370.933 79.236 131.355 166.147c7.3 9.233 2.005 22.855-9.598 24.835-16.925 2.887-40.555 3.668-63.504-6.5-68.425-30.317-58.253-184.482-58.253-184.482z" fill="#ff965a"/></g></g><path d="m404.473 360.316-149.794-33.147-149.202 33.116c-25.452 5.649-45.863 22.919-56.155 45.48 16.403 22.339 36.357 41.908 59.031 57.874l5.472.489 6.528 7.465c14.979 9.332 30.997 17.153 47.84 23.25l173.617-.032c16.822-6.095 32.843-13.912 47.839-23.25l4.799-9.139 7.201 1.19c22.636-15.929 42.597-35.466 59.021-57.826-10.303-22.567-30.731-39.835-56.197-45.47z" fill="#b1e4f9"/><g fill="#195fa0"><path d="m87.091 367.635-11.185 4.347 32.445 83.487v8.17c3.92 2.76 7.922 5.413 12 7.954v-17.249c0-.744-.138-1.48-.407-2.173z"/><path d="m401.648 463.612v-8.143l32.445-83.487-11.185-4.347-32.854 84.536c-.269.693-.407 1.43-.407 2.173v17.218c4.078-2.539 8.08-5.191 12.001-7.95z"/></g><g><path d="m448.619 332.202-192.688-42.639-194.55 43.181c0 58.902 47.749 106.651 106.651 106.651h173.936c58.902 0 106.651-47.749 106.651-106.651z" fill="#373c41"/></g><g><path d="m255.635 281.656-15.676 3.479v98.598h74.291c40.129 0 72.659-32.531 72.659-72.659v-.369z" fill="#f1d333"/></g><g><path d="m255.651 281.66-.017-.004-132.543 29.418c0 40.129 32.531 72.659 72.659 72.659h59.901z" fill="#e7a52e"/></g><g><g><g><path d="m298.257 365.677c0 23.89-19.367 43.257-43.257 43.257-23.89 0-43.257-19.367-43.257-43.257v-96.89h86.515v96.89z" fill="#dd7643"/></g></g></g><g><g><g><g><path d="m172.48 62.466v195.694c0 45.541 36.391 81.771 81.931 82.116.319.002 7.517.884 7.517.884 64.889-3.289 116.49-56.943 116.49-122.649v-134.629c0-38.079-30.807-68.981-68.886-69.098l-88.95-.273c-26.543-.081-48.102 21.413-48.102 47.955z" fill="#ffbe82"/></g></g></g><g><g><path d="m262.264 341.141c-51.632-14.995-89.374-62.643-89.374-119.112.307-6.978 0-105.132 0-130.817 0-39.476 32.002-71.478 71.478-71.478h89.206c-7.847-3.047-16.403-4.734-25.421-4.734h-105.092c-39.476 0-68.772 29.296-68.772 68.772l-2.706 95.968v37.508c0 34.045 13.99 66.593 38.691 90.021s57.945 35.676 91.942 33.875z" fill="#ff965a"/></g></g></g><g><g><g><circle cx="337.809" cy="164.556" fill="#9bd069" r="58.737"/></g><g><path d="m328.335 106.59c-25.031 4.061-44.76 23.93-48.589 49.037 16.198-16.344 32.377-32.707 48.589-49.037z" fill="#fff"/></g><g><path d="m366.866 113.524c-6.693-3.817-14.204-6.365-22.212-7.295-21.739 21.855-43.396 43.79-65.109 65.67.976 7.82 3.5 15.157 7.236 21.711z" fill="#fff"/></g><g><path d="m324.638 221.803c4.235.971 8.642 1.49 13.171 1.49 32.44 0 58.737-26.298 58.737-58.737 0-4.53-.52-8.937-1.491-13.171z" fill="#fff"/></g><g><path d="m312.758 217.687c26.06-26.06 52.121-52.121 78.181-78.181-3.519-7.442-8.55-14.028-14.705-19.355-27.611 27.611-55.221 55.221-82.832 82.832 5.327 6.155 11.914 11.186 19.356 14.704z" fill="#fff"/></g><g><path d="m337.809 230.079c-36.13 0-65.523-29.394-65.523-65.523s29.394-65.523 65.523-65.523 65.523 29.394 65.523 65.523-29.393 65.523-65.523 65.523zm0-117.474c-28.646 0-51.951 23.305-51.951 51.951s23.305 51.951 51.951 51.951 51.951-23.305 51.951-51.951-23.305-51.951-51.951-51.951z" fill="#373c41"/></g></g><g><g><circle cx="172.191" cy="164.556" fill="#9bd069" r="58.737"/></g><g><path d="m162.717 106.59c-25.031 4.061-44.76 23.93-48.589 49.037 16.198-16.344 32.377-32.707 48.589-49.037z" fill="#fff"/></g><g><path d="m201.248 113.524c-6.693-3.817-14.204-6.365-22.212-7.295-21.739 21.855-43.396 43.79-65.109 65.67.976 7.82 3.5 15.157 7.236 21.711z" fill="#fff"/></g><g><path d="m159.019 221.803c4.235.971 8.642 1.49 13.171 1.49 32.44 0 58.737-26.298 58.737-58.737 0-4.53-.52-8.937-1.491-13.171z" fill="#fff"/></g><g><path d="m147.14 217.687 78.181-78.181c-3.519-7.442-8.55-14.028-14.705-19.355-27.611 27.611-55.221 55.221-82.832 82.832 5.327 6.155 11.913 11.186 19.356 14.704z" fill="#fff"/></g><g><path d="m172.191 230.079c-36.13 0-65.523-29.394-65.523-65.523s29.394-65.523 65.523-65.523 65.523 29.394 65.523 65.523-29.393 65.523-65.523 65.523zm0-117.474c-28.646 0-51.951 23.305-51.951 51.951s23.305 51.951 51.951 51.951 51.951-23.305 51.951-51.951-23.305-51.951-51.951-51.951z" fill="#373c41"/></g></g></g><g><g><g><g><path d="m236.802 79.236c0 5.649-4.579 10.229-10.229 10.229h-75.07c-5.649 0-10.229-4.579-10.229-10.229 0-5.649 4.579-10.229 10.229-10.229h75.07c5.649 0 10.229 4.58 10.229 10.229z" fill="#ff965a"/></g></g></g></g><g><g><g><g><path d="m368.725 79.236c0 5.649-4.579 10.229-10.229 10.229h-75.07c-5.649 0-10.229-4.579-10.229-10.229 0-5.649 4.579-10.229 10.229-10.229h75.07c5.65 0 10.229 4.58 10.229 10.229z" fill="#ff965a"/></g></g></g></g><g><g><g><g><path d="m236.802 46.29c0 5.649-4.579 10.229-10.229 10.229h-75.07c-5.649 0-10.229-4.579-10.229-10.229 0-5.649 4.579-10.229 10.229-10.229h75.07c5.649.001 10.229 4.58 10.229 10.229z" fill="#ff965a"/></g></g></g></g><g><g><g><g><path d="m368.725 46.29c0 5.649-4.579 10.229-10.229 10.229h-75.07c-5.649 0-10.229-4.579-10.229-10.229 0-5.649 4.579-10.229 10.229-10.229h75.07c5.65.001 10.229 4.58 10.229 10.229z" fill="#ff965a"/></g></g></g></g><g><path d="" fill="none" stroke="#696e73" stroke-miterlimit="10" stroke-width="11.31"/></g><g><path d="" fill="none" stroke="#696e73" stroke-miterlimit="10" stroke-width="11.31"/></g><g><g><path d="m223.643 218.77v-13.244c0-6.682 5.417-12.098 12.098-12.098h13.244c.001 13.996-11.346 25.342-25.342 25.342z" fill="#ff965a"/></g><g><path d="m286.357 218.77v-13.244c0-6.682-5.417-12.098-12.098-12.098h-13.244c-.001 13.996 11.346 25.342 25.342 25.342z" fill="#ff965a"/></g></g><g><path d="m267.35 305.263h-24.7c0-6.821 5.529-12.35 12.35-12.35s12.35 5.529 12.35 12.35z" fill="#ff965a"/></g><g><g><ellipse cx="236.357" cy="202.353" fill="#373c41" rx="6.549" ry="2.049"/></g><g><ellipse cx="273.643" cy="202.353" fill="#373c41" rx="6.549" ry="2.049"/></g></g><g><path d="m268.54 274.512h-27.08c-18.125 0-32.818-14.693-32.818-32.818h92.717c0 18.125-14.694 32.818-32.819 32.818z" fill="#fff"/></g><g><path d="m301.359 241.694h-92.717c0-4.58 3.713-8.293 8.293-8.293h76.13c4.58 0 8.294 3.713 8.294 8.293z" fill="#ff965a"/></g><g><path d="m282.921 186.208h-55.842c-7.795 0-14.113-6.319-14.113-14.113v-15.916c0-7.795 6.319-14.113 14.113-14.113h55.842c7.795 0 14.113 6.319 14.113 14.113v15.916c.001 7.794-6.318 14.113-14.113 14.113z" fill="#373c41"/></g><path d="m253.83 509.997c.39.002.78.003 1.17.003 30.397 0 59.647-5.348 86.808-15.189v-29.096c0-23.206-18.812-42.019-42.019-42.019h-45.959z" fill="#f1d333"/><path d="m168.192 465.715v29.128c27.093 9.808 56.321 15.156 86.799 15.157v-86.304h-44.78c-23.207 0-42.019 18.812-42.019 42.019z" fill="#ecc32e"/><path d="m141.275 36.062h95.38v10.229h-95.38z" fill="#ff965a"/><g><g><g><g><path d="m236.802 37.725c0 5.649-4.579 10.229-10.229 10.229h-75.07c-5.649 0-10.229-4.579-10.229-10.229 0-5.649 4.579-10.229 10.229-10.229h75.07c5.649.001 10.229 4.58 10.229 10.229z" fill="#ffbe82"/></g></g></g></g><path d="m141.275 10.229h95.527v8.565h-95.527z" fill="#ff965a"/><path d="m232.579 70.671h4.223v8.565h-4.223z" fill="#ff965a"/><g><g><g><g><path d="m236.802 70.671c0 5.649-4.579 10.229-10.229 10.229h-75.07c-5.649 0-10.229-4.579-10.229-10.229 0-5.649 4.579-10.229 10.229-10.229h75.07c5.649 0 10.229 4.58 10.229 10.229z" fill="#ffbe82"/></g></g></g></g><path d="m273.198 70.111h9.065v10.789h-9.065z" fill="#ff965a"/><g><g><g><g><path d="m368.725 70.671c0 5.649-4.579 10.229-10.229 10.229h-75.07c-5.649 0-10.229-4.579-10.229-10.229 0-5.649 4.579-10.229 10.229-10.229h75.07c5.65 0 10.229 4.58 10.229 10.229z" fill="#ffbe82"/></g></g></g></g><path d="m273.198 37.725h95.527v8.565h-95.527z" fill="#ff965a"/><g><g><g><g><path d="m368.725 37.725c0 5.649-4.579 10.229-10.229 10.229h-75.07c-5.649 0-10.229-4.579-10.229-10.229 0-5.649 4.579-10.229 10.229-10.229h75.07c5.65.001 10.229 4.58 10.229 10.229z" fill="#ffbe82"/></g></g></g></g><g><g><g><g><path d="m236.802 18.794c0 5.649-4.579 10.229-10.229 10.229h-75.07c-5.649 0-10.229-4.579-10.229-10.229 0-5.649 4.579-10.229 10.229-10.229h75.07c5.649 0 10.229 4.579 10.229 10.229z" fill="#ff965a"/></g></g></g></g><g><g><g><g><path d="m368.725 18.794c0 5.649-4.579 10.229-10.229 10.229h-75.07c-5.649 0-10.229-4.579-10.229-10.229 0-5.649 4.579-10.229 10.229-10.229h75.07c5.65 0 10.229 4.579 10.229 10.229z" fill="#ff965a"/></g></g></g></g><g><g><g><g><path d="m236.802 10.229c0 5.649-4.579 10.229-10.229 10.229h-75.07c-5.649 0-10.229-4.579-10.229-10.229.001-5.649 4.58-10.229 10.229-10.229h75.07c5.649 0 10.229 4.58 10.229 10.229z" fill="#ffbe82"/></g></g></g></g><path d="m273.198 10.229h95.527v9.282h-95.527z" fill="#ff965a"/><g><g><g><g><path d="m368.725 10.229c0 5.649-4.579 10.229-10.229 10.229h-75.07c-5.649 0-10.229-4.579-10.229-10.229.001-5.649 4.581-10.229 10.23-10.229h75.07c5.649 0 10.228 4.58 10.228 10.229z" fill="#ffbe82"/></g></g></g></g></g></svg>