<svg id="Layer_1" enable-background="new 0 0 511.763 511.763" height="512" viewBox="0 0 511.763 511.763" width="512" xmlns="http://www.w3.org/2000/svg"><g><g><g><path d="m255.882 1.764c-98.131 0-158.58 55.352-158.747 55.445 0 0-2.513 3.137-2.983 5.222-3.818 16.948-7.385 39.663-7.385 56.238 0 140.833 118.763 254.972 259.596 254.972 54.231 0 114.568-25.992 154.949-57.243.903-.699 3.769-5.396 3.769-5.396.178-1.087 5.8-23.477 5.8-54.239.001-140.832-114.167-254.999-254.999-254.999z" fill="#b1e4f9"/></g><path d="m346.34 366.443c-140.833 0-255-114.167-255-255 0-18.615 2.007-36.753 5.795-54.234-58.645 46.72-96.253 118.747-96.253 199.554 0 62.589 22.549 119.912 59.968 164.287l391.665-1.913c25.387-30.696 43.768-67.521 52.567-108.136-43.56 34.697-98.725 55.442-158.742 55.442z" fill="#9dc6fb"/></g><path d="m390.217 372.413-134.874-29.846-134.341 29.817c-8.664 1.923-16.68 5.342-23.8 9.948-24.794 16.041-26.873 51.807-4.157 70.677.098.081.196.163.294.244 3.925 3.251 7.949 6.386 12.067 9.401l80.669 39.436c22.185 6.3 45.601 9.672 69.805 9.672 23.421 0 46.162-3.175 67.79-9.134l81.667-39.26c4.464-3.232 8.82-6.606 13.062-10.115z" fill="#9bd069"/><path d="m60.85 421.051c9.847 11.678 20.724 22.459 32.49 32.204h54.769v-93.206l-29.079 6.454c-28.444 6.312-50.37 27.652-58.18 54.548z" fill="#6ec186"/><g><path d="m255.343 342.567-97.05 21.541v89.146h199.028v-88.12z" fill="#ffbe82"/></g><path d="m392.661 363.713-25.156-5.567v95.108h50.896c12.406-10.264 23.834-21.688 34.113-34.116-8.295-27.359-30.782-48.992-59.853-55.425z" fill="#6ec186"/><g><g><path d="m294.839 377.24c0 21.511-17.438 38.949-38.949 38.949-21.511 0-38.949-17.438-38.949-38.949v-87.239h77.897v87.239z" fill="#dd7643"/></g></g><g><g><path d="m181.042 43.128v237.304c0 41.005 32.263 73.813 73.267 74.123.287.002 5.387.705 7.271.609 58.425-2.962 104.886-51.271 104.886-110.433v-182.319c0-34.286-27.739-62.11-62.025-62.215l-63.9-.197c-23.899-.073-59.499 19.23-59.499 43.128z" fill="#ffbe82"/></g></g><g><path d="m181.412 247.9c.276-6.283 0-178.889 0-178.889 0-33.363 26.521-65.268 59.128-69.011l-31.963.39c-35.544 0-61.922 26.378-61.922 61.922l-2.436 147.51v33.772c0 30.654 12.596 59.96 34.837 81.055 22.241 21.094 52.173 32.122 82.784 30.501l.043-.002c-46.488-13.502-80.471-56.404-80.471-107.248z" fill="#ff965a"/></g><g><g><g><g><path d="m210.239 184.12c0 5.086-4.123 9.21-9.21 9.21h-67.593c-5.086 0-9.21-4.123-9.21-9.21 0-5.086 4.123-9.21 9.21-9.21h67.593c5.087 0 9.21 4.124 9.21 9.21z" fill="#ff965a"/></g></g></g><g><g><g><path d="m389.036 184.12c0 5.086-4.123 9.21-9.21 9.21h-67.593c-5.086 0-9.21-4.123-9.21-9.21 0-5.086 4.123-9.21 9.21-9.21h67.593c5.087 0 9.21 4.124 9.21 9.21z" fill="#ff965a"/></g></g></g><g><g><g><path d="m210.239 176.408c0 5.086-4.123 9.21-9.21 9.21h-67.593c-5.086 0-9.21-4.123-9.21-9.21 0-5.086 4.123-9.21 9.21-9.21h67.593c5.087 0 9.21 4.124 9.21 9.21z" fill="#ffbe82"/></g></g></g><g><g><g><path d="m389.036 176.408c0 5.086-4.123 9.21-9.21 9.21h-67.593c-5.086 0-9.21-4.123-9.21-9.21 0-5.086 4.123-9.21 9.21-9.21h67.593c5.087 0 9.21 4.124 9.21 9.21z" fill="#ffbe82"/></g></g></g></g><path d="m267.963 286.645h-22.239c0-6.141 4.978-11.12 11.12-11.12 6.14 0 11.119 4.979 11.119 11.12z" fill="#ff965a"/><g><g fill="#ff965a"><path d="m228.34 232.539v-11.925c0-6.016 4.877-10.893 10.893-10.893h11.925c.001 12.602-10.216 22.818-22.818 22.818z"/><path d="m284.808 232.539v-11.925c0-6.016-4.877-10.893-10.893-10.893h-11.925c-.001 12.602 10.215 22.818 22.818 22.818z"/></g><g fill="#373c41"><ellipse cx="239.826" cy="217.757" rx="5.897" ry="1.845"/><ellipse cx="273.398" cy="217.757" rx="5.897" ry="1.845"/></g></g><g><circle cx="149.358" cy="223.26" fill="#fff" r="23.517"/><path d="m126.063 236.618c1.562 11.474 11.393 20.318 23.295 20.318s21.733-8.844 23.295-20.318z" fill="#ff965a"/><ellipse cx="145.549" cy="223.26" fill="#373c41" rx="7.201" ry="11.009"/></g><g><circle cx="361.147" cy="223.26" fill="#fff" r="23.517"/><path d="m384.442 236.618c-1.562 11.474-11.393 20.318-23.295 20.318s-21.733-8.844-23.295-20.318z" fill="#ff965a"/><ellipse cx="364.955" cy="223.26" fill="#373c41" rx="7.201" ry="11.009"/></g><path d="m314.444 257.23h-115.957c0-6.978 5.657-12.635 12.635-12.635h90.688c6.977.001 12.634 5.657 12.634 12.635z" fill="#ff965a"/><path d="m166.205 347.959-32.847 8.912c-8.758 2.376-14.838 10.326-14.838 19.401v58.997c0 24.136 14.2 46.14 36.358 55.708.128.055.256.111.385.166 9.96 4.281 20.247 7.947 30.814 10.947v-138.932c0-10.376-9.859-17.916-19.872-15.199z" fill="#373c41"/><path d="m391.228 438.2v-61.927c0-9.075-6.08-17.025-14.838-19.401l-32.847-8.912c-10.013-2.717-19.872 4.823-19.872 15.198v139.471c11.236-3.096 22.172-6.942 32.747-11.485.121-.052.242-.104.363-.156 20.999-9.06 34.447-29.919 34.447-52.788z" fill="#373c41"/><g fill="#ff965a"><path d="m328.528 155.874h-141.095c0-6.744 5.467-12.21 12.21-12.21h116.674c6.745 0 12.211 5.467 12.211 12.21z"/><path d="m328.528 122.18h-141.095c0-6.744 5.467-12.21 12.21-12.21h116.674c6.745 0 12.211 5.467 12.211 12.21z"/><path d="m328.528 88.486h-141.095c0-6.744 5.467-12.21 12.21-12.21h116.674c6.745 0 12.211 5.467 12.211 12.21z"/></g><path d="m381.189 441.835h-89.497l-2.625 12.01h-66.16l-3.15-12.01h-89.99c-12.312 0-22.516 9.025-24.358 20.82 1.121.821 2.249 1.632 3.383 2.435l10.969 2.665 6.775 8.816c9.22 5.437 18.812 10.311 28.728 14.574h64.877l1.235-11.179 67.376.67 1.394 10.509h66.274c10.011-4.301 19.699-9.225 29.013-14.728l5.796-6.68 10.282-3.647c1.38-.961 2.75-1.936 4.11-2.923-1.624-12.046-11.943-21.332-24.432-21.332z" fill="#e7a52e"/><path d="m105.111 462.438c1.874 1.376 3.767 2.727 5.679 4.052h290.144c1.651-1.143 3.288-2.305 4.91-3.485v-9.841h-300.733z" fill="#e7a52e"/><path d="m405.843 452.126c0-13.616-11.038-24.654-24.654-24.654h-89.497l-2.625 12.01h-66.16l-3.15-12.01h-89.99c-13.616 0-24.654 11.038-24.654 24.654 0 4.756 1.347 9.198 3.68 12.964 5.744 4.063 11.663 7.894 17.745 11.48 1.057.138 2.135.21 3.23.21h90.375l1.748-7.995h66.16l2.097 7.995h91.044c1.447 0 2.865-.125 4.244-.364 5.493-3.245 10.856-6.69 16.078-10.327 2.729-3.97 4.329-8.78 4.329-13.963z" fill="#f1d333"/><g><path d="m135.599 448.598h236.557v11.129h-236.557z" fill="#e7a52e"/></g><path d="m220.14 491.144v-14.364l1.747-7.994h66.161l2.097 7.994v14.364l-2.097-7.995h-66.161z" fill="#e28424"/></g></svg>