<svg id="Layer_1" enable-background="new 0 0 511.763 511.763" height="512" viewBox="0 0 511.763 511.763" width="512" xmlns="http://www.w3.org/2000/svg"><g><g><path d="m255.882 29.7c-92.755 0-149.894 52.32-150.051 52.408 0 0-2.376 2.965-2.82 4.936-3.609 16.02-6.981 37.49-6.981 53.158 0 133.118 112.258 241.005 245.376 241.005 51.261 0 108.292-24.568 146.461-54.107.854-.661 3.563-5.101 3.563-5.101.168-1.027 5.483-22.191 5.483-51.267 0-133.118-107.913-241.032-241.031-241.032z" fill="#ecc32e"/><path d="m341.385 374.403c-133.118 0-241.032-107.914-241.032-241.032 0-17.595 1.897-34.739 5.477-51.263-55.431 44.161-90.98 112.242-90.98 188.624 0 67.064 27.389 127.73 71.591 171.424l340.242-1.361c31.8-31.914 54.779-72.781 64.748-118.795-41.173 32.794-93.317 52.403-150.046 52.403z" fill="#e7a52e"/></g><g><g><path d="m336.878 37.864c-54.909 0-80.552-37.864-80.552-37.864l-69.083 217.432c34.053 73.641 60.531 154.095 67.354 252.224h13.619c22.614-50.524 72.43-102.13 104.477-106.11 42.531-5.282 58.296-38.192 58.296-57.675v-183.863c-.001-53.291-56.69-84.144-94.111-84.144z" fill="#75cef9"/><path d="m256.326 469.656v-469.656s-25.643 37.864-80.552 37.864c-37.421 0-94.11 30.853-94.11 84.143v183.863c0 19.483 15.766 52.393 58.296 57.675 32.047 3.98 81.864 55.585 104.477 106.11h11.889z" fill="#2896ff"/></g><path d="m257.747 465.412.5 46.339c27.619-.267 54.209-5.204 78.975-14.088l11.93-11.854 10.828 2.343c12.412-5.953 24.248-12.94 35.391-20.855z" fill="#55696e"/><path d="m116.356 467.297c9.475 6.738 19.458 12.807 29.881 18.141l11.379-.95 11.379 11.139c26.956 10.421 56.254 16.136 86.887 16.136.789 0 1.578-.004 2.365-.012v-46.339l-118.378-3.053z" fill="#50555a"/><path d="m355.796 395.338h-168.817c-30.959.015-30.977-.099-34.854.238-29.476 2.174-54.388 20.719-65.683 46.579 9.265 9.159 19.269 17.572 29.914 25.141h279.016c11.173-7.937 21.649-16.807 31.311-26.503-12.33-26.826-39.426-45.455-70.887-45.455z" fill="#da4a54"/><path d="m330.437 312.052-72.509 55.317-79.45-55.05c-32.158-22.282-50.798-55.548-50.798-90.659v-49.094c0-31.817 30.568-57.61 68.275-57.61h111.993c37.707 0 68.275 25.793 68.275 57.61v52.471c.001 33.161-16.633 64.774-45.786 87.015z" fill="#1e87dc"/><g><g><path d="m293.798 401.098c0 20.396-16.535 36.931-36.931 36.931-20.396 0-36.931-16.535-36.931-36.931v-82.72h73.862z" fill="#d80a61"/></g></g><g><g><path d="m356.685 159.312c-.244-24.569-20.23-44.358-44.801-44.358h-53.229c-29.66 0-56.616 11.565-76.615 30.427v152.186c0 .699.01 1.396.031 2.09 1.09 37.126 32.192 66.348 69.334 66.348h16.997c.288 0 .566.016.838.041.123-.02.249-.034.372-.055 50.006-8.463 88.089-51.983 88.089-104.397z" fill="#da4a54"/></g></g><g><g><path d="m381.275 237.809c0 13.577-11.006 24.583-24.583 24.583v-62.321c13.577 0 24.583 11.006 24.583 24.583z" fill="#da4a54"/></g></g><g><g><path d="m122.381 237.809c0 13.577 11.006 24.583 24.583 24.583v-62.321c-13.577 0-24.583 11.006-24.583 24.583z" fill="#d80a61"/></g></g><g><g><path d="m207.549 222.121v9.006c0 4.823 3.91 8.733 8.733 8.733s8.733-3.91 8.733-8.733v-9.006z" fill="#d80a61"/></g></g><g><g><path d="m278.866 222.121v9.006c0 4.823 3.91 8.733 8.733 8.733s8.733-3.91 8.733-8.733v-9.006z" fill="#d80a61"/></g></g><g><g><path d="m216.282 232.582c-4.823 0-8.733-3.91-8.733-8.733v-6.441l3.505-5.266-3.505-5.266v-6.911c0-4.823 3.91-8.733 8.733-8.733s8.733 3.91 8.733 8.733v23.883c-.001 4.824-3.911 8.734-8.733 8.734z" fill="#373c41"/></g></g><g><g><path d="m287.599 232.582c-4.823 0-8.733-3.91-8.733-8.733v-8.17l3.505-5.266-3.505-5.266v-5.182c0-4.823 3.91-8.733 8.733-8.733s8.733 3.91 8.733 8.733v23.883c-.001 4.824-3.911 8.734-8.733 8.734z" fill="#373c41"/></g></g><g><g><g><path d="m227.787 186.867h-25.467c-4.823 0-8.733-3.91-8.733-8.733 0-4.823 3.91-8.733 8.733-8.733h25.467c4.823 0 8.733 3.91 8.733 8.733-.001 4.823-3.91 8.733-8.733 8.733z" fill="#75cef9"/></g></g></g><g><g><g><path d="m300.559 186.867h-25.467c-4.823 0-8.733-3.91-8.733-8.733 0-4.823 3.91-8.733 8.733-8.733h25.467c4.823 0 8.733 3.91 8.733 8.733 0 4.823-3.91 8.733-8.733 8.733z" fill="#75cef9"/></g></g></g><g><g><path d="m238.701 247.546c-2.171 7.65 1.774 15.983 9.319 18.494 1.518.505 3.142.779 4.83.779s3.312-.274 4.83-.779c7.545-2.512 11.49-10.845 9.319-18.494l-10.588-37.311c-1.018-3.589-6.104-3.589-7.123 0z" fill="#e27a66"/></g></g><path d="m261.592 115.141c-63.268-.121-114.628 51.121-114.628 114.389v33.101c0 64.447 57.838 114.302 122.641 103.331-49.472-8.416-87.148-51.461-87.148-103.331.027-46.431-.004-67.981-.009-78.482-.003-8.313 6.794-15.129 15.107-15.147h.011 50.821c29.575 0 53.55-23.975 53.55-53.55.001-.001-7.723-.249-40.345-.311z" fill="#d80a61"/><path d="m176.927 88.679c-11.067 0-21.158 6.51-25.547 16.669-2.841 6.577-4.416 13.828-4.416 21.449v34.927 67.806c7.756 0 14.044-6.288 14.044-14.044v-17.203c0-20.191 16.368-36.559 36.559-36.559h50.821c29.575 0 53.55-23.975 53.55-53.55v-19.495z" fill="#75cef9"/><g fill="#fff"><path d="m211.054 220.914c-1.936 0-3.505-1.569-3.505-3.505v-10.532c0-1.936 1.569-3.505 3.505-3.505 1.936 0 3.505 1.569 3.505 3.505v10.532c.001 1.936-1.569 3.505-3.505 3.505z"/><path d="m282.371 219.185c-1.936 0-3.505-1.569-3.505-3.505v-10.532c0-1.936 1.569-3.505 3.505-3.505 1.936 0 3.505 1.569 3.505 3.505v10.532c0 1.936-1.569 3.505-3.505 3.505z"/><path d="m225.609 280.5c2.695 13.041 14.244 22.845 28.083 22.845 13.84 0 25.388-9.804 28.083-22.845z"/></g><path d="m168.995 388.738h-22.759v96.7c7.374 3.773 14.969 7.178 22.759 10.19z" fill="#f1d333"/><path d="m337.223 497.663c7.774-2.789 15.369-5.966 22.759-9.51v-99.415h-22.759z" fill="#f1d333"/><path d="m316.631 76.303c-41.107 0-60.305-31.271-60.305-31.271s-19.197 31.271-60.305 31.271c-28.015 0-70.455 25.48-70.455 69.49v5.967h.963c6.437-37.081 43.955-58.257 69.493-58.257h120.609c25.537 0 63.056 21.176 69.493 58.257h.963v-5.967c-.001-44.01-42.442-69.49-70.456-69.49z" fill="#fff"/><path d="m253.511 145.756c-9.035 0-16.359-7.324-16.359-16.359v-33.715c0-9.035 7.324-16.359 16.359-16.359 9.035 0 16.359 7.324 16.359 16.359v33.715c0 9.035-7.324 16.359-16.359 16.359z" fill="#1e87dc"/><path d="m253.511 134.179c-9.035 0-16.359-7.324-16.359-16.359v-33.715c0-9.035 7.324-16.359 16.359-16.359 9.035 0 16.359 7.324 16.359 16.359v33.715c0 9.035-7.324 16.359-16.359 16.359z" fill="#6ec186"/><path d="m253.511 88.493c-3.392 0-6.141 2.749-6.141 6.141v12.656c0 3.392 2.749 6.141 6.141 6.141 3.392 0 6.141-2.749 6.141-6.141v-12.656c0-3.391-2.75-6.141-6.141-6.141z" fill="#f1d333"/></g></g></svg>