<svg id="Layer_1" enable-background="new 0 0 511.155 511.155" height="512" viewBox="0 0 511.155 511.155" width="512" xmlns="http://www.w3.org/2000/svg"><g><g><g><path d="m507.433 259.299c0-139.096-112.76-252.996-251.856-252.996-96.921 0-156.625 55.81-156.789 55.902 0 0-2.482 3.098-2.946 5.158-3.771 16.739-7.294 39.174-7.294 55.545 0 139.096 117.299 251.828 256.395 251.828 53.563 0 113.155-25.671 153.039-56.537.892-.69 3.723-5.33 3.723-5.33.175-1.074 5.728-23.188 5.728-53.57z" fill="#b1e4f9"/></g><g><path d="m420.159 356.189 68.605-1.574c5.46-13.359 9.813-27.31 12.941-41.747-24.001 19.117-51.569 33.945-81.546 43.321z" fill="#73c8f0"/><path d="m93.065 115.769c0-18.385 1.983-36.299 5.723-53.565-57.922 46.144-95.067 117.283-95.067 197.095 0 37.831 8.341 73.714 23.284 105.91l253.78-5.822c-108.032-28.365-187.72-126.685-187.72-243.618z" fill="#9dc6fb"/></g></g><path d="m413.597 360.696-156.513-9.478-155.895 9.446-49.892 45.98c24.611 34.061 57.531 61.722 95.79 80.011l7.523-.243 4.107 5.444c29.818 12.434 62.538 19.3 96.861 19.3 34.609 0 67.713-7.019 97.886-19.764l1.953-5.882 14.827-1.947c33.091-16.949 62.021-41.026 84.677-70.311z" fill="#415050"/><g><path d="m258.286 334.854v119.745h50.235c22.81 0 45.114-7.687 62.519-22.431 19.016-16.107 31.261-39.142 31.261-65.037v-.409z" fill="#df75a5"/></g><g><path d="m258.786 334.964-1.702-.377-146.621 32.543c0 25.895 12.245 48.929 31.261 65.037 17.406 14.743 39.709 22.431 62.519 22.431h54.543z" fill="#da2ea2"/></g><path d="m364.374 479.164h-106.088v12.227h95.178c5.701-2.408 11.298-5.02 16.78-7.828-.742-2.542-3.089-4.399-5.87-4.399z" fill="#df75a5"/><path d="m258.786 479.164h-105.543c-3.376 0-6.114 2.737-6.114 6.114 0 .462-.015.921-.043 1.377 3.824 1.828 7.702 3.562 11.63 5.2.03-.154.06-.309.088-.464h99.981v-12.227z" fill="#da2ea2"/><g><g><g><path d="m382.554 207.747v-63.501l29.503-31.065c4.811-5.066 13.341-1.661 13.341 5.326v46.396c.001 23.662-19.181 42.844-42.844 42.844z" fill="#57988b"/></g></g></g><g><circle cx="388.256" cy="169.116" fill="#478089" r="20.911"/></g><g><path d="m398.979 242.866c-3.376 0-6.114-2.737-6.114-6.114v-37.978c0-3.376 2.737-6.114 6.114-6.114 3.376 0 6.114 2.737 6.114 6.114v37.978c0 3.377-2.738 6.114-6.114 6.114z" fill="#f1d333"/></g><g><g><g><path d="m133.162 207.747v-63.501l-29.503-31.065c-4.811-5.066-13.341-1.661-13.341 5.326v46.396c0 23.662 19.182 42.844 42.844 42.844z" fill="#57988b"/></g></g></g><g><circle cx="127.461" cy="169.116" fill="#478089" r="20.911"/></g><g><path d="m402.301 358.196-145.217-32.134-146.621 32.543c0 44.391 35.986 80.377 80.377 80.377h131.085c44.391 0 80.377-35.986 80.377-80.377v-.409z" fill="#6ec186"/></g><g><g><g><path d="m302.916 366.297c0 24.962-20.236 45.198-45.198 45.198-24.962 0-45.198-20.236-45.198-45.198v-101.236h90.395v101.236z" fill="#57988b"/></g></g></g><path d="m314.061 0h-76.295c-27.733-.085-66.904 21.752-66.904 49.485v204.472c0 47.584 36.649 85.119 84.232 85.479l9.228 1.244c67.799-3.437 121.715-59.498 121.715-128.151v-140.667c0-39.787-32.189-71.74-71.976-71.862z" fill="#6ec186"/><g><circle cx="176.704" cy="177.592" fill="#57988b" r="27.291"/></g><g><circle cx="340.913" cy="177.592" fill="#57988b" r="27.291"/></g><g><path d="m171.291 216.206c.32-7.291-.054-115.305-.054-142.142l.054 5.456c0-38.491 29.071-74.822 66.474-79.52h-34.951c-41.247 0-71.857 30.5-71.857 71.747l-2.827 100.272v39.19c0 35.572 14.617 69.581 40.427 94.059 25.81 24.479 60.544 37.276 96.066 35.395l.05-.003c-53.947-15.667-93.382-65.452-93.382-124.454z" fill="#57988b"/></g><g><g><path d="m225.748 218.069v-13.839c0-6.981 5.66-12.641 12.641-12.641h13.839c0 14.625-11.856 26.48-26.48 26.48z" fill="#57988b"/></g><g><path d="m291.276 218.069v-13.839c0-6.981-5.66-12.641-12.641-12.641h-13.839c0 14.625 11.855 26.48 26.48 26.48z" fill="#57988b"/></g></g><g><path d="m271.728 303.173h-25.808c0-7.126 5.777-12.904 12.904-12.904 7.127.001 12.904 5.778 12.904 12.904z" fill="#57988b"/></g><g><ellipse cx="239.077" cy="200.916" fill="#373c41" rx="6.843" ry="2.141"/></g><g><ellipse cx="278.036" cy="200.916" fill="#373c41" rx="6.843" ry="2.141"/></g><g><g><circle cx="176.704" cy="166.216" fill="#fff" r="27.291"/></g><g><ellipse cx="179.375" cy="166.216" fill="#373c41" rx="8.357" ry="12.776"/></g></g><g><g><circle cx="340.913" cy="166.216" fill="#fff" r="27.291"/></g><g><ellipse cx="339.423" cy="166.216" fill="#373c41" rx="8.357" ry="12.776"/></g></g><g><path d="m271.165 271.043h-28.295c-18.938 0-34.291-15.352-34.291-34.291h96.876c0 18.939-15.352 34.291-34.29 34.291z" fill="#fff"/></g><g><path d="m305.455 236.753h-96.876c0-4.786 3.88-8.665 8.665-8.665h79.545c4.787 0 8.666 3.879 8.666 8.665z" fill="#57988b"/></g><g><path d="m279.462 164.628h-41.307c-4.13 0-7.479-3.348-7.479-7.479 0-4.13 3.348-7.479 7.479-7.479h41.307c4.13 0 7.479 3.348 7.479 7.479-.001 4.131-3.349 7.479-7.479 7.479z" fill="#57988b"/></g><g><path d="m279.462 185.07h-41.307c-4.13 0-7.479-3.348-7.479-7.479 0-4.13 3.348-7.479 7.479-7.479h41.307c4.13 0 7.479 3.348 7.479 7.479-.001 4.131-3.349 7.479-7.479 7.479z" fill="#57988b"/></g><g><g><g><g><g><path d="m237.732 136.232c0 5.902-4.785 10.687-10.687 10.687h-78.437c-5.902 0-10.687-4.785-10.687-10.687 0-5.902 4.785-10.687 10.687-10.687h78.437c5.902 0 10.687 4.785 10.687 10.687z" fill="#57988b"/></g></g></g></g><g><g><g><g><path d="m375.573 136.232c0 5.902-4.785 10.687-10.687 10.687h-78.437c-5.902 0-10.687-4.785-10.687-10.687 0-5.902 4.785-10.687 10.687-10.687h78.437c5.902 0 10.687 4.785 10.687 10.687z" fill="#57988b"/></g></g></g></g><g><g><g><g><path d="m237.732 127.283c0 5.902-4.785 10.687-10.687 10.687h-78.437c-5.902 0-10.687-4.785-10.687-10.687 0-5.902 4.785-10.687 10.687-10.687h78.437c5.902 0 10.687 4.785 10.687 10.687z" fill="#6ec186"/></g></g></g></g><g><g><g><g><path d="m375.573 127.283c0 5.902-4.785 10.687-10.687 10.687h-78.437c-5.902 0-10.687-4.785-10.687-10.687 0-5.902 4.785-10.687 10.687-10.687h78.437c5.902 0 10.687 4.785 10.687 10.687z" fill="#6ec186"/></g></g></g></g></g><path d="m78.481 334.588h-56.039c0 10.655 1.597 20.937 4.563 30.62 6.789 14.627 14.94 28.493 24.292 41.435 19.011 19.925 45.825 32.339 75.539 32.339h80.833l-23.691-42.453c-21.34-38.242-61.704-61.941-105.497-61.941z" fill="#d80a61"/><path d="m329.146 396.528-23.691 42.453h80.833c26.275 0 50.282-9.707 68.632-25.73 13.748-17.771 25.186-37.459 33.842-58.637 1.259-6.482 1.92-13.177 1.92-20.027h-56.039c-43.792.001-84.156 23.7-105.497 61.941z" fill="#da2ea2"/><g><circle cx="258.809" cy="74.406" fill="#57988b" r="41.461"/></g><g><circle cx="258.809" cy="62.465" fill="#fff" r="41.461"/></g><g><ellipse cx="258.809" cy="62.465" fill="#373c41" rx="7.326" ry="12.074"/></g><g><path d="m116.738 242.866c-3.376 0-6.114-2.737-6.114-6.114v-37.978c0-3.376 2.737-6.114 6.114-6.114 3.376 0 6.114 2.737 6.114 6.114v37.978c-.001 3.377-2.738 6.114-6.114 6.114z" fill="#f1d333"/></g><g><path d="m308.539 58.653c-4.329-23.539-24.94-41.379-49.731-41.379s-45.402 17.84-49.731 41.379z" fill="#57988b"/></g></g></svg>