<svg id="Layer_1" enable-background="new 0 0 511.763 511.763" height="512" viewBox="0 0 511.763 511.763" width="512" xmlns="http://www.w3.org/2000/svg"><g><g><g><path d="m506.326 267.605c0-134.845-112.128-244.159-250.445-244.159-96.378 0-155.747 52.999-155.911 53.088 0 0-2.468 3.003-2.93 5-3.75 16.228-7.253 37.977-7.253 53.847 0 134.845 116.642 244.132 254.958 244.132 53.262 0 112.521-24.887 152.181-54.809.887-.669 3.702-5.167 3.702-5.167.176-1.04 5.698-22.478 5.698-51.932z" fill="#b1e4f9"/></g><path d="m344.724 372.621c-138.317 0-250.444-109.314-250.444-244.159 0-17.824 1.972-35.19 5.691-51.928-57.597 44.734-94.534 113.699-94.534 191.071 0 64.858 25.94 123.809 68.257 167.531l365.539-1.211c29.994-31.393 51.664-70.588 61.397-114.387-42.782 33.22-96.961 53.083-155.906 53.083z" fill="#9dc6fb"/></g><g><g><path d="m351.809 346.23h-104.303v80.194h170.31v-14.188c0-36.454-29.553-66.006-66.007-66.006z" fill="#55696e"/></g><g><path d="m250.424 346.23h-96.499c-36.454 0-66.006 29.552-66.006 66.006v14.188h162.505z" fill="#50555a"/></g><g><path d="m151.454 94.864c-.426.03-.854.05-1.288.05-9.413 0-17.164-7.104-18.191-16.243-1.849.424-3.673.909-5.468 1.456 3.685 8.43.525 18.462-7.63 23.171-8.151 4.706-18.414 2.43-23.874-4.968-1.379 1.288-2.712 2.623-3.997 4.002 7.396 5.461 9.67 15.721 4.965 23.871-4.709 8.156-14.743 11.315-23.173 7.628-.551 1.799-1.04 3.622-1.465 5.468 9.144 1.022 16.255 8.776 16.255 18.193 0 9.413-7.104 17.164-16.243 18.192.424 1.849.909 3.673 1.456 5.468 8.43-3.685 18.462-.525 23.17 7.63 4.706 8.151 2.43 18.414-4.968 23.874 1.288 1.379 2.623 2.712 4.002 3.997 5.461-7.396 15.721-9.67 23.871-4.965 8.156 4.709 11.315 14.743 7.628 23.173 1.799.551 3.622 1.04 5.468 1.465 1.022-9.144 8.776-16.255 18.193-16.255.433 0 .862.02 1.288.05v-125.257z" fill="#f1d333"/></g><g><path d="m366.57 94.864c.426.03.854.05 1.288.05 9.413 0 17.164-7.104 18.191-16.243 1.849.424 3.673.909 5.468 1.456-3.685 8.43-.525 18.462 7.63 23.171 8.151 4.706 18.414 2.43 23.874-4.968 1.379 1.288 2.712 2.623 3.997 4.002-7.396 5.461-9.67 15.721-4.965 23.871 4.709 8.156 14.743 11.315 23.173 7.628.551 1.799 1.04 3.622 1.465 5.468-9.144 1.022-16.255 8.776-16.255 18.193 0 9.413 7.104 17.164 16.243 18.192-.424 1.849-.909 3.673-1.456 5.468-8.43-3.685-18.462-.525-23.17 7.63-4.706 8.151-2.43 18.414 4.968 23.874-1.288 1.379-2.623 2.712-4.002 3.997-5.461-7.396-15.721-9.67-23.871-4.965-8.156 4.709-11.315 14.743-7.628 23.173-1.799.551-3.622 1.04-5.468 1.465-1.022-9.144-8.776-16.255-18.193-16.255-.433 0-.862.02-1.288.05v-125.257z" fill="#f1d333"/></g><g><path d="m148.298 199.476c-12.852 0-23.271-10.419-23.271-23.271v-23.225c0-12.852 10.419-23.271 23.271-23.271z" fill="#373c41"/></g><g><path d="m364.236 199.476c12.852 0 23.271-10.419 23.271-23.271v-23.225c0-12.852-10.419-23.271-23.271-23.271z" fill="#373c41"/></g><path d="m393.459 402.442-136.886-30.291-136.345 30.262c-19.808 4.396-36.275 16.495-46.534 32.723 9.023 9.323 18.791 17.953 29.21 25.801l300.827 3.737c12.802-9.137 24.692-19.436 35.501-30.749-10.314-15.611-26.457-27.209-45.773-31.483z" fill="#8659b9"/><g><g><g><path d="m296.658 403.547c0 21.832-17.698 39.53-39.53 39.53-21.832 0-39.53-17.698-39.53-39.53v-125.853h79.059v125.853z" fill="#634086"/></g></g></g><g><path d="m230.907 427.86h-62.172c-9.219 0-16.693-7.474-16.693-16.693h78.865z" fill="#634086"/></g><g><path d="m282.24 427.86h62.172c9.219 0 16.693-7.474 16.693-16.693h-78.865z" fill="#634086"/></g><g><path d="m301.676 380.791h-93.528c-4.772 0-8.64-3.868-8.64-8.64 0-4.772 3.868-8.64 8.64-8.64h93.528c4.772 0 8.64 3.868 8.64 8.64 0 4.772-3.868 8.64-8.64 8.64z" fill="#e7a52e"/></g><g><path d="m301.676 363.511h-93.528c-4.772 0-8.64-3.868-8.64-8.64 0-4.772 3.868-8.64 8.64-8.64h93.528c4.772 0 8.64 3.868 8.64 8.64 0 4.771-3.868 8.64-8.64 8.64z" fill="#f1d333"/></g><g><path d="m301.676 346.23h-93.528c-4.772 0-8.64-3.868-8.64-8.64 0-4.772 3.868-8.64 8.64-8.64h93.528c4.772 0 8.64 3.868 8.64 8.64 0 4.772-3.868 8.64-8.64 8.64z" fill="#e7a52e"/></g><g><path d="m301.676 328.949h-93.528c-4.772 0-8.64-3.868-8.64-8.64 0-4.772 3.868-8.64 8.64-8.64h93.528c4.772 0 8.64 3.868 8.64 8.64 0 4.772-3.868 8.64-8.64 8.64z" fill="#f1d333"/></g><g><g><g><g><g><path d="m181.164 66.822v178.831c0 41.617 33.683 74.341 75.299 74.656.292.002 6.749 1.175 6.749 1.175 59.152-3.159 106.144-52.124 106.144-112.064v-123.027c0-34.798-28.152-63.037-62.95-63.144l-78.677.206c-24.255-.074-46.565 19.112-46.565 43.367z" fill="#8659b9"/></g></g></g><g><path d="m226.228 225.375c4.128 12.823 16.151 22.103 30.346 22.103s26.218-9.281 30.346-22.103z" fill="#fff"/></g><g><g><g><path d="m208.639 167.482v7.914c0 5.162 4.185 9.347 9.347 9.347s9.347-4.185 9.347-9.347v-7.914z" fill="#634086"/></g></g></g><g><g><g><path d="m284.8 167.482v7.914c0 5.162 4.185 9.347 9.347 9.347s9.347-4.185 9.347-9.347v-7.914z" fill="#634086"/></g></g></g><g fill="#634086"><path d="m246.81 23c-2.411 0-4.791.152-7.134.446h14.762z"/><path d="m181.54 212.635c.28-6.376 0-119.544 0-119.544 0-33.664 25.424-65.535 58.137-69.644h-30.567c-36.074 0-62.846 26.771-62.846 62.846l-2.473 87.698v34.275c0 31.111 12.784 60.855 35.357 82.264s52.952 32.602 84.019 30.956l.044-.002c-47.182-13.704-81.671-57.246-81.671-108.849z"/></g><g><g><g><path d="m217.987 177.257c-5.162 0-9.347-4.185-9.347-9.347v-12.023l3.446-5.218-3.446-5.218v-3.105c0-5.162 4.185-9.347 9.347-9.347s9.347 4.185 9.347 9.347v25.564c0 5.161-4.186 9.347-9.347 9.347z" fill="#373c41"/></g></g></g><g><g><g><path d="m294.147 177.257c-5.162 0-9.347-4.185-9.347-9.347v-12.023l3.446-5.218-3.446-5.218v-3.105c0-5.162 4.185-9.347 9.347-9.347s9.347 4.185 9.347 9.347v25.564c0 5.161-4.185 9.347-9.347 9.347z" fill="#373c41"/></g></g></g><g><g><g><g><g><path d="m239.648 146.884c0 5.162-4.185 9.347-9.347 9.347h-68.601c-5.162 0-9.347-4.185-9.347-9.347 0-5.162 4.185-9.347 9.347-9.347h68.601c5.162 0 9.347 4.185 9.347 9.347z" fill="#634086"/></g></g></g></g><g><g><g><g><path d="m360.204 146.884c0 5.162-4.185 9.347-9.347 9.347h-68.601c-5.162 0-9.347-4.185-9.347-9.347 0-5.162 4.185-9.347 9.347-9.347h68.601c5.162 0 9.347 4.185 9.347 9.347z" fill="#634086"/></g></g></g></g><g><g><g><g><path d="m239.648 139.057c0 5.162-4.185 9.347-9.347 9.347h-68.601c-5.162 0-9.347-4.185-9.347-9.347 0-5.162 4.185-9.347 9.347-9.347h68.601c5.162 0 9.347 4.185 9.347 9.347z" fill="#8659b9"/></g></g></g></g><g><g><g><g><path d="m360.204 139.057c0 5.162-4.185 9.347-9.347 9.347h-68.601c-5.162 0-9.347-4.185-9.347-9.347 0-5.162 4.185-9.347 9.347-9.347h68.601c5.162 0 9.347 4.185 9.347 9.347z" fill="#8659b9"/></g></g></g></g></g></g><g><path d="m330.723 118.354h-155.825v-9.295h146.53c5.133 0 9.295 4.162 9.295 9.295z" fill="#634086"/></g><g><path d="m330.723 91.041h-155.825v-9.295h146.53c5.133.001 9.295 4.162 9.295 9.295z" fill="#634086"/></g><g><path d="m267.859 272.778h-22.571c0-6.233 5.053-11.285 11.285-11.285 6.233 0 11.286 5.052 11.286 11.285z" fill="#634086"/></g></g><g><path d="m292.993 62.462v-14.079c0-18.437-14.946-33.383-33.383-33.383-18.437 0-33.383 14.946-33.383 33.383v14.078h66.766z" fill="#8659b9"/></g><g><path d="m259.61 0c-18.437 0-33.383 14.946-33.383 33.383v18.822c0-18.437 14.946-33.383 33.383-33.383 18.437 0 33.382 14.946 33.382 33.383v-18.822c.001-18.437-14.945-33.383-33.382-33.383z" fill="#634086"/></g><g><g><g><path d="m227.918 205.669v-12.103c0-6.106 4.95-11.056 11.056-11.056h12.103c0 12.79-10.368 23.159-23.159 23.159z" fill="#634086"/></g><g><path d="m285.228 205.669v-12.103c0-6.106-4.95-11.056-11.056-11.056h-12.102c0 12.79 10.368 23.159 23.158 23.159z" fill="#634086"/></g></g><g><ellipse cx="239.576" cy="190.667" fill="#373c41" rx="5.985" ry="1.873"/></g><g><ellipse cx="273.649" cy="190.667" fill="#373c41" rx="5.985" ry="1.873"/></g></g><g><path d="m181.366 480.704h-12v-115.005c0-8.926-3.476-17.317-9.787-23.628l-14.614-14.615c-8.577-8.577-13.302-19.982-13.302-32.113v-112.833h12v112.833c0 8.926 3.476 17.317 9.787 23.628l14.615 14.615c8.577 8.578 13.301 19.983 13.301 32.114z" fill="#373c41"/></g><g><path d="m343.746 480.704h-12v-115.005c0-12.13 4.725-23.535 13.302-32.114l14.614-14.615c6.312-6.312 9.788-14.703 9.788-23.628v-112.832h12v112.833c0 12.13-4.725 23.535-13.303 32.113l-14.613 14.615c-6.312 6.312-9.788 14.704-9.788 23.628z" fill="#373c41"/></g><path d="m386.068 450.91h-266.421l-9.871 15.021c8.527 5.981 17.456 11.453 26.739 16.368l56.054 21.594c16.267 4.131 33.177 6.708 50.554 7.558l132.062-29.151c7.787-4.12 15.33-8.632 22.599-13.51z" fill="#fff"/><path d="m403.731 464.673c-5.472-12.703-18.104-21.596-32.813-21.596h-237.077c-13.22 0-24.762 7.183-30.936 17.86 2.26 1.702 4.551 3.368 6.871 4.995 6.348-5.793 14.794-9.326 24.065-9.326h237.077c10.711 0 20.321 4.716 26.866 12.184 2.003-1.344 3.986-2.717 5.947-4.117z" fill="#b1e4f9"/><path d="m192.569 503.894h24.387c5.963 0 10.797-4.834 10.797-10.797s-4.834-10.797-10.797-10.797h-80.441c17.526 9.281 36.316 16.582 56.054 21.594z" fill="#b1e4f9"/><path d="m255.882 511.763c43.031 0 83.721-10.639 119.303-29.463h-121.265c-5.963 0-10.797 4.834-10.797 10.797v18.355c4.226.207 8.48.311 12.759.311z" fill="#9bd069"/><g><path d="m297.503 287.589h-8v-17.779c0-13.946 6.626-27.312 17.726-35.755l13.812-10.506c9.123-6.94 14.569-17.926 14.569-29.389v-11.65h8v11.65c0 13.946-6.626 27.312-17.726 35.756l-13.812 10.506c-9.123 6.939-14.569 17.926-14.569 29.388z" fill="#634086"/></g><g><path d="m221.968 287.589h-8v-17.779c0-11.462-5.446-22.449-14.569-29.388l-13.812-10.506c-11.1-8.443-17.726-21.81-17.726-35.756v-11.65h8v11.65c0 11.462 5.446 22.449 14.569 29.389l13.812 10.506c11.1 8.443 17.726 21.81 17.726 35.755z" fill="#634086"/></g></g></g></svg>