<svg id="Layer_1" enable-background="new 0 0 510 510" height="512" viewBox="0 0 510 510" width="512" xmlns="http://www.w3.org/2000/svg"><g><g><path d="m499.245 265.755c0-134.893-109.352-244.245-244.245-244.245-93.992 0-151.892 53.017-152.051 53.107 0 0-2.407 3.004-2.857 5.002-3.657 16.234-7.074 37.99-7.074 53.866 0 134.892 113.754 244.218 248.647 244.218 51.944 0 109.735-24.896 148.414-54.829.865-.67 3.61-5.169 3.61-5.169.17-1.04 5.556-22.485 5.556-51.95z" fill="#ecc32e"/><path d="m341.643 370.809c-134.893 0-244.245-109.352-244.245-244.245 0-17.83 1.923-35.202 5.55-51.946-56.171 44.749-92.194 113.738-92.194 191.138 0 73.193 32.195 138.867 83.197 183.632l323.582-1.328c37.683-33.592 64.983-78.783 76.155-130.353-41.721 33.231-94.559 53.102-152.045 53.102z" fill="#e7a52e"/></g><path d="m124.738 164.794c-.154 0-.29-.027-.434-.043v130.888h254.821v-130.845z" fill="#9bd069"/><path d="m228.343 295.483v-159.613c0-40.567-12.346-73.452 28.22-73.452h-58.807c-40.567 0-73.452 32.886-73.452 73.452v159.612h104.039z" fill="#6ec186"/><path d="m348.409 398.374h-4.287l-85.006 13.095-97.688-13.062c-1.434.033-2.216.09-3.354.189-30.235 2.23-55.346 22.888-64.122 50.79 13.818 12.129 29.017 22.722 45.33 31.515l97.583 28.435c5.988.44 12.035.664 18.135.664 6.749 0 13.439-.275 20.059-.816l97.013-29.051c16.366-8.953 31.615-19.73 45.461-32.074-9.694-28.879-36.979-49.685-69.124-49.685z" fill="#55696e"/><path d="m161.428 398.407c-1.434.033-2.216.09-3.354.189-30.235 2.23-55.346 22.888-64.122 50.79 13.819 12.129 29.02 22.718 45.335 31.505l56.096-14.696v-63.249z" fill="#50555a"/><path d="m344.122 398.374h-155.811c-15.891.007-23.05-.021-26.884.004v28.804c0 24.96 20.234 45.194 45.194 45.194h92.307c24.96 0 45.194-20.234 45.194-45.194z" fill="#9bd069"/><path d="m251.798 398.374h-63.487c-15.891.007-23.05-.021-26.884.004v28.804c0 24.96 20.234 45.194 45.194 45.194h45.178v-74.002z" fill="#6ec186"/><path d="m218.398 333.94h67.662v75.381h-67.662z" fill="#91cdff"/><g><g><path d="m346.994 166.435c-.239-24.088-12.799-43.489-36.889-43.489h-52.187c-29.079 0-55.507 11.339-75.114 29.831v149.204c0 17.175 6.322 32.937 16.777 45.003 12.154 14.027 29.799 22.085 48.359 22.085h20.683c.003 0 .007-.001.01-.001 49.039-8.286 86.901-50.962 86.391-102.356l-.061-6.14z" fill="#fff"/></g></g><g><g><path d="m379.125 229.864c0 13.311-10.791 24.102-24.102 24.102v-61.1c13.311 0 24.102 10.791 24.102 24.102z" fill="#fff"/></g></g><g><g><path d="m124.315 229.864c0 13.311 10.791 24.102 24.102 24.102v-61.1c-13.311 0-24.102 10.791-24.102 24.102z" fill="#91cdff"/></g></g><g><g><path d="m207.814 228.013v8.83c0 4.728 3.834 8.562 8.562 8.562s8.562-3.833 8.562-8.562v-8.83z" fill="#91cdff"/></g></g><g><g><path d="m277.734 228.013v8.83c0 4.728 3.834 8.562 8.562 8.562s8.562-3.833 8.562-8.562v-8.83z" fill="#91cdff"/></g></g><g><g><path d="m216.376 238.269c-4.728 0-8.562-3.833-8.562-8.562v-6.314l3.437-5.163-3.437-5.163v-6.776c0-4.728 3.833-8.562 8.562-8.562 4.728 0 8.562 3.833 8.562 8.562v23.415c0 4.73-3.834 8.563-8.562 8.563z" fill="#373c41"/></g></g><g><g><path d="m286.296 238.269c-4.728 0-8.562-3.833-8.562-8.562v-8.01l3.437-5.163-3.437-5.163v-5.08c0-4.728 3.833-8.562 8.562-8.562 4.728 0 8.562 3.833 8.562 8.562v23.415c-.001 4.73-3.834 8.563-8.562 8.563z" fill="#373c41"/></g></g><g><g><g><path d="m227.656 193.45h-24.968c-4.728 0-8.562-3.833-8.562-8.562 0-4.728 3.833-8.562 8.562-8.562h24.968c4.728 0 8.562 3.833 8.562 8.562-.001 4.728-3.834 8.562-8.562 8.562z" fill="#9bd069"/></g></g></g><g><g><g><path d="m299.002 193.45h-24.968c-4.728 0-8.562-3.833-8.562-8.562 0-4.728 3.833-8.562 8.562-8.562h24.968c4.728 0 8.562 3.833 8.562 8.562 0 4.728-3.833 8.562-8.562 8.562z" fill="#9bd069"/></g></g></g><g><g><path d="m238.356 252.94c-2.128 7.5 1.74 15.67 9.137 18.132 1.488.496 3.081.764 4.736.764s3.247-.268 4.736-.764c7.397-2.462 11.265-10.632 9.137-18.132l-10.381-36.58c-.998-3.518-5.985-3.518-6.983 0z" fill="#91cdff"/></g></g><path d="m192.35 177.135h150.417l.175-53.702s-59.326-.538-148.146-.215c-25.639.093-37.788 16.701-37.788 42.34l-8.591 95.014v7.158c0 63.185 56.705 112.062 120.238 101.307-48.503-8.251-85.44-50.453-85.44-101.307-.004-47.966.032-70.84.062-81.549.014-5.002 4.072-9.046 9.073-9.046z" fill="#91cdff"/><path d="m284.981 286.364h-8.992-47.363-7.954c-2.668 0-4.801 2.329-4.445 4.974.681 5.059 2.387 9.794 4.901 13.988l47.951 14.21c10.829-5.316 18.674-15.778 20.346-28.198.357-2.645-1.776-4.974-4.444-4.974z" fill="#a51f6b"/><path d="m221.133 305.323c6.453 10.764 18.23 17.972 31.694 17.972 5.832 0 11.346-1.357 16.25-3.764-2.108-13.225-13.562-23.334-27.381-23.334-8.157 0-15.489 3.522-20.563 9.126z" fill="#da4a54"/><path d="m211.251 226.83c-1.898 0-3.437-1.539-3.437-3.437v-10.325c0-1.898 1.539-3.437 3.437-3.437 1.898 0 3.437 1.539 3.437 3.437v10.325c0 1.898-1.539 3.437-3.437 3.437z" fill="#fff"/><path d="m281.171 225.134c-1.898 0-3.437-1.539-3.437-3.437v-10.325c0-1.898 1.539-3.437 3.437-3.437 1.898 0 3.437 1.539 3.437 3.437v10.325c-.001 1.899-1.539 3.437-3.437 3.437z" fill="#fff"/><path d="m151.517 257.945-3.1 2.626v-144.022h28.168v87.305c-.001 20.838-9.169 40.621-25.068 54.091z" fill="#6ec186"/><path d="m351.924 257.945 3.1 2.626v-144.022h-28.168v87.305c0 20.838 9.168 40.621 25.068 54.091z" fill="#9bd069"/><path d="m299.268 57.488h-49.762v115.153h15.747c.848-5.183 15.029-23.895 23.542-23.895l90.188-10.724v-.818c0-44.026-35.689-79.716-79.715-79.716z" fill="#d80a61"/><path d="m202.93 57.488c-44.025 0-78.626 35.69-78.626 79.715v.818s112.774 28.447 112.548 34.619h14.458v-115.152z" fill="#a51f6b"/><path d="m265.354 158.022-14.255 14.255-14.255-14.255c-12.807-12.807-30.176-20.001-48.287-20.001h-64.253v27.536h64.253c18.111 0 35.48 7.195 48.287 20.001l14.255 14.255 14.255-14.255c12.806-12.806 30.176-20.001 48.287-20.001h65.343v-27.536h-65.343c-18.111 0-35.481 7.195-48.287 20.001z" fill="#da4a54"/><circle cx="249.995" cy="57.488" fill="#da4a54" r="57.488"/><path d="m192.507 57.488c0 31.75 25.738 57.488 57.488 57.488v-114.976c-31.75 0-57.488 25.738-57.488 57.488z" fill="#d80a61"/><path d="m319.173 390.062h-113.255c-11.55.005-16.755-.015-19.541.003v20.937c0 18.143 14.708 32.85 32.85 32.85h67.096c18.143 0 32.85-14.708 32.85-32.85z" fill="#f1d333"/><path d="m251.701 390.062h-45.784c-11.551.005-16.755-.015-19.541.003v20.937c0 18.143 14.708 32.85 32.85 32.85h32.475z" fill="#ecc32e"/><ellipse cx="249.995" cy="90.155" fill="#f1d333" rx="13.046" ry="59.625"/><circle cx="191.626" cy="271.079" fill="#da4a54" r="6.009"/><circle cx="311.814" cy="271.079" fill="#da4a54" r="6.009"/><g><path d="m183.086 458.386c-18.053 0-34.031 8.883-43.803 22.516 8.495 4.578 17.291 8.669 26.353 12.233l42.44 12.362c9.415 1.832 19.023 3.123 28.79 3.84-1.511-28.393-25.011-50.951-53.78-50.951z" fill="#f1d333"/><path d="m208.075 505.497c-2.968-11.02-13.031-19.132-24.989-19.132-6.724 0-12.849 2.565-17.45 6.769 13.593 5.347 27.782 9.51 42.439 12.363z" fill="#da4a54"/></g><g><path d="m328.83 458.386c-28.718 0-52.186 22.477-53.771 50.798 9.799-.8 19.444-2.18 28.899-4.109l41.704-12.488c9.079-3.633 17.895-7.797 26.41-12.455-9.816-13.196-25.531-21.746-43.242-21.746z" fill="#f1d333"/><path d="m345.662 492.587c-4.525-3.879-10.405-6.222-16.832-6.222-11.805 0-21.764 7.905-24.872 18.711 14.385-2.934 28.329-7.136 41.704-12.489z" fill="#da4a54"/></g></g></svg>