<svg id="Layer_1" enable-background="new 0 0 507.542 507.542" height="512" viewBox="0 0 507.542 507.542" width="512" xmlns="http://www.w3.org/2000/svg"><g><g><path d="m497.333 263.981c0-134.515-109.046-243.562-243.562-243.562-93.729 0-151.467 52.869-151.626 52.958 0 0-2.401 2.996-2.849 4.988-3.647 16.188-7.054 37.884-7.054 53.716 0 134.515 113.436 243.535 247.951 243.535 51.799 0 109.428-24.826 147.999-54.675.863-.668 3.6-5.154 3.6-5.154.17-1.039 5.541-22.424 5.541-51.806z" fill="#b1e4f9"/><path d="m340.172 368.74c-134.515 0-243.561-109.046-243.561-243.561 0-17.78 1.917-35.104 5.535-51.801-56.015 44.624-91.936 113.419-91.936 190.603 0 40.205 9.741 78.134 26.993 111.557l433.608-.917c9.364-18.346 16.484-38.072 20.982-58.835-41.606 33.139-94.296 52.954-151.621 52.954z" fill="#9dc6fb"/></g><path d="m177.82 450.662 1.494 45.276c23.47 7.529 48.487 11.604 74.458 11.604 26.901 0 52.858-4.393 77.162-12.515l1.584-44.365z" fill="#1576b7"/><path d="m417.962 356.363-45.89-7.112v102.711l48.606-10.609c20.275-19.07 37.309-41.608 50.133-66.732-14.863-8.761-32.834-15.156-52.849-18.258z" fill="#55696e"/><path d="m125.807 193.36-23.926 40.124c-10.848 18.192-5.99 41.657 11.188 54.047l37.084 26.748c12.867 9.28 30.346 8.827 42.714-1.108l13.077-10.504z" fill="#1576b7"/><path d="m145.604 224.522-16.101 27.003c-7.3 12.243-4.031 28.034 7.529 36.373l24.957 18.001c8.659 6.245 20.422 5.94 28.746-.746l8.801-7.069z" fill="#373c41"/><path d="m385.615 193.36 23.926 40.124c10.848 18.192 5.99 41.657-11.188 54.047l-37.084 26.748c-12.867 9.28-30.346 8.827-42.714-1.108l-13.077-10.504z" fill="#1576b7"/><path d="m365.818 224.522 16.101 27.003c7.3 12.243 4.031 28.034-7.529 36.373l-24.957 18.001c-8.659 6.245-20.422 5.94-28.746-.746l-8.801-7.069z" fill="#373c41"/><path d="m91.58 356.363c-20.707 3.209-39.225 9.942-54.378 19.174 12.749 24.7 29.6 46.939 49.652 65.816l50.617 10.608v-102.71z" fill="#55696e"/><path d="m255.639 329.988-106.946 23.737v98.237h219.324v-97.107z" fill="#da4a54"/><g><g><path d="m297.407 368.196c0 23.704-19.216 42.92-42.92 42.92-23.704 0-42.92-19.216-42.92-42.92v-96.135h85.841v96.135z" fill="#d80a61"/></g></g><g><g><g><path d="m376.943 111.041c0-37.782-30.567-68.444-68.349-68.56l-88.257-.271c-26.335-.081-47.727 21.245-47.727 47.581v171.726c0 36.468 23.675 67.577 56.563 78.405 7.816 2.573 15.992 3.885 24.221 3.885h8.161c.112 0 .215.015.316.031 64.143-3.518 115.073-56.64 115.073-121.662v-111.135z" fill="#da4a54"/></g></g><g><path d="m261.695 343.851c-51.23-14.878-88.678-62.155-88.678-118.184.304-6.923 0-81.869 0-107.354 0-39.169 31.753-70.921 70.921-70.921h88.511c-7.786-3.024-16.275-4.697-25.223-4.697h-104.273c-39.169 0-68.236 29.068-68.236 68.236l-2.685 72.776v37.215c0 33.779 13.881 66.075 38.39 89.32s57.494 35.398 91.226 33.611z" fill="#d80a61"/></g></g><path d="m268.212 287.513h-24.507c0-6.767 5.486-12.254 12.254-12.254 6.767 0 12.253 5.486 12.253 12.254z" fill="#d80a61"/><path d="m190.596 251.712h127.782c0 7.689-6.234 13.923-13.923 13.923h-99.936c-7.69 0-13.923-6.234-13.923-13.923z" fill="#fff"/><path d="m157.412 335.93-36.196 9.821c-9.651 2.619-16.352 11.379-16.352 21.379v74.223l16.839 27.308c17.749 11.476 37.085 20.706 57.607 27.288v-143.271c0-11.433-10.864-19.742-21.898-16.748z" fill="#373c41"/><path d="m389.03 345.751-36.196-9.821c-11.034-2.994-21.898 5.315-21.898 16.748v142.358c19.471-6.505 37.879-15.408 54.857-26.374l19.588-27.308v-74.224c.001-10-6.7-18.76-16.351-21.379z" fill="#373c41"/><path d="m121.943 169.268v118.245l132.544-51.812 132.544 51.812v-118.245l-131.973-8.065z" fill="#1576b7"/><path d="m271.352 16.534h-33.729c-63.888 0-115.68 51.792-115.68 115.68v37.844h112.74c5.341-5.413 12.774-8.854 20.376-8.854 8.157 0 15.219 3.436 20.252 8.854h111.721v-37.844c-.001-63.888-51.792-115.68-115.68-115.68z" fill="#144b7d"/><path d="m141.451 152.486v45.121l87.849-12.344c3.272-10.81 13.308-18.682 25.187-18.682 11.878 0 21.915 7.872 25.187 18.682l87.849 12.344v-45.121z" fill="#373c41"/><g fill="#fff"><path d="m216.012 152.486h-19.711c-14.51 14.51-29.021 29.021-43.531 43.531l22.933-3.223c13.437-13.435 26.873-26.871 40.309-40.308z"/><path d="m250.532 166.89 14.404-14.404h-33.054l-37.713 37.714 35.132-4.937c2.9-9.585 11.125-16.847 21.231-18.373z"/><path d="m279.674 185.264 4.486.63c11.136-11.136 22.272-22.272 33.407-33.407h-36.76l-16.145 16.145c7.173 3.013 12.734 9.106 15.012 16.632z"/><path d="m353.889 152.486h-20.452l-35.362 35.363 17.932 2.52z"/></g><path d="m272.748 12.212h-19.582v142.414h127.681c9.476 0 17.157-7.682 17.157-17.157.001-69.178-56.079-125.257-125.256-125.257z" fill="#1e87dc"/><path d="m270.216 132.436c0 8.53-6.915 15.445-15.445 15.445-8.53 0-15.445-6.915-15.445-15.445v-38.79c0-8.53 6.915-15.445 15.445-15.445 8.53 0 15.445 6.915 15.445 15.445z" fill="#195fa0"/><path d="m253.912 12.212h-17.686c-69.177 0-125.257 56.079-125.257 125.257 0 9.476 7.682 17.157 17.157 17.157h125.785v-142.414z" fill="#195fa0"/><path d="m298.872 123.382c7.344 0 13.298-5.954 13.298-13.298 0-53.618-22.429-97.083-50.096-97.083h-14.607c-27.667 0-50.096 43.466-50.096 97.083v13.298z" fill="#195fa0"/><path d="m262.074 0h-8.952v110.381h48.251c5.963 0 10.797-4.834 10.797-10.797v-2.501c.001-53.617-22.428-97.083-50.096-97.083z" fill="#b1e4f9"/><path d="m253.912 0h-6.444c-27.667 0-50.096 43.466-50.096 97.083 0 7.344 5.954 13.298 13.298 13.298h43.242z" fill="#2896ff"/><path d="m270.216 120.435c0 8.53-6.915 15.445-15.445 15.445-8.53 0-15.445-6.915-15.445-15.445v-38.79c0-8.53 6.915-15.445 15.445-15.445 8.53 0 15.445 6.915 15.445 15.445z" fill="#da4a54"/><path d="m178.669 441.354h-91.815c10.744 10.114 22.406 19.263 34.849 27.308h56.966c7.541 0 13.654-6.113 13.654-13.654 0-7.541-6.113-13.654-13.654-13.654z" fill="#e7a52e"/><path d="m331.873 441.354c-7.541 0-13.654 6.113-13.654 13.654 0 7.541 6.113 13.654 13.654 13.654h53.921c12.445-8.038 24.121-17.185 34.884-27.308z" fill="#e7a52e"/></g></svg>