<svg id="Layer_1" enable-background="new 0 0 512.458 512.458" height="512" viewBox="0 0 512.458 512.458" width="512" xmlns="http://www.w3.org/2000/svg"><g><g><g><path d="m256.229 2.458c-98.131 0-158.58 55.352-158.747 55.445 0 0-2.513 3.137-2.983 5.222-3.818 16.948-7.385 39.663-7.385 56.238 0 140.833 118.763 254.972 259.596 254.972 54.231 0 114.568-25.992 154.949-57.243.903-.699 3.769-5.396 3.769-5.396.178-1.087 5.8-23.477 5.8-54.239.001-140.832-114.166-254.999-254.999-254.999z" fill="#734a9b"/></g><path d="m346.688 367.137c-140.833 0-255-114.167-255-255 0-18.615 2.007-36.753 5.795-54.234-58.645 46.72-96.254 118.747-96.254 199.555 0 44.01 11.149 85.416 30.777 121.548l.044.081 448.594-.433c11.2-20.708 19.634-43.184 24.784-66.958-43.559 34.696-98.724 55.441-158.74 55.441z" fill="#5e3881"/></g><g><path d="m365.143 14.415h-110.481v226.458h110.481c62.535 0 113.229-50.694 113.229-113.229.001-62.535-50.694-113.229-113.229-113.229z" fill="#d2f0ff"/></g><g><path d="m256.112 14.415h-108.88c-62.535 0-113.229 50.694-113.229 113.229 0 62.535 50.694 113.229 113.229 113.229h108.879v-226.458z" fill="#afe6ff"/></g><path d="m258.121 376.925-162.426 7.398 29.153 91.729c3.721 2.241 7.504 4.391 11.346 6.444l109.619 29.753c3.455.139 6.928.209 10.417.209 4.718 0 9.408-.129 14.068-.383l108.338-30.896c3.178-1.742 6.316-3.55 9.412-5.422l33.145-91.4z" fill="#55696e"/><path d="m343.66 383.49c0 37.338 17.33 70.628 44.386 92.266 4.11-2.486 8.146-5.085 12.102-7.793l46.012-84.474h-102.5z" fill="#3c4646"/><path d="m67.104 383.49 44.871 84.273c4.201 2.887 8.494 5.652 12.872 8.289 27.268-21.63 44.757-55.053 44.757-92.562z" fill="#3c4646"/><g><path d="m461.839 405.578c-11.149-10.27-25.021-17.764-40.647-21.222l-163.071-36.085-88.516 18.929-73.91 17.122c-15.628 3.469-29.497 10.975-40.642 21.256z" fill="#9bd069"/></g><path d="m226.581 477.964h-77.986c-4.726 0-9.053 1.704-12.401 4.532 32.897 17.584 70.1 28.165 109.619 29.753v-15.054c-.001-10.621-8.611-19.231-19.232-19.231z" fill="#3c4646"/><path d="m378.634 481.178c-3.139-2.229-6.977-3.539-11.12-3.539h-77.986c-10.621 0-19.231 8.61-19.231 19.231v15.205c38.98-2.129 75.779-13.053 108.337-30.897z" fill="#3c4646"/><g><g><path d="m283.591 247.943h-54.805c-6.37 0-11.534-5.164-11.534-11.534 0-6.37 5.164-11.534 11.534-11.534h54.805c6.37 0 11.534 5.164 11.534 11.534 0 6.37-5.164 11.534-11.534 11.534z" fill="#9bd069"/></g><g><path d="m283.591 270.143h-54.805c-6.37 0-11.534-5.164-11.534-11.534 0-6.37 5.164-11.534 11.534-11.534h54.805c6.37 0 11.534 5.164 11.534 11.534 0 6.37-5.164 11.534-11.534 11.534z" fill="#57988b"/></g><g><path d="m283.591 292.344h-54.805c-6.37 0-11.534-5.164-11.534-11.534 0-6.37 5.164-11.534 11.534-11.534h54.805c6.37 0 11.534 5.164 11.534 11.534 0 6.37-5.164 11.534-11.534 11.534z" fill="#9bd069"/></g><g><path d="m283.591 314.544h-54.805c-6.37 0-11.534-5.164-11.534-11.534 0-6.37 5.164-11.534 11.534-11.534h54.805c6.37 0 11.534 5.164 11.534 11.534 0 6.37-5.164 11.534-11.534 11.534z" fill="#57988b"/></g><g><path d="m283.591 336.745h-54.805c-6.37 0-11.534-5.164-11.534-11.534 0-6.37 5.164-11.534 11.534-11.534h54.805c6.37 0 11.534 5.164 11.534 11.534 0 6.37-5.164 11.534-11.534 11.534z" fill="#9bd069"/></g><g><path d="m283.591 358.945h-54.805c-6.37 0-11.534-5.164-11.534-11.534 0-6.37 5.164-11.534 11.534-11.534h54.805c6.37 0 11.534 5.164 11.534 11.534 0 6.37-5.164 11.534-11.534 11.534z" fill="#57988b"/></g></g><g><path d="m386.501 55.709h-46.635c-26.85 0-50.845 12.185-66.775 31.325-8.739 10.5-25.068 10.5-33.807 0-15.93-19.14-39.924-31.325-66.775-31.325h-46.635c-31.655 0-57.317 25.662-57.317 57.317v25.61c0 41.085 33.306 74.39 74.39 74.39h110.039 6.402 110.039c41.085 0 74.39-33.306 74.39-74.39v-25.61c.001-31.656-25.661-57.317-57.316-57.317z" fill="#9bd069"/></g><g><g><g><circle cx="120.35" cy="145.843" fill="#57988b" r="28.423"/></g><g><g><circle cx="120.35" cy="133.995" fill="#fff" r="28.423"/></g><g><ellipse cx="123.133" cy="133.995" fill="#373c41" rx="8.703" ry="13.306"/></g></g></g><g><g><circle cx="392.025" cy="145.843" fill="#57988b" r="28.423"/></g><g><g><circle cx="392.025" cy="133.995" fill="#fff" r="28.423"/></g><g><ellipse cx="389.243" cy="133.995" fill="#373c41" rx="8.703" ry="13.306"/></g></g></g></g><g><path d="m296.937 224.874h-81.498c-22.358 0-40.484-18.125-40.484-40.484v-18.856h162.465v18.856c0 22.359-18.125 40.484-40.483 40.484z" fill="#57988b"/></g><path d="m391.475 72.01h-48.269c-28.522 0-55.37 12.177-73.659 33.408-3.17 3.681-7.891 5.791-12.95 5.791s-9.779-2.11-12.949-5.791c-18.289-21.231-45.137-33.408-73.659-33.408h-48.269c-20.176 0-38.245 8.912-50.237 22.887-1.898 5.698-2.926 11.793-2.926 18.129v18.293c2.131-26.43 25.161-47.309 53.163-47.309h48.269c25.026 0 48.56 10.657 64.567 29.24 5.452 6.329 13.486 9.959 22.041 9.959 8.556 0 16.589-3.63 22.042-9.959 16.008-18.583 39.541-29.24 64.567-29.24h48.269c25.912 0 47.566 17.878 52.343 41.49v-12.474c0-6.905-1.221-13.526-3.459-19.656-11.977-13.095-29.453-21.36-48.884-21.36z" fill="#57988b"/><g><path d="m286.934 156.647h-61.492c-10.324 0-18.693-8.369-18.693-18.693h98.877c.001 10.324-8.368 18.693-18.692 18.693z" fill="#fff"/></g><g><path d="m131.265 367.2-7.988 3.416-6.571-3.416h-49.602c-13.189 0-25.343 4.432-35.054 11.887 13.214 24.303 30.264 46.217 50.338 64.931l4.726.673 4.06 7.148c6.862 5.832 14.036 11.307 21.495 16.397 34.131-20.699 56.936-58.205 56.936-101.037h-38.34z" fill="#d80a61"/><path d="m131.265 367.2h-14.559l-30.317 34.964c-3.2 3.688-4.819 8.599-4.442 13.471l2.062 26.597c.063.81-.278 1.599-.911 2.109l-.194.156c2.703 2.506 5.46 4.954 8.27 7.343 2.7-2.758 4.105-6.563 3.802-10.46l-2.062-26.594c-.151-1.959.499-3.932 1.785-5.414z" fill="#da4a54"/></g><g><path d="m446.16 367.2h-49.602l-3.282 2.92-11.277-2.92h-38.339c0 42.644 22.606 80.008 56.488 100.763 7.485-5.124 14.687-10.638 21.576-16.515l2.434-5.035 5.78-2.284c20.223-18.812 37.413-40.899 50.706-65.475-9.615-7.194-21.552-11.454-34.484-11.454z" fill="#d80a61"/><path d="m429.255 442.229 2.062-26.595c.378-4.871-1.241-9.78-4.441-13.47l-30.317-34.964h-14.56l36.568 42.172c1.285 1.482 1.936 3.455 1.784 5.413l-2.062 26.595c-.289 3.716.975 7.347 3.435 10.069 2.79-2.38 5.529-4.82 8.214-7.318-.485-.505-.737-1.195-.683-1.902z" fill="#da4a54"/></g><g><path d="m255.653 0v36.098h95.145c3.49 0 6.497-2.455 7.197-5.874l4.379-21.406c.931-4.554-2.548-8.818-7.197-8.818z" fill="#55696e"/></g><g><path d="m256.112 0h-98.608c-4.747 0-8.247 4.434-7.145 9.051l5.109 21.406c.789 3.307 3.745 5.641 7.145 5.641h93.499z" fill="#50555a"/></g><g><path d="m254.329 10.877h83.092v12h-83.092z" fill="#b1e4f9"/></g><g><path d="m174.956 10.877h81.232v12h-81.232z" fill="#2896ff"/></g></g></svg>