<svg id="Layer_1" enable-background="new 0 0 512.458 512.458" height="512" viewBox="0 0 512.458 512.458" width="512" xmlns="http://www.w3.org/2000/svg"><g><g><g><path d="m256.229 29.442c-92.939 0-150.19 52.423-150.347 52.512 0 0-2.38 2.971-2.825 4.946-3.616 16.052-6.995 37.564-6.995 53.263 0 133.381 112.479 241.481 245.861 241.481 51.362 0 108.506-24.617 146.751-54.214.855-.662 3.57-5.111 3.57-5.111.168-1.029 5.494-22.234 5.494-51.369-.001-133.381-108.128-241.508-241.509-241.508z" fill="#da4a54"/></g><path d="m341.901 374.826c-133.381 0-241.508-108.127-241.508-241.508 0-17.63 1.901-34.808 5.488-51.364-55.541 44.248-91.16 112.464-91.16 188.996 0 58.934 21.11 112.938 56.18 154.863l371.644-1.185c23.999-29.051 41.375-63.889 49.698-102.309-41.254 32.86-93.5 52.507-150.342 52.507z" fill="#d80a61"/></g><g><g><path d="m138.972 425.506v-16.2c0-16.472-13.354-29.826-29.826-29.826-16.472 0-29.826 13.354-29.826 29.826v16.2z" fill="#373c41"/></g><g><path d="m431.376 425.506v-16.2c0-16.472-13.354-29.826-29.826-29.826-16.472 0-29.826 13.354-29.826 29.826v16.2z" fill="#415050"/></g><g><path d="m140.994 253.153h-8.299c-13.441 0-24.337-10.896-24.337-24.337v-49.171c0-13.441 10.896-24.337 24.337-24.337h8.299z" fill="#e7a52e"/></g><g><path d="m372.535 253.153h8.299c13.441 0 24.337-10.896 24.337-24.337v-49.171c0-13.441-10.896-24.337-24.337-24.337h-8.299z" fill="#f1d333"/></g><path d="m176.366 492.661h159.645c7.655-3.312 31.112-7.009 38.341-11.069 26.073-14.639 49.208-33.985 68.192-56.966-10.658-12.649-25.374-21.913-42.464-25.694l-143.159-31.679-142.593 31.649c-17.617 3.91-32.708 13.646-43.427 26.91 18.41 22.009 40.674 40.678 65.747 54.989 7.654 4.37 31.571 8.333 39.718 11.86z" fill="#8659b9"/><g><g><g><path d="m298.844 405.537c0 22.832-18.509 41.341-41.341 41.341-22.832 0-41.341-18.509-41.341-41.341v-131.62h82.682z" fill="#634086"/></g></g></g><g><path d="m230.661 425.517h-66.948c-8.578 0-15.531-6.954-15.531-15.531h82.479z" fill="#634086"/></g><g><path d="m284.345 425.517h66.948c8.578 0 15.531-6.954 15.531-15.531h-82.479z" fill="#634086"/></g><g><g><g><path d="m178.057 101.979v187.026c0 43.524 35.143 78.474 78.666 78.804.305.002 5.004.616 7.096.505 61.885-3.281 111.054-54.5 111.054-117.202v-128.665c0-36.392-29.443-65.926-65.835-66.037l-85.01-.261c-25.366-.079-45.971 20.463-45.971 45.83z" fill="#8659b9"/></g></g></g><g><g><path d="m178.45 254.474c.293-6.668 0-100.475 0-125.023 0-37.728 30.584-68.312 68.312-68.312h57.312v-4.524h-96.79c-37.728 0-65.726 27.998-65.726 65.726l-2.586 91.717v35.846c0 32.537 13.37 63.644 36.977 86.034 23.608 22.39 55.378 34.096 87.869 32.375l.046-.002c-49.344-14.332-85.414-59.869-85.414-113.837z" fill="#634086"/></g></g><g><path d="m339.486 155.872h-162.966v-9.721h153.245c5.369.001 9.721 4.353 9.721 9.721z" fill="#634086"/></g><g><g><g><path d="m196.986 270.432v-12.658c0-6.386 5.177-11.562 11.562-11.562h12.658c0 13.376-10.844 24.22-24.22 24.22z" fill="#634086"/></g><g><path d="m319.231 270.432v-12.658c0-6.386-5.177-11.562-11.562-11.562h-12.659c0 13.376 10.844 24.22 24.221 24.22z" fill="#634086"/></g></g><g><ellipse cx="209.178" cy="254.743" fill="#373c41" rx="6.259" ry="1.959"/></g><g><ellipse cx="307.12" cy="254.743" fill="#373c41" rx="6.259" ry="1.959"/></g></g><g><g><circle cx="185.319" cy="206.245" fill="#634086" r="24.962"/></g><g><g><circle cx="185.319" cy="195.839" fill="#fff" r="24.962"/></g><g><ellipse cx="187.763" cy="195.839" fill="#373c41" rx="7.644" ry="11.686"/></g><g><path d="m215.437 187.757c-2.668-14.209-15.133-24.964-30.117-24.964s-27.449 10.754-30.118 24.964z" fill="#634086"/></g></g></g><g><g><circle cx="328.525" cy="206.245" fill="#634086" r="24.962"/></g><g><g><circle cx="328.525" cy="195.839" fill="#fff" r="24.962"/></g><g><ellipse cx="326.082" cy="195.839" fill="#373c41" rx="7.644" ry="11.686"/></g></g></g><g><g><circle cx="257.229" cy="206.245" fill="#634086" r="24.962"/></g><g><g><circle cx="257.229" cy="195.839" fill="#fff" r="24.962"/></g><g><ellipse cx="257.503" cy="195.839" fill="#373c41" rx="7.644" ry="11.686"/></g></g></g><g><path d="m258.003 139.231c7.063-49.316 35.801-80.068 71.603-79.425l-71.603-59.806-5 56.615z" fill="#f1d333"/></g><g><circle cx="258.003" cy="299.23" fill="#415050" r="40.61"/></g><path d="m217.394 299.23c0 22.428 18.181 40.61 40.609 40.61v-81.219c-22.428 0-40.609 18.181-40.609 40.609z" fill="#373c41"/><g><path d="m105.611 392.263-2.875-6.401c-5.951-13.255-1.196-29.133 11.062-36.933 12.252-7.795 28.646-5.386 38.131 5.612l4.792 5.553c6.125 7.1 15.335 10.638 24.638 9.478 9.014-1.128 16.941-6.589 21.209-14.608l31.942-60.038 10.594 5.637-31.942 60.037c-6.099 11.462-17.431 19.268-30.312 20.879-13.294 1.663-26.461-3.398-35.214-13.546l-4.792-5.553c-5.624-6.521-15.342-7.948-22.603-3.327-7.267 4.624-10.086 14.036-6.558 21.893l2.875 6.401z" fill="#373c41"/></g><g><path d="m408.847 392.263-10.947-4.916 2.875-6.401c3.528-7.856.709-17.269-6.557-21.892-7.263-4.622-16.981-3.192-22.604 3.325l-4.792 5.555c-8.753 10.145-21.915 15.213-35.214 13.544-12.882-1.61-24.214-9.416-30.312-20.878l-31.942-60.038 10.594-5.637 31.942 60.038c4.268 8.02 12.195 13.48 21.209 14.608 9.295 1.155 18.514-2.379 24.638-9.477l4.792-5.555c9.486-10.996 25.878-13.41 38.132-5.61 12.258 7.799 17.013 23.677 11.062 36.932z" fill="#415050"/></g><g><circle cx="258.003" cy="299.23" fill="#6ec186" r="18.691"/></g><g><path d="m271.484 492.182 123.743-30.034c6.006-1.458 10.518-6.426 11.392-12.544l2.618-18.326c.603-4.222-3.802-7.371-7.601-5.434z" fill="#b1e4f9"/></g><path d="m352.03 492.661c7.65-3.311 15.107-6.994 22.332-11.052l-48.231 11.052z" fill="#b1e4f9"/><g><path d="m242.974 492.182-123.743-30.034c-6.006-1.458-10.518-6.426-11.392-12.544l-2.618-18.326c-.603-4.222 3.802-7.371 7.601-5.434z" fill="#b1e4f9"/></g><path d="m188.327 492.661-51.687-11.844c7.652 4.37 15.574 8.316 23.72 11.844z" fill="#b1e4f9"/><g><path d="m286.882 187.757c-2.668-14.209-15.133-24.964-30.117-24.964s-27.449 10.754-30.118 24.964z" fill="#634086"/></g><g><path d="m358.643 187.757c-2.668-14.209-15.133-24.964-30.117-24.964s-27.449 10.754-30.118 24.964z" fill="#634086"/></g><g><path d="m319.028 330.914-7.76-1.945 3.131-12.486c3.183-12.688 10.84-23.802 21.561-31.293 9.043-6.32 15.543-15.686 18.303-26.369l4.202-16.273 7.746 2-4.202 16.273c-3.236 12.53-10.86 23.514-21.467 30.926-9.141 6.388-15.669 15.864-18.383 26.683z" fill="#634086"/></g><path d="m159.214 492.182c29.691 13.039 62.508 20.276 97.015 20.276 34.366 0 67.185-7.219 96.939-20.276z" fill="#6ec186"/><g><path d="m258.003 139.231c-7.063-49.316-35.801-80.068-71.603-79.425l71.603-59.806z" fill="#e7a52e"/></g></g></g></svg>