<svg id="Layer_1" enable-background="new 0 0 512.458 512.458" height="512" viewBox="0 0 512.458 512.458" width="512" xmlns="http://www.w3.org/2000/svg"><g><g><g><path d="m256.229 17.883c-95.163 0-153.784 53.678-153.945 53.768 0 0-2.437 3.042-2.893 5.064-3.703 16.436-7.162 38.463-7.162 54.538 0 136.573 115.171 247.261 251.745 247.261 52.591 0 111.103-25.206 150.263-55.512.876-.678 3.655-5.233 3.655-5.233.172-1.054 5.625-22.767 5.625-52.598 0-136.574-110.715-247.288-247.288-247.288z" fill="#ecc32e"/></g><path d="m343.952 371.532c-136.573 0-247.288-110.715-247.288-247.288 0-18.052 1.947-35.641 5.619-52.594-56.871 45.308-93.342 115.156-93.342 193.52 0 45.439 12.255 88.015 33.641 124.604l36.237 47.666c3.253 3.35 6.601 6.608 10.038 9.77l334.744-.011c3.436-3.159 6.784-6.414 10.038-9.762l36.237-47.656c12.856-22.003 22.428-46.219 28.016-72.011-42.242 33.645-95.739 53.762-153.94 53.762z" fill="#e7a52e"/></g><g><path d="m433.638 404.753v32.683c4.471-4.6 8.766-9.376 12.873-14.317z" fill="#415050"/><g><path d="m335.819 355.747h75.885v90.236h-75.885z" fill="#415050"/></g><path d="m454.629 352.695c-16.935-19.573-43.264-26.198-66.495-18.981-10.545 3.276-14.098 16.455-6.873 24.805l49.253 56.928c4.385 5.068 10.202 7.497 15.998 7.673 8.657-10.414 16.481-21.56 23.364-33.34-.874-13.227-5.905-26.287-15.247-37.085z" fill="#d2f0ff"/><path d="m65.949 423.119c4.105 4.94 8.398 9.717 12.87 14.321v-32.687z" fill="#373c41"/><g><path d="m100.754 355.747h75.885v90.236h-75.885z" fill="#415050"/></g><path d="m124.324 333.714c-23.231-7.217-49.561-.592-66.495 18.981-9.341 10.796-14.372 23.855-15.246 37.079 6.879 11.769 14.703 22.919 23.367 33.345 5.795-.177 11.611-2.605 15.995-7.673l49.253-56.928c7.224-8.349 3.671-21.528-6.874-24.804z" fill="#afe6ff"/></g><path d="m415.814 435.093c-.027 0-.054 0-.081 0-18.283 0-33.969-23.925-40.721-58.059-4.072-20.584-22.015-35.487-42.998-35.487h-76.671v170.901c.283.001.564.01.847.01h.06c1.801 0 3.598-.02 5.391-.058l4.72-3.069 7.28 2.521c41.08-2.87 79.565-15.816 112.859-36.481l4.044-6.993 6.023.401c9.509-6.562 18.542-13.775 27.032-21.579v-4.579c.002-4.261-3.525-7.546-7.785-7.528z" fill="#d2f0ff"/><path d="m180.443 341.546c-20.982 0-38.926 14.903-42.998 35.487-6.752 34.135-22.438 58.059-40.721 58.059-.027 0-.054 0-.081 0-4.26-.017-7.787 3.267-7.787 7.527v4.59c8.481 7.802 17.51 15.019 27.021 21.587l6.32-.42 3.746 7.016c33.2 20.619 71.644 33.593 112.872 36.461l5.913-2.854 6.087 3.399c1.8.039 3.604.058 5.413.058h.124v-170.91z" fill="#afe6ff"/><g><path d="m256.229 376.437c-14.34 0-25.965-11.625-25.965-25.965v-34.141h51.929v34.141c.001 14.34-11.624 25.965-25.964 25.965z" fill="#415050"/></g><path d="m230.264 316.481c7.914 1.712 16.705 2.666 25.965 2.666 9.259 0 18.051-.954 25.964-2.666v-39.153h-51.929z" fill="#373c41"/><g><ellipse cx="256.229" cy="271.243" fill="#55696e" rx="62.815" ry="29.903"/></g><path d="m413.942 89.704-153.236-89.643c-1.488-.041-2.981-.061-4.477-.061-37.595 0-61.535 25.928-72.729 62.685-31.278 102.706 62.663 200.035 166.935 174.457l60.619-14.87c16.935-16.914 26.7-37.69 26.7-61.668.001-22.58-8.659-47.531-23.812-70.9z" fill="#d2f0ff"/><path d="m405.529 77.769-5.966-2.969-1.608-6.356c-32.549-37.71-82.194-67.149-138.023-68.402-7.547 29.258 10.616 66.544 46.132 89.849 39.359 25.827 85.989 25.269 107.877-.187-2.614-4.032-5.422-8.017-8.412-11.935z" fill="#fff"/><path d="m408.697 222.457c-28.28 2.116-51.209-21.582-49.191-49.869.082-1.154.124-2.323.124-3.505 0-34.506-34.576-77.241-80.354-88.603-35.936-8.919-47.008-54.86-19.472-79.613.3-.27.601-.539.903-.807-58.097-1.575-111.913 28.668-146.552 68.675l-.433 6.725-7.154 2.594c-19.988 26.145-31.863 55.518-31.863 82.55 0 27.085 12.459 50.086 33.64 68.048l6.698-1.486 5.302 10.515c33.256 22.255 81.809 34.63 135.886 34.63 53.669 0 101.899-12.189 135.132-34.129l5.515-8.373 6.485-.523c2.706-2.258 5.273-4.596 7.693-7.014-.785.065-1.571.126-2.359.185z" fill="#afe6ff"/><path d="m256.229 58.599c-17.999 0-30.65 13.925-39.537 34.232-27.303 62.39 32.729 127.548 97.356 106.07l23.729-7.886c13.693-10.523 21.852-24.39 21.852-40.933 0-39.403-46.293-91.483-103.4-91.483z" fill="#8659b9"/><path d="m337.128 191.077c-34.859 3.291-65.006-23.755-66.195-58.466-.041-1.204-1.023-2.164-2.227-2.206l-24.909-.869c-1.162-.041-2.212.782-2.363 1.935-1.932 14.79-25.129 14.803-25.753-1.257-.025-.639-.037-1.282-.037-1.929 0-21.531 13.823-46.848 35.679-65.383-1.413-3.556-.206-.52-1.619-4.076-54.067 3.752-96.875 53.366-96.875 91.257 0 39.404 46.294 63.63 103.4 63.63 33.132 0 62.624-8.155 81.548-22.698-.216.021-.432.042-.649.062z" fill="#734a9b"/><path d="m270.896 104.023-3.475-11.595c-2.69-3.173-6.706-5.187-11.192-5.187-8.1 0-14.667 6.567-14.667 14.667v16.38l2.397 5.283-2.397 9.787v14.304l1.317 7.175-1.317 7.895v6.982c0 2.149.462 4.191 1.293 6.03l7.61 7.461c1.77.757 3.718 1.176 5.764 1.176 8.1 0 14.667-6.567 14.667-14.667v-6.942l-2.167-4.633 2.167-10.438v-14.305l-4.148-5.423 4.148-9.648z" fill="#b1e4f9"/><g fill="#8659b9"><path d="m241.562 133.358 29.334-29.335v-2.115c0-3.614-1.307-6.923-3.475-9.48l-25.859 25.86z"/><path d="m241.562 162.732 29.334-29.335v-15.071l-29.334 29.335z"/><path d="m270.896 147.701-28.041 28.042c1.509 3.341 4.234 6.016 7.61 7.461l20.432-20.432v-15.071z"/></g><g><g><path d="m378.656 193.204v-99.432l25.292-18.04c-1.065-1.359-2.158-2.706-3.266-4.046l-27.217 19.413v104.635l22.629 17.7v21.481c1.78-1.283 3.509-2.597 5.191-3.94v-20.07z" fill="#55696e"/></g></g><g><path d="m331.532 410.327c-1.914-7.407-8.641-12.879-16.647-12.879h-117.312c-8.118 0-14.922 5.626-16.724 13.192v8c1.803 7.566 8.607 13.192 16.724 13.192h117.312c8.23 0 15.109-5.782 16.796-13.506z" fill="#8659b9"/><g><path d="m314.885 397.448c9.495 0 17.192 7.697 17.192 17.192 0 9.495-7.697 17.192-17.192 17.192h-117.312c-9.495 0-17.192-7.697-17.192-17.192 0-9.495 7.697-17.192 17.192-17.192zm0-12h-117.312c-16.097 0-29.192 13.096-29.192 29.192s13.096 29.192 29.192 29.192h117.312c16.097 0 29.192-13.096 29.192-29.192s-13.095-29.192-29.192-29.192z" fill="#415050"/></g><path d="m332.077 414.718v-.155c-.006-1.462-.195-2.882-.545-4.236h-7.98c-2.609 0-5.016 1.307-6.438 3.495l-2.847 4.379-8.173-11.919c-2.095-3.051-6.07-4.173-9.453-2.673l-15.809 7.031h-36.115l-7.579-4.878c-1.73-1.111-3.79-1.485-5.797-1.043-2.01.439-3.726 1.637-4.833 3.371l-5.589 8.761-4.435-10.435c-.968-2.275-2.984-3.954-5.396-4.492-2.413-.537-4.951.126-6.792 1.773l-7.76 6.942h-15.687c-.306 1.283-.468 2.623-.468 4s.162 2.716.468 4h15.81c1.892 0 3.709-.694 5.12-1.957l7.518-6.726 4.497 10.582c1.119 2.632 3.584 4.413 6.433 4.649 2.862.248 5.573-1.113 7.109-3.522l5.743-9.003 7.389 4.756c1.242.799 2.679 1.221 4.155 1.221h36.276c1.08 0 2.13-.223 3.12-.662l15.628-6.951 8.293 12.093c1.436 2.095 3.797 3.337 6.332 3.337h.096c2.571-.032 4.943-1.338 6.345-3.494l3.014-4.636h7.955c.253-1.162.389-2.37.395-3.608z" fill="#b1e4f9"/></g><g><path d="m215.537 450.891h-68.962c-13.141 0-24.627 7.223-30.697 17.906 3.298 2.278 6.654 4.477 10.066 6.596 3.895-7.425 11.681-12.503 20.631-12.503h68.962c12.836 0 23.279 10.443 23.279 23.279v25.684c3.975.276 7.976.459 12 .545v-26.23c0-19.451-15.826-35.277-35.279-35.277z" fill="#373c41"/><path d="m365.883 450.891h-68.963c-19.452 0-35.278 15.826-35.278 35.279v26.229c4.023-.087 8.023-.271 12-.549v-25.68c0-12.836 10.442-23.279 23.278-23.279h68.963c8.94 0 16.72 5.067 20.618 12.479 3.411-2.117 6.768-4.315 10.068-6.592-6.073-10.673-17.553-17.887-30.686-17.887z" fill="#415050"/></g><path d="m108.343 208.065v20.587c3.736 3.168 7.742 6.18 12 9.029v-24.001l21.175-17.669v-107.066l-27.308-20.161c-2.632 3.063-5.151 6.18-7.552 9.34l22.86 16.877v95.395z" fill="#415050"/><path d="m405.529 77.769c-2.408-3.155-4.935-6.267-7.574-9.324l-27.769 20.501v107.066l21.175 17.669v24.502c4.252-2.807 8.259-5.775 12-8.896v-21.221l-21.175-17.669v-95.395z" fill="#415050"/></g></svg>