<svg id="Layer_1" enable-background="new 0 0 510 510" height="512" viewBox="0 0 510 510" width="512" xmlns="http://www.w3.org/2000/svg"><g><g><g><path d="m255 18.469c-94.577 0-152.837 53.347-152.998 53.437 0 0-2.422 3.023-2.875 5.033-3.68 16.335-7.118 38.227-7.118 54.202 0 135.732 114.462 245.738 250.195 245.738 52.267 0 110.419-25.051 149.338-55.17.871-.674 3.633-5.201 3.633-5.201.171-1.047 5.59-22.626 5.59-52.274 0-135.732-110.033-245.765-245.765-245.765z" fill="#f1d333"/></g><g fill="#e7a52e"><path d="m96.418 124.177c0-17.941 1.935-35.422 5.585-52.27-56.522 45.028-92.768 114.446-92.768 192.328 0 37.231 8.279 72.528 23.095 104.151l273.909-1.053c-118.694-17.395-209.821-119.634-209.821-243.156z"/><path d="m379.996 367.048 98.466-.379c7.272-15.854 12.918-32.641 16.713-50.161-32.649 26.006-72.062 43.879-115.179 50.54z"/></g></g><g><path d="m130.771 310.882h250.458v17.909h-250.458z" fill="#373c41"/></g><g><path d="m407.407 315.975h-302.814c-11.067 0-20.038-8.971-20.038-20.038v-124.492c0-94.687 76.759-171.445 171.445-171.445 94.686 0 171.445 76.758 171.445 171.445v124.492c0 11.067-8.972 20.038-20.038 20.038z" fill="#55696e"/></g><g><path d="m256 83.121c-.278 0-.554.008-.832.01v187.29h102.459v-85.673c.001-56.126-45.5-101.627-101.627-101.627z" fill="#b1e4f9"/></g><g><path d="m255.72 83.125c-55.998.151-101.348 45.59-101.348 101.624v85.673h101.348z" fill="#2896ff"/></g><g><path d="m385.473 277.373h-258.946c-3.313 0-6-2.687-6-6v-103.223c0-74.7 60.773-135.473 135.473-135.473s135.473 60.773 135.473 135.473v103.223c0 3.314-2.687 6-6 6zm-252.946-12h246.945v-97.223c0-68.083-55.39-123.473-123.473-123.473s-123.473 55.39-123.473 123.473v97.223z" fill="#373c41"/></g><g><g><path d="m202.386 236.06c-5.016 0-9.083-4.066-9.083-9.083v-38.952c0-5.016 4.066-9.083 9.083-9.083 5.016 0 9.083 4.066 9.083 9.083v38.952c0 5.017-4.067 9.083-9.083 9.083z" fill="#00558c"/></g><g><path d="m309.614 236.06c-5.016 0-9.083-4.066-9.083-9.083v-38.952c0-5.016 4.066-9.083 9.083-9.083 5.016 0 9.083 4.066 9.083 9.083v38.952c-.001 5.017-4.067 9.083-9.083 9.083z" fill="#00558c"/></g></g><g><g><path d="m202.386 219.059c-5.016 0-9.083-4.066-9.083-9.083v-38.952c0-5.016 4.066-9.083 9.083-9.083 5.016 0 9.083 4.066 9.083 9.083v38.952c0 5.017-4.067 9.083-9.083 9.083z" fill="#373c41"/></g><g><path d="m309.614 219.059c-5.016 0-9.083-4.066-9.083-9.083v-38.952c0-5.016 4.066-9.083 9.083-9.083 5.016 0 9.083 4.066 9.083 9.083v38.952c-.001 5.017-4.067 9.083-9.083 9.083z" fill="#373c41"/></g></g><g><g><path d="m98.279 279.202h-18.764c-5.713 0-10.345-4.632-10.345-10.345v-104.167c0-5.713 4.632-10.345 10.345-10.345h18.764c5.713 0 10.345 4.632 10.345 10.345v104.167c0 5.713-4.631 10.345-10.345 10.345z" fill="#373c41"/></g><g><path d="m432.485 279.202h-18.764c-5.713 0-10.345-4.632-10.345-10.345v-104.167c0-5.713 4.632-10.345 10.345-10.345h18.764c5.713 0 10.345 4.632 10.345 10.345v104.167c-.001 5.713-4.632 10.345-10.345 10.345z" fill="#373c41"/></g></g><g><path d="m184.414 248.267h143.171v50.092h-143.171z" fill="#373c41"/></g><g><g><path d="m200.535 258.643h9.083v26.432h-9.083z" fill="#f1d333"/></g><g><path d="m220.905 258.643h9.083v26.432h-9.083z" fill="#f1d333"/></g><g><path d="m241.274 258.643h9.083v26.432h-9.083z" fill="#f1d333"/></g><g><path d="m261.643 258.643h9.083v26.432h-9.083z" fill="#f1d333"/></g><g><path d="m282.013 258.643h9.083v26.432h-9.083z" fill="#f1d333"/></g><g><path d="m302.382 258.643h9.083v26.432h-9.083z" fill="#f1d333"/></g></g><path d="m404.479 328.791h-18.541l-6.466 3.77-5.534-3.77h-117.227l-25.047 122.871 169.136 10.414c18.536-13.672 35.107-29.9 49.174-48.197l1.213-6.457 7.097-5.021c7.669-11.261 14.431-23.205 20.177-35.732-16.557-22.944-43.525-37.878-73.982-37.878z" fill="#55696e"/><path d="m138.062 328.791-5.534 4.87-6.466-4.87h-18.541c-31.209 0-58.756 15.681-75.19 39.594 5.572 11.893 12.07 23.267 19.399 34.028l8.633 3.688-.187 7.965c44.934 58.343 115.489 95.934 194.824 95.934.571 0 1.141-.003 1.711-.007v-181.202z" fill="#373c41"/><path d="m400.8 462.076c1.011-4.49 1.544-9.16 1.544-13.956 0-34.943-28.327-63.271-63.271-63.271h-166.146c-34.943 0-63.271 28.327-63.271 63.271 0 5.438.686 10.716 1.977 15.752 40.352 29.03 89.863 46.128 143.367 46.128 54.331 0 104.86-17.727 145.8-47.924z" fill="#373c41"/><g><path d="m336.575 377.106h-159.965c-27.912 0-50.539 22.627-50.539 50.539 0 27.912 22.627 50.539 50.539 50.539h159.965c27.912 0 50.539-22.627 50.539-50.539 0-27.912-22.627-50.539-50.539-50.539z" fill="#8659b9"/></g><g><path d="m336.575 369.605h-127.205v15h127.205c23.731 0 43.039 19.308 43.039 43.039s-19.307 43.038-43.039 43.038h-2.361v15h2.361c32.002 0 58.039-26.036 58.039-58.038s-26.036-58.039-58.039-58.039z" fill="#b1e4f9"/></g><g><path d="m335.647 470.683h-159.037c-23.731 0-43.039-19.307-43.039-43.038s19.307-43.039 43.039-43.039h34.854v-15h-34.854c-32.002 0-58.039 26.036-58.039 58.039 0 32.002 26.036 58.038 58.039 58.038h159.037z" fill="#2896ff"/></g><g><path d="m385.938 328.791h-12c0 43.972 33.319 80.309 76.036 85.089 2.876-3.741 5.648-7.568 8.31-11.478-40.009-.683-72.346-33.441-72.346-73.611z" fill="#7d8c9b"/><path d="m52.44 402.413h-.711c2.703 3.969 5.52 7.855 8.445 11.653 43.601-3.922 77.887-40.67 77.887-85.275h-12c.001 40.596-33.026 73.622-73.621 73.622z" fill="#50555a"/></g><g><path d="m256 162.876c-16.416 0-29.723-13.307-29.723-29.723v-59.021h59.446v59.021c0 16.416-13.307 29.723-29.723 29.723z" fill="#00558c"/></g><g><path d="m256 146.255c-16.416 0-29.723-13.307-29.723-29.723v-59.021h59.446v59.021c0 16.415-13.307 29.723-29.723 29.723z" fill="#373c41"/></g><g><g><path d="m168.365 414.017-15.1 26.153c-2.949 5.107.737 11.492 6.635 11.492h30.199c5.897 0 9.583-6.384 6.635-11.492l-15.1-26.153c-2.949-5.107-10.321-5.107-13.269 0z" fill="#373c41"/></g><g><path d="m331.551 414.017-15.1 26.153c-2.949 5.107.737 11.492 6.635 11.492h30.199c5.897 0 9.583-6.384 6.635-11.492l-15.1-26.153c-2.948-5.107-10.32-5.107-13.269 0z" fill="#373c41"/></g><g><path d="m222.431 441.288 15.1-26.153c2.949-5.107-.737-11.492-6.635-11.492h-30.199c-5.897 0-9.583 6.384-6.635 11.492l15.1 26.153c2.948 5.108 10.32 5.108 13.269 0z" fill="#373c41"/></g><g><path d="m249.958 414.017-15.1 26.153c-2.949 5.107.737 11.492 6.635 11.492h30.199c5.897 0 9.583-6.384 6.635-11.492l-15.1-26.153c-2.949-5.107-10.32-5.107-13.269 0z" fill="#373c41"/></g><g><path d="m304.024 441.288 15.1-26.153c2.949-5.107-.737-11.492-6.635-11.492h-30.199c-5.897 0-9.583 6.384-6.635 11.492l15.1 26.153c2.948 5.108 10.32 5.108 13.269 0z" fill="#373c41"/></g></g></g></svg>