<svg id="Layer_1" enable-background="new 0 0 510 510" height="512" viewBox="0 0 510 510" width="512" xmlns="http://www.w3.org/2000/svg"><g><g><g><path d="m255 22.102c-93.878 0-151.708 52.953-151.867 53.043 0 0-2.404 3.001-2.854 4.996-3.653 16.214-7.065 37.944-7.065 53.801 0 134.729 113.616 243.922 248.345 243.922 51.881 0 109.603-24.865 148.234-54.762.864-.669 3.606-5.163 3.606-5.163.17-1.04 5.549-22.459 5.549-51.888.001-134.729-109.219-243.949-243.948-243.949z" fill="#b1e4f9"/></g><path d="m341.538 370.977c-134.729 0-243.949-109.22-243.949-243.949 0-17.808 1.92-35.16 5.544-51.884-56.103 44.696-92.082 113.601-92.082 190.907 0 48.315 14.046 93.35 38.277 131.243l412.291-1.485c14.778-23.488 25.684-49.728 31.781-77.87-41.672 33.192-94.446 53.038-151.862 53.038z" fill="#9dc6fb"/></g><g><path d="m255.674 356.472-151.336 33.36 20.234 82.411c9.26 5.87 18.942 11.133 28.992 15.734l204.873-.96c9.667-4.533 18.996-9.683 27.933-15.403l21.242-81.75z" fill="#453d81"/><g><g><path d="m292.273 336.645c0 5.934-4.811 10.745-10.745 10.745h-51.055c-5.934 0-10.745-4.811-10.745-10.745 0-5.934 4.811-10.745 10.745-10.745h51.055c5.934 0 10.745 4.81 10.745 10.745z" fill="#11113f"/></g><g><path d="m292.273 357.47c0 5.934-4.811 10.745-10.745 10.745h-51.055c-5.934 0-10.745-4.811-10.745-10.745 0-5.934 4.811-10.745 10.745-10.745h51.055c5.934 0 10.745 4.811 10.745 10.745z" fill="#11113f"/></g></g><g><g><path d="m93.67 387.431 19.372 77.034c3.765 2.698 7.609 5.292 11.53 7.777 29.093-17.055 48.629-48.652 48.629-84.812h-79.531z" fill="#11113f"/><g><path d="m145.482 373.878-10.684 5.581-5.199-5.581h-35.929c-18.42 0-34.674 9.278-44.342 23.416 11.629 18.185 25.603 34.726 41.497 49.196l5.572.786 3.575 7.138c4.239 3.493 8.598 6.846 13.07 10.051 35.344-14.876 60.159-49.833 60.159-90.587z" fill="#da4a54"/><path d="m145.482 373.878h-15.882l-24.413 28.156c-2.911 3.354-4.383 7.819-4.041 12.251l1.716 22.127c.016.206-.071.406-.232.537l-11.804 9.541c2.983 2.715 6.033 5.358 9.147 7.924l10.187-8.122c3.245-2.614 4.989-6.655 4.666-10.809l-1.716-22.125c-.095-1.233.331-2.526 1.142-3.461z" fill="#ecc32e"/></g></g><g><path d="m338.798 387.431c0 35.719 19.063 66.986 47.571 84.182 3.845-2.461 7.618-5.027 11.314-7.695l20.647-76.487z" fill="#11113f"/><g><path d="m418.33 373.878h-35.93l-5.199 3.986-10.684-3.986h-27.719c0 40.262 24.22 74.867 58.885 90.04 4.543-3.279 8.97-6.712 13.274-10.291l2.724-6.572 6.481-1.479c15.9-14.623 29.87-31.349 41.458-49.767-9.771-13.299-25.522-21.931-43.29-21.931z" fill="#da4a54"/><path d="m418.845 444.586-9.474-7.637c-.161-.13-.248-.33-.231-.538l1.715-22.125c.344-4.43-1.129-8.895-4.039-12.25l-24.416-28.158h-15.883l31.232 36.02c.81.934 1.236 2.227 1.14 3.459l-1.714 22.123c-.324 4.154 1.42 8.195 4.664 10.811l9.117 7.336c3.135-2.607 6.204-5.291 9.205-8.051-.791-.592-1.276-.958-1.316-.99z" fill="#ecc32e"/></g></g></g><g><g><path d="m377.202 108.804c0-18.189-4.463-35.336-12.354-50.405l-131.342-57.937c-55.358 5.094-98.708 51.656-98.708 108.342v29.681l2.773 11.983-2.773 4.987v45.197c0 23.329 7.342 44.943 19.842 62.658l12 14.252c19.692 19.705 46.904 31.894 76.962 31.894h24.795c30.352 0 57.802-12.428 77.537-32.474l12-14.495c12.15-17.559 19.267-38.866 19.267-61.836v-44.622l-3.65-7.544 3.65-9.427v-30.254z" fill="#634086"/><g><path d="m326.977 140.133c0-33.413-27.087-60.5-60.5-60.5h-20.953c-33.413 0-60.5 27.087-60.5 60.5v128.635c0 33.413 27.087 60.5 60.5 60.5h20.953c33.413 0 60.5-27.087 60.5-60.5z" fill="#453d81"/></g><g><circle cx="256" cy="146.106" fill="#11113f" r="46.7"/></g><g><circle cx="256" cy="146.106" fill="#da4a54" r="32.873"/></g><g><circle cx="256" cy="146.106" fill="#11113f" r="12.322"/></g><g><circle cx="246.588" cy="137.791" fill="#fff" r="9.412"/></g><g fill="#11113f"><path d="m134.798 155.456 19.842 19.842v88.012c3.423 4.851 7.233 9.41 11.385 13.632l.615.621v-107.235l-31.842-31.843z"/><path d="m377.202 139.061-31.267 31.267v106.656l.672-.689c4.139-4.279 7.93-8.896 11.328-13.806v-87.19l19.267-19.267z"/></g><g><path d="m225.321 294.355h-11.869v-54.947l-6.868-9.42v-31.791h18.737z" fill="#da4a54"/></g><g><path d="m286.679 294.355h11.869v-54.947l6.868-9.42v-31.791h-18.737z" fill="#da4a54"/></g></g><g><g><path d="m146.897 92.231h12v27.579h-12z" fill="#11113f"/></g><g><path d="m165.215 92.231h12v27.579h-12z" fill="#11113f"/></g></g><g><g><path d="m353.103 92.231h12v27.579h-12z" fill="#11113f"/></g><g><path d="m334.785 92.231h12v27.579h-12z" fill="#11113f"/></g></g></g><path d="m302.776 427.793h-93.552c-30.74 0-55.66 24.92-55.66 55.66v4.522c4.865 2.227 9.816 4.299 14.846 6.21l175.18-.802c5.03-1.963 9.981-4.088 14.846-6.369v-3.562c0-30.739-24.92-55.659-55.66-55.659z" fill="#11113f"/><path d="m255 510c31.159 0 61.058-5.875 88.59-16.616v-7.726c0-22.569-18.295-40.864-40.864-40.864h-93.452c-22.569 0-40.864 18.295-40.864 40.864v8.527c26.909 10.22 56.096 15.815 86.59 15.815z" fill="#fff"/><g><path d="m318.282 490.913v-4.982c0-11.644-9.439-21.083-21.083-21.083h-82.398c-11.644 0-21.083 9.439-21.083 21.083v4.982z" fill="#b1e4f9"/></g><g><path d="m208.449 460.823c-2.342 0-4.567-1.38-5.532-3.674l-35.568-84.495c-2.658-6.398-1.075-13.872 3.927-18.624 3.267-3.104 7.547-4.749 12.049-4.605 4.504.133 8.679 2.019 11.756 5.309l9.277 9.918c2.264 2.42 2.137 6.217-.283 8.48s-6.216 2.137-8.48-.283l-9.277-9.918c-.876-.937-2.065-1.474-3.347-1.512-1.287-.012-2.5.428-3.43 1.312-1.424 1.353-1.875 3.48-1.121 5.294l35.557 84.469c1.286 3.055-.148 6.572-3.202 7.858-.76.319-1.549.471-2.326.471z" fill="#11113f"/></g><g><path d="m303.551 460.823c-.776 0-1.564-.152-2.325-.472-3.054-1.286-4.487-4.804-3.202-7.858l35.567-84.495c.742-1.787.292-3.915-1.132-5.269-.93-.883-2.119-1.333-3.429-1.311-1.282.038-2.472.575-3.348 1.512l-9.277 9.918c-2.265 2.42-6.061 2.546-8.48.283-2.42-2.264-2.547-6.061-.283-8.48l9.277-9.918c3.078-3.291 7.254-5.176 11.758-5.309 4.485-.153 8.781 1.502 12.048 4.605 5.001 4.752 6.584 12.226 3.938 18.597l-35.578 84.522c-.967 2.295-3.192 3.674-5.534 3.675z" fill="#11113f"/></g></g><path d="m268.397 0h-24.795c-3.404 0-6.772.157-10.097.463-.955 27.199 22.686 55.276 58.081 66.364 27.715 8.682 55.454 4.697 73.26-8.427-18.178-34.714-54.547-58.4-96.449-58.4z" fill="#8659b9"/></g></svg>