<svg id="Layer_1" enable-background="new 0 0 512.458 512.458" height="512" viewBox="0 0 512.458 512.458" width="512" xmlns="http://www.w3.org/2000/svg"><g><g><g><path d="m256.229 24.56c-93.878 0-151.708 52.953-151.867 53.043 0 0-2.404 3.001-2.854 4.996-3.653 16.214-7.065 37.944-7.065 53.801 0 134.729 113.616 243.922 248.345 243.922 51.881 0 109.603-24.865 148.234-54.762.864-.669 3.606-5.163 3.606-5.163.17-1.04 5.549-22.459 5.549-51.888.001-134.729-109.219-243.949-243.948-243.949z" fill="#9bd069"/></g><g fill="#6ec186"><path d="m98.819 129.486c0-17.808 1.92-35.16 5.544-51.884-56.104 44.696-92.083 113.601-92.083 190.907 0 36.536 8.032 71.197 22.427 102.311l257.606-2.61c-110.52-23.241-193.494-121.292-193.494-238.724z"/><path d="m398.052 367.14 81.724-.828c6.385-14.589 11.393-29.946 14.853-45.915-27.87 22.199-60.707 38.428-96.577 46.743z"/></g></g><g><path d="m405.404 454.192h-300.66l-3.614 2.611c42.158 34.767 96.187 55.656 155.099 55.656 58.159 0 111.927-20.47 154.102-54.854z" fill="#252b2b"/><g><path d="m458.707 313.756-6.184-.536-3.699-6.941c-49.121-35.27-117.149-57.401-192.518-58.258v212.289h131.858c7.645 0 15.072-.937 22.171-2.701 29.766-24.267 53.758-55.466 69.44-91.297v-33.505c-6.467-6.66-13.506-13.022-21.068-19.051z" fill="#da4a54"/><path d="m65.634 306.279-3.936 6.831-5.947.646c-7.561 6.029-14.601 12.39-21.068 19.05v35.892c0 .709.009 1.417.025 2.122 15.476 33.453 38.307 62.807 66.417 85.989 7.997 2.28 16.441 3.501 25.17 3.501h131.858v-212.289c-75.37.857-143.398 22.989-192.519 58.258z" fill="#d80a61"/><g fill="#252b2b"><path d="m89.862 395.561h104.588l23.163 49.576 10.872-5.079-26.396-56.497h-104.229l-32.226-77.281c-3.385 2.431-6.681 4.924-9.883 7.477z"/><path d="m458.707 313.757c-3.202-2.553-6.498-5.046-9.883-7.477l-32.226 77.281h-104.228l-26.396 56.497 10.872 5.079 23.163-49.576h104.588z"/></g></g><g><g><path d="m408.507 307.112c0 25.973-67.73 47.028-151.278 47.028s-151.278-21.055-151.278-47.028c0-6.493 0-23.809 0-23.809 22.965-16.879 88.617-23.219 151.278-23.219 58.213 0 151.278 23.219 151.278 23.219s0 15.933 0 23.809z" fill="#252b2b"/></g><g><ellipse cx="257.229" cy="283.303" fill="#d2f0ff" rx="151.278" ry="47.028"/></g><g><path d="m129.565 295.374h75.41v12h-75.41z" fill="#252b2b" transform="matrix(.886 -.463 .463 .886 -120.575 111.767)"/></g><g><path d="m341.188 263.669h12v75.41h-12z" fill="#252b2b" transform="matrix(.463 -.886 .886 .463 -80.723 469.474)"/></g></g><g><ellipse cx="257.229" cy="269.484" fill="#252b2b" rx="114.175" ry="25.771"/></g><g><g><path d="m370.445 159.015 24.705-83.71v-70.324h-24.705z" fill="#3c4646"/></g><g><path d="m144.013 159.015-24.705-83.71v-70.324h24.705z" fill="#3c4646"/></g><g><path d="m365.965 179.545h-214.405v-91.348c0-41.885 33.955-75.84 75.84-75.84h62.726c41.885 0 75.84 33.955 75.84 75.84v91.348z" fill="#505f69"/></g><g><path d="m300.721 37.975h-40.473v183.712h116.312v-107.873c0-41.885-33.954-75.839-75.839-75.839z" fill="#d2f0ff"/></g><g><path d="m259.478 37.975h-42.675c-41.885 0-75.84 33.955-75.84 75.84v107.872h118.514v-183.712z" fill="#73c8f0"/></g><g><path d="m337.911 269.484h-161.884c-28.148 0-50.966-22.818-50.966-50.966v-39.781h263.815v39.781c.001 28.148-22.817 50.966-50.965 50.966z" fill="#55696e"/></g><g><g><circle cx="157.549" cy="128.498" fill="#55696e" r="30.517"/></g><g><path d="m157.549 108.898v39.198c10.824 0 19.599-8.775 19.599-19.599s-8.774-19.599-19.599-19.599z" fill="#f1d333"/></g><g><path d="m137.95 128.498c0 10.824 8.775 19.599 19.599 19.599v-39.198c-10.824-.001-19.599 8.774-19.599 19.599z" fill="#e7a52e"/></g></g><g><g><circle cx="364.172" cy="128.498" fill="#55696e" r="30.517"/></g><g><path d="m364.172 108.898v39.198c10.824 0 19.599-8.775 19.599-19.599s-8.775-19.599-19.599-19.599z" fill="#f1d333"/></g><g><path d="m344.573 128.498c0 10.824 8.775 19.599 19.599 19.599v-39.198c-10.825-.001-19.599 8.774-19.599 19.599z" fill="#e7a52e"/></g></g><g><path d="m237.947 0h39.476v137.678h-39.476z" fill="#55696e"/></g><g><path d="m320.877 269.484h-132.81l6.292-37.661c2.64-15.799 16.311-27.376 32.329-27.376h55.568c16.018 0 29.69 11.577 32.329 27.376z" fill="#3c4646"/></g><g><path d="m121.671 168.487h272.958v19.241h-272.958z" fill="#3c4646"/></g><g><path d="m252.762 128.498h12v49.609h-12z" fill="#3c4646"/></g></g><g><ellipse cx="257.229" cy="460.471" fill="#fff" rx="91.421" ry="42.241"/></g><g><path d="m257.229 441.553c-9.348 0-18.062 1.092-25.39 2.975-5.086 8.762.886 19.804 11.003 20.336 27.586 1.449 61.534 3.613 61.534-4.393 0-10.448-21.108-18.918-47.147-18.918z" fill="#f1d333"/></g><g><path d="m278.984 463.536c-26.039 0-47.147-8.47-47.147-18.918 0-.03.001-.06.001-.09-13.084 3.362-21.757 9.246-21.757 15.943 0 10.448 21.108 18.918 47.147 18.918 25.964 0 47.025-8.421 47.146-18.828-7.328 1.883-16.041 2.975-25.39 2.975z" fill="#e7a52e"/></g></g></g></svg>