<svg id="Layer_1" enable-background="new 0 0 512.458 512.458" height="512" viewBox="0 0 512.458 512.458" width="512" xmlns="http://www.w3.org/2000/svg"><g><g><g><path d="m256.229 17.955c-95.149 0-153.762 53.67-153.923 53.761 0 0-2.437 3.041-2.892 5.064-3.702 16.433-7.161 38.458-7.161 54.53 0 136.553 115.155 247.224 251.708 247.224 52.583 0 111.086-25.202 150.241-55.504.876-.678 3.655-5.232 3.655-5.232.172-1.054 5.624-22.763 5.624-52.59 0-136.555-110.699-247.253-247.252-247.253z" fill="#b1e4f9"/></g><path d="m343.939 371.553c-136.553 0-247.251-110.698-247.251-247.252 0-18.049 1.947-35.636 5.619-52.586-56.863 45.3-93.329 115.139-93.329 193.491 0 45.939 12.529 88.953 34.356 125.809l426.562-1.305c12.828-21.977 22.381-46.159 27.961-71.914-42.236 33.642-95.725 53.757-153.918 53.757z" fill="#9dc6fb"/></g><g><path d="m452.139 370.331-6.864-.303-2.706-7.003c-11.505-7.861-24.401-13.612-37.321-16.471l-148.36-8.908-149.083 9.324c-12.583 2.793-25.006 8.284-36.091 15.778l-.31 8.598-9.282-1.324c-7.267 6.166-13.673 13.248-18.788 20.993 11.068 18.689 24.526 35.795 39.955 50.896l7.106 1.272 1.781 7.012c2.843 2.523 5.745 4.982 8.703 7.374l311.94-1.028c2.842-2.327 5.632-4.716 8.367-7.165l.143-6.359 8.722-1.981c15.401-15.215 28.83-32.458 39.844-51.327-4.952-7.092-10.99-13.62-17.756-19.378z" fill="#8659b9"/><g><path d="m404.599 364.244.648-15.611-148.009-17.14-148.786 18.461v14.707c0 45.243 36.517 81.92 81.563 81.92h133.02c45.046 0 81.563-36.677 81.563-81.92v-.417z" fill="#734a9b"/></g><g><path d="m405.247 346.554-148.006-32.751-149.437 33.167c0 45.243 36.677 81.92 81.92 81.92h133.603c45.243 0 81.92-36.677 81.92-81.92z" fill="#9bd069"/></g></g><path d="m374.598 444.801h-234.03c-14.812 0-28.519 4.733-39.69 12.769 12.316 9.959 25.608 18.759 39.709 26.234l5.781.73 5.781 5.016c4.73 2.198 9.541 4.251 14.427 6.153l4.075-1.161 7.486 5.331c24.547 8.165 50.803 12.586 78.092 12.586 29.963 0 58.776-5.359 85.481-15.206l5.781-5.683 5.781 1.085c4.89-2.09 9.701-4.333 14.427-6.723l3.76-4.435 7.802-1.805c11.828-6.796 23.051-14.545 33.559-23.148-10.896-7.412-24.053-11.743-38.222-11.743z" fill="#373c41"/><g><circle cx="257.583" cy="331.869" fill="#8659b9" r="71.484"/></g><g><path d="m186.099 331.869c0 39.479 32.005 71.484 71.484 71.484v-142.968c-39.479 0-71.484 32.005-71.484 71.484z" fill="#734a9b"/></g><g><path d="m381.218 130.349c0-71.99-55.353-130.349-123.635-130.349-68.281 0-123.634 58.359-123.634 130.349 0 36.196 13.996 68.942 36.591 92.559 20.942 21.888 32.3 51.224 32.3 81.517v17.628c0 30.234 24.509 54.743 54.743 54.743 30.234 0 54.743-24.509 54.743-54.743v-17.628c0-30.293 11.358-59.628 32.3-81.517 22.596-23.617 36.592-56.363 36.592-92.559z" fill="#9bd069"/></g><g><g><g><circle cx="161.348" cy="212.371" fill="#57988b" r="22.435"/></g><g><g><circle cx="161.348" cy="203.019" fill="#fff" r="22.435"/></g><g><ellipse cx="163.544" cy="203.019" fill="#373c41" rx="6.87" ry="10.503"/></g><g><path d="m188.416 195.755c-2.398-12.771-13.601-22.437-27.068-22.437s-24.671 9.666-27.069 22.437z" fill="#57988b"/></g></g></g><g><g><circle cx="353.819" cy="212.371" fill="#57988b" r="22.435"/></g><g><g><circle cx="353.819" cy="203.019" fill="#fff" r="22.435"/></g><g><ellipse cx="351.623" cy="203.019" fill="#373c41" rx="6.87" ry="10.503"/></g><g><path d="m326.75 195.755c2.398-12.771 13.601-22.437 27.068-22.437s24.671 9.666 27.069 22.437z" fill="#57988b"/></g></g></g></g><g><g><path d="m161.723 78.422c-1.271 0-2.553-.402-3.642-1.234l-55.975-42.811c-2.632-2.013-3.134-5.778-1.12-8.411 2.014-2.632 5.778-3.132 8.411-1.12l55.975 42.811c2.632 2.013 3.134 5.778 1.12 8.411-1.18 1.543-2.965 2.354-4.769 2.354z" fill="#57988b"/></g><g><path d="m123.438 56.997c-2.936 0-5.894-.929-8.405-2.85l-17.696-13.534c-6.076-4.647-7.234-13.341-2.587-19.417 4.648-6.076 13.341-7.233 19.417-2.587l17.695 13.534c6.076 4.647 7.234 13.341 2.587 19.417-2.726 3.565-6.845 5.437-11.011 5.437z" fill="#9bd069"/></g><g><path d="m353.444 78.422c-1.806 0-3.59-.811-4.771-2.355-2.014-2.632-1.512-6.397 1.121-8.41l55.976-42.811c2.633-2.015 6.399-1.511 8.41 1.121 2.014 2.632 1.512 6.397-1.121 8.41l-55.976 42.811c-1.086.832-2.369 1.234-3.639 1.234z" fill="#57988b"/></g><g><path d="m391.728 56.997c-4.166 0-8.285-1.872-11.012-5.438-4.647-6.076-3.489-14.77 2.588-19.416l17.696-13.534c6.073-4.647 14.768-3.49 19.416 2.587 4.647 6.077 3.489 14.771-2.587 19.417l-17.696 13.534c-2.511 1.921-5.469 2.85-8.405 2.85z" fill="#9bd069"/></g></g><g><path d="m333.261 141.185h-151.355c0-9.727 7.885-17.612 17.612-17.612h116.13c9.728 0 17.613 7.885 17.613 17.612z" fill="#57988b"/></g><g><path d="m333.261 107.318h-151.355c0-9.727 7.885-17.612 17.612-17.612h116.13c9.728-.001 17.613 7.885 17.613 17.612z" fill="#57988b"/></g><g><g><g><path d="m249.738 206.211-11.353 28.818c.001.001-10.253-20.422 11.353-28.818z" fill="#57988b"/></g><g><path d="m266.048 206.211 11.353 28.818c0 .001 10.253-20.422-11.353-28.818z" fill="#57988b"/></g></g><g><path d="m267.378 286.26h-19.589c-13.615 0-24.651-11.037-24.651-24.651v-11.001l32.085 5.123 36.807-5.123v11.001c-.001 13.615-11.038 24.651-24.652 24.651z" fill="#57988b"/></g><g><path d="m267.378 275.26h-19.589c-13.615 0-24.651-11.037-24.651-24.651h68.892c-.001 13.614-11.038 24.651-24.652 24.651z" fill="#fff"/></g></g><g><path d="m257.583 373.248v111.285c30.731 0 55.643-24.912 55.643-55.643s-24.912-55.642-55.643-55.642z" fill="#f1d333"/></g><g><path d="m201.941 428.891c0 30.731 24.912 55.643 55.643 55.643v-111.286c-30.731 0-55.643 24.912-55.643 55.643z" fill="#e7a52e"/></g><g><path d="m257.583 394.899v67.984c18.773 0 33.992-15.219 33.992-33.992s-15.219-33.992-33.992-33.992z" fill="#da4a54"/></g><g><path d="m223.592 428.891c0 18.773 15.219 33.992 33.992 33.992v-67.984c-18.774 0-33.992 15.219-33.992 33.992z" fill="#d80a61"/></g><path d="m83.288 441.912c2.894 2.833 5.857 5.595 8.887 8.284l6.304-4.927v-40.751l-26.767-41.769c-3.328 2.25-6.536 4.681-9.592 7.273l24.359 38.011v31.384z" fill="#373c41"/><path d="m415.978 404.518v40.751l5.23 4.088c3.015-2.7 5.963-5.474 8.843-8.319l-2.073-1.62v-31.384l24.161-37.702c-3.053-2.598-6.254-5.04-9.571-7.306z" fill="#373c41"/><g fill="#da4a54"><g><path d="m140.588 483.804c3.796 2.012 7.651 3.929 11.561 5.746v-17.141h-11.561z"/><path d="m166.576 495.702c3.809 1.482 7.663 2.873 11.561 4.17v-27.463h-11.561z"/></g><g><path d="m353.271 492.653v-20.244h-11.561v24.842c3.9-1.438 7.755-2.971 11.561-4.598z"/><path d="m379.26 479.69v-7.281h-11.561v13.521c3.913-1.979 7.768-4.061 11.561-6.24z"/></g></g></g></svg>