<svg id="Layer_1" enable-background="new 0 0 510 510" height="512" viewBox="0 0 510 510" width="512" xmlns="http://www.w3.org/2000/svg"><g><g><g><path d="m255 16.036c-95.045 0-153.594 53.612-153.755 53.702 0 0-2.434 3.038-2.889 5.058-3.698 16.416-7.153 38.416-7.153 54.47 0 136.404 115.029 246.955 251.433 246.955 52.526 0 110.965-25.175 150.077-55.443.875-.677 3.651-5.227 3.651-5.227.172-1.053 5.618-22.738 5.618-52.533 0-136.404-110.578-246.982-246.982-246.982z" fill="#734a9b"/></g><path d="m342.614 369.249c-136.404 0-246.982-110.578-246.982-246.982 0-18.03 1.944-35.597 5.612-52.529-56.8 45.251-93.226 115.013-93.226 193.28 0 59.269 20.877 113.662 55.678 156.226l31.359 31.976c2.809 2.39 5.672 4.717 8.587 6.981l302.715-.021c2.915-2.262 5.778-4.588 8.587-6.976l31.356-31.952c24.149-29.522 41.64-64.818 50.063-103.701-42.189 33.605-95.619 53.698-153.749 53.698z" fill="#5e3881"/></g><g><path d="m414.944 451.204c8.134-6.914 15.818-14.35 23-22.259v-13.917h-23z" fill="#2896ff"/><g><path d="m326.975 370.711h68.624v91.466h-68.624z" fill="#2896ff" transform="matrix(-1 0 0 -1 722.574 832.888)"/></g><path d="m373.116 351.163c-8.916 2.983-12.002 14.017-5.851 21.127l45.343 52.409c6.901 7.977 17.67 8.712 25.483 4.085 2.815-3.105 5.552-6.283 8.209-9.531.529-1.313.934-2.719 1.192-4.213 2.81-16.272-1.427-33.625-13.075-47.088-15.599-18.03-40.013-23.91-61.301-16.789z" fill="#fff"/><path d="m72.056 428.946c7.178 7.909 14.862 15.351 23 22.274v-36.192h-23z" fill="#2896ff"/><g><path d="m114.401 370.711h68.624v91.466h-68.624z" fill="#2896ff"/></g><path d="m136.884 351.163c-21.288-7.121-45.702-1.241-61.3 16.788-11.648 13.463-15.885 30.816-13.075 47.088.257 1.491.661 2.894 1.188 4.205 2.657 3.249 5.394 6.43 8.21 9.538 7.813 4.629 18.583 3.894 25.485-4.083l45.343-52.409c6.151-7.11 3.065-18.144-5.851-21.127z" fill="#d2f0ff"/></g><path d="m186.466 357.869c-18.975 0-35.201 13.478-38.883 32.092-6.106 30.869-20.291 52.504-36.825 52.504h-.073c-3.852-.016-7.042 2.954-7.042 6.807v8.93c9.755 7.576 20.094 14.436 30.936 20.503l4.655-1.935 6.552 7.833c32.929 16.26 70.004 25.397 109.214 25.397.568 0 1.135-.003 1.702-.006v-152.125z" fill="#d2f0ff"/><path d="m399.315 442.465h-.073c-16.533 0-30.719-21.635-36.825-52.504-3.682-18.614-19.909-32.092-38.884-32.092h-67.935v152.129c38.832-.093 75.719-9.196 108.565-25.406l4.114-8.814 7.136 2.896c10.836-6.061 21.178-12.917 30.942-20.494v-8.908c.002-3.853-3.187-6.823-7.04-6.807z" fill="#fff"/><g><circle cx="255" cy="370.711" fill="#b1e4f9" r="38.765"/></g><g><path d="m255 389.421c-12.968 0-23.48-10.512-23.48-23.48v-66.145h46.961v66.145c-.001 12.968-10.513 23.48-23.481 23.48z" fill="#2896ff"/></g><g><path d="m256.042 11.598c-.348-.002-.693-.014-1.041-.014-99.375 0-177.812 84.432-170.506 183.539l2.443 33.14c4.632 62.832 56.96 111.444 119.963 111.444h49.141z" fill="#d2f0ff"/></g><g><path d="m255.001 11.584c-.131 0-.261.005-.392.005v328.118h48.609c63.164 0 115.569-48.854 119.993-111.864l2.339-33.317c6.943-98.893-71.411-182.942-170.549-182.942z" fill="#fff"/></g><path d="m376.215 175.439-26.93-28.519c-5.079-1.958-10.601-3.035-16.374-3.035h-26.2l-29.587 7.894-37.085-7.894h-62.952c-26.126 0-47.024 22.031-45.266 48.099.018.262.036.525.056.787l1.764 23.93c1.259 17.083 7.402 32.711 17 45.558l43.359 30.868c8.299 2.631 17.126 4.047 26.264 4.047h15.546l24.139-7.306 24.329 7.306h5.536c45.61 0 83.451-35.278 86.646-80.776l1.689-24.058c.012-.17.024-.34.035-.509.378-5.725-.34-11.252-1.969-16.392z" fill="#373c41"/><g><path d="m235.81 297.175h48.467l91.937-121.735c-4.133-13.039-14.125-23.581-26.93-28.519z" fill="#50555a"/></g><g><path d="m343.982 128.661c29.77 0 53.671 26.295 51.706 57.47-.013.203-.026.407-.04.611l-1.929 28.837c-3.648 54.536-46.867 96.82-98.959 96.82h-79.433c-51.958 0-95.114-42.075-98.934-96.458l-2.015-28.684c-.022-.314-.043-.629-.063-.943-2.008-31.245 21.859-57.653 51.698-57.653zm0-12h-177.967c-17.386 0-33.644 7.127-45.78 20.067-12.567 13.401-19.089 31.754-17.894 50.355.022.338.044.676.068 1.014l2.015 28.685c2.054 29.242 14.487 56.366 35.008 76.374 20.665 20.147 47.618 31.243 75.896 31.243h79.433c28.35 0 55.354-11.145 76.037-31.382 20.54-20.096 32.933-47.313 34.894-76.637l1.929-28.837.042-.654c1.168-18.531-5.354-36.818-17.895-50.174-12.141-12.932-28.402-20.054-45.786-20.054z" fill="#b1e4f9"/></g><g><path d="m242.72 318.399c0-3.314-2.686-6-6-6h-21.391c-51.958 0-95.114-42.075-98.934-96.458l-2.015-28.684c-.022-.314-.043-.629-.063-.943-2.008-31.245 21.859-57.653 51.698-57.653h82.705c3.314 0 6-2.686 6-6 0-3.314-2.686-6-6-6h-82.705c-17.386 0-33.644 7.127-45.78 20.067-12.567 13.401-19.089 31.754-17.894 50.355.022.338.044.676.068 1.014l2.015 28.685c2.054 29.242 14.487 56.366 35.008 76.374 20.665 20.147 47.618 31.243 75.896 31.243h21.391c3.314 0 6.001-2.687 6.001-6z" fill="#2896ff"/></g><g><path d="m273.252 90.412h-36.504c-19.764 0-35.787-16.022-35.787-35.787v-47.505c0-3.933 3.188-7.12 7.12-7.12h93.836c3.933 0 7.12 3.188 7.12 7.12v47.505c.002 19.765-16.021 35.787-35.785 35.787z" fill="#373c41"/></g><path d="m233.207 120.66h12c0-12.332-8.276-23.33-20.126-26.745l-35.035-9.096c-3.995-1.182-7.929-5.024-10.038-9.812l-16.315-37.039c-3.445 2.181-6.805 4.481-10.075 6.895l15.409 34.982c3.603 8.18 10.244 14.357 17.764 16.525l35.038 9.097c6.703 1.966 11.378 8.202 11.378 15.193z" fill="#2896ff"/><path d="m340.974 79.845 15.409-34.981c-3.271-2.414-6.63-4.715-10.075-6.896l-16.315 37.039c-2.987 6.78-3.661 6.975-10.106 8.832l-34.967 10.076c-11.85 3.415-20.126 14.413-20.126 26.745h12c0-7.016 4.708-13.271 11.45-15.214l34.967-10.076c8.891-2.563 12.987-4.684 17.763-15.525z" fill="#b1e4f9"/><g><path d="m174.966 211.868c-5.293 0-9.583-4.291-9.583-9.583v-17.055c0-5.293 4.291-9.583 9.583-9.583 5.293 0 9.583 4.291 9.583 9.583v17.055c0 5.293-4.29 9.583-9.583 9.583z" fill="#b1e4f9"/></g><g><path d="m335.034 211.868c5.293 0 9.583-4.291 9.583-9.583v-17.055c0-5.293-4.291-9.583-9.583-9.583-5.293 0-9.583 4.291-9.583 9.583v17.055c0 5.293 4.29 9.583 9.583 9.583z" fill="#6ee1ff"/></g><path d="m191.562 388.13c0 16.144-7.273 31.132-19.954 41.122l-13.571 10.691c-12.446 9.805-20.655 23.527-23.458 38.761 3.693 2.067 7.445 4.041 11.253 5.92 1.537-13.87 8.501-26.488 19.631-35.256l13.571-10.691c15.588-12.279 24.528-30.703 24.528-50.548v-30.261h-12z" fill="#2896ff"/><path d="m351.963 439.943-13.571-10.691c-12.681-9.99-19.954-24.979-19.954-41.122v-30.261h-12v30.261c0 19.845 8.94 38.269 24.528 50.548l13.571 10.691c11.121 8.761 18.083 21.366 19.627 35.223 3.806-1.878 7.557-3.851 11.251-5.917-2.808-15.223-11.013-28.933-23.452-38.732z" fill="#b1e4f9"/><g><ellipse cx="257.385" cy="467.973" fill="#f1d333" rx="75.524" ry="34.008"/></g><g><path d="m257.385 444.634c19.469 0 38.323 3.462 51.726 9.497 10.975 4.942 15.974 10.64 15.974 13.842s-4.999 8.9-15.974 13.842c-13.404 6.035-32.257 9.497-51.726 9.497s-38.323-3.462-51.726-9.497c-10.975-4.942-15.974-10.64-15.974-13.842s4.999-8.9 15.974-13.842c13.404-6.036 32.257-9.497 51.726-9.497m0-13c-44.57 0-80.7 16.27-80.7 36.339s36.131 36.339 80.7 36.339 80.7-16.27 80.7-36.339-36.13-36.339-80.7-36.339z" fill="#e28424"/></g><g><path d="m265.625 198.288-26.913 35.636c4.141 1.253 8.534 1.926 13.085 1.926 22.347 0 40.89-16.242 44.497-37.562z" fill="#b1e4f9"/></g><g><path d="m150.641 262.259c10.773 14.418 25.898 25.332 43.36 30.868l44.711-59.203 2.051-20.352 24.862-15.285 41.086-54.402h-66.672z" fill="#50555a"/></g><g><path d="m207.3 198.288c2.872 16.979 15.217 30.737 31.412 35.636l26.913-35.636z" fill="#6ee1ff"/></g></g></svg>