<svg id="Layer_1" enable-background="new 0 0 509.903 509.903" height="512" viewBox="0 0 509.903 509.903" width="512" xmlns="http://www.w3.org/2000/svg"><g><g><g><path d="m254.952 27.94c-92.736 0-149.862 52.309-150.02 52.397 0 0-2.375 2.964-2.819 4.935-3.608 16.017-6.979 37.483-6.979 53.147 0 133.09 112.234 240.955 245.325 240.955 51.25 0 108.269-24.563 146.431-54.096.854-.661 3.562-5.1 3.562-5.1.168-1.027 5.482-22.186 5.482-51.257-.001-133.09-107.892-240.981-240.982-240.981z" fill="#ecc32e"/></g><path d="m340.437 372.571c-133.09 0-240.982-107.891-240.982-240.981 0-17.592 1.897-34.732 5.476-51.252-55.42 44.151-90.961 112.218-90.961 188.584 0 41.965 10.727 81.424 29.588 115.786l49.966 63.138c2.978 2.688 6.023 5.303 9.133 7.842l304.591-.018c3.109-2.536 6.154-5.149 9.133-7.836l50.458-64.025c10.68-19.667 18.716-41.028 23.613-63.63-41.165 32.788-93.297 52.392-150.015 52.392z" fill="#e7a52e"/></g><g><path d="m416.38 417.6v30.234c4.409-3.977 8.671-8.117 12.778-12.409z" fill="#373c41"/><g><path d="m327.372 373.008h69.049v78.564h-69.049z" fill="#373c41" transform="matrix(-1 0 0 -1 723.794 824.58)"/></g><path d="m80.742 435.424c4.106 4.295 8.37 8.439 12.782 12.422v-30.246z" fill="#373c41"/><g><path d="m113.481 373.008h69.049v78.564h-69.049z" fill="#373c41"/></g></g><path d="m429.158 435.424c14.708-15.374 27.415-32.712 37.68-51.616-.559-10.002-8.846-17.942-18.988-17.942h-278.767c.001.056.008.108.008.164v69.394z" fill="#da4a54"/><path d="m43.065 383.806c10.253 18.871 22.954 36.219 37.677 51.618h91.104v-69.558h-109.793c-10.141.001-18.428 7.939-18.988 17.94z" fill="#d80a61"/><g><path d="m468.684 191.789h-427.464c-4.899 0-8.87-3.971-8.87-8.87v-35.001c0-4.899 3.971-8.87 8.87-8.87h427.464c4.899 0 8.87 3.971 8.87 8.87v35.001c0 4.898-3.971 8.87-8.87 8.87z" fill="#373c41"/></g><g><path d="m346.935 130.232c-10.046-41.482-47.414-72.292-91.983-72.292s-81.937 30.81-91.983 72.292z" fill="#373c41"/></g><path d="m400.161 445.206h-.073c-16.636 0-30.909-21.769-37.053-52.829-3.705-18.729-20.032-32.29-39.125-32.29h-.517l-5.433 3.467-6.567-3.467h-57.091v142.457l10.678 7.153c53.623-2.206 103.028-22.017 142.266-54.028v-3.614c.001-3.876-3.208-6.865-7.085-6.849z" fill="#b1e4f9"/><path d="m198.51 360.087-4.427 5.118-7.573-5.118h-.517c-19.092 0-35.42 13.561-39.124 32.29-6.144 31.06-20.417 52.829-37.053 52.829h-.073c-3.876-.016-7.086 2.973-7.086 6.849v3.633c39.096 31.918 88.401 51.805 142.266 54.01l10.812-6.604v-143.007z" fill="#2896ff"/><path d="m252.98 509.895c.656.005 1.313.008 1.971.008 3.358 0 6.702-.07 10.029-.207v-16.166c0-16.255 7.323-31.347 20.092-41.406l13.655-10.757c15.676-12.349 24.666-30.877 24.666-50.832v-30.448h-12v30.448c0 16.255-7.323 31.347-20.092 41.406l-13.655 10.757c-15.676 12.349-24.666 30.877-24.666 50.832z" fill="#d80a61"/><path d="m254.952 509.903c.658 0 1.315-.003 1.971-.009v-16.364c0-19.955-8.99-38.483-24.666-50.832l-13.655-10.757c-12.769-10.06-20.092-25.151-20.092-41.406v-30.448h-12v30.448c0 19.955 8.99 38.483 24.666 50.832l13.655 10.757c12.769 10.06 20.092 25.151 20.092 41.406v16.168c3.326.136 6.669.205 10.029.205z" fill="#d80a61"/><g><circle cx="254.952" cy="373.008" fill="#f1d333" r="39.005"/></g><g><path d="m254.952 391.834c-13.048 0-23.626-10.578-23.626-23.626v-143.749h47.252v143.749c-.001 13.049-10.578 23.626-23.626 23.626z" fill="#373c41"/></g><g><path d="m264.352 334.674h-18.8c-13.048 0-23.626-10.578-23.626-23.626v-103.747h66.052v103.748c0 13.047-10.578 23.625-23.626 23.625z" fill="#d80a61"/></g><g><path d="m264.352 270.987h-18.8c-13.048 0-23.626-10.578-23.626-23.626v-103.747h66.052v103.748c0 13.048-10.578 23.625-23.626 23.625z" fill="#a51f6b"/></g><g><path d="m403.759 241.618h-297.615c-30.94 0-56.022-25.082-56.022-56.022v-37.683c0-30.94 25.082-56.022 56.022-56.022h297.615c30.94 0 56.022 25.082 56.022 56.022v37.683c0 30.94-25.082 56.022-56.022 56.022z" fill="#da4a54"/></g><g><path d="m356.367 170.81h-203.388c-9.866 0-18.296 6.146-21.671 14.818-.106-.019-.075-.013-.181-.032v-37.683c0-30.94 25.082-56.022 56.022-56.022h-81.005c-30.94 0-56.022 25.082-56.022 56.022v37.683c0 30.94 25.082 56.022 56.022 56.022h37.638c7.67 0 11.411-9.533 5.654-14.601-.135-.119-.269-.24-.4-.362-3.652-3.386-1.219-9.393 3.761-9.355.06 0 .121.001.181.001h203.945c13.12 0 23.701-10.869 23.231-24.093-.447-12.597-11.182-22.398-23.787-22.398z" fill="#d80a61"/></g><g><g><path d="m96.888 182.175c-4.987 0-9.029-4.042-9.029-9.029v-16.069c0-4.987 4.042-9.029 9.029-9.029 4.987 0 9.029 4.042 9.029 9.029v16.069c0 4.986-4.042 9.029-9.029 9.029z" fill="#a51f6b"/></g><g><path d="m413.015 182.175c4.987 0 9.029-4.042 9.029-9.029v-16.069c0-4.987-4.042-9.029-9.029-9.029-4.987 0-9.029 4.042-9.029 9.029v16.069c0 4.986 4.043 9.029 9.029 9.029z" fill="#d80a61"/></g></g><g><g><path d="m96.888 173.174c-4.987 0-9.029-4.042-9.029-9.029v-16.069c0-4.987 4.042-9.029 9.029-9.029 4.987 0 9.029 4.042 9.029 9.029v16.069c0 4.987-4.042 9.029-9.029 9.029z" fill="#373c41"/></g><g><path d="m413.015 173.174c4.987 0 9.029-4.042 9.029-9.029v-16.069c0-4.987-4.042-9.029-9.029-9.029-4.987 0-9.029 4.042-9.029 9.029v16.069c0 4.987 4.043 9.029 9.029 9.029z" fill="#373c41"/></g></g><path d="m366.738 91.891-7.062 12.6c-6.367 11.359-18.411 18.416-31.433 18.416h-146.583c-13.022 0-25.066-7.057-31.433-18.416l-7.062-12.6h-13.756l10.35 18.468c8.487 15.143 24.542 24.549 41.901 24.549h146.583c17.359 0 33.414-9.406 41.901-24.549l10.35-18.468z" fill="#373c41"/><g><path d="m248.952 27.94h12v36.91h-12z" fill="#373c41"/></g><g><path d="m239.952 0h30v36.91h-30z" fill="#d80a61"/></g><g><path d="m248.952 110.399h12v131.219h-12z" fill="#373c41"/></g><g><path d="m356.924 207.301h-203.945c-12.838 0-23.246-10.408-23.246-23.246 0-12.838 10.408-23.246 23.246-23.246h203.945c12.838 0 23.246 10.408 23.246 23.246 0 12.838-10.407 23.246-23.246 23.246z" fill="#b1e4f9"/></g><path d="m302.197 186.269c-2.038 2.156-5.554 2.016-7.393-.39l-5.558-7.276c-3.713-4.862-10.393-6.434-15.888-3.738-14.011 6.704-13.943 7.266-15.924 7.266-50.081-.488-50.069 1.132-52.626-1.42l-1.443-1.438c-5.412-5.398-14.196-4.867-18.977.892-2.375 2.352-3.532 5.885-7.352 5.509-1.632-.162-3.016-1.082-3.797-2.525-1.877-3.468-5.181-5.853-9.063-6.541-7.396-1.313-11.543 3.905-12.215 4.308-2.401 2.117-3.769.843-22.149 1.217-.052.635-.079 1.277-.079 1.925 0 2.102.279 4.138.802 6.075h18.209c6.068 0 9.192-3.994 9.968-4.506 2.345-2.072 6.004-1.418 7.492 1.33 4.316 7.98 15.373 9.12 21.207 2.095l3.134-3.776c1.853-2.231 5.175-2.329 7.172-.336.739.541 3.918 5.193 10.524 5.193 69.506-.596 42.841 2.895 68.644-8.084 2.075-1.021 4.602-.426 6.005 1.412l5.558 7.276c4.809 6.296 14.116 6.787 19.561 1.033 2.947-2.711 4.019-5.436 7.237-5.436h64.816c.073-.749.111-1.509.111-2.277 0-1.975-.247-3.892-.71-5.723h-64.216c-7.597-.002-10.738 6.009-13.05 7.935z" fill="#8659b9"/></g></svg>