<svg id="Layer_1" enable-background="new 0 0 509.903 509.903" height="512" viewBox="0 0 509.903 509.903" width="512" xmlns="http://www.w3.org/2000/svg"><g><g><g><path d="m254.952 15.802c-95.072 0-153.637 53.626-153.798 53.717 0 0-2.435 3.039-2.89 5.059-3.699 16.42-7.155 38.427-7.155 54.485 0 136.442 115.061 247.023 251.503 247.023 52.541 0 110.996-25.182 150.119-55.458.875-.677 3.652-5.228 3.652-5.228.172-1.053 5.62-22.745 5.62-52.548-.001-136.442-110.609-247.05-247.051-247.05z" fill="#da4a54"/></g><path d="m342.59 369.113c-136.442 0-247.05-110.608-247.05-247.051 0-18.035 1.945-35.607 5.614-52.543-56.817 45.264-93.253 115.045-93.253 193.334 0 49.505 14.561 95.609 39.634 134.263l414.821.028c15.903-24.515 27.602-52.087 34.027-81.744-42.202 33.614-95.647 53.713-153.793 53.713z" fill="#d80a61"/></g><path d="m413.053 365.849-148.44-32.848v87.558l164.264 17.74c12.557-12.44 23.797-26.231 33.479-41.155-11.936-15.459-29.124-26.83-49.303-31.295z" fill="#82878c"/><path d="m254.612 330.788-157.816 35.028c-20.164 4.476-37.337 15.847-49.262 31.3 9.675 14.917 20.916 28.724 33.49 41.188l173.792-23.833v-83.637z" fill="#50555a"/><path d="m377.068 376.555-122.379-27.081-1.305.29v160.135c.522.003 1.045.005 1.568.005 22.463 0 44.279-3.014 65.044-8.676l6.545-6.83 5.455 3.227c9.452-3.103 18.66-6.762 27.584-10.94l5.052-5.498 6.95-.525c21.094-11.315 40.389-25.614 57.295-42.362-1.278-29.814-22.442-55.247-51.809-61.745z" fill="#fff"/><path d="m254.689 349.474-121.895 27.055c-29.36 6.516-50.51 31.96-51.77 61.775 16.889 16.743 36.182 31.064 57.315 42.4l6.329.482 5.673 5.541c8.911 4.171 18.113 7.826 27.566 10.926l4.293-2.155 7.707 5.753c20.683 5.63 42.445 8.64 64.909 8.652v-160.401z" fill="#afe6ff"/><g><path d="m267.255 379.376h144.834v12h-144.834z" fill="#82878c"/></g><g><path d="m97.814 379.376h158.266v12h-158.266z" fill="#50555a"/></g><g><g><g><path d="m254.952 405.088c-19.076 0-34.54-15.464-34.54-34.54v-77.364h69.08v77.364c-.001 19.076-15.464 34.54-34.54 34.54z" fill="#82878c"/></g></g></g><g><g><g><path d="m300.706 329.221c0 25.269-20.485 45.754-45.754 45.754-25.269 0-45.754-20.485-45.754-45.754v-102.483h91.509v102.483z" fill="#373c41"/></g></g></g><path d="m331.996 497.624v-43.869c0-16.957-13.795-30.752-30.752-30.752h-92.584c-16.957 0-30.751 13.795-30.751 30.752v43.898c3.957 1.298 7.958 2.498 12 3.598v-47.496c0-10.34 8.412-18.752 18.751-18.752h92.584c10.34 0 18.752 8.412 18.752 18.752v47.473c4.04-1.102 8.041-2.305 12-3.604z" fill="#75cef9"/><path d="m254.952 423.003h-46.292c-16.957 0-30.751 13.795-30.751 30.752v43.898c3.957 1.298 7.958 2.498 12 3.598v-47.496c0-10.34 8.412-18.752 18.751-18.752h46.292z" fill="#2896ff"/><g><path d="m267.137 281.222h-24.371c0-6.73 5.456-12.185 12.185-12.185 6.73-.001 12.186 5.455 12.186 12.185z" fill="#ff965a"/></g><path d="m254.952 8.176v342.923c94.696 0 171.461-76.766 171.461-171.462 0-94.695-76.766-171.461-171.461-171.461z" fill="#75cef9"/><g><path d="m83.49 179.637c0 94.695 76.766 171.462 171.461 171.462v-342.923c-94.695 0-171.461 76.766-171.461 171.461z" fill="#2896ff"/></g><g><path d="m254.952 332.839c-65.598 0-118.776-53.178-118.776-118.775v-87.866c0-49.343 40-89.343 89.343-89.343h58.865c49.343 0 89.343 40 89.343 89.343v87.866c0 65.597-53.177 118.775-118.775 118.775z" fill="#0073aa"/></g><g><path d="m296.86 72.87h-83.817c-31.611 0-57.237 25.626-57.237 57.236v42.752c0 14.239 5.42 27.942 15.161 38.328 3.948 4.209 8.009 8.533 11.779 12.544 10.621 11.299 16.681 26.13 17.011 41.634l.195 9.152c.449 21.089 15.023 39.37 35.565 44.161 5.79 1.35 11.768 2.212 17.889 2.538-.005.001-.009.003-.014.004l.04.002c.043.002.086.003.129.005.42.022 2.36.022 2.781 0 .043-.002.086-.003.129-.005l.04-.002c-.005-.001-.009-.003-.014-.004 6.121-.326 12.099-1.188 17.889-2.538 20.543-4.791 35.116-23.072 35.565-44.161l.195-9.152c.33-15.504 6.39-30.335 17.011-41.634 3.77-4.011 7.832-8.335 11.779-12.544 9.741-10.386 15.161-24.089 15.161-38.328v-42.752c0-31.61-25.626-57.236-57.237-57.236z" fill="#ffbe82"/></g><g><g><g><g><path d="m211.761 179.637v7.276c0 4.746 3.848 8.593 8.594 8.593s8.593-3.848 8.593-8.593v-7.276z" fill="#ff965a"/></g></g></g><g><g><g><path d="m281.78 179.637v7.276c0 4.746 3.848 8.593 8.593 8.593 4.746 0 8.593-3.848 8.593-8.593v-7.276z" fill="#ff965a"/></g></g></g><g><g><g><path d="m220.354 188.623c-4.746 0-8.593-3.848-8.593-8.593v-11.054l3.168-4.797-3.168-4.797v-2.855c0-4.746 3.848-8.593 8.593-8.593s8.593 3.848 8.593 8.593v23.503c.001 4.745-3.847 8.593-8.593 8.593z" fill="#373c41"/></g></g></g><g><g><g><path d="m290.374 188.623c-4.746 0-8.593-3.848-8.593-8.593v-11.054l3.168-4.797-3.168-4.797v-2.855c0-4.746 3.848-8.593 8.593-8.593 4.746 0 8.593 3.848 8.593 8.593v23.503c0 4.745-3.848 8.593-8.593 8.593z" fill="#373c41"/></g></g></g><g><g><g><g><path d="m240.269 135.043c0 4.746-3.847 8.593-8.593 8.593h-25.061c-4.746 0-8.593-3.847-8.593-8.593 0-4.746 3.847-8.593 8.593-8.593h25.061c4.746 0 8.593 3.847 8.593 8.593z" fill="#ff965a"/></g></g></g></g><g><g><g><g><path d="m311.882 135.043c0 4.746-3.847 8.593-8.593 8.593h-25.061c-4.746 0-8.593-3.847-8.593-8.593 0-4.746 3.847-8.593 8.593-8.593h25.061c4.745 0 8.593 3.847 8.593 8.593z" fill="#ff965a"/></g></g></g></g><g><g><g><path d="m242.417 200.822c-2.136 8.531 1.746 17.823 9.171 20.624 1.494.564 3.092.869 4.753.869s3.259-.305 4.753-.869c7.424-2.801 11.307-12.093 9.171-20.624l-7.082-28.28c-1.783-7.12-11.901-7.12-13.684 0z" fill="#ff965a"/></g></g></g><g><path d="m214.929 172.144c-1.75 0-3.168-1.418-3.168-3.168v-9.594c0-1.75 1.418-3.168 3.168-3.168 1.75 0 3.168 1.418 3.168 3.168v9.594c0 1.749-1.419 3.168-3.168 3.168z" fill="#fff"/></g><g><path d="m284.948 172.144c-1.75 0-3.168-1.418-3.168-3.168v-9.594c0-1.75 1.418-3.168 3.168-3.168 1.75 0 3.168 1.418 3.168 3.168v9.594c0 1.749-1.418 3.168-3.168 3.168z" fill="#fff"/></g><g><path d="m222.129 234.849c4.778 14.842 18.694 25.584 35.125 25.584s30.346-10.742 35.125-25.584z" fill="#fff"/></g></g><g><g><ellipse cx="93.698" cy="178.262" fill="#fff" rx="29.286" ry="63.321"/></g><g><ellipse cx="416.205" cy="178.262" fill="#fff" rx="29.286" ry="63.321"/></g></g><g><path d="m255.364 131.802c-24.081 0-43.603-19.522-43.603-43.603v-72.397h87.206v72.396c0 24.082-19.522 43.604-43.603 43.604z" fill="#ff965a"/></g><g><path d="m255.364 115.999c-24.081 0-43.603-19.522-43.603-43.603v-72.396h87.206v72.396c0 24.082-19.522 43.603-43.603 43.603z" fill="#fff"/></g><g><ellipse cx="79.533" cy="179.905" fill="#0073aa" rx="6.333" ry="28.319"/></g><g><ellipse cx="432.746" cy="179.905" fill="#0073aa" rx="6.333" ry="28.319"/></g><g><path d="m254.952 88.857c-6.73 0-12.185-5.456-12.185-12.185v-42.06c0-6.73 5.456-12.185 12.185-12.185 6.73 0 12.185 5.456 12.185 12.185v42.059c0 6.731-5.456 12.186-12.185 12.186z" fill="#0073aa"/></g><path d="m260.952 0h-12v115.53c2.093.309 4.234.469 6.412.469 1.893 0 3.758-.121 5.588-.355z" fill="#0073aa"/><path d="m429.433 405.805-45.662 30.24c-15.148 10.031-24.191 26.867-24.191 45.035v5.604c4.061-1.901 8.063-3.91 12.002-6.023.138-13.971 7.149-26.885 18.814-34.611l45.662-30.239z" fill="#82878c"/><path d="m126.151 436.044-45.663-30.239-6.626 10.006 45.663 30.238c11.678 7.735 18.692 20.668 18.815 34.656 3.938 2.112 7.94 4.121 12.002 6.022v-5.647c0-18.168-9.044-35.004-24.191-45.036z" fill="#50555a"/></g></svg>