<svg id="Layer_1" enable-background="new 0 0 509.734 509.734" height="512" viewBox="0 0 509.734 509.734" width="512" xmlns="http://www.w3.org/2000/svg"><g><g><g><path d="m254.867 20.529c-94.129 0-152.114 53.095-152.274 53.185 0 0-2.411 3.009-2.861 5.009-3.663 16.257-7.084 38.046-7.084 53.945 0 135.09 113.921 244.575 249.011 244.575 52.02 0 109.896-24.932 148.631-54.909.866-.671 3.616-5.176 3.616-5.176.17-1.042 5.564-22.519 5.564-52.027-.001-135.09-109.513-244.602-244.603-244.602z" fill="#9bd069"/></g><path d="m341.637 370.339c-135.09 0-244.602-109.512-244.602-244.602 0-17.856 1.926-35.254 5.558-52.022-56.253 44.814-92.328 113.904-92.328 191.416 0 53.356 17.084 102.722 46.08 142.927l394.869 2.978c20.361-27.35 35.173-59.171 42.692-93.877-41.784 33.28-94.699 53.18-152.269 53.18z" fill="#6ec186"/></g><path d="m396.849 365.313-143.789-31.819-143.22 31.789c-24.099 5.349-43.49 21.551-53.495 42.775 15.522 21.522 34.458 40.419 56.015 55.897l6.953.658 5.047 7.432c14.163 8.952 29.309 16.49 45.239 22.415l167.099 1.22c16.046-5.7 31.344-13.031 45.682-21.803l5.046-8.604 6.954.772c21.902-15.226 41.231-33.957 57.146-55.431-9.633-22.469-29.612-39.755-54.677-45.301z" fill="#da2ea2"/><path d="m170.041 494.625c26.427 9.771 55.003 15.109 84.826 15.109 28.621 0 56.183-4.943 81.83-14.053v-69.529h-166.656z" fill="#453d81"/><g><path d="m387.425 387.449v-24.058l-133.412-5.464-134.701 5.464v24.433c0 40.782 33.06 73.842 73.842 73.842h120.428c40.782 0 73.842-33.06 73.842-73.842v-.375z" fill="#453d81"/></g><g><path d="m387.425 363.016-133.412-29.522-134.701 29.897c0 40.782 33.06 73.842 73.842 73.842h120.428c40.782 0 73.842-33.06 73.842-73.842v-.375z" fill="#b1e4f9"/></g><g><g><g><path d="m294.892 370.458c0 22.933-18.591 41.523-41.523 41.523-22.933 0-41.523-18.591-41.523-41.523v-93.005h83.046z" fill="#9dc6fb"/></g></g></g><g fill="#d80a61"><path d="m92.134 371.526c-3.664 1.817-7.154 3.909-10.446 6.247l30.672 78.923v7.259c3.915 2.811 7.917 5.51 12 8.091v-16.475c0-.743-.138-1.48-.407-2.174z"/><path d="m394.379 466.046v-9.35l30.658-78.891c-3.292-2.337-6.782-4.429-10.447-6.245l-31.804 81.837c-.27.693-.407 1.431-.407 2.174v18.307c4.079-2.496 8.081-5.108 12-7.832z"/></g><g><path d="m303.189 6.468h-50.809v353.783h50.809c49.791 0 90.154-40.364 90.154-90.154v-173.475c.001-49.791-40.363-90.154-90.154-90.154z" fill="#fff"/></g><g><path d="m253.153 6.468h-49.605c-49.791 0-90.154 40.363-90.154 90.154v173.475c0 49.791 40.363 90.154 90.154 90.154h49.605z" fill="#a0ebff"/></g><g><g><g><g><path d="m174.156 79.403v187.849c0 43.716 35.161 79.491 78.875 79.822.306.002.613.003.92.003 65.107 0 117.886-52.779 117.886-117.886v-129.23c0-36.553-29.572-66.216-66.125-66.328l-85.384-.262c-25.476-.078-46.172 20.554-46.172 46.032z" fill="#b1e4f9"/></g></g></g><g fill="#9dc6fb"><path d="m243.164 33.383c-2.498 0-4.965.155-7.394.456h15.207z"/><path d="m174.551 232.569c.279-6.347.029-95.779.002-126.11.269-35.197 26.974-68.379 61.217-72.62h-32.258c-37.894 0-66.015 28.121-66.015 66.015l-2.597 92.12v36.004c0 32.68 13.429 63.924 37.14 86.412s55.622 34.246 88.256 32.517l.046-.002c-49.562-14.392-85.791-60.13-85.791-114.336z"/></g></g><g><path d="" fill="none" stroke="#696e73" stroke-miterlimit="10" stroke-width="10.857"/></g><g><path d="" fill="none" stroke="#696e73" stroke-miterlimit="10" stroke-width="10.857"/></g><g><g><g><g><g><g><path d="m235.9 154.755c0 5.423-4.396 9.818-9.819 9.818h-72.061c-5.423 0-9.819-4.396-9.819-9.818 0-5.423 4.396-9.818 9.819-9.818h72.061c5.423-.001 9.819 4.395 9.819 9.818z" fill="#9dc6fb"/></g></g></g></g><g><g><g><g><path d="m362.535 154.755c0 5.423-4.396 9.818-9.819 9.818h-72.06c-5.423 0-9.819-4.396-9.819-9.818 0-5.423 4.396-9.818 9.819-9.818h72.06c5.423-.001 9.819 4.395 9.819 9.818z" fill="#9dc6fb"/></g></g></g></g><g><g><g><g><path d="m235.9 146.533c0 5.423-4.396 9.819-9.819 9.819h-72.061c-5.423 0-9.819-4.396-9.819-9.819 0-5.423 4.396-9.819 9.819-9.819h72.061c5.423.001 9.819 4.397 9.819 9.819z" fill="#b1e4f9"/></g></g></g></g><g><g><g><g><path d="m362.535 146.533c0 5.423-4.396 9.819-9.819 9.819h-72.06c-5.423 0-9.819-4.396-9.819-9.819 0-5.423 4.396-9.819 9.819-9.819h72.06c5.423.001 9.819 4.397 9.819 9.819z" fill="#b1e4f9"/></g></g></g></g></g><g><g><path d="m224.891 229.441v-12.714c0-6.414 5.199-11.613 11.613-11.613h12.714c0 13.436-10.892 24.327-24.327 24.327z" fill="#9dc6fb"/></g><g><path d="m285.091 229.441v-12.714c0-6.414-5.199-11.613-11.613-11.613h-12.714c0 13.436 10.892 24.327 24.327 24.327z" fill="#9dc6fb"/></g></g><g><g><g><circle cx="179.834" cy="186.644" fill="#fff" r="25.072"/></g><g><path d="m154.999 200.885c1.665 12.232 12.146 21.661 24.835 21.661s23.17-9.429 24.835-21.661z" fill="#9dc6fb"/></g><g><ellipse cx="183.374" cy="186.644" fill="#453d81" rx="7.677" ry="11.737"/></g></g><g><g><circle cx="330.693" cy="186.644" fill="#fff" r="25.072"/></g><g><path d="m355.528 200.885c-1.665 12.232-12.146 21.661-24.835 21.661s-23.17-9.429-24.835-21.661z" fill="#9dc6fb"/></g><g><ellipse cx="328.239" cy="186.644" fill="#453d81" rx="7.677" ry="11.737"/></g></g></g></g><g><circle cx="253.369" cy="301.933" fill="#453d81" r="60.987"/></g><g><path d="m253.369 154.609c-25.099 0-45.445-20.347-45.445-45.445l46.945-97.958 43.946 97.958c-.001 25.099-20.347 45.445-45.446 45.445z" fill="#9dc6fb"/></g><g><path d="m253.369 143.403c-25.099 0-23.099-55.769-23.099-80.868l22.883-62.535h45.661v97.958c0 25.099-20.346 45.445-45.445 45.445z" fill="#fff"/></g><g><path d="m253.153 143.256v-143.256h-45.23v97.958c0 25.029 20.235 45.327 45.237 45.44 0-.048-.007-.093-.007-.142z" fill="#a0ebff"/></g><g><g><path d="m121.756 353.076h-8.17c-18.157 0-32.929-14.772-32.929-32.93v-118.31c0-18.157 14.771-32.93 32.929-32.93v12c-11.54 0-20.929 9.389-20.929 20.93v118.311c0 11.541 9.389 20.93 20.929 20.93h8.17c7.67 0 14.713-4.185 18.381-10.921l2.822-5.184c4.691-8.616 12.901-14.649 22.522-16.556l62.456-12.368 2.332 11.771-62.456 12.368c-6.116 1.211-11.333 5.047-14.315 10.522l-2.822 5.184c-5.771 10.599-16.853 17.183-28.92 17.183z" fill="#453d81"/></g><g><path d="m393.151 353.076h-8.169c-12.067 0-23.148-6.584-28.921-17.183l-2.822-5.184c-2.981-5.476-8.199-9.312-14.315-10.522l-62.455-12.368 2.332-11.771 62.455 12.368c9.623 1.905 17.832 7.94 22.522 16.556l2.822 5.184c3.668 6.736 10.712 10.921 18.382 10.921h8.169c11.541 0 20.93-9.389 20.93-20.93v-118.311c0-11.541-9.389-20.93-20.93-20.93v-12c18.157 0 32.93 14.772 32.93 32.93v118.311c0 18.156-14.773 32.929-32.93 32.929z" fill="#453d81"/></g></g><path d="m253.369 275.976v51.914c14.336 0 25.957-11.621 25.957-25.957s-11.622-25.957-25.957-25.957z" fill="#9bd069"/><path d="m227.412 301.933c0 14.336 11.621 25.957 25.957 25.957v-51.914c-14.336 0-25.957 11.621-25.957 25.957z" fill="#57988b"/><g><g><path d="m191.746 310.841h123.246v37.557h-123.246z" fill="#f1d333"/></g><g><path d="m191.746 337.991h123.246v10.407h-123.246z" fill="#e7a52e"/></g><g><g><path d="m209.426 365.187h-20.66c-10.246 0-18.553-8.306-18.553-18.553v-34.027c0-10.246 8.306-18.553 18.553-18.553h20.66z" fill="#634086"/></g><g><path d="m317.971 365.187h-20.66v-71.133h20.66c10.246 0 18.553 8.306 18.553 18.553v34.027c0 10.246-8.306 18.553-18.553 18.553z" fill="#634086"/></g></g></g><g><ellipse cx="236.325" cy="213.683" fill="#373c41" rx="6.287" ry="1.967"/></g><g><ellipse cx="273.484" cy="213.683" fill="#373c41" rx="6.287" ry="1.967"/></g><g><path d="m225.758 486.554c0-6.261 5.076-11.337 11.337-11.337h37.39c6.261 0 11.337 5.076 11.337 11.337 0 6.261-5.076 11.337-11.337 11.337h-37.39c-6.261 0-11.337-5.076-11.337-11.337z" fill="#f1d333"/></g><g><path d="m225.758 448.46c0-6.261 5.076-11.337 11.337-11.337h37.39c6.261 0 11.337 5.076 11.337 11.337 0 6.261-5.076 11.337-11.337 11.337h-37.39c-6.261 0-11.337-5.076-11.337-11.337z" fill="#f1d333"/></g></g></svg>