<svg id="Layer_1" enable-background="new 0 0 510 510" height="512" viewBox="0 0 510 510" width="512" xmlns="http://www.w3.org/2000/svg"><g><g><path d="m255 34.106c-91.568 0-147.975 51.65-148.131 51.738 0 0-2.345 2.927-2.784 4.873-3.563 15.815-6.891 37.011-6.891 52.478 0 131.414 110.821 237.921 242.236 237.921 50.605 0 106.906-24.254 144.587-53.415.843-.652 3.517-5.036 3.517-5.036.166-1.014 5.413-21.907 5.413-50.611 0-131.416-106.532-237.948-237.947-237.948z" fill="#b1e4f9"/><g><path d="m487.535 322.664c-40.646 32.375-92.122 51.733-148.125 51.733-131.415 0-237.947-106.533-237.947-237.947 0-17.37 1.873-34.295 5.407-50.607-.005.004.005-.004 0 0-54.723 43.596-89.817 110.806-89.817 186.21 0 131.414 106.532 237.947 237.947 237.947 113.067 0 209.129-79.297 232.535-187.336z" fill="#9dc6fb"/></g></g><g><path d="m407.528 392.221-152.856-33.593-7.877 1.736 151.182 101.885c18.499-13.917 34.927-30.484 48.703-49.174-10.623-10.127-24.015-17.505-39.152-20.854z" fill="#453d81"/><path d="m254.672 358.627-152.251 33.562c-15.124 3.357-28.503 10.735-39.115 20.858 13.529 18.363 29.633 34.712 47.779 48.514.312.238.625.475.939.711l142.809-103.609z" fill="#242e7a"/><g><g><path d="m278.221 348.471h-46.441c-5.398 0-9.774-4.376-9.774-9.774 0-5.398 4.376-9.774 9.774-9.774h46.441c5.398 0 9.774 4.376 9.774 9.774 0 5.398-4.376 9.774-9.774 9.774z" fill="#11113f"/></g><g><path d="m278.221 365.401h-46.441c-5.398 0-9.774-4.376-9.774-9.774 0-5.398 4.376-9.774 9.774-9.774h46.441c5.398 0 9.774 4.376 9.774 9.774 0 5.398-4.376 9.774-9.774 9.774z" fill="#11113f"/></g></g><path d="m324.029 15.724-8.638-.348-2.463-5.521c-13.845-6.328-29.239-9.855-45.456-9.855h-13.626v311.329h13.626c60.454 0 109.462-49.008 109.462-109.462v-92.404c.001-39.759-21.196-74.567-52.905-93.739z" fill="#da4a54"/><path d="m242.528 0c-16.217 0-31.61 3.527-45.455 9.854l-3.124 5.521-7.978.348c-31.709 19.173-52.906 53.98-52.906 93.739v92.404c0 60.454 49.008 109.462 109.462 109.462h12.306v-311.328z" fill="#d80a61"/><g fill="#453d81"><path d="m218.984 278.995-34.646.858c4.546 29.121 29.726 51.407 60.122 51.407h21.079c30.396 0 55.576-22.286 60.122-51.407z"/><path d="m265.54 152.169h-21.08c-33.615 0-60.866 27.251-60.866 60.866v54.819l68.699 5.466 74.112-5.466v-54.819c.001-33.615-27.25-60.866-60.865-60.866z"/></g><g><g><path d="m172.965 170.525h-6.91v-55.279l-6.91-9.476v-18.163c0-7.632 6.187-13.82 13.82-13.82z" fill="#11113f"/></g><g><path d="m337.035 162.287h6.91v-55.279l6.91-9.476v-18.164c0-7.632-6.187-13.82-13.82-13.82z" fill="#11113f"/></g></g><g fill="#453d81"><path d="m220.56 50.313v45.874l-24.414 24.415v60.721h12v-55.75l24.414-24.415v-55.815l-35.487-35.488c-3.824 1.748-7.529 3.709-11.101 5.869z"/><path d="m324.029 15.724c-3.572-2.16-7.278-4.121-11.102-5.869l-35.487 35.488v55.815l24.414 24.415v55.75h12v-60.721l-24.414-24.414v-45.875z"/></g><path d="m183.594 267.854v2.539c0 3.218.25 6.378.731 9.461h141.349c.481-3.083.731-6.243.731-9.461v-2.539z" fill="#da4a54"/><path d="m306.216 364.097h-51.382l-28.798 79.976 26.1 65.911c.954.011 1.909.017 2.865.017 25.259 0 49.669-3.958 72.61-11.309l5.773-4.417 6.227.213c21.015-8.002 40.641-18.904 58.366-32.238v-6.391c-.001-50.679-41.083-91.762-91.761-91.762z" fill="#da4a54"/><path d="m203.784 364.097c-50.678 0-91.761 41.083-91.761 91.761v6.414c16.157 12.164 33.915 22.317 52.9 30.087l4.973-2.048 7.027 6.584c24.408 8.474 50.621 13.087 77.91 13.105v-145.903z" fill="#d80a61"/><path d="m146.495 437.808-33.848-18.515-5.758 10.527 33.848 18.515c14.919 8.16 24.187 23.793 24.187 40.798v3.226c3.948 1.616 7.949 3.129 12 4.535v-7.761c-.001-21.393-11.66-41.06-30.429-51.325z" fill="#242e7a"/><path d="m339.61 494.487v-5.354c0-17.005 9.268-32.638 24.186-40.798l33.848-18.515-5.758-10.527-33.848 18.515c-18.769 10.266-30.428 29.933-30.428 51.325v9.558c4.047-1.297 8.048-2.699 12-4.204z" fill="#453d81"/><g><g><g><circle cx="191.394" cy="212.982" fill="#11113f" r="37.658"/></g><g><circle cx="191.394" cy="212.982" fill="#9bd069" r="26.508"/></g><g><circle cx="191.394" cy="212.982" fill="#11113f" r="9.936"/></g><g><circle cx="183.804" cy="206.277" fill="#fff" r="7.59"/></g></g><g><g><circle cx="318.606" cy="212.982" fill="#11113f" r="37.658"/></g><g><circle cx="318.606" cy="212.982" fill="#9bd069" r="26.508"/></g><g><circle cx="318.606" cy="212.982" fill="#11113f" r="9.936"/></g><g><circle cx="311.016" cy="206.277" fill="#fff" r="7.59"/></g></g></g></g></g></svg>