<svg id="Layer_1" enable-background="new 0 0 510 510" height="512" viewBox="0 0 510 510" width="512" xmlns="http://www.w3.org/2000/svg"><g><g><path d="m255 15.778c-95.095 0-153.674 53.64-153.835 53.73 0 0-2.435 3.04-2.891 5.061-3.7 16.424-7.157 38.436-7.157 54.498 0 136.475 115.089 247.084 251.564 247.084 52.553 0 111.023-25.188 150.155-55.472.875-.677 3.653-5.23 3.653-5.23.172-1.053 5.621-22.75 5.621-52.56.001-136.475-110.634-247.111-247.11-247.111z" fill="#9bd069"/><g><path d="m95.549 122.064c0-18.039 1.945-35.616 5.615-52.556-56.83 45.275-93.275 115.073-93.275 193.381 0 36.608 7.961 71.357 22.245 102.611l269.818-.002c-116.121-20.232-204.403-121.523-204.403-243.434z" fill="#6ec186"/><g fill="#57988b"><path d="m342.66 369.175c14.563 0 28.831-1.26 42.702-3.678l-85.41.001c13.873 2.417 28.143 3.677 42.708 3.677z"/><path d="m496.49 315.45c-31.642 25.203-69.604 42.81-111.128 50.047l94.501-.001c7.227-15.826 12.842-32.574 16.627-50.046z"/></g></g></g><g><g><path d="m429.27 318.234v108.626l6.421 4.582c18.026-19.301 33.02-41.523 44.172-65.946-13.075-17.699-30.235-33.658-50.593-47.262z" fill="#50555a"/><path d="m30.139 365.51c11.13 24.349 26.099 46.576 44.133 65.906l7.914-4.556v-109.579c-20.996 13.813-38.66 30.111-52.047 48.229z" fill="#373c41"/><path d="m255 269.269c-94.587 0-172.27 71.239-180.697 162.181 45.106 48.332 109.372 78.55 180.697 78.55 70.918 0 135.394-30.04 180.696-78.552-8.427-90.942-86.11-162.179-180.696-162.179z" fill="#d80a61"/><g><path d="m255.834 248.038c-83.854.953-157.648 31.06-201.862 76.587v32.422c0 45.703 37.05 82.753 82.753 82.753h119.108v-191.762z" fill="#da2ea2"/><path d="m254.166 248.038c83.854.953 157.648 31.06 201.862 76.587v32.422c0 45.703-37.05 82.753-82.753 82.753h-119.109z" fill="#df75a5"/></g></g><path d="m255 386.856c-37.857 0-68.547-30.689-68.547-68.547v-3.434h137.093v3.434c.001 37.858-30.689 68.547-68.546 68.547z" fill="#373c41"/><g><path d="m288.343 3.197-4.872 5.151-5.175-6.799c-7.614-1.022-15.389-1.549-23.295-1.549-.48 0-.957.015-1.437.019v332.601h50.314c32.836 0 62.804-13.024 84.814-34.329l3.274-9.834 6.771-1.146c15.21-18.804 24.966-42.274 26.778-68.087l2.371-33.774c6.239-88.86-55.456-165.896-139.543-182.253z" fill="#d2f0ff"/><path d="m379.855 254.7c-.018-.266-.037-.532-.056-.798l-1.788-24.258c-.005-.069-.01-.138-.016-.207-.848-11.143-10.312-19.667-21.488-19.667h-101.918v-209.765c-7.765.018-15.403.544-22.884 1.547l-4.876 3.822-5.171-2.174c-84.303 16.398-146.067 93.777-139.5 182.853l2.477 33.595c1.886 25.583 11.572 48.84 26.626 67.512l4.43.104 5.619 10.914c22.024 21.375 52.043 34.442 84.931 34.442h48.348c0-16.106 13.056-29.162 29.162-29.162h50.218c26.484 0 47.668-22.333 45.886-48.758z" fill="#afe6ff"/><path d="m379.835 239.413c-.012-.171-.024-.341-.037-.512l-1.788-24.258c-.005-.069-.01-.138-.016-.207-.848-11.143-10.312-19.667-21.488-19.667h-143.874c-10.227 0-18.518 8.291-18.518 18.518v33.424c0 23.055 18.69 41.745 41.745 41.745h98.11c26.598.001 47.718-22.509 45.866-49.043z" fill="#373c41"/><path d="m240.887 288.457c-26.531 0-47.562-22.453-45.746-48.922.005-.066.009-.132.014-.198l1.712-24.388c.01-.147.021-.295.032-.442.841-11.171 10.294-19.738 21.497-19.738h-65.004c-11.203 0-20.656 8.566-21.497 19.738-.011.147-.022.295-.032.442l-1.712 24.388c-.005.066-.009.132-.014.198-1.816 26.469 19.215 48.922 45.746 48.922z" fill="#232528"/><path d="m336.118 219.543c5.365 0 9.715 4.349 9.715 9.715v17.289c0 5.365-4.349 9.715-9.715 9.715-5.365 0-9.715-4.349-9.715-9.715v-17.289c.001-5.366 4.35-9.715 9.715-9.715z" fill="#b1e4f9"/><path d="m173.857 219.543c-5.365 0-9.715 4.349-9.715 9.715v17.289c0 5.365 4.349 9.715 9.715 9.715 5.365 0 9.715-4.349 9.715-9.715v-17.289c-.001-5.366-4.35-9.715-9.715-9.715z" fill="#b1e4f9"/><g fill="#373c41"><path d="m156.107 161.38 34.008-11.629c24.876-8.507 41.59-31.887 41.59-58.176v-90.026c-3.383.453-6.729 1.014-10.045 1.658v88.368c0 21.995-13.983 41.554-34.795 48.672l-34.008 11.629c-24.877 8.506-41.59 31.884-41.59 58.175v77.105c3.126 3.877 6.478 7.559 10.045 11.021v-88.126c-.001-21.995 13.982-41.554 34.795-48.671z"/><path d="m357.143 151.876-34.008-11.629c-20.812-7.117-34.795-26.677-34.795-48.672v-88.367c-3.316-.645-6.663-1.205-10.045-1.658v90.026c0 26.29 16.714 49.669 41.59 58.176l34.008 11.629c20.813 7.116 34.796 26.675 34.796 48.671v88.237c3.564-3.45 6.92-7.115 10.045-10.979v-77.257c0-26.293-16.714-49.671-41.591-58.177z"/></g><path d="m249.326 134.905-14.132 24.477c-2.522 4.368.63 9.827 5.674 9.827h28.264c5.043 0 8.195-5.46 5.674-9.827l-14.132-24.477c-2.522-4.368-8.826-4.368-11.348 0z" fill="#da4a54"/><path d="m255 131.629c2.206 0 4.413 1.092 5.674 3.276l14.132 24.477c2.522 4.368-.63 9.827-5.674 9.827h-28.264c-5.043 0-8.195-5.46-5.674-9.827l14.132-24.477c1.261-2.184 3.468-3.276 5.674-3.276m0-12c-6.607 0-12.763 3.554-16.066 9.276l-14.132 24.477c-3.303 5.721-3.303 12.83 0 18.552s9.46 9.276 16.066 9.276h28.264c6.607 0 12.763-3.554 16.066-9.276 3.303-5.721 3.303-12.83 0-18.552l-14.132-24.477c-3.303-5.722-9.459-9.276-16.066-9.276z" fill="#b1e4f9"/><path d="m293.807 252.398h-74.821c-5.956 0-10.785-4.829-10.785-10.785 0-5.956 4.829-10.785 10.785-10.785h74.821c5.956 0 10.785 4.829 10.785 10.785 0 5.957-4.829 10.785-10.785 10.785z" fill="#fff"/></g><circle cx="256.396" cy="439.8" fill="#d2f0ff" r="53.886"/><circle cx="256.396" cy="439.8" fill="#b1e4f9" r="34.774"/><path d="m221.622 439.8c0 19.205 15.569 34.774 34.774 34.774v-69.548c-19.205 0-34.774 15.569-34.774 34.774z" fill="#41b4e6"/></g></g></svg>