<svg id="Layer_1" enable-background="new 0 0 511 511" height="512" viewBox="0 0 511 511" width="512" xmlns="http://www.w3.org/2000/svg"><g><g><g><path d="m255.5 23.83c-93.738 0-151.481 52.874-151.64 52.963 0 0-2.401 2.996-2.85 4.988-3.647 16.19-7.055 37.887-7.055 53.721 0 134.528 113.447 243.558 247.975 243.558 51.804 0 109.439-24.828 148.013-54.68.863-.668 3.601-5.155 3.601-5.155.17-1.038 5.541-22.426 5.541-51.811 0-134.527-109.057-243.584-243.585-243.584z" fill="#da4a54"/></g><path d="m341.909 372.185c-134.528 0-243.585-109.057-243.585-243.585 0-17.781 1.918-35.107 5.535-51.806-56.02 44.629-91.945 113.431-91.945 190.621 0 65.08 25.522 124.199 67.104 167.894l352.953.006c30.135-31.643 51.906-71.472 61.572-116.089-41.608 33.142-94.304 52.959-151.634 52.959z" fill="#d80a61"/></g><g><g><path d="m381.418 388.507-126.188-27.924-125.69 27.897c-24.544 5.448-43.523 23.723-50.521 46.828 15.312 16.09 32.802 30.089 51.997 41.524l12 6.697c33.648 17.55 71.908 27.471 112.484 27.471 40.428 0 78.731-9.903 112.484-27.504l12-6.695c19.166-11.412 36.659-25.39 51.988-41.487-7.01-23.105-26.002-41.374-50.554-46.807z" fill="#b1e4f9"/><path d="m114.934 394.33-11.185 4.348 27.268 70.165v7.99c3.93 2.341 7.931 4.574 12 6.697v-15.811c0-.743-.138-1.48-.407-2.174z" fill="#2896ff"/><path d="m379.983 476.801v-7.958l27.269-70.165-11.186-4.348-27.676 71.214c-.269.693-.407 1.431-.407 2.174v15.778c4.068-2.122 8.069-4.354 12-6.695z" fill="#2896ff"/><g><path d="m419.74 364.824-162.323-35.919-163.891 36.375c0 49.62 40.225 89.844 89.844 89.844h146.526c49.62 0 89.844-40.225 89.844-89.844z" fill="#373c41"/></g><g><path d="m367.754 346.714-110.587-24.471-111.656 24.782c0 33.805 27.404 61.209 61.209 61.209h99.825c33.805 0 61.209-27.404 61.209-61.209z" fill="#f1d333"/></g></g><g><path d="m255.5 375.208c-27.026 0-48.936-21.909-48.936-48.936v-26.117h97.871v26.117c.001 27.027-21.909 48.936-48.935 48.936z" fill="#b1e4f9"/></g><g><g><path d="m283.047 414.198h-12c0-19.501 11.473-37.31 29.229-45.371l47.116-21.394c18.896-8.58 27.367-30.97 18.885-49.909l-10.819-24.156 10.951-4.904 10.819 24.156c11.174 24.947.015 54.438-24.875 65.739l-47.116 21.394c-13.48 6.12-22.19 19.641-22.19 34.445z" fill="#373c41"/></g><g><path d="m239.954 414.198h-12c0-14.804-8.71-28.324-22.189-34.445l-47.116-21.394c-24.89-11.302-36.049-40.792-24.875-65.739l10.818-24.156 10.952 4.904-10.819 24.156c-8.483 18.94-.012 41.329 18.884 49.909l47.116 21.394c17.756 8.062 29.229 25.871 29.229 45.371z" fill="#373c41"/></g></g><g><g><path d="m298.78 305.547h-86.405c-56.519 0-103.462-43.61-107.618-99.976l-2.192-29.73c-6.554-88.907 63.812-164.651 152.96-164.651 88.936 0 159.227 75.399 152.998 164.117l-2.098 29.888c-3.969 56.525-50.981 100.352-107.645 100.352z" fill="#d2f0ff"/></g><g><path d="m255.161 11.195c-88.975.207-159.141 75.86-152.595 164.646l2.192 29.73c4.155 56.366 51.099 99.976 107.618 99.976h42.786v-294.352z" fill="#afe6ff"/></g><g><path d="m371.378 273.064-1.66-125.9c-.005-.064-.009-.128-.014-.192-.787-10.344-9.573-18.257-19.947-18.257h-188.556c-10.4 0-19.175 7.952-19.956 18.323-.01.137-.02.274-.03.411l-1.59 126.02c-.004.061-.009.122-.013.183-1.686 24.572 17.837 45.415 42.467 45.415h146.754c24.586 0 44.251-20.732 42.597-45.263-.017-.246-.034-.493-.052-.74z" fill="#50555a"/></g><g><path d="m371.378 273.064-.012-.93h-122.233c-24.629 0-44.152-20.844-42.467-45.415.004-.061.008-.122.013-.183l1.234-97.82h-46.712c-10.4 0-19.175 7.952-19.956 18.323-.01.137-.02.274-.03.411l-1.59 126.02c-.004.061-.008.123-.013.184-1.686 24.572 17.837 45.415 42.467 45.415h146.754c24.586 0 44.251-20.733 42.597-45.263-.017-.248-.034-.495-.052-.742z" fill="#373c41"/></g><g><path d="m330.829 159.144c4.981 0 9.018 4.038 9.018 9.018v16.05c0 4.981-4.038 9.018-9.018 9.018-4.981 0-9.018-4.038-9.018-9.018v-16.05c-.001-4.98 4.037-9.018 9.018-9.018z" fill="#b1e4f9"/></g><g><path d="m180.198 159.144c-4.981 0-9.018 4.038-9.018 9.018v16.05c0 4.981 4.038 9.018 9.018 9.018 4.981 0 9.018-4.038 9.018-9.018v-16.05c.001-4.98-4.037-9.018-9.018-9.018z" fill="#b1e4f9"/></g><g><path d="m227.834 185.437c4.19 11.225 15.006 19.219 27.691 19.219 12.686 0 23.501-7.995 27.691-19.219z" fill="#fff"/></g><g><path d="m172.026 103.532c-4.513 0-8.172-3.659-8.172-8.172v-63.358c0-4.513 3.659-8.172 8.172-8.172 4.513 0 8.172 3.659 8.172 8.172v63.358c0 4.513-3.658 8.172-8.172 8.172z" fill="#b1e4f9"/></g><g><path d="m339.024 103.532c4.513 0 8.172-3.659 8.172-8.172v-63.358c0-4.513-3.659-8.172-8.172-8.172-4.513 0-8.172 3.659-8.172 8.172v63.358c0 4.513 3.658 8.172 8.172 8.172z" fill="#b1e4f9"/></g><g><path d="m255.519 103.532c4.513 0 8.172-3.659 8.172-8.172v-87.188c0-4.513-3.659-8.172-8.172-8.172-4.513 0-8.172 3.659-8.172 8.172v87.188c0 4.513 3.659 8.172 8.172 8.172z" fill="#b1e4f9"/></g><g><g><ellipse cx="108.061" cy="170.515" fill="#b1e4f9" rx="22.469" ry="47.482"/></g><g><ellipse cx="98.597" cy="170.515" fill="#373c41" rx="5.003" ry="16.11"/></g></g><g><g><ellipse cx="402.939" cy="170.515" fill="#b1e4f9" rx="22.469" ry="47.482"/></g><g><ellipse cx="412.403" cy="170.515" fill="#373c41" rx="5.003" ry="16.11"/></g></g></g><g><path d="m264.616 503.362 49.622-85.948c4.052-7.018-1.013-15.79-9.116-15.79h-99.244c-8.103 0-13.168 8.772-9.116 15.79l49.622 85.948c4.051 7.018 14.181 7.018 18.232 0z" fill="#fff"/></g><g><path d="m260.767 480.597 31.832-55.134c2.341-4.055-.585-9.123-5.267-9.123h-63.663c-4.682 0-7.608 5.068-5.267 9.123l31.832 55.134c2.34 4.055 8.192 4.055 10.533 0z" fill="#da4a54"/></g></g></g></svg>