<svg id="Layer_1" enable-background="new 0 0 510 510" height="512" viewBox="0 0 510 510" width="512" xmlns="http://www.w3.org/2000/svg"><g><g><path d="m255 0c-98.131 0-158.58 55.352-158.747 55.445 0 0-2.513 3.137-2.983 5.222-3.818 16.948-7.385 39.663-7.385 56.238 0 140.833 118.763 254.972 259.596 254.972 54.231 0 114.568-25.992 154.949-57.243.903-.699 3.769-5.396 3.769-5.396.178-1.087 5.8-23.477 5.8-54.239.001-140.832-114.166-254.999-254.999-254.999z" fill="#b1e4f9"/><path d="m345.459 364.679c-140.833 0-255-114.167-255-255 0-18.615 2.007-36.753 5.795-54.234-58.645 46.72-96.254 118.747-96.254 199.555 0 72.986 30.663 138.81 79.809 185.293l350.569-.186c36.4-34.471 62.727-79.656 73.822-130.868-43.56 34.695-98.725 55.44-158.741 55.44z" fill="#73c8f0"/></g><g><path d="m336.794 0h-82.426v361.568l9.474 6.564 105.75-80.676c42.517-32.437 66.778-78.542 66.778-126.908v-76.527c0-46.403-44.581-84.021-99.576-84.021z" fill="#57988b"/><path d="m256.635 0h-83.176c-54.994 0-99.576 37.618-99.576 84.021v71.601c0 51.208 27.184 99.724 74.085 132.221l108.667 75.294z" fill="#478089"/><path d="m306.294 48.199h-53.167v225.48l7.459 5.168 66.256-50.546c26.639-20.323 41.839-49.21 41.839-79.513v-47.947c.001-29.073-27.931-52.642-62.387-52.642z" fill="#734a9b"/><path d="m256.635 48.199h-52.677c-34.456 0-62.388 23.569-62.388 52.643v44.861c0 32.084 17.032 62.481 46.417 82.842l68.647 47.565v-227.911z" fill="#242e7a"/><path d="m375.71 445.952-227.517-3.789-30.651-102.658h275.169z" fill="#734a9b"/><path d="m256.042 445.952h-104.498l-34.002-106.447h138.5z" fill="#242e7a"/><path d="m255 466.273-126.431 10.227c34.286 19.612 73.562 31.494 115.454 33.268l10.611-4.853 11.69 4.837c41.542-1.824 80.675-13.634 114.923-33.181z" fill="#57988b"/><path d="m355.89 388.292h-171.946c-31.532.015-31.551-.101-35.5.243-31.638 2.334-58.112 23.183-68.635 51.758 5.132 4.854 10.466 9.498 15.988 13.916l114.103 7.376 37.145 48.293c2.642.081 5.294.122 7.955.122 2.772 0 5.534-.045 8.286-.134l35.601-48.282 115.289-7.376c5.596-4.473 11.001-9.179 16.201-14.103-11.221-30.252-40.328-51.813-74.487-51.813z" fill="#f1d333"/><g><g><path d="m292.742 394.159c0 20.774-16.841 37.615-37.615 37.615-20.774 0-37.615-16.841-37.615-37.615v-84.253h75.231v84.253z" fill="#e7a52e"/></g></g><g><g><g><path d="m361.8 147.893c-.248-25.025-20.605-45.18-45.631-45.18h-54.216c-30.21 0-57.665 11.78-78.034 30.991v155.006c0 .711.01 1.42.031 2.127 1.109 37.792 32.769 67.539 70.577 67.539h18.727c50.862-8.678 89.58-52.97 89.58-106.306z" fill="#ecc32e"/></g></g><g><g><path d="m386.846 227.844c0 13.829-11.21 25.039-25.039 25.039v-63.476c13.829 0 25.039 11.21 25.039 25.039z" fill="#f1d333"/></g></g><g><g><path d="m123.154 227.844c0 13.829 11.21 25.039 25.039 25.039v-63.476c-13.829 0-25.039 11.21-25.039 25.039z" fill="#e7a52e"/></g></g><g><g><path d="m209.9 211.865v9.173c0 4.912 3.983 8.895 8.894 8.895 4.912 0 8.894-3.983 8.894-8.895v-9.173z" fill="#e7a52e"/></g></g><g><g><path d="m282.539 211.865v9.173c0 4.912 3.983 8.895 8.894 8.895 4.912 0 8.895-3.983 8.895-8.895v-9.173z" fill="#e7a52e"/></g></g><g><g><path d="m218.795 222.52c-4.912 0-8.895-3.983-8.895-8.895v-6.56l3.57-5.363-3.57-5.363v-7.039c0-4.912 3.983-8.895 8.895-8.895s8.895 3.983 8.895 8.895v24.326c-.001 4.912-3.983 8.894-8.895 8.894z" fill="#373c41"/></g></g><g><g><path d="m291.433 222.52c-4.912 0-8.895-3.983-8.895-8.895v-8.321l3.57-5.363-3.57-5.363v-5.278c0-4.912 3.983-8.895 8.895-8.895s8.895 3.983 8.895 8.895v24.326c0 4.912-3.983 8.894-8.895 8.894z" fill="#373c41"/></g></g><g><g><g><path d="m230.513 175.958h-25.939c-4.912 0-8.895-3.982-8.895-8.895 0-4.912 3.982-8.895 8.895-8.895h25.939c4.912 0 8.895 3.982 8.895 8.895 0 4.913-3.983 8.895-8.895 8.895z" fill="#9bd069"/></g></g></g><path d="m308.555 87.955c30.466 0 55.164 24.698 55.164 55.164v7.23 69.062c-7.9 0-14.304-6.404-14.304-14.304v-17.522c0-20.565-16.671-37.237-37.237-37.237h-51.763c-30.123 0-54.542-24.419-54.542-54.542v-7.852h102.682z" fill="#9bd069"/><g><g><g><path d="m304.634 175.958h-25.939c-4.912 0-8.895-3.982-8.895-8.895 0-4.912 3.982-8.895 8.895-8.895h25.939c4.912 0 8.895 3.982 8.895 8.895-.001 4.913-3.983 8.895-8.895 8.895z" fill="#9bd069"/></g></g></g><g><g><path d="m241.63 237.762c-2.211 7.791 1.807 16.279 9.492 18.837 1.546.515 3.201.794 4.92.794s3.374-.279 4.92-.794c7.685-2.558 11.703-11.046 9.492-18.837l-10.784-38.002c-1.037-3.655-6.218-3.655-7.255 0z" fill="#e7a52e"/></g></g><path d="m264.945 102.903c-64.44-.123-116.752 52.068-116.752 116.509v33.714c0 65.641 58.91 116.42 124.914 105.246-50.389-8.572-88.763-52.414-88.763-105.246.027-47.292-.004-69.241-.009-79.937-.003-8.467 6.92-15.409 15.387-15.428h.011 51.763c30.123 0 54.542-24.419 54.542-54.542.001 0-7.867-.253-41.093-.316z" fill="#e7a52e"/><path d="m203.357 87.955c-30.466 0-55.164 24.698-55.164 55.164v7.23 69.062c7.9 0 14.304-6.404 14.304-14.304v-17.522c0-20.565 16.671-37.237 37.237-37.237h51.763c30.123 0 54.542-24.419 54.542-54.542v-7.852h-102.682z" fill="#57988b"/><g fill="#fff"><path d="m213.471 210.636c-1.972 0-3.57-1.598-3.57-3.57v-10.727c0-1.972 1.598-3.57 3.57-3.57 1.972 0 3.57 1.598 3.57 3.57v10.727c0 1.972-1.599 3.57-3.57 3.57z"/><path d="m286.109 208.875c-1.972 0-3.57-1.598-3.57-3.57v-10.727c0-1.972 1.598-3.57 3.57-3.57 1.972 0 3.57 1.598 3.57 3.57v10.727c0 1.971-1.598 3.57-3.57 3.57z"/><path d="m228.295 271.326c2.745 13.283 14.508 23.269 28.604 23.269s25.859-9.986 28.604-23.269z"/></g></g><circle cx="204.239" cy="263.89" fill="#da4a54" r="10.764"/><circle cx="309.031" cy="263.89" fill="#da4a54" r="10.764"/><path d="m263.8 105.335h-15.516c-11.176 0-20.235-9.06-20.235-20.235v-27.395c0-11.176 9.06-20.235 20.235-20.235h15.516c11.176 0 20.235 9.06 20.235 20.235v27.395c0 11.175-9.06 20.235-20.235 20.235z" fill="#fff"/><path d="m260.811 48.199h-5.481v46.407h5.481c7.037 0 12.742-5.705 12.742-12.741v-20.925c0-7.037-5.705-12.741-12.742-12.741z" fill="#da4a54"/><path d="m255.789 48.199h-4.517c-7.037 0-12.742 5.704-12.742 12.741v20.924c0 7.037 5.705 12.741 12.742 12.741h4.517z" fill="#d80a61"/><path d="m202.187 454.209h-106.39c10.338 8.272 21.333 15.757 32.896 22.362h73.495c6.175 0 11.181-5.006 11.181-11.181s-5.007-11.181-11.182-11.181z" fill="#9bd069"/><path d="m307.813 454.209c-6.175 0-11.181 5.006-11.181 11.181s5.006 11.181 11.181 11.181h73.434c11.565-6.601 22.573-14.084 32.929-22.362z" fill="#9bd069"/><path d="m266.324 509.752 128.2-111.439-1.812-58.808c-79.056 35.723-111.494 98.788-129.425 170.362 1.013-.033 2.026-.071 3.037-.115z" fill="#fff"/><path d="m117.617 339.505-1.812 58.808 128.219 111.455c1.006.043 2.013.08 3.022.11-17.931-71.579-50.369-134.649-129.429-170.373z" fill="#afe6ff"/></g></g></svg>