<svg id="Layer_1" enable-background="new 0 0 510 510" height="512" viewBox="0 0 510 510" width="512" xmlns="http://www.w3.org/2000/svg"><g><g><g><path d="m255 0c-98.131 0-158.58 55.352-158.747 55.445 0 0-2.513 3.137-2.983 5.222-3.818 16.948-7.385 39.663-7.385 56.238 0 140.833 118.763 254.972 259.596 254.972 54.231 0 114.568-25.992 154.949-57.243.903-.699 3.769-5.396 3.769-5.396.178-1.087 5.8-23.477 5.8-54.239.001-140.832-114.166-254.999-254.999-254.999z" fill="#734a9b"/></g><path d="m345.459 364.679c-140.833 0-255-114.167-255-255 0-18.615 2.007-36.753 5.795-54.234-58.645 46.72-96.254 118.747-96.254 199.555 0 54.413 17.043 104.846 46.082 146.251l417.837.007c19.053-27.165 32.972-58.285 40.28-92.019-43.559 34.695-98.723 55.44-158.74 55.44z" fill="#5e3881"/></g><g><path d="m455.303 336.97h-201.112v132.055l1.195 40.975c22.488-.033 44.345-2.994 65.19-8.534l7.478-6.018 7.956 1.386c52.038-17.44 96.812-51.241 127.908-95.576z" fill="#373c41"/><path d="m54.697 336.97-8.615 64.281c31.012 44.219 75.707 78.142 127.936 95.621l5.799-2.03 9.615 6.65c20.922 5.55 42.899 8.508 65.568 8.508.129 0 .257-.001.386-.001v-173.029z" fill="#222528"/><g><path d="m254.191 355.551h179.355l-7.74-116.326c-7.295-88.919-81.589-157.367-170.806-157.367-.27 0-.539.008-.809.01z" fill="#75cef9"/></g><g><path d="m255.056 81.859c-.019 0-.037-.001-.056-.001-89.217 0-163.511 68.448-170.806 157.366l-7.74 116.326h178.602z" fill="#2896ff"/></g><g><circle cx="255" cy="205.497" fill="#fff" r="89.457"/></g><g><path d="m165.543 205.497c0 49.406 40.051 89.458 89.457 89.458v-178.915c-49.406 0-89.457 40.051-89.457 89.457z" fill="#fffad7"/></g><g><g><circle cx="255" cy="205.497" fill="#da4a54" r="29.408"/></g><g><circle cx="255" cy="205.497" fill="#11113f" r="11.023"/></g><g><circle cx="246.58" cy="198.059" fill="#fff" r="8.42"/></g></g><g><path d="m228.004 215.494s-20.996 80.333 26.996 80.333 87.886-34.671 96-80.333z" fill="#1e87dc"/></g><g><path d="m228.004 215.494h-69.004c8.115 45.661 48.008 80.333 96 80.333 12.148 0 23.776-2.222 34.502-6.28-31.649-11.976-55.437-39.949-61.498-74.053z" fill="#1e73be"/></g><g><g><path d="m148.609 139.946-24.288-24.288c-9.231-9.23-12.461-23.175-8.228-35.524 2.88-8.403.526-17.729-5.995-23.759l-22.31-20.626 8.146-8.811 22.31 20.626c10.009 9.253 13.62 23.564 9.2 36.46-2.758 8.048-.654 17.134 5.36 23.149l24.288 24.288z" fill="#2896ff"/></g><g><path d="m100.322 50.968c-2.773 0-5.558-.972-7.801-2.951l-22.696-20.025c-4.886-4.311-5.352-11.766-1.041-16.652 4.31-4.885 11.767-5.353 16.652-1.041l22.696 20.024c4.886 4.311 5.352 11.766 1.041 16.652-2.33 2.643-5.583 3.993-8.851 3.993z" fill="#75cef9"/></g><g><path d="m361.391 139.946-8.484-8.484 24.288-24.288c6.015-6.016 8.118-15.102 5.36-23.149-4.42-12.896-.809-27.207 9.2-36.46l22.31-20.626 8.146 8.811-22.31 20.626c-6.521 6.03-8.875 15.355-5.995 23.759 4.233 12.35 1.004 26.294-8.228 35.524z" fill="#75cef9"/></g><g><path d="m409.678 50.968c-3.269 0-6.52-1.35-8.852-3.992-4.311-4.887-3.845-12.342 1.041-16.652l22.696-20.024c4.889-4.312 12.343-3.843 16.652 1.041 4.311 4.887 3.845 12.342-1.041 16.652l-22.696 20.024c-2.243 1.979-5.028 2.951-7.8 2.951z" fill="#a0ebff"/></g></g><g><circle cx="255" cy="367.152" fill="#222528" r="80.933"/></g><g><path d="m455.249 378.93h-400.498c-12.912 0-23.379-10.467-23.379-23.379 0-12.912 10.467-23.379 23.379-23.379h400.499c12.912 0 23.379 10.467 23.379 23.379 0 12.912-10.468 23.379-23.38 23.379z" fill="#da4a54"/></g><g><path d="m211.79 332.171h-157.039c-12.912 0-23.379 10.467-23.379 23.379s10.467 23.379 23.379 23.379h157.039z" fill="#d80a61"/></g><g><circle cx="255" cy="348.151" fill="#da4a54" r="80.933"/></g><g><circle cx="255" cy="348.151" fill="#f1d333" r="61.534"/></g><g><path d="m255 301.04c31.543 0 57.526 23.739 61.099 54.322.277-2.367.435-4.77.435-7.212 0-33.984-27.55-61.534-61.534-61.534s-61.534 27.55-61.534 61.534c0 2.441.158 4.845.435 7.212 3.573-30.583 29.556-54.322 61.099-54.322z" fill="#e7a52e"/></g><g><g><path d="m234.031 375.314c-3.46 0-6.265-2.805-6.265-6.265v-31.267c0-3.46 2.805-6.265 6.265-6.265 3.46 0 6.265 2.805 6.265 6.265v31.267c0 3.46-2.805 6.265-6.265 6.265z" fill="#373c41"/></g><g><path d="m275.969 375.314c-3.46 0-6.265-2.805-6.265-6.265v-31.267c0-3.46 2.805-6.265 6.265-6.265 3.46 0 6.265 2.805 6.265 6.265v31.267c0 3.46-2.805 6.265-6.265 6.265z" fill="#373c41"/></g><g><path d="m255.019 362.574c-3.46 0-6.265-2.805-6.265-6.265v-31.267c0-3.46 2.805-6.265 6.265-6.265 3.46 0 6.265 2.805 6.265 6.265v31.267c0 3.461-2.805 6.265-6.265 6.265z" fill="#373c41"/></g></g><g><ellipse cx="105.208" cy="269.731" fill="#1e87dc" rx="8.81" ry="14.07"/></g><g><ellipse cx="130.724" cy="217.431" fill="#1e87dc" rx="8.367" ry="16.769"/></g><g><ellipse cx="151.078" cy="301.429" fill="#1e87dc" rx="7.921" ry="10.834"/></g><g><ellipse cx="365.429" cy="290.596" fill="#1e87dc" rx="8.281" ry="13.896"/></g><g><ellipse cx="385.083" cy="214.162" fill="#1e87dc" rx="8.81" ry="16.104"/></g><g><ellipse cx="399.888" cy="265.959" fill="#1e87dc" rx="6.438" ry="11.021"/></g><path d="m161.852 474.5-21.411-5.874c-12.024-3.299-20.423-14.312-20.423-26.779v-5.703c0-9.228-3.238-18.227-9.118-25.339l-43.031-52.054-9.248 7.646 43.031 52.054c4.105 4.966 6.366 11.249 6.366 17.692v5.703c0 13.19 6.563 25.242 16.934 32.544 2.078 1.234 4.175 2.44 6.29 3.616 1.923.882 3.935 1.618 6.023 2.191l21.411 5.874c6.367 1.747 11.717 5.656 15.342 10.8 5.069 1.696 10.209 3.238 15.414 4.619-3.864-12.885-14.14-23.302-27.58-26.99z" fill="#d80a61"/><path d="m442.132 358.751-43.031 52.054c-5.88 7.112-9.118 16.111-9.118 25.339v5.703c0 12.468-8.398 23.48-20.423 26.779l-21.411 5.874c-13.431 3.685-23.703 14.091-27.572 26.965 5.21-1.385 10.357-2.931 15.434-4.633 3.624-5.124 8.963-9.018 15.314-10.76l21.411-5.874c1.966-.54 3.864-1.223 5.685-2.037 2.327-1.289 4.633-2.614 6.916-3.973 10.205-7.322 16.647-19.272 16.647-32.341v-5.703c0-6.443 2.261-12.727 6.366-17.692l43.031-52.054z" fill="#da4a54"/></g></g></svg>