<svg id="Layer_1" enable-background="new 0 0 510.58 510.58" height="512" viewBox="0 0 510.58 510.58" width="512" xmlns="http://www.w3.org/2000/svg"><g><g><path d="m255.29 37.697c-90.989 0-147.039 51.324-147.193 51.41 0 0-2.33 2.908-2.766 4.842-3.54 15.715-6.848 36.776-6.848 52.145 0 130.583 110.12 236.416 240.703 236.416 50.284 0 106.23-24.1 143.672-53.077.838-.648 3.495-5.004 3.495-5.004.165-1.008 5.378-21.768 5.378-50.291.001-130.583-105.858-236.441-236.441-236.441z" fill="#f1d333"/><path d="m339.165 375.835c-130.583 0-236.442-105.859-236.442-236.442 0-17.26 1.861-34.078 5.373-50.287-54.377 43.32-89.248 110.104-89.248 185.031 0 53.109 17.51 102.128 47.072 141.599l379.137-.525c19.696-26.446 34.024-57.219 41.296-90.783-40.389 32.172-91.539 51.407-147.188 51.407z" fill="#e7a52e"/></g><path d="m383.091 424.271v-283.769c0-40.628-32.935-73.563-73.563-73.563h-108.079c-40.628 0-73.563 32.935-73.563 73.563v283.769z" fill="#df75a5"/><path d="m127.887 286.083h218.406v138.188h-218.406z" fill="#dd4fb1"/><path d="m232.082 424.271v-283.769c0-40.628-12.365-73.563 28.263-73.563h-58.896c-40.628 0-73.563 32.935-73.563 73.563v283.769z" fill="#dd4fb1"/><path d="m167.58 281.459h64.503v142.812h-64.503z" fill="#da2ea2"/><path d="m167.681 232.936c-.086 20.866-17.994 37.081-38.848 36.389-37.926-1.26-67.213-33.833-82.35-55.075-5.387-7.56.058-18.048 9.341-18.048h75.277c20.254 0 36.663 16.461 36.58 36.734z" fill="#75cef9"/><path d="m167.681 232.782c0 11.548-9.362 20.91-20.91 20.91-32.993 0-54.892-41.82-54.892-41.82s43.344 0 54.892 0 20.91 9.362 20.91 20.91z" fill="#2896ff"/><path d="m344.232 232.936c.086 20.866 17.994 37.081 38.848 36.389 37.926-1.26 67.213-33.833 82.35-55.075 5.387-7.56-.058-18.048-9.341-18.048h-75.277c-20.254 0-36.664 16.461-36.58 36.734z" fill="#75cef9"/><path d="m344.231 232.782c0 11.548 9.362 20.91 20.91 20.91 32.993 0 54.892-41.82 54.892-41.82s-43.344 0-54.892 0-20.91 9.362-20.91 20.91z" fill="#2896ff"/><g><g><path d="m308.785 179.311h-106.581c-23.899 0-43.274-4.702-43.274-28.602v-69.738c0-23.899 19.374-43.274 43.274-43.274h106.581c23.899 0 43.274 19.374 43.274 43.274v69.739c-.001 23.899-19.375 28.601-43.274 28.601z" fill="#df75a5"/></g></g><path d="m204.042 150.709v-69.739c0-23.899 19.374-43.274 43.274-43.274h-45.112c-23.9 0-43.274 19.374-43.274 43.274v69.739c0 23.9 19.374 28.602 43.274 28.602h45.112c-23.9 0-43.274-4.702-43.274-28.602z" fill="#dd4fb1"/><path d="m188.494 402.854c-30.398.014-27.585-.09-31.392.241l88.522 107.291c3.206.129 6.428.194 9.666.194 3.375 0 6.734-.071 10.077-.212l91.716-107.507h-25.618l-23.585 6.513-11.672-6.52-72.524.005-2.336 2.58z" fill="#75cef9"/><g><g><path d="m296.209 408.517c0 20.027-16.235 36.262-36.262 36.262-20.027 0-36.262-16.235-36.262-36.262v-81.221h72.524z" fill="#2896ff"/></g></g><g><g><path d="m357.956 171.112c-.239-24.124-19.864-43.555-43.989-43.555h-52.265c-29.123 0-55.59 11.356-75.227 29.876v149.429c0 37.551 30.17 68.361 67.721 68.643.263.002.525.003.789.003 57.42 0 103.968-46.548 103.968-103.968z" fill="#75cef9"/></g></g><g><g><path d="m211.523 232.782v8.843c0 4.735 3.839 8.574 8.574 8.574s8.574-3.839 8.574-8.574v-8.843z" fill="#2896ff"/></g></g><g><g><path d="m281.547 232.782v8.843c0 4.735 3.839 8.574 8.574 8.574s8.575-3.839 8.575-8.574v-8.843z" fill="#2896ff"/></g></g><g><g><path d="m220.097 243.054c-4.735 0-8.574-3.839-8.574-8.574v-6.324l3.442-5.17-3.442-5.17v-6.786c0-4.735 3.839-8.574 8.574-8.574s8.574 3.839 8.574 8.574v23.451c0 4.734-3.839 8.573-8.574 8.573z" fill="#373c41"/></g></g><g><g><path d="m290.122 243.054c-4.735 0-8.574-3.839-8.574-8.574v-8.022l3.442-5.17-3.442-5.17v-5.088c0-4.735 3.839-8.574 8.574-8.574s8.574 3.839 8.574 8.574v23.451c0 4.734-3.839 8.573-8.574 8.573z" fill="#373c41"/></g></g><g><g><g><path d="m231.394 198.168h-25.005c-4.736 0-8.574-3.839-8.574-8.574 0-4.736 3.839-8.574 8.574-8.574h25.005c4.736 0 8.574 3.839 8.574 8.574 0 4.735-3.839 8.574-8.574 8.574z" fill="#dd4fb1"/></g></g></g><g><g><g><path d="m302.847 198.168h-25.005c-4.736 0-8.574-3.839-8.574-8.574 0-4.736 3.839-8.574 8.574-8.574h25.005c4.736 0 8.574 3.839 8.574 8.574.001 4.735-3.838 8.574-8.574 8.574z" fill="#dd4fb1"/></g></g></g><g><g><path d="m242.11 257.748c-2.132 7.511 1.742 15.693 9.15 18.159 1.491.496 3.085.765 4.743.765 1.657 0 3.252-.269 4.743-.765 7.408-2.466 11.282-10.648 9.15-18.159l-10.396-36.635c-1-3.523-5.994-3.523-6.994 0z" fill="#2896ff"/></g></g><path d="m264.587 127.741c-62.122-.119-112.551 50.195-112.551 112.317v32.501c0 63.279 56.79 112.231 120.419 101.459-48.576-8.264-85.569-50.528-85.569-101.459.026-45.59-.004-66.749-.008-77.06-.003-8.162 6.671-14.855 14.833-14.873h.011 49.9c29.039 0 52.58-23.541 52.58-52.58 0 0-7.585-.244-39.615-.305z" fill="#2896ff"/><path d="m205.215 86.007c-29.37 0-53.179 23.809-53.179 53.179v34.295 66.577c7.616 0 13.789-6.174 13.789-13.789v-16.891c0-19.825 16.072-35.897 35.897-35.897h49.9c29.039 0 52.58-23.541 52.58-52.58v-34.894z" fill="#df75a5"/><path d="m302.338 127.558c23.521 0 42.825 20.135 42.825 43.656v55.054c0 7.616 6.174 13.789 13.789 13.789v-116.576z" fill="#df75a5"/><path d="m288.805 291.222h-9.005l-23.717 4.924-23.717-4.924h-7.966c-2.672 0-4.808 2.333-4.451 4.981.682 5.067 2.39 9.809 4.908 14.009l48.023 14.232c10.846-5.324 18.703-15.802 20.377-28.24.356-2.65-1.78-4.982-4.452-4.982z" fill="#242e7a"/><path d="m224.861 310.209c6.463 10.781 18.258 17.999 31.741 17.999 5.841 0 11.363-1.359 16.275-3.77-2.111-13.245-13.583-23.369-27.422-23.369-8.169.001-15.512 3.527-20.594 9.14z" fill="#5e3881"/><g fill="#fff"><path d="m279.8 295.852c0 2.882-2.336 5.217-5.217 5.217h-36.999c-2.881 0-5.217-2.336-5.217-5.217v-4.63h47.433z"/><path d="m214.964 231.598c-1.901 0-3.442-1.541-3.442-3.442v-10.341c0-1.901 1.541-3.442 3.442-3.442 1.901 0 3.442 1.541 3.442 3.442v10.341c0 1.901-1.541 3.442-3.442 3.442z"/><path d="m284.989 229.9c-1.901 0-3.442-1.541-3.442-3.442v-10.341c0-1.901 1.541-3.442 3.442-3.442 1.901 0 3.442 1.541 3.442 3.442v10.341c0 1.901-1.541 3.442-3.442 3.442z"/></g><path d="m309.893 66.067h-106.581c-23.899 0-43.274 19.374-43.274 43.274v20.05c0-23.899 19.374-43.274 43.274-43.274h106.581c23.9 0 43.274 19.374 43.274 43.274v-20.05c0-23.899-19.375-43.274-43.274-43.274z" fill="#ecc32e"/><path d="m282.415 34.998c-12.287 0-22.778 7.688-26.926 18.516-4.148-10.828-14.639-18.516-26.926-18.516-15.919 0-28.825 12.905-28.825 28.825 0 2.91.435 5.718 1.238 8.366h109.027c.802-2.648 1.238-5.456 1.238-8.366-.001-15.92-12.906-28.825-28.826-28.825z" fill="#ecc32e"/><path d="m227.834 35.016c-15.582.388-28.096 13.131-28.096 28.807 0 .802.033 1.597.098 2.383-22.274 1.771-39.798 20.406-39.798 43.135v20.05c0-23.899 19.374-43.274 43.274-43.274h24.522z" fill="#e7a52e"/><path d="m267.451 29.398c0 11.125-11.957 20.143-11.957 20.143s-11.957-9.018-11.957-20.143 11.957-20.143 11.957-20.143 11.957 9.018 11.957 20.143z" fill="#e28424"/><path d="m255.494 15.004c3.374 4.025 6.668 9.313 6.668 14.394 0 5.044-3.259 10.329-6.665 14.395-3.374-4.025-6.669-9.314-6.669-14.395-.001-5.042 3.255-10.324 6.666-14.394m.001-15.004s-17.45 13.162-17.45 29.398 17.45 29.398 17.45 29.398 17.45-13.162 17.45-29.398-17.45-29.398-17.45-29.398z" fill="#ecc32e"/><path d="m127.887 351.401h-61.967v64.337c24.287 32.428 56.707 58.411 94.236 74.924 0 0 11.345-5.918 20.404-2.764 9.248 3.22 10.846 13.951 10.942 13.978 17.32 4.841 35.442 7.759 54.122 8.51z" fill="#734a9b"/><path d="m383.091 351.401-117.724 158.966c21.584-.909 42.47-4.726 62.255-11.083l12.764-12.873 18.19.443c34.195-16.632 63.874-41.286 86.482-71.642v-63.812h-61.967z" fill="#8659b9"/><path d="m160.156 490.662c10.098 4.443 20.567 8.201 31.346 11.214l32.183-99.016-35.191-.005z" fill="#242e7a"/><path d="m331.466 402.854h-35.257l31.413 96.43c10.659-3.425 20.997-7.587 30.953-12.429z" fill="#242e7a"/><g fill="#2896ff"><circle cx="298.714" cy="268.302" r="8.369"/><circle cx="325.799" cy="249.886" r="8.395"/><circle cx="325.799" cy="280.932" r="8.395"/></g><g fill="#1e87dc"><circle cx="209.817" cy="268.302" r="8.369"/><circle cx="182.733" cy="249.886" r="8.395"/><circle cx="182.733" cy="280.932" r="8.395"/></g></g></svg>