<svg id="Layer_1" enable-background="new 0 0 511 511" height="512" viewBox="0 0 511 511" width="512" xmlns="http://www.w3.org/2000/svg"><g><g><g><path d="m255.5 1c-98.131 0-158.58 55.352-158.747 55.445 0 0-2.513 3.137-2.983 5.222-3.818 16.948-7.385 39.663-7.385 56.238 0 140.833 118.763 254.972 259.596 254.972 54.231 0 114.568-25.992 154.949-57.243.903-.699 3.769-5.396 3.769-5.396.178-1.087 5.8-23.477 5.8-54.239.001-140.832-114.166-254.999-254.999-254.999z" fill="#da4a54"/></g><path d="m345.959 365.679c-140.833 0-255-114.167-255-255 0-18.615 2.007-36.753 5.795-54.234-58.645 46.72-96.254 118.747-96.254 199.555 0 58.567 19.744 112.523 52.94 155.574l404.123.003c22.581-29.278 38.978-63.678 47.136-101.338-43.559 34.695-98.724 55.44-158.74 55.44z" fill="#d80a61"/></g><g><g><path d="m146.982 219.942s-6.161-2.047-14.435-2.934c1.922-12.66 2.351-31.035-7.39-44.171-16.301-21.98-54.906-20.969-54.906-20.969s-12.176 36.648 4.125 58.629c5.98 8.064 14.961 13.033 23.937 16.093-12.768 13.73-12.121 38.436-12.121 38.436s27.989 9.299 44.775-3.15c16.787-12.451 16.015-41.934 16.015-41.934z" fill="#6ec17d"/></g><g><ellipse cx="128.587" cy="218.626" fill="#64822d" rx="22.152" ry="30.01"/></g><g><path d="m361.138 219.942s6.161-2.047 14.435-2.934c-1.922-12.66-2.351-31.035 7.39-44.171 16.301-21.98 54.906-20.969 54.906-20.969s12.176 36.648-4.125 58.629c-5.98 8.064-14.961 13.033-23.937 16.093 12.768 13.73 12.121 38.436 12.121 38.436s-27.989 9.299-44.775-3.15c-16.787-12.451-16.015-41.934-16.015-41.934z" fill="#6ec17d"/></g><g><ellipse cx="379.533" cy="218.626" fill="#64822d" rx="22.152" ry="30.01"/></g><g><g><path d="m206.337 52.759c-20.591 13.164-47.697 14.427-70.065.984-19.735-11.861-31.092-32.352-32.144-53.743-8.362 5.346-15.649 12.654-21.108 21.738-18.902 31.451-8.73 72.271 22.722 91.173 31.451 18.902 72.271 8.73 91.173-22.722 7.041-11.715 10.047-24.731 9.422-37.43z" fill="#ffebb4"/></g><g><path d="m133.761 72.7c-25.386-15.257-36.909-44.793-30.469-72.157-8.012 5.294-14.996 12.415-20.273 21.195-18.902 31.451-8.73 72.271 22.722 91.173 31.451 18.902 72.271 8.73 91.173-22.722 3.645-6.065 6.209-12.478 7.747-19.016-20.688 13.671-48.228 15.153-70.9 1.527z" fill="#ffdc8c"/></g></g><g><g><path d="m299.834 52.759c20.591 13.164 47.697 14.427 70.065.984 19.736-11.861 31.092-32.352 32.145-53.743 8.362 5.346 15.649 12.654 21.108 21.738 18.902 31.451 8.73 72.271-22.722 91.173-31.451 18.902-72.271 8.73-91.173-22.722-7.041-11.715-10.048-24.731-9.423-37.43z" fill="#ffebb4"/></g><g><path d="m372.41 72.7c25.386-15.257 36.909-44.793 30.469-72.157 8.012 5.294 14.996 12.415 20.273 21.195 18.902 31.451 8.73 72.271-22.722 91.173-31.451 18.902-72.271 8.73-91.173-22.722-3.645-6.065-6.209-12.478-7.747-19.016 20.689 13.671 48.228 15.153 70.9 1.527z" fill="#ffdc8c"/></g></g><g><path d="m253.298 362.551-152.267 33.796 129.647 96.229c14.704 10.914 34.851 10.794 49.424-.292l126.066-95.905z" fill="#9bd069"/></g><g><g><g><path d="m298.064 409.996c0 24.381-19.765 44.146-44.146 44.146-24.381 0-44.146-19.765-44.146-44.146v-98.88h88.291v98.88z" fill="#6ec17d"/></g></g></g><g><g><g><path d="m169.083 100.557v199.714c0 46.477 37.382 84.512 83.857 84.864.326.002.652.004.978.004 69.219 0 125.332-56.113 125.332-125.332v-137.393c0-38.861-31.44-70.398-70.301-70.517l-66.613.219c-46.062-.219-73.253 21.354-73.253 48.441z" fill="#9bd069"/></g></g></g><g><g><g><path d="m199.766 212.972v8.838c0 5.765 4.674 10.439 10.439 10.439s10.439-4.674 10.439-10.439v-8.838z" fill="#6ec17d"/></g></g></g><g><g><g><path d="m284.82 212.972v8.838c0 5.765 4.674 10.439 10.439 10.439s10.439-4.674 10.439-10.439v-8.838z" fill="#6ec17d"/></g></g></g><g><g><path d="m169.502 263.398c.313-7.121-.112-112.123-.112-138.335l.112 4.831c0-40.287 32.547-77.777 72.834-77.777h-42.044c-40.287 0-70.185 29.898-70.185 70.185l-2.762 97.939v38.278c0 34.744 14.277 67.961 39.486 91.87s59.135 36.409 93.83 34.571l.049-.003c-52.691-15.304-91.208-63.931-91.208-121.559z" fill="#6ec17d"/></g></g><g><g><g><path d="m210.205 223.888c-5.765 0-10.439-4.674-10.439-10.439v-13.427l3.848-5.827-3.848-5.827v-3.468c0-5.765 4.674-10.439 10.439-10.439s10.439 4.674 10.439 10.439v28.549c0 5.765-4.674 10.439-10.439 10.439z" fill="#373c41"/></g></g></g><g><g><g><path d="m295.259 223.888c-5.765 0-10.439-4.674-10.439-10.439v-13.427l3.848-5.827-3.848-5.827v-3.468c0-5.765 4.674-10.439 10.439-10.439s10.439 4.674 10.439 10.439v28.549c-.001 5.765-4.675 10.439-10.439 10.439z" fill="#373c41"/></g></g></g><g><g><g><g><g><path d="m234.396 189.968c0 5.765-4.674 10.439-10.439 10.439h-76.612c-5.765 0-10.439-4.674-10.439-10.439 0-5.765 4.674-10.439 10.439-10.439h76.612c5.766.001 10.439 4.674 10.439 10.439z" fill="#6ec17d"/></g></g></g></g><g><g><g><g><path d="m369.029 189.968c0 5.765-4.674 10.439-10.439 10.439h-76.612c-5.765 0-10.439-4.674-10.439-10.439 0-5.765 4.674-10.439 10.439-10.439h76.612c5.766.001 10.439 4.674 10.439 10.439z" fill="#6ec17d"/></g></g></g></g><g><g><g><g><path d="m234.396 181.227c0 5.765-4.674 10.439-10.439 10.439h-76.612c-5.765 0-10.439-4.674-10.439-10.439 0-5.765 4.674-10.439 10.439-10.439h76.612c5.766.001 10.439 4.674 10.439 10.439z" fill="#9bd069"/></g></g></g></g><g><g><g><g><path d="m369.029 181.227c0 5.765-4.674 10.439-10.439 10.439h-76.612c-5.765 0-10.439-4.674-10.439-10.439 0-5.765 4.674-10.439 10.439-10.439h76.612c5.766.001 10.439 4.674 10.439 10.439z" fill="#9bd069"/></g></g></g></g></g><g><path d="m175.2 238.107c3.785 12.77 15.598 22.089 29.596 22.089 13.999 0 25.814-9.319 29.6-22.089z" fill="#6ec17d"/></g><g><path d="m274.166 238.107c3.785 12.77 15.598 22.089 29.596 22.089 13.999 0 25.814-9.319 29.6-22.089z" fill="#6ec17d"/></g><g><path d="m282.368 332.211h-54.741c-8.49 0-15.373-6.883-15.373-15.373h85.486c.001 8.49-6.882 15.373-15.372 15.373z" fill="#6ec17d"/></g><g><path d="" fill="none" stroke="#696e73" stroke-miterlimit="10" stroke-width="11.543"/></g><g><path d="" fill="none" stroke="#696e73" stroke-miterlimit="10" stroke-width="11.543"/></g><g><path d="m342.008 158.107h-174.021v-10.38h163.641c5.733 0 10.38 4.647 10.38 10.38z" fill="#6ec17d"/></g><g><path d="m342.008 127.605h-174.021v-10.38h163.641c5.733 0 10.38 4.647 10.38 10.38z" fill="#6ec17d"/></g><g><path d="m267.601 362.107h-25.207c0-6.961 5.643-12.603 12.603-12.603s12.604 5.642 12.604 12.603z" fill="#6ec17d"/></g><g><path d="m139.967 407.566h88.074v17.2h-88.074z" fill="#6ec17d"/></g><g><path d="m285.368 407.566h88.074v17.2h-88.074z" fill="#6ec17d" transform="matrix(-1 0 0 -1 658.81 832.331)"/></g><g><path d="m379.25 385.138s-32.611 74.067-128.879 112.812l41.245 10.501c67.05-9.536 126.119-45.238 165.947-96.876-17.979-14.852-43.132-25.432-78.313-26.437z" fill="#783c28"/></g><g><path d="m131.75 385.138c-35.18 1.004-60.332 11.584-78.31 26.435 46.628 60.471 119.795 99.427 202.06 99.427 12.245 0 24.304-.868 36.116-2.548-120.371-33.61-159.866-123.314-159.866-123.314z" fill="#5a2d19"/></g><g><path d="m253.298 290.324c-13.192 0-23.925-10.732-23.925-23.925s10.733-23.925 23.925-23.925 23.925 10.732 23.925 23.925-10.733 23.925-23.925 23.925zm0-39.148c-8.395 0-15.224 6.829-15.224 15.224s6.829 15.224 15.224 15.224 15.224-6.829 15.224-15.224-6.83-15.224-15.224-15.224z" fill="#415050"/></g><g><g><g><path d="m237.004 238.706c-2.595 10.362 2.121 21.65 11.14 25.052 1.815.685 3.756 1.055 5.774 1.055s3.959-.371 5.774-1.055c9.019-3.402 13.735-14.69 11.14-25.052l-8.603-34.353c-2.166-8.649-14.456-8.649-16.622 0z" fill="#f1d333"/></g></g></g><g><path d="m212.255 316.838-4.722-15.029c-.769-2.449 2.173-4.356 4.094-2.655l19.97 17.684z" fill="#fff"/></g><g><path d="m297.695 316.838 4.722-15.029c.769-2.449-2.173-4.356-4.094-2.655l-19.97 17.684z" fill="#fff"/></g><g><path d="m264.221 127.241-10.923 15.156-10.9-15.17c-4.6-6.402-7.075-14.087-7.075-21.971v-48.863c0-10.777 3.958-21.178 11.122-29.228l6.853-7.7 6.863 7.689c7.191 8.056 11.166 18.478 11.166 29.277v48.796c0 7.902-2.486 15.604-7.106 22.014z" fill="#415050"/></g><g><path d="m253.325 117.225c-23.487 0-42.527-19.04-42.527-42.527v-22.582c28.339-10.434 56.691-10.425 85.054 0v22.582c0 23.487-19.04 42.527-42.527 42.527z" fill="#415050"/></g></g></g></svg>