<svg id="Layer_1" enable-background="new 0 0 509.442 509.442" height="512" viewBox="0 0 509.442 509.442" width="512" xmlns="http://www.w3.org/2000/svg"><g><g><g><path d="m254.721 16.527c-94.978 0-153.485 53.573-153.646 53.664 0 0-2.432 3.036-2.887 5.054-3.696 16.404-7.148 38.389-7.148 54.431 0 136.307 114.947 246.779 251.255 246.779 52.489 0 110.886-25.157 149.971-55.404.874-.677 3.648-5.223 3.648-5.223.172-1.052 5.614-22.722 5.614-52.496-.001-136.306-110.5-246.805-246.807-246.805z" fill="#734a9b"/></g><path d="m342.273 369.489c-136.307 0-246.807-110.499-246.807-246.807 0-18.017 1.943-35.572 5.609-52.491-56.761 45.218-93.161 114.931-93.161 193.142 0 62.238 23.037 119.095 61.05 162.51l372.644-1.297c26.346-30.499 45.398-67.602 54.306-108.717-42.16 33.581-95.553 53.66-153.641 53.66z" fill="#5e3881"/></g><g><g><ellipse cx="254.721" cy="349.911" fill="#df6b57" rx="198.112" ry="78.309"/></g><path d="m387.603 372.003-41.926-2.539c-1.133.015-2.268.024-3.404.024-11.382 0-22.583-.771-33.556-2.262l-53.555-3.243-131.918 7.993c-27.41 6.084-48.208 27.41-54.279 53.867 26.87 30.688 61.222 54.66 100.21 69.068l21.503 1.189 11.072 8.342c11.16 2.44 22.602 4.126 34.27 5h37.354c11.801-.885 23.385-2.604 34.689-5.1l10.321-9.563 22.326-.063c39.247-14.599 73.902-38.918 100.899-70.17-6.461-25.853-27.038-46.575-54.006-52.543z" fill="#e7a52e"/><g><path d="m378.045 369.888-122.883-27.192-124.071 27.538c0 37.564 30.451 68.015 68.015 68.015h110.924c37.564 0 68.015-30.451 68.015-68.015z" fill="#fff"/></g><g><g><g><path d="m293.945 376.743c0 21.123-17.123 38.246-38.246 38.246-21.123 0-38.246-17.123-38.246-38.246v-85.666h76.493v85.666z" fill="#afe6ff"/></g></g></g><g><circle cx="143.762" cy="142.171" fill="#6ec17d" r="69.586"/></g><g><circle cx="369.207" cy="139.608" fill="#9bd069" r="69.586"/></g><g><circle cx="213.477" cy="69.586" fill="#6ec17d" r="69.586"/></g><g><path d="m299.621 0c-16.521 0-31.688 5.769-43.623 15.387v108.398c11.935 9.618 27.102 15.387 43.623 15.387 38.431 0 69.586-31.155 69.586-69.586s-31.154-69.586-69.586-69.586z" fill="#9bd069"/></g><g><g><g><path d="m182.201 108.657v173.025c0 40.266 32.386 73.218 72.651 73.523.282.002.565.003.848.003 59.969 0 108.583-48.614 108.583-108.583v-119.032c0-33.668-27.238-60.99-60.906-61.093l-64.561.19c-23.469-.073-56.615 18.5-56.615 41.967z" fill="#fff"/></g></g></g><g><g><path d="m182.564 249.736c.271-6.169-.046-97.571-.046-120.28l.046 4.617c0-32.571 24.6-63.407 56.25-67.383h-29.574c-34.903 0-60.805 25.902-60.805 60.805l-2.393 84.85v33.163c0 30.101 12.369 58.879 34.209 79.593s51.232 31.543 81.291 29.951l.042-.002c-45.65-13.258-79.02-55.387-79.02-105.314z" fill="#afe6ff"/></g></g><g><circle cx="187.145" cy="217.061" fill="#afe6ff" r="23.093"/></g><g><circle cx="326.098" cy="217.061" fill="#afe6ff" r="23.093"/></g><g><path d="" fill="none" stroke="#696e73" stroke-miterlimit="10" stroke-width="10"/></g><g><path d="" fill="none" stroke="#696e73" stroke-miterlimit="10" stroke-width="10"/></g><g><g><path d="m227.185 251.313v-11.71c0-5.908 4.789-10.697 10.697-10.697h11.71c0 12.375-10.032 22.407-22.407 22.407z" fill="#afe6ff"/></g><g><path d="m282.635 251.313v-11.71c0-5.908-4.789-10.697-10.697-10.697h-11.71c0 12.375 10.031 22.407 22.407 22.407z" fill="#afe6ff"/></g></g><g><path d="m265.829 323.328h-21.838c0-6.03 4.889-10.919 10.919-10.919s10.919 4.889 10.919 10.919z" fill="#afe6ff"/></g><g><g><ellipse cx="238.427" cy="236.798" fill="#373c41" rx="5.791" ry="1.812"/></g><g><ellipse cx="271.393" cy="236.798" fill="#373c41" rx="5.791" ry="1.812"/></g></g><g><g><path d="m207.485 177.312h-40.583l-16.737 24.189c-1.654 2.391-1.703 5.543-.123 7.984l31.126 48.089c2.829 4.37 9.222 4.37 12.051 0l31.126-48.089c1.58-2.441 1.531-5.593-.123-7.984z" fill="#2896ff"/></g><g><path d="m342.918 177.312h-40.583l-16.737 24.189c-1.654 2.391-1.703 5.543-.123 7.984l31.126 48.089c2.829 4.37 9.223 4.37 12.051 0l31.126-48.089c1.58-2.441 1.531-5.593-.123-7.984z" fill="#2896ff"/></g><g><g><circle cx="184.933" cy="207.434" fill="#b1e4f9" r="23.093"/></g><g><ellipse cx="187.193" cy="207.434" fill="#fff" rx="7.071" ry="10.811"/></g></g><g><g><circle cx="323.887" cy="207.434" fill="#b1e4f9" r="23.093"/></g><g><ellipse cx="322.626" cy="207.434" fill="#fff" rx="7.071" ry="10.811"/></g></g></g><g><path d="m266.881 296.14h-23.943c-16.025 0-29.017-12.991-29.017-29.017h81.976c.001 16.025-12.99 29.017-29.016 29.017z" fill="#5e3881"/></g><g><path d="m295.898 267.123h-81.976c0-4.05 3.283-7.333 7.333-7.333h67.311c4.049 0 7.332 3.283 7.332 7.333z" fill="#afe6ff"/></g><g><path d="m272.387 206.091h-34.954c-3.495 0-6.328-2.833-6.328-6.328 0-3.495 2.833-6.328 6.328-6.328h34.954c3.495 0 6.328 2.833 6.328 6.328 0 3.495-2.833 6.328-6.328 6.328z" fill="#afe6ff"/></g><g><path d="m272.387 223.389h-34.954c-3.495 0-6.328-2.833-6.328-6.328 0-3.495 2.833-6.328 6.328-6.328h34.954c3.495 0 6.328 2.833 6.328 6.328 0 3.495-2.833 6.328-6.328 6.328z" fill="#afe6ff"/></g><g><g><g><g><g><path d="m238.82 182.062c0 4.995-4.049 9.044-9.044 9.044h-66.374c-4.995 0-9.044-4.049-9.044-9.044 0-4.995 4.049-9.044 9.044-9.044h66.374c4.995.001 9.044 4.05 9.044 9.044z" fill="#afe6ff"/></g></g></g></g><g><g><g><g><path d="m355.461 182.062c0 4.995-4.049 9.044-9.044 9.044h-66.374c-4.995 0-9.044-4.049-9.044-9.044 0-4.995 4.049-9.044 9.044-9.044h66.374c4.995.001 9.044 4.05 9.044 9.044z" fill="#afe6ff"/></g></g></g></g><g><g><g><g><path d="m238.82 174.49c0 4.995-4.049 9.044-9.044 9.044h-66.374c-4.995 0-9.044-4.049-9.044-9.044 0-4.995 4.049-9.044 9.044-9.044h66.374c4.995 0 9.044 4.049 9.044 9.044z" fill="#fff"/></g></g></g></g><g><g><g><g><path d="m355.461 174.49c0 4.995-4.049 9.044-9.044 9.044h-66.374c-4.995 0-9.044-4.049-9.044-9.044 0-4.995 4.049-9.044 9.044-9.044h66.374c4.995 0 9.044 4.049 9.044 9.044z" fill="#fff"/></g></g></g></g></g><path d="m201.941 504.484 197.644-87.342-8.893-20.123-221.519 97.892c10.6 3.917 21.541 7.127 32.768 9.573z" fill="#734a9b"/><path d="m340.709 494.716-221.078-97.698-8.893 20.123 197.324 87.2c11.175-2.466 22.077-5.693 32.647-9.625z" fill="#5e3881"/><g><path d="m213.348 438.249h-68.401c-48.788 0-88.338-39.55-88.338-88.338h47.42c37.058 0 71.214 20.054 89.272 52.414z" fill="#e28424"/></g><g><path d="m296.094 438.249h68.401c48.788 0 88.338-39.55 88.338-88.338h-47.42c-37.058 0-71.214 20.054-89.272 52.414z" fill="#e28424"/></g><g><path d="m196.476 50.244c-11.503 0-22.113 3.814-30.642 10.242v81.444c8.529 6.428 19.139 10.242 30.642 10.242 28.147 0 50.964-22.818 50.964-50.964.001-28.147-22.817-50.964-50.964-50.964z" fill="#afe6ff"/></g><g><circle cx="277.184" cy="80.492" fill="#afe6ff" r="50.964"/></g><g><path d="m364.364 93.617c-6.614-8.016-16.624-13.125-27.827-13.125-19.915 0-36.059 16.144-36.059 36.059s16.144 36.059 36.059 36.059c11.204 0 21.214-5.11 27.827-13.125z" fill="#afe6ff"/></g><g><circle cx="196.476" cy="88.207" fill="#6ec17d" r="50.964"/></g><g><ellipse cx="280.392" cy="62.764" fill="#9bd069" rx="47.756" ry="55.691"/></g><g><circle cx="336.536" cy="103.55" fill="#9bd069" r="36.059"/></g><g><path d="m145.253 242.346h1.856v-16.964l-5.203-16.964 5.203-16.964v-16.964h-1.856c-18.738 0-33.928 15.19-33.928 33.928 0 18.738 15.19 33.928 33.928 33.928z" fill="#fff"/></g><g><path d="m146.181 225.382h.928v-33.928h-.928c-9.369 0-16.964 7.595-16.964 16.964 0 9.369 7.595 16.964 16.964 16.964z" fill="#afe6ff"/></g><g><path d="m366.232 242.346h-1.856v-67.856h1.856c18.738 0 33.928 15.19 33.928 33.928 0 18.738-15.19 33.928-33.928 33.928z" fill="#fff"/></g><g><path d="m365.303 225.382h-.928v-33.928h.928c9.369 0 16.964 7.595 16.964 16.964 0 9.369-7.595 16.964-16.964 16.964z" fill="#afe6ff"/></g></g></g></svg>