<svg id="Layer_1" enable-background="new 0 0 510 510" height="512" viewBox="0 0 510 510" width="512" xmlns="http://www.w3.org/2000/svg"><g><g><g><path d="m255 12.218c-95.78 0-154.781 54.026-154.944 54.117 0 0-2.453 3.062-2.912 5.097-3.727 16.542-7.208 38.713-7.208 54.891 0 137.459 115.918 248.864 253.377 248.864 52.932 0 111.823-25.369 151.237-55.872.882-.682 3.679-5.267 3.679-5.267.173-1.061 5.662-22.914 5.662-52.939 0-137.459-111.432-248.891-248.891-248.891z" fill="#9bd069"/></g><path d="m343.292 368.161c-137.459 0-248.892-111.433-248.892-248.892 0-18.169 1.959-35.872 5.656-52.935-57.24 45.602-93.947 115.903-93.947 194.775 0 67.631 26.975 128.961 70.752 173.82l354.696 1.601c32.74-32.927 56.399-75.057 66.673-122.482-42.516 33.864-96.359 54.113-154.938 54.113z" fill="#6ec186"/></g><g><g><path d="m330.647 8.173h-93.452v105.599h127.755v-71.296c-.001-18.945-15.358-34.303-34.303-34.303z" fill="#5e3881"/></g></g><g><g><path d="m237.665 8.173h-57.505c-18.945 0-34.303 15.358-34.303 34.302v71.297h91.808z" fill="#242e7a"/></g></g><g><g><path d="m365.827 53.737h-184.119v154.972h234.459v-104.632c.001-27.802-22.538-50.34-50.34-50.34z" fill="#734a9b"/></g></g><g><g><path d="m168.781 53.736h-23.802c-27.803 0-50.341 22.538-50.341 50.341v104.631h74.143z" fill="#5e3881"/></g></g><path d="m387.46 406.789-134.091-29.672-73.642 16.345v104.951c19.441 6.161 39.915 10 61.097 11.19l13.089-10.065 13.883 10.137c63.602-3.236 121.313-30.457 163.76-73.146-10.126-14.736-25.632-25.654-44.096-29.74z" fill="#da4a54"/><path d="m76.861 434.928c28.421 29.122 63.923 51.302 103.724 63.756v-105.413l-60.776 13.49c-17.788 3.948-32.824 14.236-42.948 28.167z" fill="#d80a61"/><g><g><path d="m241.499 483.921h-24.739c-30.354 0-54.961-24.607-54.961-54.961v-97.251l79.7 11.001z" fill="#a51f6b"/></g></g><g><g><path d="m268.221 483.921h24.739c30.354 0 54.961-24.607 54.961-54.961v-98.251l-79.7 12.001z" fill="#d80a61"/></g></g><path d="m255 510c4.433 0 8.841-.117 13.221-.348v-67.602h-27.398v67.552c4.693.264 9.419.398 14.177.398z" fill="#373c41"/><g><g><g><g><g><path d="m355.822 305.716v-152.982c33.328 0 60.346 27.018 60.346 60.346v32.291c0 33.328-27.018 60.345-60.346 60.345z" fill="#ff965a"/></g></g></g></g><g><g><g><g><path d="m354.051 276.839v-95.228c20.746 0 37.564 16.818 37.564 37.564v20.1c0 20.746-16.818 37.564-37.564 37.564z" fill="#ffbe82"/></g></g></g></g><g><g><g><g><path d="m359.546 254.446v-50.441c10.989 0 19.897 8.908 19.897 19.897v10.647c0 10.989-8.908 19.897-19.897 19.897z" fill="#ff965a"/></g></g></g></g><g><g><g><g><path d="m292.636 411.588c0 21.386-17.337 38.722-38.722 38.722-21.386 0-38.722-17.337-38.722-38.722v-86.732h77.445v86.732z" fill="#dd7643"/></g></g></g></g><g><g><g><g><path d="m179.5 140.164v175.179c0 40.767 31.904 72.529 72.67 72.838.286.002 5.527 1.556 7.401 1.461 58.086-2.944 104.277-50.974 104.277-109.792v-120.515c0-34.087-27.578-61.749-61.664-61.854l-67.861.193c-23.76-.073-54.823 18.73-54.823 42.49z" fill="#ffbe82"/></g></g></g></g><g><g><g><g><path d="m154.825 305.716v-152.982c-33.328 0-60.346 27.018-60.346 60.346v32.291c0 33.328 27.018 60.345 60.346 60.345z" fill="#ff965a"/></g></g></g></g><g><g><g><g><path d="m156.596 276.839v-95.228c-20.746 0-37.564 16.818-37.564 37.564v20.1c0 20.746 16.818 37.564 37.564 37.564z" fill="#ffbe82"/></g></g></g></g><g><g><g><g><path d="m151.101 254.446v-50.441c-10.989 0-19.897 8.908-19.897 19.897v10.647c0 10.989 8.908 19.897 19.897 19.897z" fill="#ff965a"/></g></g></g></g><g><g><g><g><path d="m206.414 238.768v7.752c0 5.057 4.1 9.156 9.156 9.156s9.156-4.1 9.156-9.156v-7.752z" fill="#ff965a"/></g></g></g></g><g><g><g><g><path d="m281.019 238.768v7.752c0 5.057 4.1 9.156 9.156 9.156s9.156-4.1 9.156-9.156v-7.752z" fill="#ff965a"/></g></g></g></g><g><g><g><path d="m179.868 282.999c.259-5.894.029-88.977.002-117.641.262-31.905 23.807-62.347 54.452-67.685h-27.447c-35.338 0-61.562 26.225-61.562 61.562l-2.422 85.907v33.575c0 30.476 12.523 59.612 34.635 80.584s51.87 31.936 82.303 30.324l.043-.002c-46.219-13.422-80.004-56.075-80.004-106.624z" fill="#ff965a"/></g></g></g><g><g><g><g><path d="m215.57 248.343c-5.057 0-9.156-4.1-9.156-9.156v-11.778l3.375-5.111-3.375-5.111v-3.042c0-5.057 4.1-9.156 9.156-9.156 5.057 0 9.156 4.1 9.156 9.156v25.042c0 5.056-4.099 9.156-9.156 9.156z" fill="#373c41"/></g></g></g></g><g><g><g><g><path d="m290.175 248.343c-5.057 0-9.156-4.1-9.156-9.156v-11.778l3.375-5.111-3.375-5.111v-3.042c0-5.057 4.1-9.156 9.156-9.156s9.156 4.1 9.156 9.156v25.042c0 5.056-4.099 9.156-9.156 9.156z" fill="#373c41"/></g></g></g></g><g><g><g><g><g><path d="m236.789 193.279c0 5.057-4.099 9.156-9.156 9.156h-67.2c-5.057 0-9.156-4.099-9.156-9.156 0-5.057 4.099-9.156 9.156-9.156h67.2c5.057 0 9.156 4.099 9.156 9.156z" fill="#ff965a"/></g></g></g></g></g><g><g><g><g><g><path d="m354.883 193.279c0 5.057-4.099 9.156-9.156 9.156h-67.2c-5.057 0-9.156-4.099-9.156-9.156 0-5.057 4.099-9.156 9.156-9.156h67.2c5.057 0 9.156 4.099 9.156 9.156z" fill="#ff965a"/></g></g></g></g></g><g><g><g><g><g><path d="m236.789 185.612c0 5.057-4.099 9.156-9.156 9.156h-67.2c-5.057 0-9.156-4.099-9.156-9.156 0-5.057 4.099-9.156 9.156-9.156h67.2c5.057 0 9.156 4.099 9.156 9.156z" fill="#ffbe82"/></g></g></g></g></g><g><g><g><g><g><path d="m354.883 185.612c0 5.057-4.099 9.156-9.156 9.156h-67.2c-5.057 0-9.156-4.099-9.156-9.156 0-5.057 4.099-9.156 9.156-9.156h67.2c5.057 0 9.156 4.099 9.156 9.156z" fill="#ffbe82"/></g></g></g></g></g><g><g><g><g><path d="m239.077 261.341c-2.276 9.089 1.861 18.99 9.771 21.975 1.592.601 3.295.926 5.065.926s3.473-.325 5.065-.926c7.911-2.984 12.047-12.885 9.771-21.975l-7.546-30.132c-1.9-7.586-12.68-7.586-14.58 0z" fill="#ff965a"/></g></g></g></g><g><g><path d="m209.789 230.784c-1.864 0-3.375-1.511-3.375-3.375v-10.222c0-1.864 1.511-3.375 3.375-3.375 1.864 0 3.375 1.511 3.375 3.375v10.222c.001 1.864-1.511 3.375-3.375 3.375z" fill="#fff"/></g></g><g><g><path d="m284.394 230.784c-1.864 0-3.375-1.511-3.375-3.375v-10.222c0-1.864 1.511-3.375 3.375-3.375 1.864 0 3.375 1.511 3.375 3.375v10.222c.001 1.864-1.511 3.375-3.375 3.375z" fill="#fff"/></g></g></g><g><g><g><path d="m236.221 326.639 35.099.882c4.136-2.861 13.076-10.813 13.076-10.813 3.257-5.374 5.132-11.677 5.132-18.421-23.024 2.823-46.808 2.661-71.23 0 0 6.743 1.875 13.047 5.132 18.42 2.613 4.311 12.791 9.932 12.791 9.932z" fill="#373c41"/></g></g></g><g><g><g><path d="m278.088 307.799-12.087 17.066-12.088-17.066-12.087 17.066-12.088-17.066-6.31 8.91c6.241 10.305 17.558 17.193 30.485 17.193s24.244-6.888 30.485-17.193z" fill="#fff"/></g></g></g><g><g><g><path d="m249.209 280.082h-22.686v-11.856c0-5.981 4.849-10.83 10.83-10.83h11.856z" fill="#ff965a"/></g></g><g><g><path d="m259.977 280.082h22.686v-11.856c0-5.981-4.849-10.83-10.83-10.83h-11.856z" fill="#ff965a"/></g></g></g><g><g><path d="m265.915 357.508h-22.11c0-6.106 4.95-11.055 11.055-11.055s11.055 4.949 11.055 11.055z" fill="#ff965a"/></g></g><g><g><ellipse cx="237.942" cy="275.697" fill="#373c41" rx="5.863" ry="1.835"/></g></g><g><g><ellipse cx="271.32" cy="275.697" fill="#373c41" rx="5.863" ry="1.835"/></g></g><g><g><path d="m294.811 300.603h-82.997c0-4.1 3.324-7.424 7.424-7.424h68.149c4.1 0 7.424 3.324 7.424 7.424z" fill="#ff965a"/></g></g><g><g><path d="m340.372 274.09-8.75 13.753c-7.507 11.8-11.495 25.496-11.495 39.481v9.131c0 1.804 2.533 2.205 3.091.49l19.998-61.515c.574-1.77-1.845-2.911-2.844-1.34z" fill="#ff965a"/></g></g><g><g><g><path d="m295.14 46.574c6.945 0 12.595 5.651 12.595 12.595v.528h30.374v-.528c0-23.693-19.276-42.969-42.969-42.969-8.387 0-15.187 6.799-15.187 15.187s6.799 15.187 15.187 15.187z" fill="#e7a52e"/></g></g><g><g><path d="m198.89 59.697v-.528c0-6.945 5.651-12.595 12.595-12.595 8.387 0 15.187-6.799 15.187-15.187s-6.8-15.187-15.187-15.187c-23.693 0-42.969 19.276-42.969 42.969v.528z" fill="#e7a52e"/></g></g></g><g><path d="m95.794 320.439c-1.732 0-3.474-.597-4.89-1.815-3.14-2.702-3.494-7.438-.792-10.577l26.005-30.218c2.703-3.139 7.438-3.494 10.577-.792 3.14 2.702 3.494 7.438.792 10.577l-26.005 30.218c-1.483 1.723-3.579 2.607-5.687 2.607z" fill="#f1d333"/></g><g><path d="m82.808 276.241c-3.125 0-6.042-1.969-7.102-5.093-1.33-3.923.771-8.182 4.693-9.512l25.99-8.815c3.924-1.326 8.182.771 9.512 4.693 1.33 3.923-.771 8.182-4.693 9.512l-25.99 8.815c-.799.271-1.612.4-2.41.4z" fill="#f1d333"/></g><g><path d="m414.835 320.439c-2.108 0-4.204-.884-5.688-2.607l-26.004-30.218c-2.702-3.14-2.348-7.876.792-10.577 3.14-2.702 7.874-2.349 10.577.792l26.004 30.218c2.702 3.14 2.348 7.876-.792 10.577-1.415 1.219-3.157 1.815-4.889 1.815z" fill="#f1d333"/></g><g><path d="m427.822 276.241c-.799 0-1.611-.129-2.41-.399l-25.991-8.815c-3.923-1.33-6.023-5.589-4.693-9.512 1.33-3.922 5.59-6.02 9.512-4.693l25.991 8.815c3.923 1.33 6.023 5.589 4.693 9.512-1.06 3.123-3.977 5.092-7.102 5.092z" fill="#f1d333"/></g><g><path d="m216.019 13.979h10.653v17.408h-10.653z" fill="#e7a52e"/></g><g><path d="m279.953 13.979h10.653v17.408h-10.653z" fill="#e7a52e"/></g><g><g><path d="m307.735 113.319v5.258c0 6.946-5.651 12.596-12.595 12.596h-83.655c-6.945 0-12.595-5.65-12.595-12.596v-5.258h-30.374v5.258c0 23.694 19.276 42.97 42.969 42.97h83.655c23.693 0 42.969-19.276 42.969-42.97v-5.258z" fill="#ff965a"/></g></g><g><g><path d="m295.14 151.547h-83.655c-23.693 0-42.969-19.276-42.969-42.97v-65.607c0-23.694 19.276-42.97 42.969-42.97 8.387 0 15.187 6.799 15.187 15.187s-6.799 15.187-15.187 15.187c-6.945 0-12.595 5.651-12.595 12.596v65.607c0 6.946 5.651 12.596 12.595 12.596h83.655c6.945 0 12.595-5.651 12.595-12.596v-65.607c0-6.946-5.651-12.596-12.595-12.596-8.387 0-15.187-6.799-15.187-15.187s6.799-15.187 15.187-15.187c23.693 0 42.969 19.276 42.969 42.97v65.607c-.001 23.693-19.277 42.97-42.969 42.97z" fill="#f1d333"/></g></g></g></svg>