<svg id="Layer_1" enable-background="new 0 0 510 510" height="512" viewBox="0 0 510 510" width="512" xmlns="http://www.w3.org/2000/svg"><g><g><g><path d="m255 0c-98.131 0-158.58 55.352-158.747 55.445 0 0-2.513 3.137-2.983 5.222-3.818 16.948-7.385 39.663-7.385 56.238 0 140.833 118.763 254.972 259.596 254.972 54.231 0 114.568-25.992 154.949-57.243.903-.699 3.769-5.396 3.769-5.396.178-1.087 5.8-23.477 5.8-54.239.001-140.832-114.166-254.999-254.999-254.999z" fill="#b1e4f9"/></g><g><path d="m345.459 364.679c-140.833 0-255-114.167-255-255 0-18.615 2.007-36.753 5.795-54.234-58.645 46.72-96.254 118.747-96.254 199.555 0 62.524 22.503 119.793 59.851 164.149l390.361-.072c26.122-31.033 45.025-68.469 53.987-109.838-43.559 34.695-98.723 55.44-158.74 55.44z" fill="#9dc6fb"/></g></g><g><g><path d="m377.825 438.785 61.592-207.563c2.437-8.214-2.872-16.728-11.326-18.12-117.168-19.305-233.575-19.59-349.19-.073-8.455 1.427-13.78 9.894-11.341 18.114l61.615 207.643h248.65z" fill="#734a9b"/></g><g><path d="m254.806 438.785v-240.267c-58.835-.151-117.472 4.646-175.906 14.511-8.455 1.427-13.78 9.894-11.341 18.114l61.615 207.643h125.632z" fill="#5e3881"/></g><g><path d="m434.08 391.242c0-31.937-22.197-59.583-53.38-66.483l-125.939-27.868-125.441 27.842c-31.163 6.917-53.337 34.553-53.337 66.474v.036c0 40.742 33.028 73.771 73.771 73.771h210.556c40.742-.001 73.77-33.029 73.77-73.772z" fill="#da2ea2"/></g><g><path d="m392.023 317.939-76.568-16.943 11.261 40.74-24.495 34.751-1.405 20.831-24.088 15.337-23.228 32.954-6.92 40.376 5.429 23.997c.996.011 1.993.018 2.992.018 35.029 0 68.534-7.102 99.076-19.997l6.234-24.99 34.007 3.57c20.95-13.684 39.794-30.379 55.895-49.506v-28.664c-.001-34.815-24.198-64.952-58.19-72.474z" fill="#8659b9"/></g><g><path d="m180.283 341.736 11.088-40.112-73.377 16.286c-33.97 7.54-58.143 37.666-58.143 72.462v28.776c15.807 18.773 34.273 35.233 54.818 48.799l28.488 1.37 11.586 20.218c30.13 12.897 63.248 20.157 98.026 20.455v-65.417l-21.939-31.125-20.559-7.95-4.934-28.218z" fill="#734a9b"/></g><g><path d="m162.56 120.88c-29.731 29.731-77.935 29.731-107.666 0s0-107.666 0-107.666 77.935-29.731 107.666 0 29.731 77.935 0 107.666z" fill="#df75a5"/></g><g><circle cx="127.417" cy="85.737" fill="#da2ea2" r="43.177"/></g><g><path d="m347.44 120.88c29.731 29.731 77.935 29.731 107.666 0s0-107.666 0-107.666-77.935-29.731-107.666 0-29.731 77.935 0 107.666z" fill="#df75a5"/></g><g><circle cx="382.583" cy="85.737" fill="#da2ea2" r="43.177"/></g><g><path d="m259.417 251.893v101.036c77.055 0 139.52-22.618 139.52-50.518s-62.465-50.518-139.52-50.518z" fill="#ecc32e"/></g><g><path d="m119.898 302.411c0 27.9 62.465 50.518 139.52 50.518v-101.036c-77.055 0-139.52 22.618-139.52 50.518z" fill="#e7a52e"/></g><g><path d="m405.981 199.794c0 87.069-67.582 122.509-150.949 122.509s-150.949-35.441-150.949-122.509 67.582-188.188 150.949-188.188 150.949 101.12 150.949 188.188z" fill="#df75a5"/></g><g><path d="m286.895 256.671h-66.791c-7.688 0-13.921-6.233-13.921-13.921 0-7.688 6.233-13.921 13.921-13.921h66.791c7.688 0 13.921 6.233 13.921 13.921 0 7.689-6.233 13.921-13.921 13.921z" fill="#da2ea2"/></g><g><path d="m286.895 248.038h-66.791c-7.688 0-13.921-6.233-13.921-13.921 0-7.688 6.233-13.921 13.921-13.921h66.791c7.688 0 13.921 6.233 13.921 13.921 0 7.689-6.233 13.921-13.921 13.921z" fill="#fff"/></g><g><ellipse cx="187.114" cy="87.795" fill="#da2ea2" rx="19.103" ry="26.339"/></g><g><ellipse cx="265.785" cy="149.08" fill="#da2ea2" rx="14.481" ry="24.129"/></g><g><ellipse cx="309.153" cy="85.737" fill="#da2ea2" rx="12.139" ry="19.523"/></g><g><ellipse cx="235.291" cy="38.654" fill="#da2ea2" rx="9.765" ry="14.547"/></g><g><ellipse cx="152.422" cy="143.723" fill="#da2ea2" rx="7.455" ry="11.133"/></g><g><ellipse cx="349.664" cy="141.341" fill="#da2ea2" rx="6.364" ry="8.751"/></g><g><g><ellipse cx="253.5" cy="136.935" fill="#da2ea2" rx="34.824" ry="43.66"/></g><g><circle cx="253.5" cy="126.501" fill="#fff" r="33.227"/></g><g><ellipse cx="253.5" cy="126.501" fill="#373c41" rx="10.174" ry="15.555"/></g></g><g><path d="m122.915 166.246c-20.414 0-36.962 16.549-36.962 36.963h73.925c-.001-20.414-16.55-36.963-36.963-36.963z" fill="#da2ea2"/></g><g><path d="m253.5 81.344c-20.414 0-36.962 16.549-36.962 36.963h73.925c-.001-20.414-16.55-36.963-36.963-36.963z" fill="#da2ea2"/></g><g><path d="m383.957 166.246c-20.414 0-36.962 16.549-36.962 36.963h73.925c-.001-20.414-16.549-36.963-36.963-36.963z" fill="#da2ea2"/></g><g><path d="m114.67 467.948c12.619 8.332 26.021 15.573 40.074 21.588l76.087-76.087-25.494-36.168z" fill="#242e7a"/></g><g><path d="m302.221 376.487-25.493 36.168 77.348 77.348c14.092-5.95 27.552-13.133 40.241-21.42z" fill="#5e3881"/></g><g><path d="m84.24 175.247c-3.582 0-6.485-2.903-6.485-6.485v-41.295c0-3.582 2.903-6.485 6.485-6.485s6.485 2.903 6.485 6.485v41.295c.001 3.582-2.903 6.485-6.485 6.485z" fill="#ecc32e"/></g><g><path d="m62.239 160.246c-3.582 0-6.485-2.903-6.485-6.485v-41.295c0-3.582 2.903-6.485 6.485-6.485s6.485 2.903 6.485 6.485v41.295c.001 3.582-2.903 6.485-6.485 6.485z" fill="#fff"/></g><g><path d="m425.76 175.247c-3.582 0-6.485-2.903-6.485-6.485v-41.295c0-3.582 2.903-6.485 6.485-6.485s6.485 2.903 6.485 6.485v41.295c0 3.582-2.903 6.485-6.485 6.485z" fill="#ecc32e"/></g><g><path d="m448.212 160.246c-3.582 0-6.485-2.903-6.485-6.485v-41.295c0-3.582 2.903-6.485 6.485-6.485s6.485 2.903 6.485 6.485v41.295c0 3.582-2.903 6.485-6.485 6.485z" fill="#fff"/></g></g></g></svg>