<svg id="Layer_1" enable-background="new 0 0 510 510" height="512" viewBox="0 0 510 510" width="512" xmlns="http://www.w3.org/2000/svg"><g><g><g><path d="m255 5.612c-97.051 0-156.835 54.743-157 54.835 0 0-2.486 3.102-2.95 5.165-3.776 16.762-7.304 39.227-7.304 55.62 0 139.283 117.456 252.166 256.739 252.166 53.634 0 113.307-25.706 153.244-56.613.893-.691 3.728-5.337 3.728-5.337.176-1.075 5.737-23.218 5.737-53.642 0-139.283-112.911-252.194-252.194-252.194z" fill="#b1e4f9"/></g><path d="m344.463 366.278c-139.283 0-252.194-112.911-252.194-252.194 0-18.41 1.985-36.348 5.731-53.637-58 46.206-95.194 117.44-95.194 197.359 0 58.495 19.915 112.338 53.334 155.12l52.971 50.618c2.791 1.983 5.625 3.91 8.498 5.781l273.408.857c3.345-2.145 6.636-4.367 9.871-6.664l52.973-50.588c22.838-29.227 39.409-63.696 47.596-101.482-43.08 34.313-97.637 54.83-156.994 54.83z" fill="#9dc6fb"/></g><g><g><g><path d="m127.973 191.507h-17.056c-11.223 0-20.321-9.098-20.321-20.321v-76.102c0-11.223 9.098-20.321 20.321-20.321h17.056z" fill="#373c41"/></g><g><path d="m382.027 191.507h17.056c11.223 0 20.321-9.098 20.321-20.321v-76.102c0-11.223-9.098-20.321-20.321-20.321h-17.056z" fill="#373c41"/></g></g><g><path d="m94.911 321.494h313.085v17.386h-313.085z" fill="#373c41"/></g><path d="m255 510c49.879 0 96.636-14.561 136.017-39.818v-75.426c0-4.072-3.371-7.211-7.443-7.195-.026 0-.051 0-.077 0-17.475 0-32.469-22.868-38.922-55.494-3.892-19.674-21.043-33.919-41.098-33.919h-98.326c-20.055 0-37.207 14.245-41.098 33.919-6.454 32.627-21.447 55.494-38.922 55.494-.026 0-.051 0-.077 0-4.072-.017-7.443 3.123-7.443 7.195v74.57c39.526 25.726 86.712 40.674 137.389 40.674z" fill="#634086"/><path d="m254.314 270.747v81.946c22.629 0 40.973-18.344 40.973-40.973s-18.345-40.973-40.973-40.973z" fill="#f1d333"/><path d="m213.341 311.72c0 22.629 18.344 40.973 40.973 40.973v-81.946c-22.629 0-40.973 18.344-40.973 40.973z" fill="#e7a52e"/><g><path d="m254.314 331.496c-13.706 0-24.818-11.111-24.818-24.818v-69.913h49.635v69.913c0 13.707-11.111 24.818-24.817 24.818z" fill="#da4a54"/></g><g><path d="m390.358 159.939h-272.094v-69.765c0-49.802 40.373-90.174 90.175-90.174h91.745c49.802 0 90.174 40.372 90.174 90.174z" fill="#da4a54"/></g><g><path d="m371.989 198.789h-235.35v-107.76c0-41.841 33.919-75.76 75.76-75.76h83.829c41.841 0 75.76 33.919 75.76 75.76v107.76z" fill="#634086"/></g><g><path d="m254.313 163.318c-39.354 0-71.372-32.017-71.372-71.371s32.017-71.372 71.372-71.372 71.372 32.018 71.372 71.372-32.017 71.371-71.372 71.371zm0-130.743c-32.738 0-59.372 26.634-59.372 59.372 0 32.737 26.634 59.371 59.372 59.371s59.372-26.634 59.372-59.371c0-32.739-26.634-59.372-59.372-59.372z" fill="#373c41"/></g><g><path d="m337.797 257.068h-166.967c-29.031 0-52.566-23.535-52.566-52.566v-41.03h272.099v41.03c0 29.031-23.535 52.566-52.566 52.566z" fill="#373c41"/></g><g><path d="m222.334 152.899h172.745v19.846h-172.745z" fill="#f1d333"/></g><g><path d="m113.549 152.899h111.022v19.846h-111.022z" fill="#e7a52e"/></g><g><path d="m352.683 210.269h-196.739c-10.662 0-19.306-8.644-19.306-19.306v-18.218h235.35v18.218c.001 10.663-8.643 19.306-19.305 19.306z" fill="#fff"/></g><g><path d="m184.424 197.459c-2.953 0-5.905-1.124-8.153-3.372l-5.477-5.477c-1.334-1.332-3.659-1.332-4.992 0l-2.976 2.976c-2.178 2.178-5.073 3.377-8.153 3.377h-18.036v-8h18.036c.943 0 1.83-.367 2.496-1.033l2.976-2.976c2.178-2.178 5.073-3.377 8.153-3.377s5.975 1.199 8.153 3.377l5.477 5.477c1.377 1.375 3.616 1.375 4.992 0l2.582-2.582c4.497-4.495 11.811-4.495 16.306-.001l.877.878c1.333 1.332 3.658 1.332 4.991 0 2.178-2.178 5.073-3.377 8.153-3.377h110.139c.942 0 1.829-.367 2.496-1.034l1.54-1.54c2.178-2.178 5.073-3.377 8.153-3.377s5.975 1.199 8.153 3.377l7.05 7.05c1.334 1.332 3.659 1.332 4.992 0l.32-.32c2.176-2.176 5.071-3.375 8.15-3.375h1.167v8h-1.167c-.942 0-1.829.367-2.496 1.034l-.32.32c-2.175 2.175-5.071 3.374-8.15 3.374s-5.975-1.199-8.153-3.377l-7.05-7.05c-1.377-1.375-3.616-1.375-4.992 0l-1.54 1.54c-2.178 2.179-5.074 3.378-8.153 3.378h-110.139c-.943 0-1.83.367-2.496 1.033-2.178 2.178-5.073 3.377-8.153 3.377s-5.975-1.199-8.153-3.377l-.877-.877c-1.376-1.375-3.615-1.375-4.992.001l-2.582 2.581c-2.247 2.248-5.2 3.372-8.152 3.372z" fill="#ff3c3c"/></g><g><g><g><circle cx="254.314" cy="91.947" fill="#373c41" r="46.15"/></g><g><circle cx="254.314" cy="91.947" fill="#f1d333" r="29.64"/></g><g><circle cx="254.314" cy="91.947" fill="#3c4646" r="9.494"/></g></g><g><circle cx="247.042" cy="84.111" fill="#fff" r="6.025"/></g></g><g fill="#373c41"><path d="m218.991 15.269h-6.592c-1.818 0-3.621.064-5.408.19v24.336h12z"/><path d="m301.636 15.459c-1.786-.126-3.589-.19-5.407-.19h-6.593v24.527h12z"/></g><g><path d="m293.708 479.482h-77.636c-20.181 0-36.54-16.36-36.54-36.54v-36.963c0-20.181 16.36-36.54 36.54-36.54h77.636c20.181 0 36.54 16.36 36.54 36.54v36.963c0 20.18-16.36 36.54-36.54 36.54z" fill="#373c41"/></g><g><path d="m293.708 485.482h-77.636c-23.457 0-42.541-19.083-42.541-42.54v-36.964c0-23.457 19.083-42.54 42.541-42.54h77.636c23.457 0 42.541 19.083 42.541 42.54v36.964c-.001 23.457-19.084 42.54-42.541 42.54zm-77.637-110.044c-16.84 0-30.541 13.7-30.541 30.54v36.964c0 16.84 13.7 30.54 30.541 30.54h77.636c16.84 0 30.541-13.7 30.541-30.54v-36.964c0-16.84-13.7-30.54-30.541-30.54z" fill="#f1d333"/></g><g><path d="m284.957 473.482h-68.886c-16.867 0-30.541-13.673-30.541-30.541v-36.963c0-16.867 13.673-30.54 30.54-30.54h18.244c3.314 0 6-2.686 6-6 0-3.314-2.686-6-6-6h-18.244c-23.494 0-42.54 19.046-42.54 42.54v36.964c0 23.494 19.046 42.54 42.54 42.54h68.886c3.314 0 6-2.686 6-6 .001-3.314-2.685-6-5.999-6z" fill="#e7a52e"/></g><g><g><path d="m72.326 334.065h17.456v73.344h-17.456z" fill="#373c41"/></g><g><circle cx="81.054" cy="330.187" fill="#da4a54" r="45.283"/></g><path d="m109.112 425.844c0-15.496-12.562-28.058-28.058-28.058-10.838 0-20.239 6.145-24.913 15.14 15.098 19.327 32.952 36.397 52.971 50.618z" fill="#634086"/><path d="m98.911 440.337v-36.135c-1.938-1.601-4.095-2.946-6.419-3.985-.961.731-1.581 1.886-1.581 3.186v36.935c0 2.705-.469 5.337-1.367 7.805 1.811 1.581 4.155 3.56 6.411 5.394 1.935-4.073 2.956-8.558 2.956-13.2z" fill="#373c41"/></g><g><g><path d="m420.218 334.065h17.456v73.344h-17.456z" fill="#373c41"/></g><g><circle cx="428.946" cy="330.187" fill="#da4a54" r="45.283"/></g><path d="m453.861 412.93c-4.673-8.997-14.076-15.143-24.915-15.143-15.496 0-28.058 12.562-28.058 28.058v37.674c19.994-14.195 37.856-31.244 52.973-50.589z" fill="#634086"/><path d="m419.089 440.337v-36.935c0-1.3-.621-2.455-1.581-3.186-2.324 1.039-4.481 2.384-6.419 3.985v36.135c0 4.636 1.018 9.116 2.949 13.184 2.167-1.762 4.305-3.559 6.413-5.391-.895-2.463-1.362-5.092-1.362-7.792z" fill="#373c41"/></g><g><path d="m200.556 435.555c-3.445 0-6.238-2.793-6.238-6.238v-9.715c0-3.445 2.793-6.238 6.238-6.238 3.445 0 6.238 2.793 6.238 6.238v9.715c-.001 3.445-2.793 6.238-6.238 6.238z" fill="#da4a54"/></g><g><path d="m222.334 419.977c-3.445 0-6.238-2.793-6.238-6.238v-9.715c0-3.445 2.793-6.238 6.238-6.238 3.445 0 6.238 2.793 6.238 6.238v9.715c-.001 3.446-2.794 6.238-6.238 6.238z" fill="#da4a54"/></g><g><path d="m244.111 447.808c-3.445 0-6.238-2.793-6.238-6.238v-9.715c0-3.445 2.793-6.238 6.238-6.238 3.445 0 6.238 2.793 6.238 6.238v9.715c0 3.446-2.793 6.238-6.238 6.238z" fill="#da4a54"/></g><g><path d="m265.889 435.555c-3.445 0-6.238-2.793-6.238-6.238v-9.715c0-3.445 2.793-6.238 6.238-6.238 3.445 0 6.238 2.793 6.238 6.238v9.715c-.001 3.445-2.793 6.238-6.238 6.238z" fill="#da4a54"/></g><g><path d="m287.666 417.175c-3.445 0-6.238-2.793-6.238-6.238v-9.715c0-3.445 2.793-6.238 6.238-6.238 3.445 0 6.238 2.793 6.238 6.238v9.715c0 3.446-2.793 6.238-6.238 6.238z" fill="#da4a54"/></g><g><path d="m309.444 442.168c-3.445 0-6.238-2.793-6.238-6.238v-9.715c0-3.445 2.793-6.238 6.238-6.238 3.445 0 6.238 2.793 6.238 6.238v9.715c0 3.445-2.793 6.238-6.238 6.238z" fill="#da4a54"/></g></g></g></svg>