<svg id="Layer_1" enable-background="new 0 0 511 511" height="512" viewBox="0 0 511 511" width="512" xmlns="http://www.w3.org/2000/svg"><g><g><g><g><path d="m255.5 12.557c-95.907 0-154.987 54.098-155.149 54.189 0 0-2.456 3.066-2.915 5.104-3.732 16.564-7.218 38.764-7.218 54.964 0 137.641 116.072 249.194 253.713 249.194 53.002 0 111.971-25.403 151.438-55.946.883-.683 3.684-5.274 3.684-5.274.174-1.062 5.669-22.945 5.669-53.009-.001-137.642-111.581-249.222-249.222-249.222z" fill="#ecc32e"/></g></g><path d="m343.909 368.972c-137.641 0-249.221-111.58-249.221-249.221 0-18.193 1.962-35.92 5.663-53.005-57.316 45.661-94.072 116.056-94.072 195.033 0 54.71 17.629 105.302 47.516 146.407l403.402.02c19.9-27.36 34.398-58.996 41.856-93.418-42.573 33.909-96.487 54.184-155.144 54.184z" fill="#e7a52e"/></g><path d="m401.667 362.448-146.481-32.414-145.902 32.383c-25.374 5.632-45.624 23.074-55.49 45.768 38.752 53.296 98.111 90.642 166.373 100.329l6.764-3.023 5.329 4.439c7.652.708 15.404 1.069 23.24 1.069 7.83 0 15.582-.363 23.24-1.074l5.891-4.269 6.203 2.848c67.922-9.67 127.461-46.815 166.362-100.299-9.875-22.699-30.142-40.139-55.529-45.757z" fill="#634086"/><g><g><path d="m125.621 378.046v21.62c0 37.8 30.643 68.442 68.442 68.442h127.597c37.8 0 68.442-30.643 68.442-68.442v-20.548c0-15.548-12.562-28.175-28.109-28.255l-207.971-1.072c-15.661-.081-28.401 12.593-28.401 28.255z" fill="#f1d333"/></g></g><g><g><path d="m255.186 324.504-105.402 25.287v39.535c0 30.893 25.044 55.937 55.937 55.937h104.283c30.893 0 55.937-25.044 55.937-55.937v-38.163z" fill="#9bd069"/></g></g><g><g><g><g><path d="m298.081 367.69c0 23.362-18.939 42.3-42.3 42.3-23.362 0-42.3-18.939-42.3-42.3v-94.746h84.601v94.746z" fill="#69b76b"/></g></g></g></g><g><g><g><g><g><path d="m174.491 93.306v169.245c0 44.534 35.819 80.979 80.352 81.317.312.002.625.004.937.004 66.325 0 120.093-53.767 120.093-120.093v-109.53c0-37.237-30.126-67.455-67.362-67.569l-86.982-.267c-25.955-.08-47.038 20.938-47.038 46.893z" fill="#9bd069"/></g></g></g></g><g><g><g><path d="m262.29 343.697c-50.49-14.663-87.397-61.257-87.397-116.477.3-6.823 0-80.687 0-105.804 0-38.603 31.294-69.897 69.897-69.897h87.233c-7.674-2.98-16.04-4.629-24.858-4.629h-102.769c-38.603 0-67.251 28.648-67.251 67.251l-2.646 71.725v36.678c0 33.292 13.68 65.12 37.835 88.03s56.663 34.887 89.908 33.126z" fill="#69b76b"/></g></g></g></g><g><g><g><g><g><g><path d="m206.2 176.446c0 5.524-4.478 10.002-10.002 10.002h-73.409c-5.524 0-10.002-4.478-10.002-10.002 0-5.524 4.478-10.002 10.002-10.002h73.409c5.524 0 10.002 4.478 10.002 10.002z" fill="#69b76b"/></g></g></g></g></g><g><g><g><g><g><path d="m400.385 176.446c0 5.524-4.478 10.002-10.002 10.002h-73.409c-5.524 0-10.002-4.478-10.002-10.002 0-5.524 4.478-10.002 10.002-10.002h73.409c5.523 0 10.002 4.478 10.002 10.002z" fill="#69b76b"/></g></g></g></g></g><g><g><g><g><g><path d="m206.2 168.071c0 5.524-4.478 10.002-10.002 10.002h-73.409c-5.524 0-10.002-4.478-10.002-10.002 0-5.524 4.478-10.002 10.002-10.002h73.409c5.524 0 10.002 4.478 10.002 10.002z" fill="#9bd069"/></g></g></g></g></g><g><g><g><g><g><path d="m400.385 168.071c0 5.524-4.478 10.002-10.002 10.002h-73.409c-5.524 0-10.002-4.478-10.002-10.002 0-5.524 4.478-10.002 10.002-10.002h73.409c5.523 0 10.002 4.478 10.002 10.002z" fill="#9bd069"/></g></g></g></g></g></g><g><g><path d="" fill="none" stroke="#696e73" stroke-miterlimit="10" stroke-width="11.06"/></g></g><g><g><path d="m268.891 302.89h-24.153c0-6.67 5.407-12.077 12.077-12.077s12.076 5.407 12.076 12.077z" fill="#69b76b"/></g></g><g><g><g><circle cx="140.08" cy="200.459" fill="#fff" r="25.541"/></g></g><g><g><path d="m114.78 214.967c1.696 12.461 12.373 22.066 25.3 22.066s23.603-9.605 25.3-22.066z" fill="#69b76b"/></g></g><g><g><ellipse cx="135.944" cy="200.459" fill="#373c41" rx="7.821" ry="11.957"/></g></g></g><g><g><g><circle cx="199.974" cy="200.459" fill="#fff" r="25.541"/></g></g><g><g><path d="m174.675 214.967c1.696 12.461 12.373 22.066 25.3 22.066s23.603-9.605 25.3-22.066z" fill="#69b76b"/></g></g><g><g><ellipse cx="195.838" cy="200.459" fill="#373c41" rx="7.821" ry="11.957"/></g></g></g><g><g><g><circle cx="370.095" cy="200.459" fill="#fff" r="25.541"/></g></g><g><g><path d="m395.394 214.967c-1.696 12.461-12.373 22.066-25.3 22.066s-23.603-9.605-25.3-22.066z" fill="#69b76b"/></g></g><g><g><ellipse cx="374.231" cy="200.459" fill="#373c41" rx="7.821" ry="11.957"/></g></g></g><g><g><g><circle cx="313.789" cy="200.459" fill="#fff" r="25.541"/></g></g><g><g><path d="m339.088 214.967c-1.696 12.461-12.373 22.066-25.3 22.066s-23.603-9.605-25.3-22.066z" fill="#69b76b"/></g></g><g><g><ellipse cx="317.925" cy="200.459" fill="#373c41" rx="7.821" ry="11.957"/></g></g></g><g><g><path d="m193.437 257.222h125.936c0 7.578-6.143 13.722-13.722 13.722h-98.493c-7.578 0-13.721-6.143-13.721-13.722z" fill="#fff"/></g></g><g><g><path d="m375.873 151.092h-241.463v-94.9c0-31.034 25.159-56.192 56.193-56.192h129.077c31.034 0 56.193 25.158 56.193 56.193z" fill="#fff"/></g></g><g><g><path d="m385.464 158.069h-259.843v-14.799c0-6.114 4.957-11.071 11.071-11.071h237.7c6.114 0 11.071 4.957 11.071 11.071v14.799z" fill="#373c41"/></g></g><g><g><path d="m220.126 118.352h-70.638v-65.431c0-20.351 16.498-36.849 36.849-36.849h64.125v71.945c-.001 16.754-13.583 30.335-30.336 30.335z" fill="#da4a54"/></g></g><g><g><path d="m290.137 118.352h70.638v-65.431c0-20.351-16.498-36.849-36.849-36.849h-64.125v71.945c.001 16.754 13.582 30.335 30.336 30.335z" fill="#da4a54"/></g></g><g><g><g><path d="m154.863 158.069h-14.799v-7.4c0-4.087 3.313-7.4 7.4-7.4 4.087 0 7.4 3.313 7.4 7.4v7.4z" fill="#f1d333"/></g></g><g><g><path d="m178.871 158.069h-14.799v-7.4c0-4.087 3.313-7.4 7.4-7.4 4.087 0 7.4 3.313 7.4 7.4v7.4z" fill="#f1d333"/></g></g><g><g><path d="m202.879 158.069h-14.799v-7.4c0-4.087 3.313-7.4 7.4-7.4 4.087 0 7.4 3.313 7.4 7.4v7.4z" fill="#f1d333"/></g></g><g><g><path d="m226.887 158.069h-14.799v-7.4c0-4.087 3.313-7.4 7.4-7.4 4.087 0 7.4 3.313 7.4 7.4v7.4z" fill="#f1d333"/></g></g><g><g><path d="m250.896 158.069h-14.799v-7.4c0-4.087 3.313-7.4 7.4-7.4 4.087 0 7.4 3.313 7.4 7.4v7.4z" fill="#f1d333"/></g></g><g><g><path d="m274.904 158.069h-14.799v-7.4c0-4.087 3.313-7.4 7.4-7.4 4.087 0 7.4 3.313 7.4 7.4v7.4z" fill="#f1d333"/></g></g><g><g><path d="m298.912 158.069h-14.799v-7.4c0-4.087 3.313-7.4 7.4-7.4 4.087 0 7.4 3.313 7.4 7.4v7.4z" fill="#f1d333"/></g></g><g><g><path d="m322.92 158.069h-14.799v-7.4c0-4.087 3.313-7.4 7.4-7.4 4.087 0 7.4 3.313 7.4 7.4v7.4z" fill="#f1d333"/></g></g><g><g><path d="m346.928 158.069h-14.799v-7.4c0-4.087 3.313-7.4 7.4-7.4 4.087 0 7.4 3.313 7.4 7.4v7.4z" fill="#f1d333"/></g></g><g><g><path d="m370.936 158.069h-14.799v-7.4c0-4.087 3.313-7.4 7.4-7.4 4.087 0 7.4 3.313 7.4 7.4v7.4z" fill="#f1d333"/></g></g></g><g><g><g><path d="m233.089 54.478h-7.973c0-5.833-4.745-10.578-10.578-10.578s-10.578 4.745-10.578 10.578h-7.973c0-10.229 8.322-18.551 18.551-18.551s18.551 8.323 18.551 18.551z" fill="#a51f6b"/></g></g><g><g><path d="m231.864 102.162-5.637-5.639c1.347-1.347 2.089-3.139 2.089-5.045 0-1.905-.742-3.697-2.09-5.046-2.781-2.781-7.308-2.782-10.091.001l-5.637-5.639c5.89-5.889 15.476-5.889 21.365 0 2.854 2.854 4.425 6.648 4.425 10.684.001 4.036-1.57 7.83-4.424 10.684z" fill="#a51f6b"/></g></g><g><g><path d="m182.868 108.778c-4.75 0-9.501-1.808-13.118-5.424l5.638-5.639c4.124 4.125 10.835 4.124 14.959.001 4.125-4.125 4.124-10.836 0-14.961l5.638-5.637c7.232 7.233 7.232 19.002 0 26.234-3.616 3.617-8.366 5.426-13.117 5.426z" fill="#a51f6b"/></g></g><g><g><path d="m182.374 76.091c-10.229 0-18.55-8.322-18.55-18.551s8.322-18.551 18.55-18.551v7.973c-5.833 0-10.578 4.745-10.578 10.578s4.745 10.578 10.578 10.578z" fill="#a51f6b"/></g></g><g><g><path d="m228.728 26.124h9.957v7.972h-9.957z" fill="#a51f6b" transform="matrix(.703 -.712 .712 .703 48.099 175.283)"/></g></g><g><g><path d="m157.779 84.236h11.745v7.972h-11.745z" fill="#a51f6b" transform="matrix(.708 -.706 .706 .708 -14.519 141.327)"/></g></g><g><g><path d="m184.745 25.987h7.973v8.246h-7.973z" fill="#a51f6b" transform="matrix(.859 -.511 .511 .859 11.158 100.778)"/></g></g></g><g><g><g><path d="m311.501 54.478h-7.973c0-5.833-4.745-10.578-10.578-10.578s-10.578 4.745-10.578 10.578h-7.972c0-10.229 8.322-18.551 18.551-18.551s18.55 8.323 18.55 18.551z" fill="#a51f6b"/></g></g><g><g><path d="m275.626 102.162c-2.854-2.854-4.425-6.647-4.425-10.684 0-4.035 1.571-7.829 4.425-10.683 5.89-5.892 15.476-5.89 21.366-.001l-5.637 5.639c-2.782-2.783-7.31-2.783-10.092 0-1.347 1.348-2.089 3.14-2.089 5.045 0 1.906.742 3.698 2.089 5.045z" fill="#a51f6b"/></g></g><g><g><path d="m324.621 108.778c-4.75 0-9.5-1.808-13.117-5.425-3.504-3.503-5.434-8.162-5.434-13.117s1.93-9.613 5.434-13.117l5.638 5.637c-1.998 1.999-3.099 4.655-3.099 7.48 0 2.826 1.101 5.482 3.098 7.479 4.126 4.127 10.836 4.124 14.959.001l5.638 5.637c-3.616 3.617-8.366 5.425-13.117 5.425z" fill="#a51f6b"/></g></g><g><g><path d="m325.115 76.091v-7.973c5.833 0 10.578-4.745 10.578-10.578s-4.745-10.578-10.578-10.578v-7.972c10.229 0 18.551 8.322 18.551 18.551s-8.322 18.55-18.551 18.55z" fill="#a51f6b"/></g></g><g><g><path d="m269.797 25.131h7.972v9.957h-7.972z" fill="#a51f6b" transform="matrix(.712 -.702 .702 .712 57.768 200.993)"/></g></g><g><g><path d="m339.852 82.35h7.972v11.745h-7.972z" fill="#a51f6b" transform="matrix(.706 -.708 .708 .706 38.581 269.401)"/></g></g><g><g><path d="m314.634 26.124h8.246v7.973h-8.246z" fill="#a51f6b" transform="matrix(.511 -.859 .859 .511 129.834 288.607)"/></g></g></g><g><g><g><path d="m226.931 387.976h-67.844c0-10.018 8.121-18.139 18.139-18.139h49.705z" fill="#69b76b"/></g></g><g><g><path d="m288.07 387.976h67.844c0-10.018-8.121-18.139-18.139-18.139h-49.705z" fill="#69b76b"/></g></g></g><g><path d="m443.357 371.398c-2.84-1.686-6.508-.75-8.194 2.089l-44.688 75.277c-2.668 4.495-7.124 7.729-12.224 8.872l-74.335 16.673c-12.4 2.781-22.002 13.094-23.893 25.66l-1.258 8.365c-.081.54-.087 1.074-.026 1.591 4.059-.377 8.091-.851 12.094-1.421l1.016-6.756c1.162-7.724 7.062-14.061 14.684-15.771l74.334-16.672c8.299-1.861 15.549-7.123 19.891-14.437l44.688-75.277c1.687-2.838.751-6.507-2.089-8.193z" fill="#373c41"/></g><g><path d="m230.976 499.969c-1.891-12.566-11.492-22.879-23.893-25.659l-74.335-16.674c-5.1-1.144-9.555-4.377-12.224-8.872l-44.688-75.277c-1.685-2.838-5.354-3.775-8.194-2.089s-3.775 5.354-2.089 8.194l44.688 75.277c4.341 7.313 11.591 12.575 19.89 14.436l74.335 16.673c7.621 1.71 13.522 8.047 14.684 15.771l1.018 6.766c4.001.568 8.033 1.041 12.092 1.416.061-.519.056-1.054-.026-1.596z" fill="#373c41"/></g></g></svg>