<svg id="Layer_1" enable-background="new 0 0 511 511" height="512" viewBox="0 0 511 511" width="512" xmlns="http://www.w3.org/2000/svg"><g><g><path d="m255.5 27.089c-93.111 0-150.468 52.52-150.626 52.609 0 0-2.385 2.976-2.83 4.955-3.623 16.081-7.007 37.634-7.007 53.361 0 133.628 112.688 241.929 246.316 241.929 51.457 0 108.707-24.662 147.023-54.315.857-.663 3.577-5.12 3.577-5.12.169-1.031 5.504-22.276 5.504-51.464-.002-133.628-108.329-241.955-241.957-241.955z" fill="#9bd069"/><path d="m341.331 373.113c-133.628 0-241.955-108.327-241.955-241.955 0-17.663 1.905-34.873 5.498-51.459-55.645 44.33-91.33 112.672-91.33 189.346 0 60.285 22.048 115.421 58.52 157.784l366.873.001c25.713-29.851 44.308-66.13 53.015-106.321-41.331 32.92-93.674 52.604-150.621 52.604z" fill="#6ec186"/></g><g><g><path d="m72.064 426.828c14.128 16.41 30.42 30.903 48.434 43.036v-78.83c-22.803.001-42.086 15.071-48.434 35.794z" fill="#2896ff"/><path d="m438.936 426.829c-6.347-20.724-25.631-35.794-48.434-35.794v78.802c17.991-12.111 34.289-26.587 48.434-43.008z" fill="#2896ff"/><path d="m255.5 511c49.771 0 96.302-15.111 135.002-41.163v-50.553c0-26.209-16.736-48.896-40.248-54.559l-94.957-22.87-94.582 22.849c-23.496 5.676-40.216 28.356-40.216 54.552v50.61c38.561 25.973 85.01 41.134 135.001 41.134z" fill="#8659b9"/></g><path d="m257.508 353.065-171.396 22.72c0 51.873 27.716 109.305 93.924 109.305h153.18c63.933 0 93.924-57.432 93.924-109.305z" fill="#634086"/><path d="m427.141 374.035-169.694-37.551-171.335 38.028c0 51.873 42.051 93.924 93.924 93.924h153.18c51.873 0 93.924-42.051 93.924-93.924v-.477z" fill="#373c41"/><g fill="#202528"><path d="m253.614 337.335-167.502 37.177c0 51.873 42.051 93.924 93.924 93.924h73.577v-131.101z"/><path d="m148.508 369.534h210.066v15.748h-210.066z"/><ellipse cx="253.541" cy="385.283" rx="105.033" ry="38.031"/></g><path d="m253.541 331.503-9.096 43.916 9.096 32.147c58.008 0 105.033-17.027 105.033-38.031 0-21.005-47.025-38.032-105.033-38.032z" fill="#f1d333"/><path d="m148.508 369.534c0 21.004 47.025 38.031 105.033 38.031v-76.062c-58.008 0-105.033 17.027-105.033 38.031z" fill="#e7a52e"/><ellipse cx="252.683" cy="357.493" fill="#d80a61" rx="53.698" ry="15.638"/><path d="m139.903 142.16c0-101.034 50.877-142.16 113.638-142.16s113.638 41.126 113.638 142.16-50.877 218.374-113.638 218.374-113.638-117.339-113.638-218.374z" fill="#da4a54"/><circle cx="192.869" cy="261.75" fill="#a51f6b" r="20.348"/><circle cx="313.844" cy="261.75" fill="#a51f6b" r="20.348"/><g><g><circle cx="198.507" cy="258.413" fill="#fff" r="12.719"/><ellipse cx="199.752" cy="258.413" fill="#373c41" rx="3.895" ry="5.954"/></g><g><circle cx="308.543" cy="258.413" fill="#fff" r="12.719"/><ellipse cx="307.298" cy="258.413" fill="#373c41" rx="3.895" ry="5.954"/></g></g><g><path d="m362.736 195.845c2.047-12.682 3.422-25.471 4.051-38.115-20.242 6.835-62.909 11.544-112.271 11.544-51.039 0-94.92-5.035-114.255-12.248.604 12.704 1.963 25.559 4.003 38.309 28.841 7.361 67.614 11.869 110.252 11.869 41.644 0 79.602-4.3 108.22-11.359z" fill="#d80a61"/></g><path d="m254.516 102.308c-89.084 0-161.301 19.676-161.301 43.947s72.217 43.947 161.301 43.947 161.301-19.676 161.301-43.947-72.217-43.947-161.301-43.947zm0 49.965c-68.92 0-124.791-9.182-124.791-20.508s55.871-20.508 124.791-20.508 124.791 9.182 124.791 20.508c0 11.327-55.871 20.508-124.791 20.508z" fill="#fff"/><path d="m254.604 152.273c-.03 0-.059 0-.088 0-68.92 0-124.791-9.182-124.791-20.508s55.871-20.508 124.791-20.508h.088v-8.949c-.03 0-.059 0-.088 0-89.084 0-161.301 19.676-161.301 43.947s72.217 43.948 161.301 43.948h.088z" fill="#d2f0ff"/><path d="m367.041 133.276c-2.913-94.565-52.613-133.276-113.5-133.276s-110.587 38.711-113.5 133.276z" fill="#da4a54"/><g fill="#a51f6b"><circle cx="255.5" cy="31.09" r="13.415"/><circle cx="211.749" cy="45.214" r="11.813"/><circle cx="236.01" cy="74.84" r="6.074"/><circle cx="185.645" cy="77.435" r="8.669"/><circle cx="299.136" cy="45.214" r="11.813"/><circle cx="274.875" cy="74.84" r="6.074"/><circle cx="302.343" cy="102.308" r="6.074"/><circle cx="211.749" cy="102.308" r="6.074"/><circle cx="325.24" cy="77.435" r="8.669"/></g><path d="m271.111 315.289h-31.337c-10.538 0-19.081-8.543-19.081-19.081v-7l32.831 3.307 36.669-3.307v7c-.001 10.538-8.544 19.081-19.082 19.081z" fill="#d80a61"/><path d="m271.111 308.289h-31.337c-10.538 0-19.081-8.543-19.081-19.081h69.5c-.001 10.538-8.544 19.081-19.082 19.081z" fill="#fff"/></g></g></svg>