<svg id="Layer_1" enable-background="new 0 0 510 510" height="512" viewBox="0 0 510 510" width="512" xmlns="http://www.w3.org/2000/svg"><g><g><path d="m255 10.897c-96.034 0-155.192 54.169-155.355 54.261 0 0-2.46 3.07-2.919 5.111-3.737 16.586-7.228 38.816-7.228 55.037 0 137.824 116.226 249.524 254.049 249.524 53.073 0 112.12-25.437 151.639-56.02.884-.684 3.689-5.281 3.689-5.281.174-1.063 5.677-22.975 5.677-53.08 0-137.824-111.728-249.552-249.552-249.552z" fill="#b1e4f9"/><path d="m343.526 367.784c-137.823 0-249.552-111.728-249.552-249.552 0-18.217 1.965-35.967 5.671-53.075-57.392 45.722-94.197 116.21-94.197 195.291 0 48.484 13.826 93.738 37.751 132.036l423.603.004c14.895-23.849 25.896-50.45 32.073-78.96-42.628 33.954-96.614 54.256-155.349 54.256z" fill="#9dc6fb"/></g><g><g><g><path d="m313.229 94.765c-2.259-.454 36.172-82 68.758-75.488s24.053 94.151-68.758 75.488z" fill="#f1d333"/><path d="m332.628 96.026c-1.234-.016 31.384-55.185 48.778-51.44s-.518 52.056-48.778 51.44z" fill="#e7a52e"/></g><g><path d="m196.771 94.765c2.259-.454-36.172-82-68.758-75.488s-24.053 94.151 68.758 75.488z" fill="#f1d333"/><path d="m177.372 96.026c1.234-.016-31.384-55.185-48.778-51.44s.518 52.056 48.778 51.44z" fill="#e7a52e"/></g></g><g><path d="m357.126 313.61c.316-65.951.481-72.157.481-78.588 0-108.737-45.939-235.022-102.607-235.022s-102.607 126.285-102.607 235.022c0 6.431.164 12.637.481 78.588z" fill="#f1d333"/></g><path d="m152.869 312.657c.132 27.441.291 65.358.476 118.187h203.31c.185-52.829.344-90.745.476-118.187z" fill="#e7a52e"/><path d="m225.817 324.992c.09 20.201.194 61.647.313 116.492h151.025c.119-54.845.223-96.291.313-116.492z" fill="#fff"/><path d="m132.533 324.992c.056 20.201.121 61.647.196 116.492h94.545c.074-54.845.14-96.291.196-116.492z" fill="#d2f0ff"/><g><path d="m286.651 223.117h-63.301c-11.538 0-20.892-9.354-20.892-20.892 0-11.538 9.354-20.892 20.892-20.892h63.301c11.538 0 20.892 9.354 20.892 20.892 0 11.538-9.354 20.892-20.892 20.892z" fill="#e7a52e"/><path d="m285.609 189.465h-61.218c-6.514 0-11.889 4.882-12.664 11.187l.914 6.557c1.941 4.57 6.471 7.775 11.749 7.775h61.218c5.278 0 9.808-3.205 11.749-7.775l.914-6.557c-.773-6.305-6.148-11.187-12.662-11.187z" fill="#fff"/><path d="m282.402 203.062-9.134-9.134-9.134 9.134-9.134-9.134-9.134 9.134-9.134-9.134-9.134 9.134-9.134-9.134-6.726 6.726c-.063.516-.107 1.038-.107 1.571 0 1.769.361 3.453 1.011 4.984l5.821-5.821 9.134 9.134 9.134-9.134 9.134 9.134 9.134-9.134 9.134 9.134 9.134-9.134 9.134 9.134 9.135-9.134 5.821 5.821c.651-1.531 1.011-3.215 1.011-4.984 0-.533-.043-1.056-.107-1.572l-6.725-6.725z" fill="#11113f"/></g><g><path d="m256.295 416.782-141.331-41.752 1.134 92.771c39.705 26.651 87.488 42.199 138.902 42.199 51.194 0 99.064-15.501 138.914-42.236l4.274-92.705z" fill="#453d81"/><path d="m333.912 374.305c0 41.492 24.595 77.24 60.001 93.459 4.104-2.753 8.122-5.625 12.05-8.612l13.95-84.848h-86.001z" fill="#11113f"/><path d="m90.087 374.305 13.927 84.854c3.938 2.997 7.967 5.879 12.083 8.642 35.449-16.202 60.081-51.972 60.081-93.496z" fill="#11113f"/><path d="m43.2 392.484c16.085 25.747 36.734 48.35 60.814 66.675 43.4-12.019 75.261-51.802 75.261-99.028h-89.188c-21.426 0-39.713 13.442-46.887 32.353z" fill="#da2ea2"/><path d="m48.259 400.255c14.114 20.831 31.293 39.415 50.89 55.105 26.826-11.924 45.532-38.804 45.532-70.054h-66.514c-12.229 0-23.087 5.872-29.908 14.949z" fill="#d80a61"/><path d="m419.913 360.131h-89.188c0 47.217 31.85 86.995 75.239 99.022 24.053-18.287 44.724-40.865 60.838-66.665-7.173-18.913-25.461-32.357-46.889-32.357z" fill="#da2ea2"/><path d="m461.744 400.259c-6.821-9.08-17.679-14.952-29.91-14.952h-66.513c0 31.243 18.699 58.118 45.516 70.045 19.578-15.662 36.771-34.23 50.907-55.093z" fill="#d80a61"/></g><g><path d="m246.279 354.214-51.291 88.839c-4.188 7.254 1.047 16.321 9.423 16.321h102.582c8.376 0 13.611-9.067 9.423-16.321l-51.291-88.839c-4.188-7.254-14.658-7.254-18.846 0z" fill="#b1e4f9"/><path d="m250.258 377.745-32.902 56.989c-2.42 4.191.605 9.43 5.444 9.43h65.805c4.839 0 7.864-5.239 5.444-9.43l-32.902-56.989c-2.42-4.191-8.469-4.191-10.889 0z" fill="#da2ea2"/></g><g fill="#e7a52e"><path d="m259.112 100.121c29.645-17.789 18.271-71.952 11.045-97.088-2.442-.977-4.912-1.733-7.408-2.241 6.51 21.506 20.271 77.488-6.944 93.819-15.444 9.267-38.162 10.596-60.131 11.879-8.456.494-16.767.984-24.438 1.945-.675 2.231-1.33 4.485-1.974 6.753 8.17-1.191 17.382-1.734 26.788-2.284 22.743-1.327 46.262-2.702 63.062-12.783z"/><path d="m282.392 146.433c9.482 14.664 20.436 25.835 30.101 35.691 19.548 19.935 32.462 33.105 18.598 58.523-8.093 14.838-21.33 23.717-34.133 32.304-16.945 11.366-34.468 23.121-37.157 48.25l6.39.684c2.369-22.148 17.188-32.089 34.347-43.599 13.444-9.017 27.347-18.343 36.194-34.563 16.143-29.596.347-45.704-19.652-66.098-9.451-9.639-20.164-20.564-29.292-34.682-21.458-33.185 12.038-77.616 26.367-94.13-1.129-2.006-2.275-3.961-3.437-5.868-5.56 6.222-14.849 17.497-22.698 31.295-16.014 28.156-17.96 53.12-5.628 72.193z"/><path d="m205.786 250.272c16.188 6.077 6.646 54.065 2.028 70.398l6.183 1.75c1.988-7.025 18.716-68.902-5.952-78.163-10.438-3.918-25.987 1.329-46.227 15.591-3.245 2.287-6.341 4.616-9.2 6.861.016 2.493.033 5.205.051 8.161 16.416-13.403 40.318-29.408 53.117-24.598z"/></g><g><ellipse cx="169.534" cy="172.969" fill="#634086" rx="30.034" ry="48.479"/><ellipse cx="340.466" cy="172.969" fill="#634086" rx="30.034" ry="48.479"/><g><circle cx="165.117" cy="182.19" fill="#fff" r="20.5"/><ellipse cx="157.486" cy="182.19" fill="#11113f" rx="6.277" ry="9.597"/></g><g><circle cx="342.472" cy="182.19" fill="#fff" r="20.5"/><ellipse cx="351.088" cy="182.19" fill="#11113f" rx="6.277" ry="9.597"/></g></g></g></g></svg>