<svg id="Layer_1" enable-background="new 0 0 510 510" height="512" viewBox="0 0 510 510" width="512" xmlns="http://www.w3.org/2000/svg"><g><g><g><path d="m255 0c-98.131 0-158.58 55.352-158.747 55.445 0 0-2.513 3.137-2.983 5.222-3.818 16.948-7.385 39.663-7.385 56.238 0 140.833 118.763 254.972 259.596 254.972 54.231 0 114.568-25.992 154.949-57.243.903-.699 3.769-5.396 3.769-5.396.178-1.087 5.8-23.477 5.8-54.239.001-140.832-114.166-254.999-254.999-254.999z" fill="#b1e4f9"/></g><path d="m345.459 364.679c-140.833 0-255-114.167-255-255 0-18.615 2.007-36.753 5.795-54.234-58.645 46.72-96.254 118.747-96.254 199.555 0 74.817 32.221 142.109 83.544 188.756l13.869.461 7.326 16.831c2.334 1.705 4.698 3.371 7.091 4.998l286.336-.025c2.394-1.626 4.76-3.292 7.095-4.998l10.311-11.852 10.312-4.91c38.725-34.958 66.769-81.727 78.315-135.023-43.559 34.696-98.723 55.441-158.74 55.441z" fill="#9dc6fb"/></g><g><g><g><path d="m219.598 125.667h-14v-20.045c0-4.036-3.283-7.319-7.318-7.319h-76.766c-11.755 0-21.318-9.563-21.318-21.318v-10.203h14v10.203c0 4.035 3.283 7.318 7.318 7.318h76.766c11.755 0 21.318 9.563 21.318 21.319z" fill="#373c41"/></g><g><path d="m304.402 125.667h-14v-20.045c0-11.756 9.563-21.319 21.318-21.319h76.766c4.035 0 7.318-3.283 7.318-7.318v-10.203h14v10.203c0 11.755-9.563 21.318-21.318 21.318h-76.766c-4.035 0-7.318 3.283-7.318 7.319z" fill="#373c41"/></g></g><g fill="#373c41"><path d="m425.884 444.261v-31.104h-20.623v47.865c7.163-5.229 14.047-10.825 20.623-16.761z"/><path d="m84.116 444.274c6.573 5.938 13.456 11.538 20.623 16.773v-47.891h-20.623z"/></g><g><path d="m434.553 417.748h-359.106c-9.777 0-17.703-7.926-17.703-17.703v-29.34c0-9.777 7.926-17.703 17.703-17.703h359.106c9.777 0 17.703 7.926 17.703 17.703v29.34c0 9.777-7.926 17.703-17.703 17.703z" fill="#f1d333"/></g><path d="m175.017 417.679c-9.777 0-17.703-7.926-17.703-17.703v-29.34c0-9.248 7.092-16.84 16.133-17.634h-98c-9.777 0-17.703 7.926-17.703 17.703v29.34c0 9.777 7.926 17.703 17.703 17.703z" fill="#e7a52e"/><g><path d="m450.347 213.09h-390.694c-7.967 0-14.425-6.458-14.425-14.425v-40.485c0-7.967 6.458-14.425 14.425-14.425h390.693c7.967 0 14.425 6.458 14.425 14.425v40.484c.001 7.967-6.457 14.426-14.424 14.426z" fill="#373c41"/></g><g><circle cx="255" cy="371.65" fill="#634086" r="36.307"/></g><g><path d="m255 389.174c-12.145 0-21.991-9.846-21.991-21.991v-133.805h43.983v133.804c-.001 12.146-9.847 21.992-21.992 21.992z" fill="#373c41"/></g><g><path d="m263.75 335.968h-17.5c-12.145 0-21.991-9.846-21.991-21.991v-96.57h61.482v96.57c0 12.145-9.846 21.991-21.991 21.991z" fill="#634086"/></g><g><path d="m263.75 276.688h-17.5c-12.145 0-21.991-9.846-21.991-21.991v-96.57h61.482v96.57c0 12.145-9.846 21.991-21.991 21.991z" fill="#453d81"/></g><g><path d="m393.512 249.35h-277.024c-28.8 0-52.146-23.347-52.146-52.146v-35.076c0-28.8 23.347-52.146 52.146-52.146h277.025c28.8 0 52.146 23.347 52.146 52.146v35.076c0 28.799-23.347 52.146-52.147 52.146z" fill="#f1d333"/></g><path d="m153.347 197.204v-35.076c0-28.8 23.347-52.146 52.146-52.146h-89.006c-28.8 0-52.146 23.347-52.146 52.146v35.076c0 28.8 23.347 52.146 52.146 52.146h89.006c-28.799 0-52.146-23.347-52.146-52.146z" fill="#ecc32e"/><g><path d="m399.113 219.928h-288.226c-32.603 0-59.126-26.523-59.126-59.125h12c0 25.984 21.141 47.125 47.126 47.125h288.227c25.985 0 47.126-21.141 47.126-47.125h12c-.001 32.602-26.524 59.125-59.127 59.125z" fill="#373c41"/></g><g><g><g><path d="m105.23 80.928h-6.079c-14.504 0-26.262-11.758-26.262-26.262v-28.404c0-14.504 11.757-26.262 26.262-26.262h6.079c14.504 0 26.262 11.758 26.262 26.262v28.404c0 14.505-11.758 26.262-26.262 26.262z" fill="#da2ea2"/></g><g><path d="m103.163 58.185h-1.945c-4.642 0-8.404-3.763-8.404-8.404v-18.633c0-4.642 3.763-8.404 8.404-8.404h1.945c4.642 0 8.404 3.763 8.404 8.404v18.633c0 4.642-3.763 8.404-8.404 8.404z" fill="#373c41"/></g><g><path d="m72.889 34.464h58.604v12h-58.604z" fill="#373c41"/></g></g><g><g><path d="m410.849 80.928h-6.079c-14.504 0-26.262-11.758-26.262-26.262v-28.404c0-14.504 11.758-26.262 26.262-26.262h6.079c14.504 0 26.262 11.758 26.262 26.262v28.404c0 14.505-11.757 26.262-26.262 26.262z" fill="#da2ea2"/></g><g><path d="m408.782 58.185h-1.945c-4.642 0-8.404-3.763-8.404-8.404v-18.633c0-4.642 3.763-8.404 8.404-8.404h1.945c4.642 0 8.404 3.763 8.404 8.404v18.633c.001 4.642-3.762 8.404-8.404 8.404z" fill="#373c41"/></g><g><path d="m378.508 34.464h58.604v12h-58.604z" fill="#373c41"/></g></g></g><g><path d="m388.231 460.252v-30.802c0-20.85-16.902-37.751-37.751-37.751h-30.541c-9.193 0-18.069 3.361-24.951 9.455-10.647 9.429-24.648 15.156-39.989 15.156s-29.342-5.727-39.989-15.156c-6.882-6.095-15.758-9.455-24.951-9.455h-30.905c-20.849 0-37.751 16.902-37.751 37.751v30.802z" fill="#373c41"/></g><path d="m383.884 454.262h-257.768c-7.089 0-12.994 5.071-14.286 11.783 40.815 27.743 90.099 43.955 143.17 43.955 52.835 0 102.204-16.158 143.165-43.981-1.302-6.699-7.201-11.757-14.281-11.757z" fill="#634086"/><g><path d="m394.367 199.06h-278.734v-25.073c0-11.66 9.453-21.113 21.113-21.113h236.508c11.66 0 21.113 9.453 21.113 21.113z" fill="#fff"/></g><g><path d="m375.411 258.907h-240.822c-10.469 0-18.956-8.487-18.956-18.956v-47.12c0-11.66 9.453-21.113 21.113-21.113h236.508c11.66 0 21.113 9.453 21.113 21.113v47.12c0 10.469-8.487 18.956-18.956 18.956z" fill="#e7a52e"/></g><path d="m184.638 239.951v-47.12c0-11.66 9.452-21.113 21.113-21.113h-69.004c-11.66 0-21.113 9.453-21.113 21.113v47.12c0 10.469 8.487 18.956 18.956 18.956h69.004c-10.469 0-18.956-8.487-18.956-18.956z" fill="#e28424"/><g><path d="m324.481 485.01h-138.962c-10.353 0-18.747-8.393-18.747-18.747 0-10.353 8.393-18.747 18.747-18.747h138.961c10.353 0 18.747 8.393 18.747 18.747 0 10.353-8.393 18.747-18.746 18.747z" fill="#453d81"/></g><g><path d="m324.481 473.009h-138.962c-10.353 0-18.747-8.393-18.747-18.747 0-10.353 8.393-18.747 18.747-18.747h138.961c10.353 0 18.747 8.393 18.747 18.747 0 10.354-8.393 18.747-18.746 18.747z" fill="#e7a52e"/></g><g><path d="m322.31 461.262h-136.679c-3.866 0-7-3.134-7-7s3.134-7 7-7h136.679c3.866 0 7 3.134 7 7s-3.134 7-7 7z" fill="#fff"/></g></g></g></svg>