<svg id="Layer_1" enable-background="new 0 0 510 510" height="512" viewBox="0 0 510 510" width="512" xmlns="http://www.w3.org/2000/svg"><g><g><g><path d="m255 0c-98.131 0-158.58 55.352-158.747 55.445 0 0-2.513 3.137-2.983 5.222-3.818 16.948-7.385 39.663-7.385 56.238 0 140.833 118.763 254.972 259.596 254.972 54.231 0 114.568-25.992 154.949-57.243.903-.699 3.769-5.396 3.769-5.396.178-1.087 5.8-23.477 5.8-54.239.001-140.832-114.166-254.999-254.999-254.999z" fill="#da4a54"/></g><g><path d="m345.459 364.679c-140.833 0-255-114.167-255-255 0-18.615 2.008-36.753 5.795-54.234-58.645 46.721-96.254 118.747-96.254 199.555 0 47.137 12.79 91.287 35.088 129.168l437.098 4.531c14.835-24.054 25.807-50.815 32.013-79.461-43.559 34.696-98.724 55.441-158.74 55.441z" fill="#d80a61"/></g></g><g><g><g><path d="m307.84 0h-37.112c-39.761 0-71.994 32.233-71.994 71.994v249.181h139.029c26.772 0 48.475-21.703 48.475-48.475v-194.303c-.001-43.297-35.101-78.397-78.398-78.397z" fill="#fff"/></g><g><path d="m200.266 272.7v-194.303c0-43.297 35.1-78.397 78.397-78.397h-86.005c-43.298 0-78.397 35.1-78.397 78.397v194.303c0 26.772 21.703 48.475 48.475 48.475h86.005c-26.772 0-48.475-21.703-48.475-48.475z" fill="#afe6ff"/></g><g><path d="m358.52 357.999h-176.652c-32.396.015-32.414-.104-36.471.25-39.323 2.9-70.904 33.637-75.075 72.59 46.448 48.767 112.013 79.161 184.678 79.161 68.688 0 131.519-27.308 177.631-72.055z" fill="#f1d333"/></g><g><path d="m251.417 371s-107.364-1.321-111.421-.968l-63.129 67.435c45.17 44.104 106.654 71.574 174.55 72.509v-1.803c0-29.995 24.316-54.311 54.311-54.311 27.948 0 50.604-22.656 50.604-50.604v-32.258z" fill="#e7a52e"/></g><g><path d="m356.333 357.999h-174.465c-17.793.008-25.81-.024-30.103.004v32.253c0 27.948 22.656 50.604 50.604 50.604h103.359c27.948 0 50.604-22.656 50.604-50.604v-32.257z" fill="#634086"/></g><g><path d="m325.561 385.582h-148.25c-8.588 0-15.55-6.962-15.55-15.55h179.35c0 8.588-6.962 15.55-15.55 15.55z" fill="#453d81"/></g><g><g><g><path d="m218.891 289.801h72.217v61.446h-72.217z" fill="#453d81"/></g></g></g><g><g><g><path d="m359.45 111.019c-.255-25.71-20.726-40.894-46.437-40.894l-136.313 8.917v176.648c0 40.019 48.075 67.646 71.524 70.618.278.035 18 1.285 20.111.981 52.326-8.856 92.178-54.395 92.178-109.242z" fill="#634086"/></g></g></g><g><g><g><path d="m386.237 178.719c0 14.207-11.517 25.724-25.724 25.724v-65.214c14.207 0 25.724 11.517 25.724 25.724z" fill="#634086"/></g></g></g><g><g><g><path d="m114.272 178.719c0 14.207 11.517 25.724 25.724 25.724v-65.214c-14.207 0-25.724 11.517-25.724 25.724z" fill="#634086"/></g></g></g><g><g><g><path d="m203.393 176.743v9.424c0 5.046 4.092 9.138 9.138 9.138s9.138-4.092 9.138-9.138v-9.424z" fill="#453d81"/></g></g></g><g><g><g><path d="m278.02 176.743v9.424c0 5.046 4.092 9.138 9.138 9.138 5.047 0 9.138-4.092 9.138-9.138v-9.424z" fill="#453d81"/></g></g></g><g><g><g><path d="m212.531 187.69c-5.046 0-9.138-4.092-9.138-9.138v-6.739l3.668-5.51-3.668-5.51v-7.232c0-5.046 4.092-9.138 9.138-9.138s9.138 4.092 9.138 9.138v24.992c0 5.045-4.091 9.137-9.138 9.137z" fill="#373c41"/></g></g></g><g><g><g><path d="m287.158 187.69c-5.046 0-9.138-4.092-9.138-9.138v-8.549l3.668-5.51-3.668-5.51v-5.422c0-5.046 4.092-9.138 9.138-9.138s9.138 4.092 9.138 9.138v24.992c0 5.045-4.092 9.137-9.138 9.137z" fill="#373c41"/></g></g></g><g><g><g><g><path d="m224.57 139.853h-26.649c-5.047 0-9.138-4.091-9.138-9.138 0-5.047 4.091-9.138 9.138-9.138h26.649c5.047 0 9.138 4.091 9.138 9.138 0 5.047-4.091 9.138-9.138 9.138z" fill="#fff"/></g></g></g></g><g><g><g><g><path d="m300.72 139.853h-26.649c-5.047 0-9.138-4.091-9.138-9.138 0-5.047 4.091-9.138 9.138-9.138h26.649c5.047 0 9.138 4.091 9.138 9.138 0 5.047-4.091 9.138-9.138 9.138z" fill="#fff"/></g></g></g></g><g><g><g><path d="m235.991 203.348c-2.272 8.005 1.857 16.724 9.752 19.353 1.589.529 3.288.815 5.054.815s3.466-.286 5.055-.815c7.895-2.628 12.023-11.348 9.752-19.353l-11.08-39.042c-1.066-3.755-6.388-3.755-7.453 0z" fill="#da4a54"/></g></g></g><g><path d="m189.491 64.893c-10.261.037-19.786 3.184-27.684 8.546l-21.81 138.054v7.64c0 67.438 60.522 119.606 128.333 108.126-51.768-8.807-91.192-53.849-91.192-108.126.034-60.294-.024-91.518-.006-109.363.014-14.355 11.663-25.974 26.019-25.956l144.467.183v-18.874c-.001 0-63.323-.575-158.127-.23z" fill="#453d81"/></g><g><path d="m285.755 239.022h-9.597l-25.276 5.248-25.276-5.248h-8.49c-2.848 0-5.124 2.486-4.744 5.309.727 5.4 2.547 10.453 5.231 14.93l51.179 15.167c11.558-5.674 19.932-16.841 21.716-30.096.38-2.824-1.895-5.31-4.743-5.31z" fill="#a51f6b"/></g><g><path d="m217.608 259.258c6.888 11.489 19.458 19.182 33.827 19.182 6.225 0 12.11-1.448 17.344-4.018-2.25-14.115-14.475-24.905-29.225-24.905-8.704 0-16.53 3.759-21.946 9.741z" fill="#da4a54"/></g><g><path d="m276.157 243.957c0 3.071-2.489 5.56-5.56 5.56h-39.431c-3.071 0-5.56-2.489-5.56-5.56v-4.935h50.551z" fill="#fff"/></g><g><path d="m207.061 175.48c-2.026 0-3.668-1.642-3.668-3.668v-11.021c0-2.026 1.642-3.668 3.668-3.668 2.026 0 3.668 1.642 3.668 3.668v11.021c0 2.026-1.642 3.668-3.668 3.668z" fill="#fff"/></g><g><path d="m281.688 173.671c-2.026 0-3.668-1.642-3.668-3.668v-11.02c0-2.026 1.642-3.668 3.668-3.668 2.026 0 3.668 1.642 3.668 3.668v11.02c0 2.025-1.642 3.668-3.668 3.668z" fill="#fff"/></g><g><path d="m143.305 208.69-3.309 2.803v-153.718h30.064v93.183c.001 22.241-9.785 43.355-26.755 57.732z" fill="#afe6ff"/></g><g><path d="m357.204 208.69 3.309 2.803v-153.718h-30.064v93.183c0 22.241 9.785 43.355 26.755 57.732z" fill="#fff"/></g><g><path d="m177.652 250.475c-8.193 0-15.896-3.19-21.689-8.984-1.562-1.562-1.562-4.095 0-5.656 1.562-1.562 4.095-1.562 5.657 0 4.282 4.282 9.976 6.641 16.032 6.641s11.75-2.358 16.032-6.641c3.461-3.461 5.368-8.062 5.368-12.958 0-4.895-1.906-9.496-5.368-12.958-5.726-5.725-15.043-5.725-20.768 0-2.199 2.199-3.41 5.122-3.41 8.231 0 3.108 1.211 6.032 3.409 8.23 1.717 1.717 4 2.662 6.428 2.662s4.711-.945 6.428-2.662c1.562-1.562 4.095-1.562 5.657 0s1.562 4.095 0 5.656c-3.228 3.229-7.52 5.006-12.085 5.006s-8.856-1.777-12.084-5.006c-3.709-3.709-5.752-8.641-5.752-13.887s2.043-10.178 5.752-13.888c8.846-8.844 23.237-8.846 32.083 0 4.972 4.972 7.71 11.583 7.71 18.614 0 7.032-2.738 13.643-7.711 18.614-5.793 5.796-13.495 8.986-21.689 8.986z" fill="#fff"/></g><g><path d="m322.857 250.475c-8.193 0-15.896-3.19-21.689-8.984-4.972-4.972-7.71-11.582-7.71-18.614 0-7.031 2.738-13.643 7.71-18.614 8.846-8.846 23.238-8.846 32.083 0 7.657 7.658 7.657 20.118 0 27.774-6.664 6.664-17.506 6.664-24.17 0-1.562-1.562-1.562-4.095 0-5.656 1.562-1.562 4.095-1.562 5.657 0 3.544 3.543 9.312 3.543 12.855 0 4.538-4.538 4.538-11.923 0-16.462-5.726-5.725-15.042-5.725-20.769 0-3.461 3.462-5.367 8.063-5.367 12.958 0 4.896 1.906 9.497 5.367 12.958 4.283 4.282 9.977 6.641 16.033 6.641s11.75-2.358 16.032-6.641c1.562-1.562 4.095-1.562 5.657 0s1.562 4.095 0 5.656c-5.793 5.794-13.496 8.984-21.689 8.984z" fill="#fff"/></g><g><path d="m202.201 332.874h97.194v25.117h-97.194z" fill="#b1e4f9"/></g><g><circle cx="251.436" cy="375.706" fill="#f1d333" r="27.019"/></g><g><circle cx="251.436" cy="375.706" fill="#9bd069" r="9.876"/></g><g><path d="m250.399 408.726-30.288 32.135h60.576z" fill="#453d81"/></g></g><g><g><path d="m35.088 384.168c11.534 19.594 25.612 37.512 41.78 53.298 45.72-5.461 81.166-44.373 81.166-91.564h-48.148c-30.786 0-58.047 15.085-74.798 38.266z" fill="#6ec186"/></g><g><path d="m394.314 345.902h-48.148c0 48.999 38.214 89.072 86.466 92.043 15.107-14.66 28.418-31.191 39.554-49.247-16.363-25.726-45.124-42.796-77.872-42.796z" fill="#6ec186"/></g></g></g></g></svg>