<svg id="Layer_1" enable-background="new 0 0 511.114 511.114" height="512" viewBox="0 0 511.114 511.114" width="512" xmlns="http://www.w3.org/2000/svg"><g><g><path d="m255.557 16.589c-95.153 0-153.768 53.672-153.93 53.763 0 0-2.437 3.042-2.893 5.064-3.702 16.434-7.161 38.459-7.161 54.532 0 136.559 115.16 247.235 251.719 247.235 52.586 0 111.091-25.203 150.248-55.506.876-.678 3.655-5.233 3.655-5.233.172-1.054 5.624-22.764 5.624-52.593 0-136.559-110.703-247.262-247.262-247.262z" fill="#b1e4f9"/><path d="m343.271 370.202c-136.559 0-247.262-110.703-247.262-247.262 0-18.05 1.947-35.637 5.619-52.588-56.866 45.303-93.333 115.143-93.333 193.499 0 58.95 20.629 113.081 55.062 155.569l384.402.004c23.823-29.384 41.083-64.421 49.437-102.98-42.239 33.643-95.729 53.758-153.925 53.758z" fill="#9dc6fb"/></g><g fill="#da2ea2"><path d="m136.114 225.311h-17.903c-11.313 0-20.485-9.171-20.485-20.485v-63.643c0-11.313 9.171-20.485 20.485-20.485h17.903z"/><path d="m376.59 225.311h17.903c11.313 0 20.485-9.171 20.485-20.485v-63.643c0-11.313-9.171-20.485-20.485-20.485h-17.903z"/></g><g><g><path d="m92.12 325.743h48.86v77.213h-48.86z" fill="#da2ea2"/><path d="m146.801 332.061v-1.166c0-16.707-13.544-30.251-30.251-30.251-16.707 0-30.251 13.544-30.251 30.251v1.166z" fill="#f1d333"/></g><g><path d="m371.725 325.743h48.86v77.213h-48.86z" fill="#da2ea2"/><path d="m426.405 332.061v-1.166c0-16.707-13.544-30.251-30.251-30.251-16.707 0-30.251 13.544-30.251 30.251v1.166z" fill="#f1d333"/></g></g><path d="m325.679 317.442h-138.818c-33.018 0-59.784-26.766-59.784-59.784v-176.121c0-35.87 29.078-64.948 64.948-64.948h128.491c35.87 0 64.948 29.078 64.948 64.948v176.121c0 33.018-26.767 59.784-59.785 59.784z" fill="#212828"/><path d="m390.457 347.358-135.19-29.916-134.656 29.887c-33.452 7.425-57.255 37.091-57.255 71.357v.734c10.387 12.816 22.03 24.574 34.741 35.084l34.363 23.838c20.555 11.822 42.971 20.775 66.699 26.311l77.008 5.61c18.76-1.554 36.962-5.211 54.354-10.745l43.984-18.876c28.178-15.487 53.071-36.325 73.253-61.218v-.7c0-34.283-23.827-63.959-57.301-71.366z" fill="#3c4646"/><circle cx="254.149" cy="355.258" fill="#212828" r="54.614"/><path d="m132.46 478.343h52.511v-12.618h-72.227c6.356 4.505 12.935 8.718 19.716 12.618z" fill="#2f3838"/><g><g><path d="m294.856 352.196c0 21.561-17.479 39.04-39.04 39.04-21.561 0-39.04-17.479-39.04-39.04v-87.443h78.08z" fill="#914924"/></g></g><g><g><path d="m304.482 35.514-80.277-.247c-23.954-.073-43.412 19.325-43.412 43.279v176.615c0 39.304 30.021 70.666 68.606 73.704l11.253 1.092c.35 0 .675.039.98.104 58.51-3.024 105.021-51.422 105.021-110.685v-121.501c-.001-34.367-27.805-62.256-62.171-62.361z" fill="#af5d2f"/></g></g><g><path d="m261.823 330.052c-46.598-13.533-80.66-56.535-80.66-107.499.277-6.297 0-94.882 0-118.063 0-35.628 28.882-64.509 64.509-64.509h80.509c-7.082-2.75-14.804-4.272-22.942-4.272h-94.847c-35.628 0-62.067 26.44-62.067 62.067l-2.442 86.611v33.851c0 30.725 12.626 60.101 34.919 81.245s52.296 32.198 82.978 30.572z" fill="#914924"/></g><path d="" fill="none" stroke="#696e73" stroke-miterlimit="10" stroke-width="10.208"/><path d="" fill="none" stroke="#696e73" stroke-miterlimit="10" stroke-width="10.208"/><path d="m142.639 120.698v93.27c0 19.515 15.82 35.335 35.335 35.335h28.527c9.772 0 19.108-4.047 25.788-11.179l14.315-15.282c5.27-5.627 14.2-5.627 19.47 0l14.315 15.282c6.681 7.132 16.016 11.179 25.788 11.179h28.044c19.515 0 35.335-15.82 35.335-35.335v-93.27z" fill="#914924"/><path d="m350.303 147.864-93.692-17.321-85.757 26.789-29.295 62.244c6.463 11.049 18.454 18.471 32.178 18.471h11.441l18.043-5.853c.918 0 2.423 5.818 3.332 5.751 9.292-.686 18.03-4.836 24.445-11.684l11.915-12.721c7.276-7.768 19.603-7.768 26.878 0l7.24 7.729 35.526 16.777h25.902c20.573 0 37.251-16.678 37.251-37.251v-25.902z" fill="#9bd069"/><g fill="#fff"><path d="m163.005 198.132 36.245-36.245c12.142-12.142 24.284-24.284 36.426-36.426 7.665-7.665 15.33-15.33 22.996-22.996h-122.187v98.329c0 6.849 1.857 13.261 5.082 18.775 7.146-7.145 14.292-14.291 21.438-21.437z"/><path d="m206.552 237.933c15.979-16.041 31.957-32.083 47.937-48.124 16.723-16.786 33.449-33.569 50.183-50.344 12.31-12.34 24.63-24.67 36.951-37h-20.864l-135.581 135.581h18.633c.918 0 1.831-.046 2.741-.113z"/><path d="m308.894 238.046h3.663l63.153-63.153v-16.032s-23.789-12.669-35.676-.753c-15.644 15.683-31.284 31.37-46.927 47.054-5.357 5.371-10.719 10.737-16.076 16.107l4.675 4.991c7.044 7.52 16.886 11.786 27.188 11.786z"/></g><path d="m136.485 102.466h239.226v56.395h-239.226z" fill="#69b76b"/><path d="m236.538 383.119v117.698l6.133 9.967c4.267.219 8.563.33 12.885.33 6.935 0 13.809-.288 20.609-.851v-127.144z" fill="#fff"/><g><path d="m290.602 247.504h-9.505l-25.034 5.197-25.034-5.197h-8.408c-2.821 0-5.075 2.462-4.698 5.258.72 5.348 2.523 10.353 5.181 14.787l50.689 15.022c11.448-5.619 19.741-16.679 21.508-29.808.375-2.797-1.879-5.259-4.699-5.259z" fill="#a51f6b"/><path d="m223.107 267.546c6.822 11.379 19.271 18.998 33.504 18.998 6.165 0 11.994-1.434 17.178-3.979-2.228-13.98-14.337-24.666-28.945-24.666-8.622-.001-16.373 3.722-21.737 9.647z" fill="#da4a54"/><path d="m275.589 257.898h-39.053c-3.041 0-5.507-2.466-5.507-5.507v-4.888h50.067v4.888c0 3.042-2.465 5.507-5.507 5.507z" fill="#fff"/></g><path d="m374.505 111.221h-235.74v-31.957c0-27.372 22.19-49.562 49.562-49.562h129.028c31.563 0 57.15 25.587 57.15 57.15z" fill="#212828"/><path d="m378.572 96.396h-146.91v45.538h146.91c7.623 0 13.803-6.18 13.803-13.803v-17.932c0-7.623-6.18-13.803-13.803-13.803z" fill="#f1d333"/><path d="m232.027 96.396h-98.403c-7.623 0-13.803 6.18-13.803 13.803v17.932c0 7.624 6.18 13.803 13.803 13.803h98.403z" fill="#e7a52e"/><path d="m374.505 480.642v-135.823c0-3.169-2.223-5.903-5.325-6.549l-33.62-7.006c-2.599-.542-5.039 1.442-5.039 4.097v164.158c15.348-4.884 30.067-11.228 43.984-18.877z" fill="#212828"/><path d="m377.657 388.03h-48.096c-4.311 0-7.806-3.495-7.806-7.806 0-4.311 3.495-7.806 7.806-7.806h48.096c4.311 0 7.806 3.495 7.806 7.806.001 4.311-3.494 7.806-7.806 7.806z" fill="#da4a54"/><path d="m377.657 423.197h-48.096c-4.311 0-7.806-3.495-7.806-7.806 0-4.311 3.495-7.806 7.806-7.806h48.096c4.311 0 7.806 3.495 7.806 7.806.001 4.311-3.494 7.806-7.806 7.806z" fill="#da2ea2"/><path d="m377.657 458.363h-48.096c-4.311 0-7.806-3.495-7.806-7.806 0-4.311 3.495-7.806 7.806-7.806h48.096c4.311 0 7.806 3.495 7.806 7.806.001 4.311-3.494 7.806-7.806 7.806z" fill="#da4a54"/><path d="m295.79 167.016h-78.875v-149.209c0-9.835 7.972-17.807 17.806-17.807h43.262c9.834 0 17.807 7.972 17.807 17.807z" fill="#2f3838"/><path d="m159.393 334.981-27.523 5.939c-2.472.533-3.828 3.204-2.8 5.514l70.448 158.301c13.968 3.237 28.39 5.29 43.154 6.048l-77.023-172.631c-1.073-2.403-3.683-3.726-6.256-3.171z" fill="#2f3838"/><path d="m98.097 454.504c4.737 3.917 9.622 7.66 14.646 11.221h72.227v-30.89h-86.873z" fill="#fff"/><g><path d="m109.52 441.082h6.196v19.736h-6.196z" fill="#da4a54"/><path d="m123.978 441.082h6.196v19.736h-6.196z" fill="#634086"/><path d="m138.436 441.082h6.196v19.736h-6.196z" fill="#da4a54"/><path d="m152.894 441.082h6.196v19.736h-6.196z" fill="#634086"/><path d="m167.352 441.082h6.196v19.736h-6.196z" fill="#da4a54"/></g><path d="m249.394 386.789v82.008c0 3.324 2.702 6.014 6.026 6 3.304-.014 5.974-2.696 5.974-6v-82.008z" fill="#212828"/><path d="m216.776 352.196c0 21.561 17.479 39.04 39.04 39.04 21.561 0 39.04-17.479 39.04-39.04z" fill="#914924"/></g></svg>