<svg id="Layer_1" enable-background="new 0 0 510 510" height="512" viewBox="0 0 510 510" width="512" xmlns="http://www.w3.org/2000/svg"><g><g><path d="m255 .086c-98.131 0-158.58 55.352-158.747 55.445 0 0-2.513 3.137-2.983 5.222-3.818 16.948-7.385 39.663-7.385 56.238 0 140.833 118.763 254.972 259.596 254.972 54.231 0 114.568-25.992 154.949-57.243.903-.699 3.769-5.396 3.769-5.396.178-1.087 5.8-23.477 5.8-54.239.001-140.831-114.166-254.999-254.999-254.999z" fill="#9bd069"/><path d="m345.459 364.766c-140.833 0-255-114.167-255-255 0-18.615 2.007-36.753 5.795-54.234-58.645 46.72-96.254 118.746-96.254 199.554 0 68.5 27.01 130.693 70.961 176.507l373.037-5.319c29.341-32.354 50.543-72.369 60.201-116.95-43.559 34.697-98.724 55.442-158.74 55.442z" fill="#6ec17d"/></g><g><path d="m305.927 307.676h-103.423c-56.379 0-102.083-45.704-102.083-102.083v-117.62c0-48.538 39.348-87.886 87.886-87.886h131.817c48.538 0 87.886 39.348 87.886 87.886v117.62c0 56.379-45.704 102.083-102.083 102.083z" fill="#b1e4f9"/><path d="m117.157 438.854-7.538 25.759c8.978 6.241 18.375 11.919 28.143 16.985l12.429-.799 12.429 12.04c25.856 10.054 53.759 16.011 82.909 17.075h18.901c28.683-1.048 56.239-6.856 81.858-16.688l12.514-12.922 12.429 1.777c10.106-5.184 19.828-11.024 29.107-17.468l9.818-37.813z" fill="#55696e"/><path d="m443.139 424.475-2.759-2.438-.61-3.753c-1.203-2.009-2.487-3.963-3.847-5.86l-4.053-1.733-.234-3.759c-3.715-4.381-7.866-8.381-12.384-11.934l-3.228-.348-2.424-3.734c-1.942-1.286-3.94-2.494-5.99-3.62l-4.498-.178-1.83-2.963c-10.577-4.712-22.293-7.332-34.623-7.332h-184.395c-33.816.016-33.835-.108-38.07.26-10.002.738-19.523 3.201-28.266 7.094l-2.073 4.228-4.254-1.09c-2.049 1.125-4.047 2.332-5.989 3.617l-1.894 3.335-3.757.744c-4.519 3.55-8.671 7.548-12.387 11.927l-.782 3.678-3.506 1.813c-1.36 1.896-2.645 3.851-3.848 5.859l-.077 3.64-3.293 2.549c-1.139 2.315-2.175 4.689-3.104 7.117 6.372 6.643 13.101 12.941 20.155 18.864.02.017.04.034.06.05 3.818 3.204 8.671 4.913 13.655 4.913l288.737 1.584c7.596.042 15.068-1.922 21.674-5.671 3.858-2.189 7.35-4.069 7.35-4.069 7.534-6.57 14.683-13.58 21.404-20.992-.28-.603-.567-1.203-.86-1.798z" fill="#da4a54"/><path d="m338.962 285.849-79.2 60.421-86.783-60.131c-35.126-24.339-55.485-60.674-55.485-99.026v-53.623c0-34.754 33.389-62.927 74.576-62.927h122.329c41.187 0 74.576 28.173 74.576 62.927v57.314c-.001 36.222-18.17 70.752-50.013 95.045z" fill="#1e87dc"/><g><g><path d="m298.942 383.114c0 22.279-18.06 40.339-40.339 40.339-22.279 0-40.339-18.06-40.339-40.339v-90.354h80.679v90.354z" fill="#d80a61"/></g></g><g><g><path d="m367.632 119.014c-.266-26.837-22.097-48.452-48.935-48.452h-58.142c-32.397 0-83.685 0-83.685 0v199.465c0 41.774 33.563 76.048 75.335 76.361.292.002.585.003.877.003 63.876 0 115.658-51.782 115.658-115.658z" fill="#da4a54"/></g></g><g><g><path d="m394.492 204.755c0 14.83-12.022 26.852-26.852 26.852v-68.073c14.83 0 26.852 12.022 26.852 26.852z" fill="#da4a54"/></g></g><g><g><path d="m111.705 204.755c0 14.83 12.022 26.852 26.852 26.852v-68.073c-14.83 0-26.852 12.022-26.852 26.852z" fill="#d80a61"/></g></g><g><g><g><path d="m211.865 149.112h-27.817c-5.268 0-9.539-4.271-9.539-9.539 0-5.268 4.271-9.539 9.539-9.539h27.817c5.268 0 9.539 4.271 9.539 9.539-.001 5.268-4.271 9.539-9.539 9.539z" fill="#b1e4f9"/></g></g></g><g><g><g><path d="m328.809 149.112h-27.817c-5.268 0-9.539-4.271-9.539-9.539 0-5.268 4.271-9.539 9.539-9.539h27.817c5.268 0 9.539 4.271 9.539 9.539 0 5.268-4.271 9.539-9.539 9.539z" fill="#b1e4f9"/></g></g></g><g><g><path d="m238.76 215.391c-2.371 8.356 1.938 17.458 10.179 20.201 1.658.552 3.432.851 5.276.851s3.618-.299 5.276-.851c8.241-2.743 12.55-11.845 10.179-20.201l-11.565-40.754c-1.112-3.92-6.668-3.92-7.78 0z" fill="#ff965a"/></g></g><path d="m177.327 231.868c.016-28.434.013-60.466.006-118.35-.002-16.982 13.764-30.753 30.746-30.753h142.937c-8.625-7.593-19.936-12.203-32.319-12.203h-58.142c-32.397 0-83.685 0-83.685 0v.015c-13.622.161-29.824 7.517-38.312 18.162v106.972 36.156c0 70.394 63.176 124.85 133.959 112.867-54.038-9.192-95.19-56.209-95.19-112.866z" fill="#d80a61"/><g><g><g><path d="m189.76 187.619v9.837c0 5.268 4.271 9.539 9.539 9.539s9.538-4.271 9.538-9.539v-9.837z" fill="#d80a61"/></g></g><g><g><path d="m199.298 199.046c-5.268 0-9.539-4.271-9.539-9.539v-7.035l3.829-5.752-3.829-5.752v-7.549c0-5.268 4.271-9.539 9.539-9.539s9.539 4.271 9.539 9.539v26.087c0 5.269-4.271 9.54-9.539 9.54z" fill="#373c41"/></g></g><path d="m193.588 186.301c-2.115 0-3.829-1.714-3.829-3.829v-11.504c0-2.115 1.714-3.829 3.829-3.829 2.115 0 3.829 1.714 3.829 3.829v11.504c0 2.115-1.714 3.829-3.829 3.829z" fill="#fff"/></g><g><g><g><path d="m305.114 187.619v9.837c0 5.268 4.271 9.539 9.538 9.539 5.268 0 9.539-4.271 9.539-9.539v-9.837z" fill="#d80a61"/></g></g><g><g><g><path d="m314.653 199.046c-5.268 0-9.539-4.271-9.539-9.539v-8.924l3.829-5.752-3.829-5.752v-5.66c0-5.268 4.271-9.539 9.539-9.539s9.539 4.271 9.539 9.539v26.087c-.001 5.269-4.272 9.54-9.539 9.54z" fill="#373c41"/></g></g><path d="m308.943 184.412c-2.115 0-3.829-1.714-3.829-3.829v-11.503c0-2.115 1.714-3.829 3.829-3.829 2.115 0 3.829 1.714 3.829 3.829v11.504c0 2.114-1.714 3.828-3.829 3.828z" fill="#fff"/></g></g><path d="m224.46 251.386c2.944 14.245 15.558 24.954 30.675 24.954s27.731-10.709 30.675-24.954z" fill="#fff"/><g fill="#f1d333"><path d="m137.762 481.597c8.045 4.172 16.341 7.929 24.859 11.241v-123.226h-24.859z"/><path d="m371.233 482.081v-112.469h-24.859v123.582c8.51-3.27 16.806-6.983 24.859-11.113z"/><path d="m89.659 92.843c-6.596 0-11.943 5.347-11.943 11.943v50.499c0 6.596 5.347 11.943 11.943 11.943 6.596 0 11.943-5.347 11.943-11.943v-50.499c0-6.596-5.347-11.943-11.943-11.943z"/></g><path d="m55.002 201.577c-12.688 0-22.973-10.285-22.973-22.973v-97.138c0-12.688 10.285-22.973 22.973-22.973 12.688 0 22.973 10.285 22.973 22.973v97.138c0 12.687-10.286 22.973-22.973 22.973z" fill="#b1e4f9"/><path d="m420.341 92.843c6.596 0 11.943 5.347 11.943 11.943v50.499c0 6.596-5.347 11.943-11.943 11.943-6.596 0-11.943-5.347-11.943-11.943v-50.499c0-6.596 5.347-11.943 11.943-11.943z" fill="#f1d333"/><path d="m454.998 201.577c12.688 0 22.973-10.285 22.973-22.973v-97.138c0-12.688-10.285-22.973-22.973-22.973-12.688 0-22.973 10.285-22.973 22.973v97.138c0 12.687 10.286 22.973 22.973 22.973z" fill="#b1e4f9"/><g><path d="m286.326 116.802s-13.385 16.266-29.897 16.266-29.897-16.266-29.897-16.266 13.385-16.266 29.897-16.266 29.897 16.266 29.897 16.266z" fill="#373c41"/><path d="m256.428 96.862c11.661 0 22.193 4.198 29.741 8.329.103-.12.157-.185.157-.185s-13.386-16.266-29.898-16.266-29.897 16.266-29.897 16.266.053.065.157.185c7.547-4.131 18.08-8.329 29.74-8.329z" fill="#d80a61"/><path d="m256.429 141.397c-11.661 0-22.193-4.198-29.741-8.329-.103.12-.157.185-.157.185s13.385 16.266 29.897 16.266 29.897-16.266 29.897-16.266-.053-.065-.157-.185c-7.546 4.131-18.079 8.329-29.739 8.329z" fill="#d80a61"/><circle cx="256.429" cy="116.802" fill="#da4a54" r="7.56"/><circle cx="249.824" cy="113.128" fill="#fff" r="3.674"/></g><path d="m137.762 210.481v-147.962h24.859v123.103c0 13.729-11.13 24.859-24.859 24.859z" fill="#b1e4f9"/><path d="m368.029 210.481v-147.962h-24.859v123.103c0 13.729 11.129 24.859 24.859 24.859z" fill="#b1e4f9"/><path d="m412.888 449.257-3.196 3.195c-3.512 3.513-9.208 3.513-12.72 0l-3.196-3.195c-3.512-3.513-9.208-3.513-12.72 0l-3.196 3.195c-3.512 3.513-9.208 3.513-12.72 0l-3.196-3.195c-3.513-3.513-9.208-3.513-12.72 0l-3.196 3.195c-3.513 3.513-9.208 3.513-12.72 0l-3.196-3.195c-3.512-3.513-9.208-3.513-12.72 0l-3.196 3.195c-3.512 3.513-9.207 3.513-12.72 0l-3.196-3.195c-3.512-3.513-9.208-3.513-12.72 0l-3.196 3.195c-3.513 3.513-9.208 3.513-12.72 0l-3.196-3.195c-2.043-2.043-4.825-2.89-7.486-2.555-2.661-.334-5.443.512-7.486 2.555l-3.196 3.195c-3.513 3.513-9.208 3.513-12.72 0l-3.196-3.195c-3.513-3.513-9.208-3.513-12.72 0l-3.196 3.195c-3.513 3.513-9.208 3.513-12.72 0l-3.196-3.195c-3.513-3.513-9.208-3.513-12.72 0l-3.196 3.195c-3.512 3.513-9.207 3.513-12.72 0l-3.196-3.195c-3.513-3.513-9.208-3.513-12.72 0l-3.196 3.195c-3.513 3.513-9.208 3.513-12.72 0l-3.196-3.195c-3.513-3.513-9.208-3.513-12.72 0l-3.196 3.195c-3.512 3.513-9.208 3.513-12.72 0l-3.196-3.195c-3.513-3.513-9.208-3.513-12.72 0l-1.201 1.201c5.943 4.99 12.117 9.714 18.503 14.154h290.72c7.737-5.373 15.167-11.165 22.254-17.346-3.238-1.296-7.08-.633-9.704 1.991z" fill="#f1d333"/><path d="m323.88 406.409h-130.555c-8.539 0-15.462-6.922-15.462-15.462h161.478c0 8.54-6.922 15.462-15.461 15.462z" fill="#d80a61"/><g fill="#fff"><path d="m120.973 400.665c0-6.095-1.858-11.764-5.037-16.471-2.158.96-4.267 2.009-6.325 3.139 2.755 3.739 4.405 8.341 4.405 13.332 0 12.434-10.115 22.549-22.549 22.549-5.297 0-10.163-1.848-14.016-4.917-1.205 2.01-2.327 4.075-3.367 6.189 4.879 3.57 10.887 5.685 17.383 5.685 16.269-.001 29.506-13.237 29.506-29.506z"/><path d="m107.044 400.665c0-3.675-1.286-7.05-3.422-9.717-1.941 1.284-3.827 2.641-5.653 4.075 1.315 1.514 2.118 3.484 2.118 5.642 0 4.753-3.867 8.62-8.62 8.62-2.278 0-4.347-.895-5.89-2.343-1.502 1.77-2.927 3.605-4.282 5.495 2.732 2.364 6.284 3.806 10.172 3.806 8.589-.001 15.577-6.989 15.577-15.578z"/></g><g fill="#fff"><path d="m396.229 400.665c0-6.095 1.858-11.764 5.037-16.471 2.158.96 4.267 2.009 6.325 3.139-2.755 3.739-4.405 8.341-4.405 13.332 0 12.434 10.115 22.549 22.549 22.549 5.297 0 10.163-1.848 14.016-4.917 1.205 2.01 2.327 4.075 3.367 6.189-4.879 3.57-10.887 5.685-17.383 5.685-16.269-.001-29.506-13.237-29.506-29.506z"/><path d="m410.158 400.665c0-3.675 1.286-7.05 3.422-9.717 1.941 1.284 3.827 2.641 5.653 4.075-1.315 1.514-2.118 3.484-2.118 5.642 0 4.753 3.867 8.62 8.62 8.62 2.278 0 4.347-.895 5.89-2.343 1.502 1.77 2.927 3.605 4.282 5.495-2.732 2.364-6.284 3.806-10.172 3.806-8.59-.001-15.577-6.989-15.577-15.578z"/></g></g></g></svg>