<svg id="Layer_1" enable-background="new 0 0 510 510" height="512" viewBox="0 0 510 510" width="512" xmlns="http://www.w3.org/2000/svg"><g><g><path d="m510 255c0-140.833-114.167-255-255-255-98.131 0-158.58 55.352-158.747 55.445 0 0-2.513 3.137-2.983 5.222-3.818 16.948-7.385 39.663-7.385 56.238 0 140.833 118.763 254.972 259.596 254.972 54.231 0 114.568-25.992 154.949-57.243.903-.699 3.769-5.396 3.769-5.396.178-1.086 5.801-23.476 5.801-54.238z" fill="#734a9b"/><path d="m345.459 364.679c-140.833 0-255-114.167-255-255 0-18.615 2.008-36.753 5.795-54.234-58.645 46.72-96.254 118.747-96.254 199.555 0 62.502 22.487 119.752 59.811 164.101l390.361.024c26.143-31.042 45.06-68.496 54.027-109.886-43.559 34.695-98.724 55.44-158.74 55.44z" fill="#5e3881"/></g><path d="m403.277 388.896-148.596-32.882-81.622 18.116v122.394c25.718 8.726 53.272 13.476 81.941 13.476 77.854 0 148.18-35.086 195.168-90.879-11.216-14.941-27.59-25.954-46.891-30.225z" fill="#9bd069"/><path d="m59.824 419.09c29.872 35.495 69.239 62.729 114.199 77.775v-122.949l-67.351 14.949c-19.284 4.28-35.642 15.292-46.848 30.225z" fill="#6ec186"/><g><path d="m254.681 332.191c-51.325 0-92.932 41.607-92.932 92.932 0 34.162 18.446 64 45.909 80.148l47.566-47.566 47.17 47.17c27.085-16.239 45.219-45.873 45.219-79.752.001-51.325-41.607-92.932-92.932-92.932z" fill="#6ec186"/></g><g><path d="m254.681 313.464c-51.325 0-92.932 41.607-92.932 92.932 0 34.162 18.446 64 45.909 80.148l47.566-47.566 47.17 47.17c27.085-16.239 45.219-45.873 45.219-79.752.001-51.325-41.607-92.932-92.932-92.932z" fill="#57988b"/></g><g><g><g><g><path d="m256.281 298.099h-43.908v96.115c0 23.699 19.212 42.911 42.911 42.911.334 0 .664-.018.996-.025v-139.001z" fill="#ff965a"/></g></g></g><g><g><g><path d="m255.803 298.099h43.908v96.115c0 23.699-19.212 42.911-42.911 42.911-.334 0-.664-.018-.996-.025v-139.001z" fill="#ff965a"/></g></g></g><g><g><g><path d="m256.281 72.571h-53.123c-11.174 0-21.408 2.924-30.337 8.002v206.984c0 45.177 36.336 82.149 81.512 82.491.317.002.634.004.951.004.333 0 .664-.01.996-.013v-297.468z" fill="#ffbe82"/></g></g></g><g><g><g><path d="m377.111 231.912v-72.413c15.776 0 28.564 12.789 28.564 28.564v15.285c.001 15.776-12.788 28.564-28.564 28.564z" fill="#82878c"/></g></g></g><g><g><g><path d="m103.687 203.348c0 15.776 12.789 28.564 28.564 28.564v-72.413c-15.776 0-28.564 12.789-28.564 28.564z" fill="#ff965a"/></g></g></g><g><g><g><path d="m202.647 202.699v8.591c0 5.604 4.543 10.147 10.147 10.147 5.603 0 10.147-4.543 10.147-10.147v-8.591z" fill="#ff965a"/></g></g></g><g><g><path d="m256.281 368.082c-48.318-16.597-83.052-62.417-83.052-116.367.304-6.922 0-73.998 0-99.478 0-39.161 31.746-70.906 70.906-70.906h12.146v-4.696h-53.123c-39.161 0-68.222 29.062-68.222 68.222l-2.684 64.907v37.208c0 33.772 13.878 66.061 38.382 89.301 23.156 21.961 53.878 34.012 85.647 33.766z" fill="#ff965a"/></g></g><g><g><g><path d="m212.794 213.309c-5.604 0-10.147-4.543-10.147-10.147v-13.052l3.74-5.664-3.74-5.664v-3.371c0-5.604 4.543-10.147 10.147-10.147s10.147 4.543 10.147 10.147v27.751c-.001 5.604-4.544 10.147-10.147 10.147z" fill="#373c41"/></g></g></g><g><g><g><g><path d="m236.308 150.045c0 5.604-4.543 10.147-10.147 10.147h-29.591c-5.604 0-10.147-4.543-10.147-10.147 0-5.604 4.543-10.147 10.147-10.147h29.591c5.604 0 10.147 4.543 10.147 10.147z" fill="#783c28"/></g></g></g></g><g><path d="m256.281 274.824-1.599.332-27.516-5.713h-9.242c-3.1 0-5.578 2.706-5.164 5.779.791 5.879 2.773 11.38 5.694 16.253l37.827 11.21z" fill="#a51f6b"/></g><g><g><g><path d="m256.281 188.079c-3.822-.436-7.923 1.64-9.075 6.242l-8.362 33.392c-2.522 10.073 2.062 21.045 10.828 24.352 1.764.666 3.651 1.026 5.612 1.026.336 0 .666-.025.997-.046z" fill="#ff965a"/></g></g></g><g><path d="m256.281 76.415h-84.245v7.338c.295-.143.591-.284.885-.421 11.918-5.54 24.899 5.84 20.854 18.345-.05.154-.099.308-.147.462-2.739 8.716 3.831 17.58 12.968 17.58h49.685z" fill="#783c28"/></g><g><g><path d="m132.252 79.95v68.234.003 61.576c9.012 0 16.318-7.306 16.318-16.318v-72.052c0-15.915 8.956-30.584 23.268-37.545.351-.171.701-.337 1.051-.5v-3.398z" fill="#5a2d19"/></g></g><g><path d="m206.387 193.851c-2.066 0-3.74-1.675-3.74-3.74v-11.328c0-2.066 1.675-3.74 3.74-3.74 2.066 0 3.74 1.675 3.74 3.74v11.328c.001 2.066-1.674 3.74-3.74 3.74z" fill="#fff"/></g></g><g><path d="m218.458 291.473c7.498 12.507 21.182 20.882 36.826 20.882 6.777 0 13.183-1.576 18.882-4.374-2.449-15.367-15.759-27.112-31.815-27.112-9.477 0-17.997 4.092-23.893 10.604z" fill="#da4a54"/></g><g><path d="m276.144 280.869h-42.926c-3.343 0-6.053-2.71-6.053-6.053v-5.372h55.032v5.372c.001 3.343-2.709 6.053-6.053 6.053z" fill="#fff"/></g><g><path d="m256.281 0h-37.239l-4.187.042c-23.718.24-42.819 19.535-42.819 43.255v33.118h84.245z" fill="#783c28"/></g><g><path d="m219.042 0h-40.408c-25.616 0-46.382 20.766-46.382 46.382v34.787l40.637-1.219-.229-33.567c-.175-25.616 20.766-46.383 46.382-46.383z" fill="#5a2d19"/></g><path d="m330.729 0h-75.729v370.051c18.055 0 35.195-3.919 50.616-10.952l67.004-78.23c2.927-10.476 4.492-21.52 4.492-32.93v-15.408l-2-5.61 2-5.61v-174.929c-.001-25.616-20.767-46.382-46.383-46.382z" fill="#a0a0a5"/><g><path d="m372.619 280.869h-42.902c-13.311 0-24.102 10.791-24.102 24.101v54.128c32.435-14.792 57.263-43.362 67.004-78.229z" fill="#d2d2d7"/></g><g><path d="m298.441 114.109h78.67v11.22h-78.67z" fill="#82878c"/></g><path d="m287.807 365.587v-138.665h-11.22v141.227c3.805-.679 7.547-1.54 11.22-2.562z" fill="#696e73"/><g><path d="m297.922 221.312h79.189v11.22h-79.189z" fill="#82878c"/></g><path d="m255 114.109h45.606v11.22h-45.606z" fill="#696e73"/><g><path d="m254.908 221.312h45.699v11.22h-45.699z" fill="#696e73"/></g><g><circle cx="306.639" cy="185.123" fill="#82878c" r="30.043"/></g><g><circle cx="306.639" cy="185.123" fill="#da4a54" r="17.576"/></g><g><circle cx="306.639" cy="185.123" fill="#373c41" r="5.052"/></g><g><circle cx="301.587" cy="179.38" fill="#fff" r="5.052"/></g><g><g><circle cx="290.765" cy="86.476" fill="#82878c" r="8.567"/></g><g><circle cx="318.42" cy="86.476" fill="#82878c" r="8.567"/></g><g><circle cx="290.765" cy="56.608" fill="#82878c" r="8.567"/></g><g><circle cx="318.42" cy="56.608" fill="#82878c" r="8.567"/></g><g><circle cx="290.765" cy="25.635" fill="#82878c" r="8.567"/></g><g><circle cx="318.42" cy="25.635" fill="#82878c" r="8.567"/></g></g><g><path d="m352.443 50.999h24.668v11.22h-24.668z" fill="#82878c"/></g><path d="m358.053 8.91c-3.417-2.496-7.184-4.54-11.22-6.034v116.843h11.22z" fill="#82878c"/></g></svg>