<svg id="Layer_1" enable-background="new 0 0 511 511" height="512" viewBox="0 0 511 511" width="512" xmlns="http://www.w3.org/2000/svg"><g><g><path d="m255.5 1c-98.131 0-158.58 55.352-158.747 55.445 0 0-2.513 3.137-2.983 5.222-3.818 16.948-7.385 39.663-7.385 56.238 0 140.833 118.763 254.972 259.596 254.972 54.231 0 114.568-25.992 154.949-57.243.903-.699 3.769-5.396 3.769-5.396.178-1.087 5.8-23.477 5.8-54.239.001-140.832-114.166-254.999-254.999-254.999z" fill="#b1e4f9"/><g><path d="m481.586 374.025c10.365-19.827 18.225-41.218 23.114-63.787-43.559 34.696-98.724 55.441-158.741 55.441-140.833 0-255-114.167-255-255 0-18.615 2.007-36.753 5.795-54.234-58.645 46.72-96.254 118.747-96.254 199.555 0 42.59 10.456 82.733 28.918 118.025z" fill="#9dc6fb"/></g></g><g><path d="m323.094 370.79-131.268-.751-15.655 3.348-2.751 106.54 72.217 30.885c3.272.125 6.56.188 9.863.188 4.175 0 8.328-.101 12.456-.3l103.412-27.519c7.963-4.069 15.689-8.545 23.148-13.402l10.985-80.754z" fill="#55696e"/><path d="m60.831 420.717c30.175 35.627 69.955 62.86 115.341 77.703v-124.379l-67.373 14.954c-19.929 4.422-36.744 16.025-47.968 31.722z" fill="#415050"/><g><path d="m257.46 463.958c36.249 0 65.634-29.385 65.634-65.634v-27.534l-66.237-14.657-65.031 13.906v28.285c0 36.249 29.385 65.634 65.634 65.634z" fill="#3c4646"/><g><g><path d="m257.46 437.271c-23.707 0-42.926-19.218-42.926-42.926v-96.147h85.851v96.147c.001 23.707-19.218 42.926-42.925 42.926z" fill="#ff965a"/></g></g><path d="m373.908 147.59c0-39.174-25.13-74.995-64.304-74.995h-104.288c-11.178 0-21.416 2.926-30.347 8.004v207.053c0 45.192 36.398 81.103 81.589 81.446l7.173.918c64.391-3.264 115.596-56.507 115.596-121.709v-38.474z" fill="#ffbe82"/><g><g><path d="m379.328 231.99v-72.437c15.781 0 28.574 12.793 28.574 28.574v15.29c-.001 15.78-12.794 28.573-28.574 28.573z" fill="#ff965a"/></g></g><g><g><path d="m105.812 203.416c0 15.781 12.793 28.574 28.574 28.574v-72.437c-15.781 0-28.574 12.793-28.574 28.574z" fill="#ff965a"/></g></g><g><g><path d="m204.805 202.767v8.594c0 5.605 4.545 10.15 10.15 10.15s10.15-4.545 10.15-10.15v-8.594z" fill="#ff965a"/></g></g><g><g><path d="m287.508 202.767v8.594c0 5.605 4.545 10.15 10.15 10.15s10.15-4.545 10.15-10.15v-8.594z" fill="#ff965a"/></g></g><g><path d="m264.065 369.997c-51.236-14.88-88.688-62.163-88.688-118.199.304-6.924 0-74.023 0-99.511 0-39.174 31.757-70.93 70.93-70.93h88.522c-7.787-3.024-16.277-4.698-25.226-4.698h-104.287c-39.174 0-68.245 29.071-68.245 68.245l-2.685 64.928v37.268c0 70.341 58.936 126.644 129.679 122.897z" fill="#ff965a"/></g><g><g><path d="m214.955 213.381c-5.605 0-10.15-4.545-10.15-10.15v-13.056l3.742-5.666-3.742-5.666v-3.372c0-5.605 4.545-10.15 10.15-10.15s10.15 4.545 10.15 10.15v27.76c0 5.605-4.545 10.15-10.15 10.15z" fill="#373c41"/></g></g><g><g><path d="m297.658 213.381c-5.605 0-10.15-4.545-10.15-10.15v-13.056l3.742-5.666-3.742-5.666v-3.372c0-5.605 4.545-10.15 10.15-10.15s10.15 4.545 10.15 10.15v27.76c0 5.605-4.545 10.15-10.15 10.15z" fill="#373c41"/></g></g><g><g><g><path d="m228.327 160.245h-29.6c-5.606 0-10.15-4.544-10.15-10.15 0-5.606 4.544-10.15 10.15-10.15h29.6c5.606 0 10.15 4.544 10.15 10.15.001 5.606-4.544 10.15-10.15 10.15z" fill="#783c28"/></g></g></g><g><g><g><path d="m312.912 160.245h-29.6c-5.606 0-10.15-4.544-10.15-10.15 0-5.606 4.544-10.15 10.15-10.15h29.6c5.606 0 10.15 4.544 10.15 10.15 0 5.606-4.544 10.15-10.15 10.15z" fill="#783c28"/></g></g></g><path d="m294.834 269.534h-10.452l-27.525 5.715-27.525-5.715h-9.245c-3.102 0-5.58 2.707-5.166 5.781.792 5.881 2.774 11.384 5.696 16.259l55.734 16.517c12.587-6.179 21.706-18.34 23.649-32.775.413-3.075-2.065-5.782-5.166-5.782z" fill="#a51f6b"/><g><g><path d="m241.014 227.79c-2.523 10.076 2.062 21.052 10.832 24.36 1.765.666 3.652 1.026 5.614 1.026s3.85-.36 5.614-1.026c8.769-3.308 13.355-14.284 10.832-24.36l-8.365-33.403c-2.106-8.41-14.057-8.41-16.163 0z" fill="#ff965a"/></g></g><path d="m379.328 108.506v-32.065h-205.144v7.34c.296-.143.591-.284.885-.421 11.922-5.542 24.907 5.842 20.861 18.351-.05.154-.099.308-.147.462-2.74 8.719 3.833 17.585 12.972 17.585h59.812c22.031 0 41.22-12.153 51.238-30.12 3.825-6.861 12.369-9.728 19.472-6.374.138.065.276.131.414.197 10.478 5.035 18.054 14.246 21.398 25.043l.306.92z" fill="#783c28"/><g fill="#5a2d19"><path d="m134.386 79.976v68.257.003 61.596c9.015 0 16.323-7.308 16.323-16.323v-72.076c0-15.92 8.959-30.594 23.275-37.558.351-.171.702-.337 1.051-.5v-3.399z"/><path d="m370.274 98.649c-5.961 0-10.293 5.659-8.733 11.412.958 3.532 1.464 7.219 1.464 10.978v72.47c0 9.015 7.308 16.323 16.323 16.323v-102.13c0-4.999-4.054-9.053-9.054-9.053z"/></g><g fill="#fff"><path d="m208.547 193.916c-2.067 0-3.742-1.675-3.742-3.742v-11.332c0-2.066 1.675-3.742 3.742-3.742 2.067 0 3.742 1.675 3.742 3.742v11.332c-.001 2.067-1.676 3.742-3.742 3.742z"/><path d="m291.25 193.916c-2.067 0-3.742-1.675-3.742-3.742v-11.332c0-2.066 1.675-3.742 3.742-3.742 2.066 0 3.742 1.675 3.742 3.742v11.332c-.001 2.067-1.676 3.742-3.742 3.742z"/></g></g><path d="m220.621 291.57c7.501 12.512 21.189 20.889 36.838 20.889 6.779 0 13.188-1.577 18.888-4.375-2.45-15.372-15.764-27.121-31.826-27.121-9.479 0-18.002 4.093-23.9 10.607z" fill="#da4a54"/><path d="m278.327 280.963h-42.94c-3.344 0-6.055-2.711-6.055-6.055v-5.374h55.051v5.374c-.001 3.344-2.712 6.055-6.056 6.055z" fill="#fff"/><path d="m332.93 0h-111.724l-4.188.042c-23.726.24-42.834 19.542-42.834 43.269v33.129h205.144v-30.042c0-25.625-20.773-46.398-46.398-46.398z" fill="#783c28"/><path d="m221.206 0h-40.422c-25.625 0-46.398 20.773-46.398 46.398v34.798l40.65-1.22-.229-33.579c.001-25.624 20.774-46.397 46.399-46.397z" fill="#5a2d19"/><path d="m334.829 373.386c0 42.218 24.306 78.759 59.688 96.392 36.732-23.919 67.012-57.086 87.416-96.392z" fill="#415050"/><path d="m116.457 469.792c35.396-17.629 59.714-54.177 59.714-96.405h-147.105c20.356 39.185 50.585 72.418 87.391 96.405z" fill="#3c4646"/><path d="m343.805 231.903h-127.894c-10.603 0-19.199-8.596-19.199-19.199v-34.626c0-10.603 8.596-19.199 19.199-19.199h127.894c10.603 0 19.199 8.596 19.199 19.199v34.626c0 10.603-8.595 19.199-19.199 19.199z" fill="#415050"/><path d="m200.077 212.704v-34.626c0-10.603 8.596-19.199 19.199-19.199h-49.368c-10.603 0-19.199 8.596-19.199 19.199v34.626c0 10.603 8.596 19.199 19.199 19.199h49.368c-10.603 0-19.199-8.596-19.199-19.199z" fill="#3c4646"/><path d="m329.993 215.681h-51.895l-9.32-2.301-8.05 2.301h-9.558l-23.566-3.542-14 3.542h-1.048c-5.574 0-10.092-4.518-10.092-10.092v-20.397c0-5.574 4.518-10.092 10.092-10.092h31.342l16.83 4.035 20.736-4.035h9.785l7.193 3.154 9.95-3.154h21.601c5.574 0 10.092 4.518 10.092 10.092v20.397c0 5.574-4.518 10.092-10.092 10.092z" fill="#96dbbf"/><path d="m203.513 205.589v-20.397c0-5.573 4.518-10.092 10.092-10.092h-28.05c-5.574 0-10.092 4.518-10.092 10.092v20.397c0 5.573 4.518 10.092 10.092 10.092h28.05c-5.574 0-10.092-4.518-10.092-10.092z" fill="#55c7a6"/><path d="m281.464 175.101h-37.566l-30.294 40.58h37.566z" fill="#d6eed8"/><path d="m308.392 175.101h-17.37l-30.294 40.58h17.37z" fill="#d6eed8"/><g fill="#3c4646"><path d="m228.107 475.352h-71.088c-6.556 0-12.271 3.599-15.278 8.929 31.479 15.717 66.665 25.115 103.896 26.531v-17.931c0-9.68-7.848-17.529-17.53-17.529z"/><path d="m356.573 475.056h-71.088c-9.681 0-17.53 7.848-17.53 17.53v18.097h.332c36.865-1.829 71.804-11.523 103.081-27.503-3.111-4.884-8.574-8.124-14.795-8.124z"/></g></g></g></svg>