<svg id="Layer_1" enable-background="new 0 0 513.044 513.044" height="512" viewBox="0 0 513.044 513.044" width="512" xmlns="http://www.w3.org/2000/svg"><g><g><path d="m256.522 3.044c-98.131 0-158.58 55.352-158.747 55.445 0 0-2.513 3.137-2.983 5.222-3.818 16.948-7.385 39.663-7.385 56.238 0 140.833 118.763 254.972 259.596 254.972 54.231 0 114.568-25.992 154.949-57.243.903-.699 3.769-5.396 3.769-5.396.178-1.087 5.8-23.477 5.8-54.239.001-140.832-114.166-254.999-254.999-254.999z" fill="#da4a54"/><path d="m346.981 367.723c-140.833 0-255-114.167-255-255 0-18.615 2.007-36.753 5.795-54.234-58.646 46.72-96.254 118.747-96.254 199.555 0 73.281 30.912 139.343 80.407 185.857l358.61-9.33c31.923-33.247 54.986-75.222 65.182-122.288-43.559 34.695-98.724 55.44-158.74 55.44z" fill="#d80a61"/></g><g><g><path d="m315.758 29.475h-83.143v248.456h161.393v-170.206c.001-43.217-35.033-78.25-78.25-78.25z" fill="#fff"/></g><g><path d="m200.792 29.475c-43.217 0-78.251 35.034-78.251 78.25v170.039h110.836v-248.289z" fill="#e6dcdc"/></g><path d="m366.344 386.803h-2.183l-166.775 24.001v95.33c18.98 4.508 38.776 6.909 59.136 6.909 71.914 0 137.409-29.933 184.017-78.474-12.821-28.176-41.22-47.766-74.195-47.766z" fill="#55696e"/><path d="m198.052 409.805-38.075-22.997s-2.307-.108-6.357.245c-33.822 2.495-61.906 25.621-71.69 56.848 32.035 30.105 71.861 52.004 116.122 62.39z" fill="#415050"/><g><path d="m364.161 423.806-174.138-23.001c-17.76.008-25.762-.024-30.046.004v32.193c0 27.896 22.614 50.51 50.51 50.51h103.165c27.896 0 50.51-22.614 50.51-50.51v-9.196z" fill="#415050"/></g><g><path d="m364.161 386.803h-174.139c-17.76.008-25.762-.024-30.046.004v32.193c0 27.896 22.614 50.51 50.51 50.51h103.165c27.896 0 50.51-22.614 50.51-50.51z" fill="#b1e4f9"/></g><g><g><g><path d="m226.976 399.038v-80.305h72.083v80.305" fill="#9dc6fb"/></g><g><g><path d="m286.18 399.038c-6.724 4.187-14.658 6.612-23.162 6.612s-16.438-2.426-23.162-6.612h-20.731v6.993c0 24.241 19.651 43.893 43.893 43.893 24.241 0 43.893-19.651 43.893-43.893v-6.993z" fill="#415050"/></g></g><g><g><path d="m299.271 374.207c-8.225 11.073-21.4 18.25-36.254 18.25-14.853 0-28.029-7.177-36.254-18.25-4.905 0-8.882 3.976-8.882 8.882v8.868c0 25.308 20.712 46.502 46.015 46.018 24.521-.469 44.255-20.493 44.255-45.127v-9.759c.002-4.905-3.975-8.882-8.88-8.882z" fill="#f1d333"/></g></g></g></g><path d="m368.268 240.572-10.047-127.492c-8.521-11.602-22.26-19.124-37.741-19.124h-55.596c-30.978 0-59.132 12.079-80.02 31.779v158.951c0 39.944 39.167 61.231 71.203 70.149 1.901.529 14.216 2.339 20.26 1.316 52.229-8.839 92.005-54.293 92.005-109.038z" fill="#b1e4f9"/><g><g><g><path d="m370.85 233.535h-2.518v-65.091h2.518c12.79 0 23.158 10.368 23.158 23.158v18.775c.001 12.789-10.368 23.158-23.158 23.158z" fill="#9dc6fb"/></g></g></g><g><g><g><path d="m145.712 233.535h2.518v-65.091h-2.518c-12.79 0-23.158 10.368-23.158 23.158v18.775c-.001 12.789 10.368 23.158 23.158 23.158z" fill="#9dc6fb"/></g></g></g><g><g><g><path d="m211.507 205.886v9.406c0 5.037 4.084 9.121 9.121 9.121s9.121-4.084 9.121-9.121v-9.406z" fill="#9dc6fb"/></g></g></g><g><g><g><path d="m285.994 205.886v9.406c0 5.037 4.084 9.121 9.121 9.121s9.121-4.084 9.121-9.121v-9.406z" fill="#9dc6fb"/></g></g></g><g><g><g><path d="m220.628 216.813c-5.037 0-9.121-4.084-9.121-9.121v-6.727l3.661-5.5-3.661-5.5v-7.218c0-5.037 4.084-9.121 9.121-9.121s9.121 4.084 9.121 9.121v24.945c0 5.037-4.084 9.121-9.121 9.121z" fill="#373c41"/></g></g></g><g><g><g><path d="m295.115 216.813c-5.037 0-9.121-4.084-9.121-9.121v-8.533l3.661-5.5-3.661-5.5v-5.412c0-5.037 4.084-9.121 9.121-9.121s9.121 4.084 9.121 9.121v24.945c0 5.037-4.084 9.121-9.121 9.121z" fill="#373c41"/></g></g></g><g><g><g><g><path d="m232.644 169.066h-26.599c-5.037 0-9.121-4.084-9.121-9.121 0-5.037 4.084-9.121 9.121-9.121h26.599c5.037 0 9.121 4.084 9.121 9.121 0 5.037-4.083 9.121-9.121 9.121z" fill="#fff"/></g></g></g></g><g><g><g><g><path d="m308.652 169.066h-26.599c-5.037 0-9.121-4.084-9.121-9.121 0-5.037 4.084-9.121 9.121-9.121h26.599c5.037 0 9.121 4.084 9.121 9.121-.001 5.037-4.084 9.121-9.121 9.121z" fill="#fff"/></g></g></g></g><g><g><g><path d="m244.044 232.442c-2.267 7.99 1.853 16.693 9.733 19.316 1.586.528 3.282.814 5.045.814s3.459-.286 5.045-.814c7.88-2.623 12.001-11.327 9.733-19.316l-11.059-38.969c-1.064-3.748-6.376-3.748-7.439 0z" fill="#fff"/></g></g></g><path d="m201.082 150.406h144.452s9.927-25.041 9.927-55.93c0 0-75.939-.643-180.025-.158l-27.206 146.254v7.626c0 67.312 60.409 119.383 128.093 107.924-51.671-8.79-91.022-53.748-91.022-107.924.063-110.854-.186-85.918.298-97.758z" fill="#9dc6fb"/><g><path d="m293.715 268.049h-9.579l-25.228 5.238-25.228-5.238h-8.474c-2.843 0-5.114 2.481-4.735 5.299.726 5.39 2.543 10.434 5.221 14.902l51.083 15.138c11.537-5.663 19.894-16.809 21.676-30.04.378-2.817-1.894-5.299-4.736-5.299z" fill="#a51f6b"/></g><g><path d="m225.695 288.247c6.875 11.468 19.421 19.146 33.764 19.146 6.213 0 12.087-1.445 17.312-4.01-2.246-14.089-14.448-24.858-29.17-24.858-8.688 0-16.5 3.752-21.906 9.722z" fill="#da4a54"/></g><g><path d="m279.13 278.525h-40.445c-2.765 0-5.006-2.241-5.006-5.006v-5.47h50.457v5.47c-.001 2.765-2.242 5.006-5.006 5.006z" fill="#fff"/></g><g><path d="m215.527 204.626h-.718c-1.824 0-3.302-1.478-3.302-3.302v-11.718c0-1.824 1.478-3.302 3.302-3.302h.718c1.824 0 3.302 1.478 3.302 3.302v11.718c0 1.824-1.478 3.302-3.302 3.302z" fill="#fff"/></g><g><path d="m290.014 202.82h-.718c-1.824 0-3.302-1.478-3.302-3.302v-11.718c0-1.824 1.478-3.302 3.302-3.302h.718c1.824 0 3.302 1.478 3.302 3.302v11.718c0 1.824-1.478 3.302-3.302 3.302z" fill="#fff"/></g><g><path d="m151.532 237.774-3.302 2.798v-153.43h30.008v93.008c-.001 22.199-9.768 43.274-26.706 57.624z" fill="#e6dcdc"/></g><g><path d="m365.03 237.774 3.302 2.798v-153.43h-30.008v93.008c.001 22.199 9.768 43.274 26.706 57.624z" fill="#fff"/></g><g><g><path d="m333.407 113.087c-1.202 0-2.412-.392-3.425-1.2-2.375-1.894-2.766-5.354-.871-7.729l60.598-75.987c1.894-2.375 5.354-2.765 7.729-.871s2.766 5.354.871 7.729l-60.598 75.987c-1.086 1.362-2.687 2.071-4.304 2.071z" fill="#9dc6fb"/></g><g><path d="m381.161 60.452c-2.842 0-5.702-.927-8.097-2.837-5.613-4.477-6.535-12.656-2.059-18.269l27.474-34.45c4.477-5.613 12.656-6.535 18.27-2.058 5.613 4.477 6.535 12.656 2.059 18.269l-27.474 34.45c-2.567 3.218-6.352 4.895-10.173 4.895z" fill="#9dc6fb"/></g></g><g><g><path d="m195.736 113.087c-1.617 0-3.218-.709-4.304-2.071l-60.597-75.987c-1.895-2.375-1.504-5.835.871-7.729 2.374-1.895 5.835-1.503 7.729.871l60.597 75.987c1.895 2.375 1.504 5.835-.871 7.729-1.013.808-2.223 1.2-3.425 1.2z" fill="#9dc6fb"/></g><g><path d="m147.982 60.452c-3.821 0-7.605-1.676-10.173-4.895l-27.473-34.45c-4.477-5.614-3.555-13.793 2.059-18.27 5.616-4.478 13.794-3.554 18.27 2.059l27.473 34.45c4.477 5.614 3.555 13.793-2.059 18.27-2.395 1.908-5.257 2.836-8.097 2.836z" fill="#9dc6fb"/></g></g><g><path d="m333.412 141.336h-142.146v-34.909c0-10.651 8.635-19.286 19.286-19.286h103.573c10.651 0 19.286 8.635 19.286 19.286v34.909z" fill="#fff"/></g></g></g></svg>