<svg id="Layer_1" enable-background="new 0 0 510 510" height="512" viewBox="0 0 510 510" width="512" xmlns="http://www.w3.org/2000/svg"><g><g><g><path d="m255 35.595c-91.282 0-147.512 51.489-147.667 51.576 0 0-2.338 2.918-2.775 4.858-3.552 15.766-6.87 36.895-6.87 52.313 0 131.003 110.474 237.176 241.478 237.176 50.446 0 106.572-24.178 144.135-53.248.84-.65 3.506-5.02 3.506-5.02.165-1.011 5.396-21.838 5.396-50.453 0-131.003-106.2-237.202-237.203-237.202z" fill="#b1e4f9"/></g><path d="m339.145 374.822c-131.003 0-237.202-106.199-237.202-237.203 0-17.316 1.867-34.188 5.39-50.449-54.552 43.46-89.536 110.459-89.536 185.627 0 50.202 15.595 96.761 42.205 135.097l.921 1.317 23.099 3.227 6.092 30.882c4.499 4.352 9.171 8.527 14.003 12.514l1.858 1.517 298.037-.007c5.495-4.438 10.79-9.119 15.868-14.027l8.509-25.925 20.689-8.174c17.857-25.356 30.898-54.434 37.729-85.968-40.519 32.274-91.834 51.572-147.662 51.572z" fill="#9dc6fb"/></g><g><g><g><path d="m327.561 384.122h69.184v74.885h-69.184z" fill="#373c41" transform="matrix(-1 0 0 -1 724.306 843.129)"/></g><path d="m435.879 381.34c-20.029-23.15-54.474-26.432-78.464-8.069l56.478 65.279c1.779 2.056 3.813 3.634 5.986 4.767 10.758-10.396 20.544-21.811 29.198-34.099-1.71-9.989-6.082-19.654-13.198-27.878z" fill="#f1d333"/><g><path d="m113.255 384.122h69.184v74.885h-69.184z" fill="#373c41"/></g><path d="m74.121 381.34c-7.114 8.223-11.486 17.885-13.197 27.872 8.646 12.278 18.427 23.698 29.191 34.108 2.176-1.133 4.212-2.712 5.992-4.77l56.478-65.279c-23.99-18.363-58.435-15.081-78.464 8.069z" fill="#f1d333"/></g><path d="m400.492 456.461h-.073c-16.668 0-30.969-21.812-37.125-52.932-3.712-18.766-20.071-32.353-39.201-32.353h-5.186l-5.673 2.4-6.327-2.4h-51.764v138.823c38.106-.023 74.271-9.08 106.351-25.224l4.804-5.731 5.826.038c11.225-6.384 21.888-13.66 31.888-21.738-1.042-.569-2.245-.888-3.52-.883z" fill="#9bd069"/><path d="m185.907 371.176c-19.129 0-35.488 13.587-39.2 32.353-6.156 31.12-20.457 52.932-37.125 52.932h-.073c-1.281-.005-2.489.317-3.534.891 9.993 8.079 20.655 15.363 31.89 21.756l6.598-1.275 4.032 6.97c32.026 16.12 68.205 25.197 106.505 25.197.169 0 .338-.001.508-.001v-138.823h-52.414l-4.796 4.162-7.204-4.162z" fill="#57988b"/><g><circle cx="255" cy="384.122" fill="#f1d333" r="39.081"/></g><g><path d="m255 402.985c-13.074 0-23.672-10.598-23.672-23.672v-66.684h47.343v66.684c.001 13.074-10.597 23.672-23.671 23.672z" fill="#373c41"/></g><g><path d="m255 362.98c-17.718 0-32.081-14.363-32.081-32.081v-81.965c0-4.644 3.765-8.409 8.409-8.409h47.343c4.644 0 8.409 3.765 8.409 8.409v81.965c.001 17.718-14.362 32.081-32.08 32.081z" fill="#9bd069"/></g><g><path d="m287.081 329.722v-80.788c0-4.644-3.765-8.409-8.409-8.409h-47.343c-4.644 0-8.409 3.765-8.409 8.409v80.788z" fill="#57988b"/></g><path d="m191.094 401.684c0 16.291-7.339 31.415-20.136 41.495l-13.681 10.778c-8.612 6.784-15.209 15.429-19.412 25.15 1.33.757 2.668 1.501 4.014 2.233 2.185 1.188 4.39 2.342 6.616 3.462 3.4-8.299 8.918-15.677 16.207-21.42l13.681-10.778c15.704-12.369 24.71-30.93 24.71-50.921v-30.508h-12v30.509z" fill="#373c41"/><path d="m352.723 453.957-13.681-10.778c-12.796-10.08-20.136-25.204-20.136-41.495v-30.508h-12v30.508c0 19.991 9.006 38.552 24.71 50.921l13.681 10.778c7.281 5.736 12.795 13.105 16.196 21.392 3.596-1.81 7.14-3.708 10.63-5.693-4.203-9.711-10.796-18.347-19.4-25.125z" fill="#373c41"/><g><g><path d="m296.709 314.731h-83.419c-52.863 0-95.717-42.854-95.717-95.717h274.853c0 52.863-42.854 95.717-95.717 95.717z" fill="#373c41"/></g><g><path d="m110.208 231.181c24.567 0 46.449 11.464 60.601 29.332 20.444 25.814 51.263 41.239 84.191 41.239 32.928 0 63.748-15.425 84.191-41.239 14.152-17.869 36.034-29.332 60.601-29.332 1.757 0 3.494.08 5.221.195v-69.101l-3.047-7.451 3.047-4.549v-.262c.001-82.85-67.162-150.013-150.013-150.013-82.85 0-150.014 67.163-150.014 150.014v81.362c1.728-.115 3.465-.195 5.222-.195z" fill="#9bd069"/></g><path d="m267.245 144.982c39.081-5.905 69.037-39.637 69.037-80.366v-26.701l-162.567-14.006c-41.354 26.711-68.729 73.211-68.729 126.104v.261l3.284 5.594-3.284 6.406v69.101c1.728-.115 3.465-.195 5.221-.195 24.567 0 46.449 11.463 60.601 29.333 20.443 25.813 51.263 41.239 84.191 41.239.169 0 .338-.007.507-.007v-.027c0-5.938 4.329-10.899 10.176-11.937 28.441-5.048 50.038-29.894 50.038-59.784 0-33.366-26.912-60.446-60.213-60.719v-10.453c.001-6.864 4.951-12.818 11.738-13.843z" fill="#57988b"/><g><g><circle cx="255" cy="216.996" fill="#373c41" r="60.721"/></g><g><circle cx="255" cy="216.996" fill="#da4a54" r="42.742"/></g><g><circle cx="255" cy="216.996" fill="#373c41" r="16.021"/></g><g><circle cx="242.762" cy="206.185" fill="#fff" r="12.238"/></g></g><g><path d="m255 0c-.174 0-.345.009-.518.01v131.875c.173.001.344.013.518.013 44.891 0 81.282-36.391 81.282-81.282v-26.702c-23.422-15.129-51.325-23.914-81.282-23.914z" fill="#b7e445"/></g><g><path d="m253.885.004c-.223.002-.446.004-.668.006-.076.001-.151.002-.227.003-.285.004-.571.008-.855.013-.058.001-.115.002-.173.004-.23.005-.46.01-.689.015-.091.002-.183.004-.274.007-.233.006-.466.013-.699.02-.056.001-.112.003-.168.005-.281.009-.561.019-.841.029-.084.003-.168.007-.253.01-.209.008-.417.017-.626.026-.09.004-.18.008-.27.012-.273.012-.546.025-.819.039-.071.003-.142.007-.212.011-.217.011-.433.023-.65.035-.1.006-.2.011-.3.017-.197.011-.393.023-.59.036-.093.006-.185.011-.278.017-.259.017-.518.034-.777.052-.118.008-.235.017-.353.025-.165.012-.329.024-.494.036-.123.009-.246.019-.369.028-.182.014-.364.029-.546.043-.171.014-.342.028-.513.042-.17.014-.341.029-.511.044-.147.013-.294.026-.441.039-.125.011-.251.023-.376.035-.15.014-.299.028-.449.042-.123.012-.246.024-.369.036-.271.027-.542.054-.812.083-.107.011-.213.022-.319.033-.162.017-.325.035-.487.053-.101.011-.203.022-.304.034-.369.041-.737.083-1.104.127-.017.002-.034.004-.051.006-.19.023-.379.046-.568.069-.065.008-.131.016-.196.024-.196.024-.392.049-.588.074-.005 0-.011.001-.017.002-.664.086-1.326.176-1.988.27-.025.004-.05.007-.074.01-21.823 3.121-42.13 10.939-59.867 22.396v26.701c0 44.891 36.391 81.282 81.282 81.282.169 0 .338 0 .507-.001v-131.888c-.171 0-.339-.006-.509-.006-.29 0-.579.001-.868.003-.082 0-.165.001-.247.001z" fill="#9bd069"/></g><g><path d="m167.56 277.717h-12v-75.936c0-7.259-1.998-14.371-5.776-20.568-7.124-11.681-20.048-18.938-33.729-18.938h-11.068v-12h11.068c17.837 0 34.687 9.461 43.975 24.689 4.927 8.081 7.531 17.354 7.531 26.816v75.937z" fill="#373c41"/></g><g><path d="m354.44 277.717h-12v-75.936c0-9.463 2.604-18.735 7.531-26.816 9.288-15.229 26.138-24.689 43.975-24.689h11.068v12h-11.068c-13.682 0-26.606 7.257-33.729 18.938-3.779 6.197-5.776 13.31-5.776 20.568v75.935z" fill="#373c41"/></g></g></g></g></svg>