<svg id="Layer_1" enable-background="new 0 0 511.114 511.114" height="512" viewBox="0 0 511.114 511.114" width="512" xmlns="http://www.w3.org/2000/svg"><g><g><g><path d="m255.557 20.928c-94.318 0-152.419 53.202-152.579 53.291 0 0-2.416 3.015-2.867 5.019-3.67 16.29-7.098 38.122-7.098 54.053 0 135.361 114.149 245.066 249.51 245.066 52.124 0 110.117-24.982 148.929-55.019.868-.672 3.623-5.187 3.623-5.187.171-1.044 5.575-22.564 5.575-52.131 0-135.36-109.732-245.092-245.093-245.092z" fill="#ecc32e"/></g><path d="m342.501 371.439c-135.361 0-245.093-109.731-245.093-245.093 0-17.892 1.93-35.325 5.57-52.127-56.366 44.905-92.514 114.134-92.514 191.802 0 55.581 18.501 106.84 49.68 147.956l390.817.019c21.09-27.8 36.416-60.313 44.114-95.844-41.867 33.348-94.889 53.287-152.574 53.287z" fill="#e7a52e"/></g><path d="m397.013 369.232-9.053-2.003c-14.73 2.764-29.925 4.21-45.458 4.21-40.925 0-79.507-10.03-113.422-27.767l-115.026 25.53c-24.735 5.49-44.44 22.578-53.909 44.775 19.332 25.494 43.539 47.087 71.231 63.394l5.752-.774 6.325 7.435c9.63 4.962 19.631 9.304 29.951 12.975l164.305-.03c10.312-3.671 20.314-8.014 29.951-12.979l5.283-6.74 6.717.127c27.669-16.272 51.918-37.84 71.3-63.389-9.479-22.203-29.199-39.288-53.947-44.764z" fill="#f1d333"/><path d="m143.454 484.031v-25.815c0-.743-.138-1.48-.408-2.174l-31.091-80.001-11.185 4.348 30.683 78.952v18.075c3.932 2.313 7.933 4.519 12.001 6.615z" fill="#734a9b"/><path d="m368.068 456.042c-.27.693-.407 1.431-.407 2.174v25.781c4.066-2.095 8.068-4.3 12-6.613v-18.043l30.684-78.952-11.186-4.348z" fill="#734a9b"/><g><path d="m438.792 342.626-182.353-40.352-184.116 40.865c0 55.743 45.188 100.931 100.931 100.931h164.607c55.743 0 100.931-45.188 100.931-100.931z" fill="#453d81"/></g><g><path d="m363.693 322.305-232.97.326c0 37.976 30.786 68.762 68.762 68.762h112.144c37.976 0 65.375-24.464 65.375-62.44z" fill="#f1d333"/></g><g><path d="m255.557 511.114c28.738 0 56.409-4.974 82.152-14.138v-27.999c0-21.961-17.803-39.765-39.765-39.765h-31.846c-20.985 0-37.997 17.012-37.997 37.997v42.384c9.014 1.005 18.175 1.521 27.456 1.521z" fill="#9bd069"/></g><g><path d="m213.17 429.212c-21.962 0-39.765 17.804-39.765 39.765v28.029c18.115 6.443 37.211 10.815 57.004 12.833v-40.862c0-21.961 17.803-39.765 39.765-39.765z" fill="#6ec17d"/></g><g><path d="m253.3 303.382c65.312 0 118.258 14.305 118.258 31.952s-52.946 31.952-118.258 31.952-118.257-14.306-118.257-31.952 52.945-31.952 118.257-31.952m0-10.704c-32.504 0-63.192 3.455-86.412 9.729-28.233 7.628-42.549 18.706-42.549 32.926s14.315 25.298 42.549 32.927c23.22 6.274 53.909 9.729 86.413 9.729s63.192-3.455 86.413-9.729c28.233-7.628 42.548-18.707 42.548-32.927s-14.315-25.298-42.549-32.926c-23.221-6.273-53.909-9.729-86.413-9.729z" fill="#fff"/></g><g><path d="m371.557 335.724h-236.515v-217.467c0-65.311 52.946-118.257 118.258-118.257 65.312 0 118.257 52.946 118.257 118.257z" fill="#b1e4f9"/></g><g><ellipse cx="253.3" cy="335.334" fill="#07b1d8" rx="118.257" ry="31.952"/></g><g><g><g><path d="m296.494 280.211v59.616c0 4.213-2.781 7.909-6.816 9.121-23.546 7.073-46.454 7.577-68.597.172-3.866-1.293-6.462-4.934-6.462-9.011v-60.649c0-6.482 1.857-12.828 5.352-18.286 3.495-5.459 5.352-11.805 5.352-18.286v-57.993h60.467v58.657c0 6.064 1.626 12.018 4.708 17.24l1.287 2.18c3.083 5.221 4.709 11.175 4.709 17.239z" fill="#8659b9"/></g></g></g><g><g><g><path d="m285.819 244.389c-.007-.28-.028-.558-.028-.838v-58.657h-60.467v57.993c0 .502-.032 1.001-.054 1.502 20.183 8.705 40.366 8.705 60.549 0z" fill="#5853ad"/></g></g></g><g><path d="m357.206 135.494c0 56.139-45.51 101.649-101.649 101.649s-101.649-45.51-101.649-101.649 45.51-123.468 101.649-123.468 101.649 67.329 101.649 123.468z" fill="#8659b9"/></g><g><circle cx="255.557" cy="72.008" fill="#fff" r="35.771"/></g><g><path d="m214.62 85.615c5.006 17.908 21.432 31.049 40.937 31.049s35.931-13.141 40.937-31.049z" fill="#5853ad"/></g><g><circle cx="255.557" cy="70.874" fill="#373c41" r="9.985"/></g><g><g><path d="m293.048 125.868h-9.967l-26.25 5.45-26.25-5.45h-8.817c-2.958 0-5.321 2.582-4.927 5.513.755 5.608 2.645 10.856 5.433 15.505l53.152 15.752c12.004-5.892 20.7-17.49 22.554-31.257.393-2.931-1.97-5.513-4.928-5.513z" fill="#a51f6b"/></g><g><path d="m222.273 146.884c7.153 11.932 20.208 19.921 35.132 19.921 6.465 0 12.577-1.504 18.013-4.173-2.337-14.66-15.034-25.865-30.352-25.865-9.04.001-17.168 3.904-22.793 10.117z" fill="#da4a54"/></g><g><path d="m277.306 136.768h-40.951c-3.189 0-5.775-2.585-5.775-5.775v-5.125h52.501v5.125c0 3.189-2.586 5.775-5.775 5.775z" fill="#fff"/></g></g><g><path d="m180.385 204.515h-21.993v-39.075s14.846 10.258 14.846 16.331z" fill="#d2f0ff"/></g><g><path d="m169.388 135.48c-6.073 0-10.997 4.923-10.997 10.997v18.963c4.454 14.468 12.05 27.56 21.993 38.477v-57.44c.001-6.073-4.922-10.997-10.996-10.997z" fill="#9595e5"/></g><g><path d="m180.385 310.177-8.227 18.026-13.766-11.934v-97.392h21.993z" fill="#d2f0ff"/></g><g><path d="m158.392 316.269v19.065h21.993v-25.157c-8.293 1.757-15.695 3.807-21.993 6.092z" fill="#73c8f0"/></g><g><circle cx="250.564" cy="61.552" fill="#fff" r="4.993"/></g></g></svg>