<svg id="Layer_1" enable-background="new 0 0 510 510" height="512" viewBox="0 0 510 510" width="512" xmlns="http://www.w3.org/2000/svg"><g><g><path d="m255 10.897c-96.034 0-155.192 54.169-155.355 54.261 0 0-2.46 3.07-2.919 5.111-3.737 16.586-7.228 38.816-7.228 55.037 0 137.824 116.226 249.524 254.049 249.524 53.073 0 112.12-25.437 151.639-56.02.884-.684 3.689-5.281 3.689-5.281.174-1.063 5.677-22.975 5.677-53.08 0-137.824-111.728-249.552-249.552-249.552z" fill="#b1e4f9"/><path d="m343.526 367.784c-137.823 0-249.551-111.729-249.551-249.552 0-18.217 1.964-35.967 5.671-53.075-57.393 45.722-94.198 116.21-94.198 195.291 0 58.742 20.296 112.744 54.259 155.375l390.586.005c23.365-29.318 40.305-64.096 48.582-102.301-42.628 33.955-96.615 54.257-155.349 54.257z" fill="#9dc6fb"/></g><g><g><path d="m304.385 123.307h-100.368v-123.307l50.184 16.528 50.184-16.528z" fill="#3c4646"/></g><g><path d="m392.07 328.868-274.186-.029c-33.99 7.544-58.177 37.688-58.177 72.505v14.479c45.722 57.392 116.212 94.177 195.293 94.177 78.598 0 149.361-36.538 195.293-94.172v-14.445c0-34.835-24.211-64.988-58.223-72.515z" fill="#634086"/><g><path d="m251.355 462.415c11.552-11.484 23.099-22.974 34.638-34.472 13.125-13.079 26.242-26.165 39.354-39.257 13.061-13.041 26.117-26.087 39.171-39.135 7.311-7.308 14.62-14.618 21.93-21.927l-131.742-29.153-136.822 30.368c-.028.006-.056.014-.084.021z" fill="#9bd069"/></g><g><g><g><path d="m255.263 398.114c-33.498 0-60.653-27.155-60.653-60.653v-135.852h121.305v135.853c.001 33.497-27.155 60.652-60.652 60.652z" fill="#f1d333"/></g></g></g><g><g><g><path d="m255.263 373.452c-21.908 0-39.668-17.76-39.668-39.668v-88.85h79.336v88.85c0 21.908-17.76 39.668-39.668 39.668z" fill="#ff965a"/></g></g></g><g><g><g><path d="m362.873 105.756c0-36.201-23.223-69.303-59.424-69.303h-96.373c-10.33 0-19.79 2.703-28.044 7.397v191.34c0 41.762 33.169 74.455 74.931 74.771.293.002 5.383 1.433 7.404 1.325 59.359-3.171 106.515-52.306 106.515-112.456v-35.554z" fill="#ffbe82"/></g></g></g><g><g><path d="m261.367 311.284c-47.348-13.75-81.958-57.445-81.958-109.228.281-6.399 0-68.405 0-91.959 0-36.201 29.346-65.547 65.547-65.547h81.804c-7.196-2.795-15.042-4.341-23.311-4.341h-96.373c-36.201 0-63.066 26.865-63.066 63.066l-2.481 60.001v34.439c.001 65.001 54.464 117.032 119.838 113.569z" fill="#ff965a"/></g></g><g><path d="m278.329 250.202h-46.133c-10.087 0-18.263-8.177-18.263-18.263h82.66c0 10.087-8.177 18.263-18.264 18.263z" fill="#fff"/></g></g><g><path d="m323.395 40.154c-6.086-2.377-12.755-3.701-19.945-3.701h-96.373c-4.123 0-8.105.437-11.931 1.253-5.689 3.395-11.076 7.241-16.113 11.49v185.992c0 12.214 2.891 23.77 8.001 34.029 14.133-13.504 22.951-32.523 22.951-53.613 0-10.293 8.344-18.637 18.638-18.637h57.365c10.293 0 18.637 8.344 18.637 18.637 0 25.315 12.692 47.655 32.051 61.037 19.332-20.22 31.207-47.629 31.207-77.812v-35.554l-5.009-57.519c0-13.409-3.194-26.388-9.046-37.423-8.45-11.039-18.746-20.587-30.433-28.179z" fill="#ff965a"/></g><g><g><g><path d="m240.065 197.089c-2.332 9.311 1.906 19.454 10.01 22.511 1.631.615 3.375.948 5.188.948s3.558-.333 5.188-.948c8.104-3.057 12.342-13.2 10.01-22.511l-7.73-30.868c-1.946-7.771-12.99-7.771-14.936 0z" fill="#da4a54"/></g></g></g><g><path d="m257.305 4.42c-67.093 0-121.483 54.39-121.483 121.483v147.673c40.959 0 74.163-33.204 74.163-74.163 0-10.293 8.344-18.637 18.637-18.637h57.365c10.293 0 18.637 8.344 18.637 18.637 0 40.959 33.204 74.163 74.163 74.163v-147.674c0-67.092-54.39-121.482-121.482-121.482z" fill="#634086"/></g><g><path d="m252.054 4.54c-64.656 2.75-116.232 56.029-116.232 121.362v147.673c40.959 0 74.163-33.204 74.163-74.163 0-10.293 8.344-18.637 18.637-18.637h23.432z" fill="#5e3881"/></g><g><path d="m270.619 70.188c0-28.329 13.181-53.565 33.728-69.958l.038-.23h-100.368l.062.381c20.438 16.397 33.536 41.566 33.536 69.807 0 17.822-5.232 34.413-14.214 48.36l1.351 8.262h58.897l1.317-8.054c-9.063-13.99-14.347-30.657-14.347-48.568z" fill="#f1d333"/></g><path d="m89.388 344.282c-1.256-3.066-4.759-4.534-7.827-3.276-3.065 1.256-4.533 4.761-3.276 7.827l12.247 29.887c2.268 5.535 3.417 11.374 3.417 17.356v55.006c3.899 3.298 7.901 6.478 12 9.535v-64.541c0-7.55-1.451-14.92-4.313-21.906z" fill="#3c4646"/><path d="m428.44 341.005c-3.066-1.258-6.57.21-7.827 3.276l-12.247 29.889c-2.862 6.985-4.313 14.355-4.313 21.905v64.517c4.098-3.054 8.1-6.232 12-9.528v-54.989c0-5.982 1.149-11.821 3.417-17.355l12.247-29.888c1.256-3.066-.212-6.571-3.277-7.827z" fill="#3c4646"/><g><path d="m333.452 115.67h-88.214c-16.38 0-29.659 13.279-29.659 29.659 0 16.38 13.279 29.659 29.659 29.659h88.213c16.381 0 29.66-13.279 29.66-29.66 0-16.379-13.279-29.658-29.659-29.658z" fill="#9bd069"/></g><g><path d="m216.183 145.33c0-16.381 13.279-29.66 29.66-29.66h-65.004c-16.38 0-29.659 13.279-29.659 29.659 0 16.38 13.279 29.659 29.659 29.659h65.004c-16.381.001-29.66-13.278-29.66-29.658z" fill="#6ec17d"/></g><g><path d="m323.866 132.23h-88.438c-6.828 0-12.364 5.535-12.364 12.364 0 6.828 5.535 12.364 12.364 12.364h88.848c6.905 0 12.488-5.661 12.361-12.596-.124-6.807-5.963-12.132-12.771-12.132z" fill="#da4a54"/></g><g><path d="m224.68 144.593c0-6.828 5.535-12.363 12.364-12.363h-51.003c-6.828 0-12.363 5.535-12.363 12.363s5.535 12.364 12.363 12.364h51.003c-6.828 0-12.364-5.536-12.364-12.364z" fill="#d80a61"/></g><g><path d="m378.787 267.576c-37.585 0-68.163-30.578-68.163-68.163 0-13.585-11.053-24.638-24.638-24.638h-36.876c.484 1.676.797 3.422.877 5.222.106 2.361-.285 4.645-1.067 6.778h37.066c6.969 0 12.638 5.669 12.638 12.638 0 44.202 35.961 80.163 80.163 80.163 3.313 0 6-2.687 6-6s-2.686-6-6-6z" fill="#f1d333"/></g><g><path d="m135.821 279.576c-3.313 0-6-2.687-6-6s2.687-6 6-6c37.585 0 68.163-30.578 68.163-68.163 0-13.585 11.053-24.638 24.638-24.638h23.432c3.313 0 6 2.687 6 6s-2.687 6-6 6h-23.432c-6.969 0-12.638 5.669-12.638 12.638 0 44.202-35.96 80.163-80.163 80.163z" fill="#e7a52e"/></g><g><g><g><path d="m233.258 417.436-34.951 34.951-110.809-110.809c11.339-11.357 28.561-17.494 50.13-19.773z" fill="#3c4646"/></g></g><g><g><path d="m276.96 417.436 34.951 34.951 110.809-110.809c-11.339-11.357-28.561-17.494-50.13-19.773z" fill="#3c4646"/></g></g><path d="m255.023 510c9.569-.001 19.022-.544 28.328-1.6 5.398-2.021 10.034-5.865 13.006-11.014l19.478-33.736c4.506-7.806 4.506-17.422 0-25.228l-19.478-33.736c-4.506-7.806-12.834-12.614-21.847-12.614h-38.956c-9.013 0-17.341 4.808-21.847 12.614l-19.478 33.736c-4.506 7.806-4.506 17.422 0 25.228l19.478 33.736c2.983 5.167 7.641 9.02 13.062 11.034 9.254 1.042 18.661 1.578 28.192 1.58z" fill="#da4a54"/><g><path d="m269.377 412.792h-28.691c-4.786 0-9.209 2.553-11.602 6.699l-14.346 24.847c-2.393 4.145-2.393 9.252 0 13.397l14.346 24.847c2.393 4.145 6.816 6.699 11.602 6.699h28.691c4.786 0 9.209-2.553 11.602-6.699l14.346-24.847c2.393-4.145 2.393-9.252 0-13.397l-14.345-24.848c-2.393-4.145-6.816-6.698-11.603-6.698z" fill="#f1d333"/></g></g></g></g></svg>