<svg id="Layer_1" enable-background="new 0 0 507.648 507.648" height="512" viewBox="0 0 507.648 507.648" width="512" xmlns="http://www.w3.org/2000/svg"><g><g><path d="m253.824 8.934c-95.959 0-155.071 54.127-155.234 54.218 0 0-2.458 3.067-2.917 5.107-3.734 16.573-7.222 38.785-7.222 54.994 0 137.716 116.135 249.33 253.851 249.33 53.031 0 112.032-25.417 151.52-55.976.883-.684 3.686-5.277 3.686-5.277.174-1.063 5.672-22.957 5.672-53.038.002-137.717-111.64-249.358-249.356-249.358z" fill="#b1e4f9"/><g><path d="m433.966 430.703c31.114-32.478 53.594-73.447 63.543-119.374-42.595 33.928-96.539 54.214-155.228 54.214-137.716 0-249.357-111.641-249.357-249.357 0-18.203 1.963-35.939 5.667-53.034-57.348 45.686-94.124 116.119-94.124 195.139 0 66.893 26.344 127.629 69.217 172.412z" fill="#9dc6fb"/></g></g><g><path d="m389.675 400.297-74.002-16.375-140.84 20.718v90.218c24.825 8.286 51.38 12.792 78.991 12.792 70.612 0 134.895-29.513 180.507-77.325-10.284-14.878-25.979-25.895-44.656-30.028z" fill="#55696e"/><path d="m253.532 370.171-135.605 30.098c-18.668 4.143-34.352 15.165-44.627 30.041 27.866 29.235 62.761 51.711 101.975 64.715v-22.896c0-34.507 23.972-64.383 57.659-71.86l78.188-17.354z" fill="#415050"/><g><path d="m254.085 472.565c34.015 0 61.589-27.574 61.589-61.589v-27.055l-62.141-13.751-61.036 13.547v27.259c-.001 34.015 27.573 61.589 61.588 61.589z" fill="#415050"/><g><g><path d="m254.085 444.484c-21.713 0-39.315-17.602-39.315-39.315v-88.06h78.63v88.06c0 21.714-17.602 39.315-39.315 39.315z" fill="#55696e"/></g></g><g><g><path d="m365.702 250.924v-14.747l-4.964-57.008c0-35.879-23.017-68.687-58.896-68.687h-95.516c-10.238 0-19.614 2.679-27.795 7.331v133.111z" fill="#ffbe82"/></g></g><g><g><path d="m365.702 256.47v-66.344c14.453 0 26.17 11.717 26.17 26.17v14.004c0 14.453-11.716 26.17-26.17 26.17z" fill="#ff965a"/></g></g><g><g><path d="m115.192 230.299c0 14.453 11.717 26.17 26.17 26.17v-66.344c-14.453 0-26.17 11.717-26.17 26.17z" fill="#ff965a"/></g></g><g><g><path d="m205.858 229.705v7.871c0 5.134 4.163 9.296 9.296 9.296 5.134 0 9.296-4.162 9.296-9.296v-7.871z" fill="#ff965a"/></g></g><g><g><path d="m281.605 229.705v7.871c0 5.134 4.163 9.296 9.296 9.296 5.134 0 9.296-4.162 9.296-9.296v-7.871z" fill="#ff965a"/></g></g><g><path d="m179.029 250.924c-.008-21.737-.124-52.457-.124-67.453 0-35.879 29.085-64.964 64.964-64.964h81.076c-7.132-2.77-14.908-4.302-23.104-4.302h-95.516c-35.879 0-62.505 26.626-62.505 62.505l-2.459 59.467v14.747z" fill="#ff965a"/></g><path d="m178.532 250.399v57.052c0 16.131 5.057 31.121 13.679 43.427l128.981 9.735c27.033-20.37 44.51-52.743 44.51-89.199v-21.016h-187.17z" fill="#55696e"/><g><path d="m185.64 313.013c-4.345-11.988-6.734-24.912-6.734-38.401.101-2.301.129-11.857.123-24.214h-37.666v19.911c0 36.565 17.393 68.982 44.278 89.559v-46.855z" fill="#415050"/></g><g><g><path d="m215.155 239.426c-5.134 0-9.296-4.163-9.296-9.296v-11.958l3.427-5.189-3.427-5.189v-3.088c0-5.134 4.163-9.296 9.296-9.296 5.134 0 9.296 4.163 9.296 9.296v25.425c0 5.133-4.162 9.295-9.296 9.295z" fill="#373c41"/></g></g><g><g><path d="m290.902 239.426c-5.134 0-9.296-4.163-9.296-9.296v-11.958l3.427-5.189-3.427-5.189v-3.088c0-5.134 4.163-9.296 9.296-9.296s9.296 4.163 9.296 9.296v25.425c0 5.133-4.162 9.295-9.296 9.295z" fill="#373c41"/></g></g><g><g><g><path d="m227.403 190.76h-27.111c-5.134 0-9.296-4.162-9.296-9.296 0-5.134 4.162-9.296 9.296-9.296h27.111c5.134 0 9.296 4.162 9.296 9.296 0 5.134-4.162 9.296-9.296 9.296z" fill="#783c28"/></g></g></g><g><g><g><path d="m304.873 190.76h-27.111c-5.134 0-9.296-4.162-9.296-9.296 0-5.134 4.162-9.296 9.296-9.296h27.111c5.134 0 9.296 4.162 9.296 9.296 0 5.134-4.162 9.296-9.296 9.296z" fill="#783c28"/></g></g></g><g><g><path d="m239.022 252.623c-2.311 9.228 1.889 19.281 9.921 22.311 1.616.61 3.345.94 5.142.94s3.526-.33 5.142-.94c8.032-3.03 12.232-13.083 9.921-22.311l-7.661-30.594c-1.929-7.702-12.874-7.702-14.803 0z" fill="#ff965a"/></g></g><path d="m365.702 143.372v-29.368h-187.889v6.723c.271-.131.541-.26.811-.386 10.92-5.076 22.812 5.35 19.106 16.808-.046.141-.091.282-.135.423-2.51 7.986 3.51 16.106 11.881 16.106h54.781c20.178 0 37.753-11.131 46.928-27.586 3.503-6.284 11.329-8.91 17.834-5.838.127.06.253.12.379.181 9.597 4.611 16.536 13.048 19.598 22.937l.28.843z" fill="#783c28"/><g fill="#5a2d19"><path d="m141.363 117.242v62.516.003 56.416c8.257 0 14.95-6.694 14.95-14.95v-66.014c0-14.581 8.206-28.021 21.318-34.399.322-.156.643-.309.963-.458v-3.113h-37.231z"/><path d="m357.41 134.345c-5.46 0-9.427 5.183-7.998 10.453.877 3.235 1.341 6.612 1.341 10.054v66.375c0 8.257 6.693 14.95 14.95 14.95v-93.54c-.001-4.58-3.714-8.292-8.293-8.292z"/></g><g fill="#fff"><path d="m209.285 221.599c-1.893 0-3.427-1.534-3.427-3.427v-10.379c0-1.893 1.534-3.427 3.427-3.427 1.893 0 3.427 1.534 3.427 3.427v10.379c0 1.892-1.534 3.427-3.427 3.427z"/><path d="m285.032 221.599c-1.893 0-3.427-1.534-3.427-3.427v-10.379c0-1.893 1.534-3.427 3.427-3.427 1.893 0 3.427 1.534 3.427 3.427v10.379c0 1.892-1.534 3.427-3.427 3.427z"/></g></g><path d="m323.207 43.993h-102.327l-3.836.039c-21.73.22-39.231 17.898-39.231 39.63v30.343h187.889v-27.517c0-23.469-19.026-42.495-42.495-42.495z" fill="#783c28"/><path d="m220.88 43.993h-37.022c-23.469 0-42.495 19.026-42.495 42.495v31.871l37.231-1.117-.209-30.754c-.001-23.469 19.025-42.495 42.495-42.495z" fill="#5a2d19"/><path d="m282.118 276.663h-57.238l7.031-26.18c1.752-6.523 7.664-11.057 14.418-11.057h14.34c6.754 0 12.667 4.534 14.418 11.057z" fill="#55696e"/><path d="m185.695 359.92c39.85 30.458 95.363 30.935 135.497.693v-45.879c0-14.209-11.519-25.728-25.728-25.728h-84.041c-14.209 0-25.728 11.519-25.728 25.728z" fill="#738c96"/><g><g><path d="m303.264 370.6c-1.58 0-3.13-.64-4.25-1.76-.27-.27-.52-.58-.739-.91-.221-.32-.4-.67-.551-1.03-.149-.36-.27-.74-.35-1.12-.07-.39-.11-.79-.11-1.18 0-1.58.641-3.12 1.75-4.24 1.12-1.12 2.67-1.76 4.25-1.76s3.12.64 4.24 1.76 1.76 2.66 1.76 4.24c0 .39-.04.79-.12 1.18-.079.38-.189.76-.34 1.12-.149.36-.34.71-.55 1.03-.22.33-.47.64-.75.91-1.12 1.12-2.66 1.76-4.24 1.76z" fill="#55696e"/></g><g><path d="m303.262 346.414c-3.313 0-6-2.682-6-5.995v-.01c0-3.313 2.687-6 6-6s6 2.687 6 6-2.687 6.005-6 6.005zm-99.637-.553c-3.313 0-6-2.687-6-6s2.687-6.005 6-6.005 6 2.682 6 5.995v.01c0 3.314-2.687 6-6 6zm95.99-22.853c-1.761 0-3.504-.771-4.689-2.252-.108-.135-.217-.283-.312-.428-1.838-2.757-1.093-6.482 1.664-8.32 2.676-1.785 6.264-1.135 8.154 1.427 1.915 2.58 1.458 6.234-1.072 8.258-1.107.886-2.43 1.315-3.745 1.315zm-92.009-.444c-1.144 0-2.3-.326-3.322-1.008-2.757-1.838-3.502-5.563-1.664-8.32.096-.145.204-.292.312-.428 2.071-2.588 5.847-3.007 8.434-.937 2.531 2.025 2.988 5.683 1.068 8.263-1.166 1.579-2.981 2.43-4.828 2.43zm70.315-7.3h-.01c-3.313 0-6-2.687-6-6s2.687-6 6-6 6.005 2.687 6.005 6-2.682 6-5.995 6zm-24.194 0h-.01c-3.313 0-6-2.687-6-6s2.687-6 6-6 6.005 2.687 6.005 6-2.682 6-5.995 6zm-24.194 0h-.01c-3.313 0-6-2.687-6-6s2.687-6 6-6 6.005 2.687 6.005 6-2.681 6-5.995 6z" fill="#55696e"/></g><g><path d="m203.624 370.09c-1.58 0-3.13-.64-4.24-1.75-1.12-1.12-1.76-2.66-1.76-4.25 0-.39.04-.78.12-1.17.07-.38.189-.76.34-1.12s.34-.71.55-1.04c.221-.33.471-.63.75-.91 1.11-1.12 2.66-1.76 4.24-1.76s3.13.64 4.24 1.76c.279.28.529.58.75.91.22.33.399.68.55 1.04s.27.74.34 1.12c.08.39.12.78.12 1.17 0 1.58-.64 3.13-1.76 4.25-1.11 1.11-2.66 1.75-4.24 1.75z" fill="#55696e"/></g></g><path d="m299.667 38.658h-93.809v1.976c0 25.904 21 46.904 46.904 46.904 25.905 0 46.904-21 46.904-46.904v-1.976z" fill="#e7a52e"/><path d="m262.626 70.365h-19.726l-7.001-70.365h33.727z" fill="#e28424"/></g></g></svg>