<svg id="Layer_1" enable-background="new 0 0 511.615 511.615" height="512" viewBox="0 0 511.615 511.615" width="512" xmlns="http://www.w3.org/2000/svg"><g><g><path d="m255.511 1.615c-98.131 0-158.58 55.352-158.747 55.445 0 0-2.513 3.137-2.983 5.222-3.818 16.948-7.385 39.663-7.385 56.238 0 140.833 118.763 254.972 259.596 254.972 54.231 0 114.568-25.992 154.949-57.243.903-.699 3.769-5.396 3.769-5.396.178-1.087 5.8-23.477 5.8-54.239.001-140.832-114.166-254.999-254.999-254.999z" fill="#9bd069"/><path d="m345.97 366.294c-140.833 0-255-114.167-255-255 0-18.615 2.007-36.753 5.795-54.234-58.645 46.72-96.254 118.747-96.254 199.555 0 62.542 22.516 119.826 59.883 164.187l390.235.002c26.171-31.055 45.108-68.532 54.081-109.95-43.559 34.695-98.723 55.44-158.74 55.44z" fill="#6ec186"/></g><path d="m375.277 336.683-119.032-26.34-45.521 10.104v99.656h215.006v-20.583c0-30.185-20.98-56.315-50.453-62.837z" fill="#8659b9"/><path d="m260.303 296.666c-62.799 0-114.421 17.327-120.392 39.498l-2.228.494c-29.454 6.537-50.412 32.658-50.412 62.828v19.956h122.828c7.09-20.533 26.655-35.213 49.633-35.174h.571c66.81 0 120.969-19.61 120.969-43.801s-54.159-43.801-120.969-43.801z" fill="#634086"/><path d="m253.611 425.043-184.735 5.333c20.367 21.867 44.531 40.15 71.443 53.799l234.947-2.407c25.041-13.342 47.64-30.751 66.878-51.392z" fill="#373c41"/><ellipse cx="260.303" cy="323.22" fill="#f1d333" rx="120.969" ry="43.801"/><g><path d="m179.771 158.404c4.718-.949-75.532-171.228-143.577-157.631s-50.227 196.602 143.577 157.631z" fill="#8659b9"/><path d="m37.408 53.622c-4.415.951-7.741 3.277-9.996 6.627 5.63 43.3 45.298 73.837 88.597 68.203l3.756-.489c-22.389-33.388-58.966-79.377-82.357-74.341z" fill="#f1d333"/></g><path d="m387.38 234.247c0 75.492-58.597 106.221-130.879 106.221s-130.879-30.729-130.879-106.221 58.596-163.167 130.878-163.167 130.88 87.675 130.88 163.167z" fill="#8659b9"/><g><path d="m331.844 158.404c-4.718-.949 75.532-171.228 143.577-157.631s50.227 196.602-143.577 157.631z" fill="#8659b9"/><path d="m372.352 161.036c-2.576-.033 65.536-115.234 101.855-107.414s-1.079 108.702-101.855 107.414z" fill="#f1d333"/><path d="m484.204 60.25-92.353 67.715c-12.375 18.455-20.415 33.06-19.498 33.072 88.523 1.13 128.144-76.576 111.851-100.787z" fill="#e7a52e"/><path d="m27.412 60.25c-16.294 24.211 23.327 101.917 111.851 100.786.917-.012-7.123-14.617-19.498-33.072-50.88-6.396-82.244-39.908-92.353-67.714z" fill="#e7a52e"/><path d="m484.203 60.25c-2.255-3.351-5.581-5.677-9.996-6.628-23.391-5.036-59.968 40.953-82.357 74.342 50.88-6.396 82.244-39.908 92.353-67.714z" fill="#f1d333"/></g><ellipse cx="132.243" cy="216.377" fill="#b1e4f9" rx="42.207" ry="68.126"/><ellipse cx="372.451" cy="216.377" fill="#b1e4f9" rx="42.207" ry="68.126"/><g><g fill="#634086"><path d="m188.4 249.136v-19.828c0-10.003 8.109-18.112 18.112-18.112h19.828c0 20.953-16.986 37.94-37.94 37.94z"/><path d="m320.738 249.136v-19.828c0-10.003-8.109-18.112-18.112-18.112h-19.828c0 20.953 16.986 37.94 37.94 37.94z"/></g><g fill="#373c41"><ellipse cx="206.528" cy="224.559" rx="9.805" ry="3.068"/><ellipse cx="301.768" cy="224.559" rx="9.805" ry="3.068"/></g></g><circle cx="126.035" cy="237.092" fill="#2896ff" r="28.809"/><g><circle cx="126.035" cy="229.335" fill="#fff" r="28.809"/><ellipse cx="128.855" cy="229.335" fill="#373c41" rx="8.822" ry="13.487"/></g><circle cx="375.271" cy="237.092" fill="#2896ff" r="28.809"/><circle cx="375.271" cy="229.335" fill="#fff" r="28.809"/><ellipse cx="372.451" cy="229.335" fill="#373c41" rx="8.822" ry="13.487"/><path d="m314.411 260.363h-115.821c-12.325 0-22.492 9.236-23.958 21.165l1.716 12.371c3.665 8.664 12.244 14.744 22.243 14.744h115.821c9.999 0 18.578-6.079 22.243-14.744l1.715-12.373c-1.467-11.927-11.635-21.163-23.959-21.163z" fill="#fff"/><path d="m308.343 286.087-17.281-17.281-17.281 17.281-17.281-17.281-17.281 17.281-17.281-17.281-17.281 17.281-17.281-17.281-12.725 12.725c-.12.976-.202 1.964-.202 2.973 0 3.346.683 6.532 1.913 9.43l11.013-11.013 17.281 17.281 17.281-17.281 17.281 17.281 17.281-17.281 17.281 17.281 17.281-17.281 17.281 17.281 17.282-17.281 11.012 11.013c1.231-2.897 1.913-6.083 1.913-9.429 0-1.009-.082-1.997-.202-2.974l-12.723-12.724z" fill="#373c41"/><g fill="#634086"><ellipse cx="211.621" cy="141" rx="16.563" ry="22.837"/><ellipse cx="265.824" cy="190.275" rx="12.556" ry="20.921"/><ellipse cx="294.526" cy="124.072" rx="10.525" ry="16.928"/><ellipse cx="239.384" cy="94.532" rx="8.467" ry="12.613"/><ellipse cx="217.959" cy="190.873" rx="6.464" ry="9.653"/><ellipse cx="305.131" cy="168.636" rx="5.518" ry="7.588"/></g><path d="m441.532 412.178h-198.163c5.168 4.73 4.647 14.498-1.553 18.219h199.716c.206 0 .41-.007.612-.021 2.906-3.118 5.735-6.31 8.485-9.573-.252-4.806-4.228-8.625-9.097-8.625z" fill="#f1d333"/><path d="m245.318 412.178h-175.516c-4.852 0-9.088 3.661-9.402 8.503-.003.04-.004.08-.006.121 2.748 3.262 5.576 6.454 8.481 9.574.203.014.408.021.615.021h175.828c5.031 0 9.109-4.078 9.109-9.109.001-5.032-4.078-9.11-9.109-9.11z" fill="#e7a52e"/><path d="m345.232 449.549h-135.026c-15.096 0-27.334 12.238-27.334 27.334v24.229c23.022 6.83 47.402 10.502 72.64 10.502 43.122 0 83.936-10.763 119.755-29.847v-2.185c-.001-16.586-13.448-30.033-30.035-30.033z" fill="#fff"/><path d="m140.661 479.583v4.765c13.673 6.909 28.053 12.623 43.003 17.005v-21.77c0-16.587 13.446-30.034 30.034-30.034h-43.003c-16.587 0-30.034 13.447-30.034 30.034z" fill="#afe6ff"/></g></svg>