<svg xmlns="http://www.w3.org/2000/svg" viewBox="0 0 1419.58689 555.04848">
  <defs>
    <style>
      .cls-1 {
        fill: #a76b37;
      }

      .cls-2 {
        fill: #f2f2f2;
      }

      .cls-3 {
        fill: #fff;
      }
    </style>
  </defs>
  <g id="Calque_1" data-name="Calque 1">
    <path class="cls-1" d="M1019,427c-4.98012.41636-.35241,23.41789-2.72287,22.46371q-8.38091-2.74915-10.0522-22.73951-1.528-18.27621,3.89268-22.75785a14.71133,14.71133,0,0,1,5.31312-3.175,46.37478,46.37478,0,0,1,7.42-1.05128l118.48233-9.9057q7.45941-.62366,11.19908.50174,8.18974,3.05564,9.86782,23.04059,1.52859,18.28342-3.89268,22.75785a14.497,14.497,0,0,1-5.42075,3.184,46.15591,46.15591,0,0,1-7.31241,1.04227Z" transform="translate(-250.41311 -253.92812)"/>
    <path class="cls-2" d="M435.43759,638.677a18.99065,18.99065,0,0,1,2.25552,6.40663,71.89169,71.89169,0,0,1,.35592,8.31822V785.22168q0,16.38849-9.02607,19.23589a38.39549,38.39549,0,0,1-11.39757,1.43169,40.07949,40.07949,0,0,1-10.92566-1.19175,18.872,18.872,0,0,1-6.17868-2.84739,10.75332,10.75332,0,0,1-3.32329-4.751Q396.004,793.056,396.01,784.74978v-79.575q-5.93873,7.36643-17.34029,23.403-11.39757,16.02858-14.48891,20.06772-3.08934,4.04313-4.27509,5.58281-1.18774,1.54767-5.81875,4.27108a19.88771,19.88771,0,0,1-19.71179.24,21.87654,21.87654,0,0,1-6.29466-4.871l-1.89959-2.61544q-4.757-5.92672-18.764-25.2906-14.019-19.35186-15.20076-20.78756v80.04691a69.40441,69.40441,0,0,1-.35592,8.19824,16.94765,16.94765,0,0,1-2.25952,6.05471q-3.56323,6.40663-18.524,6.41463-14.49291,0-18.05215-6.41463A16.83149,16.83149,0,0,1,250.769,793.3a74.59652,74.59652,0,0,1-.35593-8.55017V652.92194a68.47427,68.47427,0,0,1,.35593-8.19026,18.952,18.952,0,0,1,2.25551-6.29465q3.56325-6.17868,18.528-6.17468a34.98267,34.98267,0,0,1,11.04164,1.54367c3.08734,1.03178,5.10691,2.09555,6.0587,3.20731l1.4237,1.4237,53.91648,70.77688q40.37738-53.43659,53.91649-70.53693,4.03713-6.41863,19.11991-6.41463Q432.1103,632.26235,435.43759,638.677Z" transform="translate(-250.41311 -253.92812)"/>
    <path class="cls-2" d="M505.61629,764.08219h73.15637a68.36851,68.36851,0,0,1,8.19425.35992,18.80355,18.80355,0,0,1,6.29465,2.25552q6.41264,3.32329,6.41064,18.524,0,16.62845-8.78613,19.47583-4.04313,1.4277-12.35336,1.4237H484.4768q-16.62845,0-19.47584-9.02207c-.95179-2.53546-1.42369-6.5666-1.42369-12.11741V652.92194q0-12.10542,4.511-16.50848,4.511-4.39106,17.10035-4.39106h93.584a68.36638,68.36638,0,0,1,8.19425.35992,18.98244,18.98244,0,0,1,6.29465,2.25552q6.41264,3.3233,6.41064,18.524,0,16.62846-8.78613,19.47584-4.04313,1.4277-12.35336,1.4237H505.61629v23.99487h47.03a68.73684,68.73684,0,0,1,8.19425.35193,19.19624,19.19624,0,0,1,6.29466,2.25552q6.41262,3.33528,6.41063,18.532,0,16.61644-9.02608,19.47584-4.03713,1.4157-12.34936,1.42369H505.61629Z" transform="translate(-250.41311 -253.92812)"/>
    <path class="cls-2" d="M735.40489,638.437a12.09141,12.09141,0,0,1,6.89053-5.22289,37.89794,37.89794,0,0,1,11.28159-1.43169,39.55905,39.55905,0,0,1,10.80569,1.19175,18.84632,18.84632,0,0,1,6.17468,2.84739,9.35549,9.35549,0,0,1,3.09134,4.99093q1.4217,4.04315,1.4237,12.34936v71.72868q0,31.34931-19.47584,57.00383A70.63433,70.63433,0,0,1,731.1298,801.4902a72.99606,72.99606,0,0,1-33.13292,7.4864,71.31319,71.31319,0,0,1-33.013-7.60637,68.71974,68.71974,0,0,1-24.11085-19.94774,91.444,91.444,0,0,1-19.23589-57.00383V652.92194a71.28519,71.28519,0,0,1,.35592-8.4302,19.01307,19.01307,0,0,1,2.25552-6.29466,10.37739,10.37739,0,0,1,6.41463-4.98294,51.96116,51.96116,0,0,1,24.22683,0,9.52315,9.52315,0,0,1,6.17468,4.98294q2.84939,5.47083,2.84739,14.9648v71.25678a56.71411,56.71411,0,0,0,7.12648,27.55412,26.729,26.729,0,0,0,10.68971,10.68571,33.61042,33.61042,0,0,0,16.8644,4.03914q17.33029,0,25.88647-12.82926,8.55417-12.82525,8.55418-29.68966V651.49824Q733.0334,642.23622,735.40489,638.437Z" transform="translate(-250.41311 -253.92812)"/>
    <path class="cls-2" d="M924.58217,712.78115q14.013,16.62844,14.013,37.288-.4739,23.75493-16.26852,39.78351a51.86,51.86,0,0,1-38.35981,16.03657H821.50018q-16.62845,0-19.47584-9.03007-1.42769-4.03115-1.42369-12.34936V652.69a68.11819,68.11819,0,0,1,.35592-8.31822,19.13217,19.13217,0,0,1,2.25552-6.17468q3.3233-6.40664,18.528-6.41463h59.85122q21.85334,0,36.58019,15.20475a50.54549,50.54549,0,0,1,15.4367,37.05609A49.47024,49.47024,0,0,1,924.58217,712.78115Zm-28.026,34.91254a25.26817,25.26817,0,0,0-1.30772-9.02207,8.37575,8.37575,0,0,0-4.39106-4.751q-4.757-1.90758-13.30116-1.90359-8.55417,0-12.82526-3.32729-4.27709-3.3233-4.27909-13.65308,0-10.32979,4.39507-13.66108,4.39105-3.32329,14.60888-3.3193,9.496,0,11.40156-4.99093a36.29717,36.29717,0,0,0,.71185-8.55017q0-5.93874-3.91917-8.31023-3.91716-2.37549-11.75748-2.37549h-33.2529v90.01277h38.95168Q896.55816,763.84224,896.55615,747.69369Z" transform="translate(-250.41311 -253.92812)"/>
    <path class="cls-2" d="M1002.59919,770.96872h64.6062q7.83432,0,11.40156,1.78362a8.9998,8.9998,0,0,1,4.747,5.58281,43.4844,43.4844,0,0,1,0,20.18768,8.16538,8.16538,0,0,1-4.03514,5.22289q-4.517,2.37549-12.35336,2.37549H981.4597q-16.62845,0-19.47584-9.02207c-.95179-2.53546-1.42369-6.5666-1.42369-12.11741V652.92194a68.47473,68.47473,0,0,1,.35592-8.19026,18.95187,18.95187,0,0,1,2.25552-6.29465q3.3233-6.41863,18.528-6.41463,16.62244,0,19.71179,8.79012,1.18775,4.04315,1.18775,12.34936Z" transform="translate(-250.41311 -253.92812)"/>
    <path class="cls-2" d="M1103.36251,652.92194a68.47473,68.47473,0,0,1,.35592-8.19026,18.95187,18.95187,0,0,1,2.25552-6.29465q3.32329-6.41863,18.528-6.41463,16.62245,0,19.71179,8.79012,1.18774,4.04315,1.18775,12.34936v132.0598a68.80126,68.80126,0,0,1-.35593,8.31022,19.16177,19.16177,0,0,1-2.25551,6.17468q-3.3293,6.41863-18.528,6.41463-16.62845,0-19.47584-9.02207c-.95179-2.53546-1.42369-6.5666-1.42369-12.11741Z" transform="translate(-250.41311 -253.92812)"/>
    <path class="cls-2" d="M1179.18315,631.78245H1311.235q7.60636,0,11.16561,1.78362a8.9867,8.9867,0,0,1,4.751,5.58281,34.08859,34.08859,0,0,1,1.18375,9.97387,32.87152,32.87152,0,0,1-1.18375,9.86189,8.102,8.102,0,0,1-4.03114,5.10291c-2.84739,1.4237-6.89453,2.13554-12.10941,2.13554h-45.36631V785.69357a64.812,64.812,0,0,1-.36793,8.07828,19.28807,19.28807,0,0,1-2.12754,6.05471,10.10347,10.10347,0,0,1-6.30265,4.87095,40.44931,40.44931,0,0,1-11.86947,1.4237,39.194,39.194,0,0,1-11.75749-1.4237,10.00788,10.00788,0,0,1-6.17468-4.87095,19.25681,19.25681,0,0,1-2.14354-6.17469,68.5688,68.5688,0,0,1-.35193-8.19025V666.22309h-45.60625q-7.60638,0-11.16162-1.77562a9.01435,9.01435,0,0,1-4.751-5.5828,34.19371,34.19371,0,0,1-1.18775-9.98187,32.96288,32.96288,0,0,1,1.18775-9.8539,8.11643,8.11643,0,0,1,4.03913-5.10291Q1171.34083,631.77845,1179.18315,631.78245Z" transform="translate(-250.41311 -253.92812)"/>
    <path class="cls-2" d="M1412.23822,629.88686q35.15248,0,61.043,25.41057,25.89047,25.42257,25.89047,63.06653,0,37.648-24.69873,64.1223-24.71472,26.49034-60.811,26.49034-36.10029,0-61.39488-26.13042-25.2906-26.13042-25.2986-62.22671a95.65689,95.65689,0,0,1,7.12648-36.93611,85.64844,85.64844,0,0,1,19.00394-28.85783,89.05863,89.05863,0,0,1,27.31416-18.29209A79.71655,79.71655,0,0,1,1412.23822,629.88686Zm-43.22277,89.54087q0,21.13949,13.65308,34.32067,13.65309,13.18518,30.52148,13.18118,16.8684,0,30.40151-12.82126,13.54511-12.82526,13.54111-34.44064,0-21.60739-13.66109-34.68059-13.65307-13.05322-30.52148-13.06121-16.86838,0-30.4015,13.18118Q1369.01546,698.29224,1369.01545,719.42773Z" transform="translate(-250.41311 -253.92812)"/>
    <path class="cls-2" d="M1630.45645,639.26885a11.32307,11.32307,0,0,1,6.76655-5.58281,37.988,37.988,0,0,1,11.28559-1.42369,40.99333,40.99333,0,0,1,10.92567,1.18375,17.46844,17.46844,0,0,1,6.17468,2.85539,9.66608,9.66608,0,0,1,2.96736,4.98293q1.4277,3.80319,1.4237,12.11741V785.22168a69.8704,69.8704,0,0,1-.35192,8.31022,19.25768,19.25768,0,0,1-2.25552,6.17468q-3.3353,6.41863-18.532,6.41463-9.262,0-12.82127-1.4237a13.91883,13.91883,0,0,1-5.94273-4.511q-53.43658-71.25278-70.305-93.10811v78.14331a69.8704,69.8704,0,0,1-.35192,8.31022,19.25768,19.25768,0,0,1-2.25552,6.17468q-3.33529,6.41863-18.532,6.41463-14.72086,0-18.05215-6.41463a19.07862,19.07862,0,0,1-2.25552-6.40663,73.86367,73.86367,0,0,1-.35192-8.31822V652.45q0-9.02208,2.25552-13.18119a11.32307,11.32307,0,0,1,6.76655-5.58281,48.86952,48.86952,0,0,1,22.92311-.12,14.67579,14.67579,0,0,1,5.82275,2.96737,65.33832,65.33832,0,0,1,5.46284,6.17468q50.10129,68.18143,66.97769,90.02077V652.45Q1628.20093,643.428,1630.45645,639.26885Z" transform="translate(-250.41311 -253.92812)"/>
    <path class="cls-1" d="M1154.11971,339.5659c3.627-1.60888,8.64878-8.39688,10.96422-12.302a4.47428,4.47428,0,0,1,5.31345-2.21855,5.62831,5.62831,0,0,1,3.48485,5.23717c.03653.95669.88577,23.55879-.0194,34.21339-.24827,2.92476-2.32856,5.15142-4.81293,5.15142h-9.75028c-2.27662,0-4.24563-1.87827-4.72789-4.5107l-3.48086-19.00084A5.97065,5.97065,0,0,1,1154.11971,339.5659Z" transform="translate(-250.41311 -253.92812)"/>
    <path class="cls-1" d="M945.441,315.78764c5.65643-2.0425,11.28139-3.94045,16.76861-5.69214-4.32566,3.86307-9.75081,8.2559-16.42592,13.24056-15.64361,10.96592-29.20221,21.35957-38.12733,29.88928a45.02525,45.02525,0,0,0-8.86305,10.04841,17.181,17.181,0,0,0-1.90474,3.67515c-14.346,34.66987-6.08243,79.42555,37.60607,124.45l-12.23547,65.11356h-17.289a7.208,7.208,0,0,1-7.096-8.47018l9.6649-54.30836c-20.27284-21.55174-33.652-43.92917-39.78633-66.55829-5.90558-21.78473-4.77888-43.56352,3.25677-62.98347C877.95754,347.39544,903.00078,331.11067,945.441,315.78764Z" transform="translate(-250.41311 -253.92812)"/>
    <path class="cls-1" d="M1048.90171,259.92639a7.2069,7.2069,0,0,1,7.1054-5.99827c32.05679,0,42.61879,26.19372,43.05247,27.30936a7.2345,7.2345,0,0,1-.43622,6.17174c-11.18106,22.70309-37.18941,19.83747-37.18941,19.83747a7.19239,7.19239,0,0,1-5.37412-2.40135c-5.39368-6.028-8.20149-15.59005-8.34265-28.41906A102.31774,102.31774,0,0,1,1048.90171,259.92639Z" transform="translate(-250.41311 -253.92812)"/>
    <path class="cls-3" d="M1132.85085,312.70929a8.41239,8.41239,0,1,0-8.42852-8.41237A8.42973,8.42973,0,0,0,1132.85085,312.70929Z" transform="translate(-250.41311 -253.92812)"/>
    <path class="cls-1" d="M1183.66748,303.43054a7.21061,7.21061,0,0,0-4.773-3.01361,135.49177,135.49177,0,0,1-17.73291-4.4685c-12.14111-3.943-21.31616-8.91742-26.53467-14.38343-17.4115-18.24054-48.29992-12.113-49.60693-11.8443a7.20447,7.20447,0,0,0-5.67676,6.07819,39.52588,39.52588,0,0,0-23.54407-7.17084,94.17608,94.17608,0,0,0-1.06042,12.25244,7.1671,7.1671,0,0,0-4.20068,1.44812c-.02906.02179-.568.42328-1.49707,1.06763.011,14.51978-20.79248,30.57477-49.03827,37.06012-22.394,5.14172-43.19727,2.82611-54.01276-4.86469-.18317.06586-.36578.12977-.549.19593-42.44025,15.3222-67.48346,31.607-74.43323,48.40448-8.0365,19.42-9.16235,41.19958-3.25421,62.98517,6.13428,22.62909,19.51349,45.00653,39.78632,66.55828l-9.66492,54.30835A7.208,7.208,0,0,0,904.971,556.514h133.97967a7.20724,7.20724,0,0,0,6.93445-5.24487c.18714-.65729,4.93164-10.1681,1.89661-24.01594.75879-8.726-5.06519-15.536-17.26245-16.88293,14.94384-4.38348,17.36133-6.55414,28.83386-15.17572,9.24365-9.18488,16.65454-20.84534,24.40149-33.31909-22.67749-4.11987-52.70166-13.47363-62.58423-32.18122,2.39838,3.44977,18.72864,18.74823,72.10107,17.05506,16.89966-1.938,36.35633-6.848,40.72852-7.74933l-4.3313-46.88208c-3.483.55444-6.86987.96686-10.17859,1.27637.23609-.66034.46448-1.309.68836-1.95075-20.91309,2.00794-25.25708-29.93719-25.25708-29.93719,9.00769,10.6156,23.18969,11.93316,33.22961,10.07568a73.66337,73.66337,0,0,0,21.19006-9.37207,40.55978,40.55978,0,0,1,5.824-3.14709c11.33325-4.25,21.92163-19.06025,23.0918-20.73542a7.20984,7.20984,0,0,0,1.15637-2.69983l5.392-26.66821A7.20361,7.20361,0,0,0,1183.66748,303.43054Z" transform="translate(-250.41311 -253.92812)"/>
    <path class="cls-1" d="M1022.23366,313.58664s-75.06685-18.94388-115.61326,11.46594-36.0212,42.50949-36.0212,42.50949Z" transform="translate(-250.41311 -253.92812)"/>
    <path class="cls-1" d="M946.28633,556.705c-4.67828,0-8.07576-.50958-10.21268-1.53739q-7.60389-3.077-7.60389-21.03122,0-16.41473,5.40631-20.00774a14.05081,14.05081,0,0,1,5.20409-2.43564,45.3775,45.3775,0,0,1,7.00394-.38435h111.30135q7.00733,0,10.40817,1.2826,7.40168,3.33606,7.40841,21.286,0,16.42121-5.40632,20.00774a13.85525,13.85525,0,0,1-5.3052,2.43565,45.16321,45.16321,0,0,1-6.90282.38434Z" transform="translate(-250.41311 -253.92812)"/>
  </g>
  <g id="Calque_2" data-name="Calque 2">
    <path class="cls-3" d="M1132.76513,313.11825a8.41238,8.41238,0,1,0-8.42852-8.41237A8.42972,8.42972,0,0,0,1132.76513,313.11825Z" transform="translate(-250.41311 -253.92812)"/>
    <path class="cls-1" d="M900,494c-10.69116-9.80023-25.56042-36.71387-28.67914-42.4726-4.09192,1.11316-8.35357,2.44391-12.71881,4.04718-36.74426,13.49549-62.8479,39.5976-75.48932,75.48542a6.56653,6.56653,0,0,0,3.21265,8.03119c.67053.34076,14.99768,7.47833,37.80353,7.47912,2.87188,0,5.87469-.113,9.00366-.367,23.7055-1.92383,44.96014-11.12506,63.11316-23.05542C896.83862,518.66663,898.41882,506.6496,900,494Z" transform="translate(-250.41311 -253.92812)"/>
  </g>
</svg>
